<?xml version="1.0" encoding="utf-8"?>
<!-- Generator: Adobe Illustrator 18.1.0, SVG Export Plug-In . SVG Version: 6.00 Build 0)  -->
<svg version="1.2" baseProfile="tiny" id="Layer_1" xmlns="http://www.w3.org/2000/svg" xmlns:xlink="http://www.w3.org/1999/xlink"
	 x="0px" y="0px" viewBox="0 0 792 316" xml:space="preserve">
<g>
	<g>
		<g>
			<path fill="#FAFBFB" d="M787,252.8c0,8.6-3.7,15.5-8.2,20c-2.5,2.9-5.3,5.3-8.2,7.4c-36.8,28.2-106.2,29-118.8,29
				c-86.2,0-178.1-36.8-178.1-37.2c-62.9-21.6-95.2-25.3-109.5-25.3c-3.7,0-5.7,0.4-7.4,0.4c-1.2,0.4-2,0.4-2.5,0.4
				c0,0-1.8,1-2.3,1.5c-32.1,25.1-48.7,30.8-62.6,30.8c-15.9,0-18-4.5-18-9c0-29.8,72.7-40,77.2-40h0.8c0.4,0,0.8,0,0.8-0.4
				l-0.4,0.4c33.5-35.5,62.9-122.1,78.4-168.3c2,1.2,22.5,7.4,22.5,20.4c0,2.9-0.4,5.7-2,9.4c-15.1,31-39.6,84.1-62.5,114.8
				c-6.9,9.4-13.5,15.9-18.8,23.7c23.3,1.2,50.6,6.1,73.1,11c13.1,2.9,25.7,6.1,38,9.4c56,13.5,114.4,27.8,175.2,27.8
				c50.2,0,82.1-8.6,102.9-18c11.8-5.3,21.6-11,28.6-18C786.6,246.2,787,249.5,787,252.8z M334.5,247.9c-9.4,0.8-18,2-25.7,4.1
				c-13.1,3.3-28.5,8-28.2,17.6C280.8,279.1,322.2,258.9,334.5,247.9z"/>
		</g>
		<g>
			<path fill="#FAFBFB" d="M503,202.2c0,2.5-8.7,33.2-23.5,33.2c-5,0-11-3.7-13.2-14c-2.7,3.2-7,9.2-18,9.2
				c-15.2,0-18.5-17-18.5-24.7c0-19,15.5-42.7,36.5-42.7c7.2,0,10.7,2.7,14.5,5c0.7-1,0.7-2.2,1-3c1,0,12.2,6.7,12.2,12.5
				c0,2.7-1.2,5-2.5,7.7h-0.3c-5.5,10-13.5,23.5-13.5,35.5c0,5.5,1.2,8.2,3.5,8.2c4.7,0,13-9,19-27.7c0-0.3,0.7-0.3,1.5-0.3
				C502.5,201.7,503,201.9,503,202.2z M474,183.7c-3-3.2-6.2-5.7-10.2-5.7c-11,0-25.2,16-25.2,30.7c0,7,1.5,16.2,12.5,16.2
				c5.7,0,10.7-3.2,14.7-8.2C465.7,205.4,470.2,192.4,474,183.7z"/>
			<path fill="#FAFBFB" d="M590.7,205.9c-0.2,0.5-1.7,0.7-4,0.7c-2.7,0-6-0.2-9.7-2c-3.5,9.5-12.7,26.2-26.5,26.2
				c-10,0-17.7-4.7-20-18c-3.7,7-11.2,17.7-21.2,17.7c-6.2,0-13.2-6.2-13.2-18.2c0-28,16.2-43.2,19-56.5c0.8,0,11.7,6.7,11.7,12
				c0,10-19,32-19,48.7c0,4.2,0.7,7.5,4.7,7.5c4.7,0,11.7-5,17.5-19c1.2-24.7,14.5-40.5,14.5-40.5c4,0,14,7,13.7,7.2v0.3
				c-6,9.5-15.7,24.2-15.7,38.7c0,6,1.7,10,7.5,10c10,0,17.5-12.7,21.5-20c-3.7-3.2-5.7-9-5.7-15.7c0-6.2,5.5-23.5,13.5-23.5
				c4.7,0,6,3.7,6,9.5c0,10-5.5,25.2-7.5,30.7c2.2,1.7,6.2,2.7,10,2.7c1.2,0,2.2,0,2.7-0.2h0.2v0.2c0,0.3,0,0.3,0.3,0.5
				c0,0.3-0.3,0.3-0.3,0.5V205.9z M573.2,197.7c2-3.7,6.2-17,6.2-22.7c0-2.5-0.8-3.7-2-3.7c-4,0-7,12.2-7,16.5c0,3.2,0.7,6.2,2,8.7
				C572.7,197.2,572.9,196.9,573.2,197.7z"/>
		</g>
	</g>
	<g>
		<path fill="#FAFBFB" d="M297.4,41.8c0,3-1.5,6.2-2.7,9c-7.2,15.5-36,77.5-36,94.4c0,0.8,0,2,0.7,2c1.7,0,8.7-4.7,19.5-22
			c1.2-1.2,2.2-2,2.7-2c0.3,0.3,0.5,0.5,0.5,1.2c0,6.2-18.5,33-25.7,33c-2.5,0-8.5,0-8.5-10.2c0-21,20.7-78.5,31.5-103.9
			c0.5-1.7,1-3.7,1.7-5.5c1-3,2-6.2,2-8.2C284.4,29.5,297.4,35,297.4,41.8z"/>
		<path fill="#FAFBFB" d="M332.3,125.2c-2.5,4.7-5.5,8.7-8.7,12.2c-5.7,6-14.5,12-26.2,12c-17.5,0-23.2-16.7-23.2-27
			c0-22.5,16.2-44.2,33.5-44.2c10.7,0,16.7,7.2,16.7,14.2c0,14-13,26.2-28.5,26.2c-5.2,0-9-1.2-10.7-3c-1,3-1.5,6-1.5,9
			c0,9.2,6.2,18.2,16,18.2c7.2,0,15.7-5.2,20-8.2c10-7.5,10-10.7,11.2-10.7c0.3,0,0.7,0,1,0.3C332.1,124.5,332.3,125,332.3,125.2z
			 M286.1,112c0.5,0.3,1.5,0.3,3.2,0.3c10,0,19.2-10.7,19.2-16.2c0-2.2-1.2-3.2-3.5-3.2c-3.2,0-8,2.2-12.7,8.2
			C290.1,104.2,287.9,108,286.1,112z"/>
		<path fill="#FAFBFB" d="M394.3,119c-0.2,1-3,8.5-9,16.2c-2.7,3.2-8.5,12.7-18.7,12.7c-11.5,0-17.7-12.2-21.2-21.7
			c-22,22-38.5,38-38.5,38.2c-0.7,0-1.5-0.5-1.5-1.2c0-1.7,20.5-27.2,36.2-47c-2-6.7-6-30.7-6-31c0-0.7,12.2-4.5,15.2-4.5
			c1.5,0,1,16.5,1.7,21.7c6.7-8,11.5-14.2,13.2-16.2c1.2-1.5,2.5-3,3.7-4.2c2-2.2,4-5,4.7-6.7c1.2,1.2,2.5,2.2,3.5,3.5
			c1.7,2,3.7,4.2,3.7,7c0,0.7,0.5,3.2-4.2,8.2v0.3L354.5,117c1.2,7,5.2,22.5,12.2,22.5c8.2,0,15.2-8.7,18.5-12.7
			c6.2-7.7,6.2-9,7.2-9c0.3,0,0.7,0,1,0.3C394,118.2,394.3,118.7,394.3,119z"/>
	</g>
	<g>
		<path fill="#FAFBFB" d="M95.7,192.7c-3.3,0.5-6.6,1-10,1.4c-3.4,0.4-6.9,0.6-10.4,0.6c-9.8,0-18.9-1.4-27.4-4.1
			c-8.4-2.7-15.9-6.9-22.3-12.5c-6.4-5.6-11.4-12.5-15.1-20.8C6.9,149.1,5,139.2,5,127.8c0-12.3,2.4-24.5,7.1-36.8
			C16.9,78.8,23.5,67.8,32,58.1c8.4-9.7,18.4-17.6,29.8-23.7c11.4-6.1,23.7-9.2,36.8-9.2c7.4,0,13.1,0.8,17.4,2.2
			c4.2,1.5,7.9,3.5,11,5.9c3.1,2.4,6,5.2,8.6,8.4c2.6,3.1,5.8,6.5,9.6,10c0,0.3-0.6,0.9-1.8,1.8c-1.2,1-2.7,1.9-4.5,2.9
			c-1.8,1-3.7,1.8-5.9,2.7c-2.2,0.8-4.2,1.2-6.1,1.2c-1.1,0-3-0.8-5.7-2.5c-3-2.4-6.6-5.4-10.8-8.8C106,45.7,99.8,44,91.6,44
			c-11.2,0-21.4,2.3-30.8,6.9c-9.4,4.6-17.4,10.8-24.1,18.6C30,77.3,24.8,86.2,20.9,96.1c-3.8,9.9-5.7,20.2-5.7,30.8
			c0,18,5.3,31.4,15.9,40.2c10.6,8.9,25,13.3,43.3,13.3c10.3,0,19.7-2.2,28.2-6.5c8.4-4.4,16.1-10.1,22.9-17.2
			c6.8-7.1,13.1-15,18.8-23.9c5.7-8.8,11-17.8,15.9-26.8c-11.4,0.5-21.6,0.8-30.6,0.8c-9,0-15.4,0-19.2,0c-3-0.3-5.6-0.6-7.8-1
			c-2.2-0.4-4-1.2-5.3-2.4c-1.4-1.2-2.4-3.2-3.3-5.9c-0.8-2.7-1.2-6.4-1.2-11v-3.7c0-0.5,0.1-1.1,0.4-1.6c2.4,1.1,6.4,2,11.8,2.9
			c5.4,0.8,11.7,1.6,18.8,2.2c7.1,0.7,14.6,1.3,22.5,1.8c7.9,0.5,15.7,1.2,23.3,2c7.4-13.9,15.3-26.1,23.9-36.6
			c8.6-10.5,17.2-19.2,25.7-26.1c8.6-6.9,16.8-12.1,24.7-15.5c7.9-3.4,14.7-5.1,20.4-5.1c3.8,0,6.6,0.5,8.4,1.4
			c1.8,1,2.7,5.1,2.7,12.5c0,0.8,0,2.1,0,3.9c0,1.8-0.1,2.9-0.4,3.5c-5.4,8.2-11.6,18.1-18.6,29.8c-6.9,11.7-13.5,24.2-19.8,37.6
			c6.3,0.6,11.3,0.9,15.1,1c3.8,0.1,6.7,0.3,8.6,0.6c1.9,0.3,3.1,0.6,3.7,0.8c0.5,0.3,0.8,0.7,0.8,1.2c0,1.6-2.8,2.6-8.4,2.9
			c-5.6,0.3-13.3,0.7-23.1,1.2c-3.5,8.2-6.9,16.9-10.2,26.1c-3.3,9.3-4.9,17.4-4.9,24.5c0,5.4,1.5,10.1,4.5,14.1
			c3,4,8.2,6.2,15.5,6.7c5.2,0.3,10.1-0.3,14.7-1.8c4.6-1.5,8.6-3.3,11.8-5.3c3.3-2,5.9-3.9,8-5.7c2-1.8,3.2-2.7,3.5-2.7
			c0.5,0,1.1,0.3,1.6,0.8c0.5,0.6,0.8,1.1,0.8,1.6v-0.4c0.3,0-0.5,1.2-2.5,3.7c-1.9,2.4-4.8,5.2-8.8,8.2c-4,3-8.6,5.7-14.1,8
			c-5.5,2.3-11.4,3.5-18,3.5c-3,0-6.3-0.7-9.8-2c-3.5-1.4-6.8-3.3-9.8-5.7c-3-2.5-5.5-5.4-7.6-8.8c-2-3.4-3.1-7.1-3.1-11.2
			c0-9.8,0.8-19,2.5-27.6c1.6-8.6,3.7-17,6.1-25.1c-10.4,0.6-21,1-31.9,1.2c-4.6,7.6-9.6,15.9-14.9,24.9c-5.3,9-11.4,17.6-18.4,25.9
			c-6.9,8.3-14.8,15.8-23.5,22.5C116.4,185.3,106.6,190,95.7,192.7z M238.2,40c-8.7,5.4-16.9,12.7-24.7,21.9
			c-7.8,9.1-15.3,19.1-22.7,30c4.6,0.6,9.1,0.9,13.5,1c4.4,0.1,8.6,0.5,12.7,1c3.3-10.3,6.7-20.1,10.4-29.4
			C231.1,55.2,234.7,47,238.2,40z"/>
	</g>
</g>
</svg>
