<?xml version="1.0" encoding="utf-8"?>
<!-- Generator: Adobe Illustrator 18.0.0, SVG Export Plug-In . SVG Version: 6.00 Build 0)  -->
<!DOCTYPE svg PUBLIC "-//W3C//DTD SVG 1.1//EN" "http://www.w3.org/Graphics/SVG/1.1/DTD/svg11.dtd">
<svg version="1.1" id="Layer_1" xmlns="http://www.w3.org/2000/svg" xmlns:xlink="http://www.w3.org/1999/xlink" x="0px" y="0px"
	 viewBox="-38 252 1354 578.9" enable-background="new -38 252 1354 578.9" xml:space="preserve">
<path fill="#212121" d="M1293.7,671.8c-3.6-8.2-11-14.1-19.7-15.7c-1.7-0.3-3.3-0.5-5-0.5c-7.1,0-14,2.8-19.1,7.9
	c-7.8,7.8-20.3,15.5-38.2,23.6c-39.2,17.7-91.4,26.7-155.2,26.7c-72.4,0-143.3-13.1-212.4-28.9c3.5-1.5,6.8-3.5,10.1-5.8
	c9.6,7,21.7,10.8,35.5,10.8c25.8,0,45.5-17.8,58.2-39.1c0.1,0,0.2,0,0.3,0c3.5,0,6.3-0.2,8.9-0.6c15.1-2.5,20.9-13.1,22.7-17.5
	c0.3-0.8,0.6-1.7,0.9-2.6c1-2.9,1.5-6,1.5-9.1c0-3.8-0.8-7.4-2.3-10.8c-2.2-5.8-6.3-10.6-11.6-13.7c2.7-10.3,4.6-20.9,4.6-30.3
	c0-31.3-19.8-42.4-36.7-42.4c-12.3,0-22,5.7-29.4,14c-10.7-6.3-19-9.1-26.9-9.1c-5.1,0-10.1,1.5-14.4,4.1c-1.8-1.9-3.8-3.7-6-5.5
	c-4.6-3.8-15.3-12.7-27.2-12.7c-12.8,0-23.8,8.9-26.4,21.4c-0.3,1.3-0.9,3-1.7,4.9c-5.2-4.1-15.1-11.1-25.6-11.1
	c-1.3,0-2.7,0.1-4,0.3c-5.7-2-12.6-3.5-21.1-3.5c-18.9,0-36.8,7.3-51.8,20.8c14-26.9,27-53.9,38.2-77.1c3.3-6.9,6.5-13.4,9.4-19.4
	c0.2-0.4,0.3-0.7,0.5-1.1c3.8-8.7,5.5-16.7,5.5-25.9c0-11.6-4.2-28.4-24.4-43c-9.8-7.1-20.5-11.5-25.6-13.6
	c-0.5-0.2-0.9-0.4-1.2-0.5c-3.8-1.9-8-2.9-12.2-2.9c-3.2,0-6.3,0.6-9.3,1.7c-7.7,2.8-13.7,9-16.3,16.7
	c-6.1,18.2-14.6,43.7-24.9,71.8c-2-0.5-4.2-0.8-6.6-0.9c5.9-8.2,8.6-16.6,8.3-25.3c-0.2-13.9-8.2-23.3-12-27.8l-0.1-0.1
	c-2.3-2.9-4.7-5.1-6.3-6.5c-0.4-0.4-0.8-0.7-1.2-1.1c-5.1-5.1-12-7.9-19.1-7.9c-1.8,0-3.5,0.2-5.3,0.5c-7.5,1.5-13.9,6-17.8,12.4
	c-4.6-2.9-9.7-4.2-14.6-4.2c-2.1,0-7.5,0-21.9,4.4c-2.4,0.7-5.9,1.9-9.1,3.1c-0.9,0.3-1.7,0.7-2.5,1c-9.5-7.9-22-12.3-35.4-12.5
	c0.9-1.9,1.8-3.9,2.7-5.9c0.1-0.2,0.2-0.5,0.3-0.7l0.5-1.1c2.4-5.6,6.1-14.1,6.1-24.1c0-9.9-4-24.2-22.9-36.5
	c-2.6-1.7-7.4-4.6-12.9-6.9c-0.8-11.6-4-26.7-18-34.5c-0.3-0.2-0.7-0.4-1-0.5c-6.9-3.4-15.3-5.1-25.7-5.1c-13,0-27.3,3.4-43.6,10.4
	c-14.9,6.4-30,15.8-46.1,28.8c0,0-0.1,0.1-0.1,0.1c-15.2,12.4-30.5,27.9-45.4,46c-11.5,14.1-22.3,29.8-32.7,47.7
	c-7.3-0.6-14.2-1.2-21-1.6c-0.5,0-1.1-0.1-1.6-0.1c0.4-0.2,0.7-0.4,1.1-0.6c3.5-2,7.3-4.2,10.8-7c3.8-2.9,13.2-10.5,13.2-24.2
	c0-7.5-3.2-14.7-8.7-19.9c-4.8-4.4-9.2-9-13-13.5c-5.4-6.6-11.5-12.5-18.2-17.7c-7.3-5.7-15.8-10.2-25.2-13.6
	c-0.2-0.1-0.5-0.2-0.7-0.2c-10.1-3.3-22-4.9-36.5-4.9c-25.5,0-49.8,6.1-72.2,18.1c-21.4,11.5-40.2,26.4-55.8,44.4
	c-15.6,17.8-28,38.3-36.9,61c0,0.1-0.1,0.2-0.1,0.2c-8.8,23-13.3,46.3-13.3,69.1c0,22,3.8,41.7,11.2,58.5c0,0,0,0.1,0.1,0.1
	c7.6,16.9,18.1,31.4,31.3,42.9c13.1,11.5,28.4,20.1,45.6,25.6c16.5,5.2,34.1,7.9,52.5,7.9c6.7,0,13.5-0.4,20-1.2
	c5.9-0.7,11.5-1.5,17-2.4c0.8-0.1,1.6-0.3,2.4-0.5c21.5-5.3,40.7-14.7,57.2-27.7c15.8-12.2,29.9-25.7,42-40.3
	c12.1-14.4,23-29.7,32.3-45.5c5.7-9.7,11.2-18.9,16.3-27.3c0.4,0,0.7,0,1.1,0c-0.5,2.3-0.9,4.6-1.4,6.9c-3,15.2-4.5,32-4.5,49.7
	c0,11.2,2.9,21.9,8.7,31.8c0.1,0.2,0.2,0.3,0.3,0.5c4.9,7.9,10.9,14.9,18,20.8c0.1,0.1,0.3,0.2,0.4,0.3c6.8,5.5,14.5,9.9,22.7,13.2
	c0.2,0.1,0.4,0.2,0.6,0.2c8.8,3.3,17.3,4.9,25.2,4.9c14.1,0,27-2.5,39.5-7.7c10.5-4.4,19.9-9.7,28.6-16.2c7.9-5.9,14.4-12,19.1-18
	c1.4-1.7,2.5-3.2,3.5-4.5c5.2,8.4,14.5,14,25.2,14c8.1,0,15.3-3.5,20.2-9.1c1.6-1.6,7-6.9,12.7-12.5c6.3-6.2,14.3-14.1,23.6-23.3
	c13.8,15,29.2,18.3,40,18.3c2.7,0,5.3-0.2,7.7-0.6c-15.1,32.2-31.4,61.4-48,81.6c-14.4,2-38.8,6.7-62.5,14.6
	c-20.1,6.7-36.5,14.8-48.8,23.9c-24.2,18.1-29.3,38.3-29.3,52c0,18.4,10.6,28.2,16.9,32.4c9.3,6.2,21.7,9.1,39.2,9.1
	c32.6,0,66-15.4,114.8-53.2c0.1,0,0.2,0,0.2,0c1.8-0.2,3.5-0.3,5.9-0.3c16,0,64.1,3.8,166.7,38.9c0.4,0.2,0.9,0.4,1.5,0.7
	c1.5,0.6,3.4,1.4,5.6,2.3c3.9,1.5,10.5,4,19.6,7.2c14.9,5.2,38.8,13.2,68.1,21.2c51.2,14,128.1,30.8,203.3,30.8
	c16.2,0,48.9-0.9,85.6-6.7c52.6-8.3,93.9-23.7,122.6-45.5c6.6-4.8,12.1-9.8,16.9-15.2c13.2-13.6,20.4-31.5,20.4-50.7
	C1298.9,688.5,1297.2,679.7,1293.7,671.8z"/>
<g>
	<g>
		<g>
			<g>
				<g>
					<path fill="#FFFFFF" d="M1263.8,687.4c0,13.9-6,25.1-13.3,32.3c-4,4.7-8.6,8.6-13.3,12c-59.5,45.6-171.6,46.9-192,46.9
						c-139.3,0-287.8-59.5-287.8-60.1c-101.7-34.9-153.9-40.9-177-40.9c-6,0-9.2,0.6-12,0.6c-1.9,0.6-3.2,0.6-4,0.6
						c0,0-2.9,1.6-3.7,2.4c-51.9,40.6-78.7,49.8-101.2,49.8c-25.7,0-29.1-7.3-29.1-14.5c0-48.2,117.5-64.6,124.8-64.6h1.3
						c0.6,0,1.3,0,1.3-0.6l-0.6,0.6c54.1-57.4,101.7-197.3,126.7-272c3.2,1.9,36.4,12,36.4,33c0,4.7-0.6,9.2-3.2,15.2
						c-24.4,50.1-64,135.9-101,185.5c-11.2,15.2-21.8,25.7-30.4,38.3c37.7,1.9,81.8,9.9,118.1,17.8c21.2,4.7,41.5,9.9,61.4,15.2
						c90.5,21.8,184.9,44.9,283.2,44.9c81.1,0,132.7-13.9,166.3-29.1c19.1-8.6,34.9-17.8,46.2-29.1
						C1263.2,676.8,1263.8,682.1,1263.8,687.4z M532.5,679.5c-15.2,1.3-29.1,3.2-41.5,6.6c-21.2,5.3-46.1,12.9-45.6,28.4
						C445.7,729.9,512.6,697.3,532.5,679.5z"/>
				</g>
				<g>
					<path fill="#FFFFFF" d="M804.8,605.7c0,4-14.1,53.7-38,53.7c-8.1,0-17.8-6-21.3-22.6c-4.4,5.2-11.3,14.9-29.1,14.9
						c-24.6,0-29.9-27.5-29.9-39.9c0-30.7,25.1-69,59-69c11.6,0,17.3,4.4,23.4,8.1c1.1-1.6,1.1-3.6,1.6-4.8
						c1.6,0,19.7,10.8,19.7,20.2c0,4.4-1.9,8.1-4,12.4h-0.5c-8.9,16.2-21.8,38-21.8,57.4c0,8.9,1.9,13.3,5.7,13.3
						c7.6,0,21-14.5,30.7-44.8c0-0.5,1.1-0.5,2.4-0.5C804,604.9,804.8,605.2,804.8,605.7z M758,575.8c-4.8-5.2-10-9.2-16.5-9.2
						c-17.8,0-40.7,25.9-40.7,49.6c0,11.3,2.4,26.2,20.2,26.2c9.2,0,17.3-5.2,23.8-13.3C744.6,610.8,751.8,589.8,758,575.8z"/>
					<path fill="#FFFFFF" d="M946.6,611.6c-0.3,0.8-2.7,1.1-6.5,1.1c-4.4,0-9.7-0.3-15.7-3.2c-5.7,15.4-20.5,42.3-42.8,42.3
						c-16.2,0-28.6-7.6-32.3-29.1c-6,11.3-18.1,28.6-34.3,28.6c-10,0-21.3-10-21.3-29.4c0-45.3,26.2-69.8,30.7-91.3
						c1.3,0,18.9,10.8,18.9,19.4c0,16.2-30.7,51.7-30.7,78.7c0,6.8,1.1,12.1,7.6,12.1c7.6,0,18.9-8.1,28.3-30.7
						c1.9-39.9,23.4-65.5,23.4-65.5c6.5,0,22.6,11.3,22.1,11.6v0.5c-9.7,15.4-25.4,39.1-25.4,62.5c0,9.7,2.7,16.2,12.1,16.2
						c16.2,0,28.3-20.5,34.7-32.3c-6-5.2-9.2-14.5-9.2-25.4c0-10,8.9-38,21.8-38c7.6,0,9.7,6,9.7,15.4c0,16.2-8.9,40.7-12.1,49.6
						c3.6,2.7,10,4.4,16.2,4.4c1.9,0,3.6,0,4.4-0.3h0.3v0.3c0,0.5,0,0.5,0.5,0.8c0,0.5-0.5,0.5-0.5,0.8V611.6z M918.3,598.4
						c3.2-6,10-27.5,10-36.7c0-4-1.3-6-3.2-6c-6.5,0-11.3,19.7-11.3,26.7c0,5.2,1.1,10,3.2,14.1
						C917.5,597.6,917.8,597.1,918.3,598.4z"/>
				</g>
			</g>
			<g>
				<path fill="#FFFFFF" d="M472.6,346.4c0,4.8-2.4,10-4.4,14.5C456.6,386,410,486.2,410,513.5c0,1.3,0,3.2,1.1,3.2
					c2.7,0,14.1-7.6,31.5-35.6c1.9-1.9,3.6-3.2,4.4-3.2c0.5,0.5,0.8,0.8,0.8,1.9c0,10-29.9,53.3-41.5,53.3c-4,0-13.7,0-13.7-16.5
					c0-33.9,33.5-126.9,50.9-167.9c0.8-2.7,1.6-6,2.7-8.9c1.6-4.8,3.2-10,3.2-13.3C451.6,326.6,472.6,335.4,472.6,346.4z"/>
				<path fill="#FFFFFF" d="M529,481.2c-4,7.6-8.9,14.1-14.1,19.7c-9.2,9.7-23.4,19.4-42.3,19.4c-28.3,0-37.5-27-37.5-43.6
					c0-36.4,26.2-71.4,54.1-71.4c17.3,0,27,11.6,27,22.9c0,22.6-21,42.3-46.1,42.3c-8.4,0-14.5-1.9-17.3-4.8
					c-1.6,4.8-2.4,9.7-2.4,14.5c0,14.9,10,29.4,25.9,29.4c11.6,0,25.4-8.4,32.3-13.3c16.2-12.1,16.2-17.3,18.1-17.3
					c0.5,0,1.1,0,1.6,0.5C528.6,480.1,529,480.9,529,481.2z M454.3,459.9c0.8,0.5,2.4,0.5,5.2,0.5c16.2,0,31-17.3,31-26.2
					c0-3.6-1.9-5.2-5.7-5.2c-5.2,0-12.9,3.6-20.5,13.3C460.8,447.3,457.2,453.4,454.3,459.9z"/>
				<path fill="#FFFFFF" d="M629.2,471.2c-0.3,1.6-4.8,13.7-14.5,26.2c-4.4,5.2-13.7,20.5-30.2,20.5c-18.6,0-28.6-19.7-34.3-35.1
					c-35.6,35.6-62.2,61.4-62.2,61.7c-1.1,0-2.4-0.8-2.4-1.9c0-2.7,33.1-44,58.5-76c-3.2-10.8-9.7-49.6-9.7-50.1
					c0-1.1,19.7-7.3,24.6-7.3c2.4,0,1.6,26.7,2.7,35.1c10.8-12.9,18.6-22.9,21.3-26.2c1.9-2.4,4-4.8,6-6.8c3.2-3.6,6.5-8.1,7.6-10.8
					c1.9,1.9,4,3.6,5.7,5.7c2.7,3.2,6,6.8,6,11.3c0,1.1,0.8,5.2-6.8,13.3v0.5L564.8,468c1.9,11.3,8.4,36.4,19.7,36.4
					c13.3,0,24.6-14.1,29.9-20.5c10-12.4,10-14.5,11.6-14.5c0.5,0,1.1,0,1.6,0.5C628.7,469.9,629.2,470.7,629.2,471.2z"/>
			</g>
			<g>
				<path fill="#FFFFFF" d="M146.6,590.3c-5.3,0.8-10.7,1.6-16.2,2.3c-5.5,0.6-11.2,1-16.8,1c-15.8,0-30.5-2.3-44.3-6.6
					c-13.6-4.4-25.7-11.2-36-20.2c-10.3-9.1-18.4-20.2-24.4-33.6C3.1,519.8,0,503.8,0,485.4c0-19.9,3.9-39.6,11.5-59.5
					c7.8-19.7,18.4-37.5,32.2-53.2c13.6-15.7,29.7-28.4,48.2-38.3s38.3-14.9,59.5-14.9c12,0,21.2,1.3,28.1,3.6
					c6.8,2.4,12.8,5.7,17.8,9.5c5,3.9,9.7,8.4,13.9,13.6c4.2,5,9.4,10.5,15.5,16.2c0,0.5-1,1.5-2.9,2.9c-1.9,1.6-4.4,3.1-7.3,4.7
					c-2.9,1.6-6,2.9-9.5,4.4c-3.6,1.3-6.8,1.9-9.9,1.9c-1.8,0-4.8-1.3-9.2-4c-4.8-3.9-10.7-8.7-17.5-14.2
					c-7.1-5.3-17.1-8.1-30.4-8.1c-18.1,0-34.6,3.7-49.8,11.2c-15.2,7.4-28.1,17.5-38.9,30.1c-10.8,12.6-19.2,27-25.5,43
					c-6.1,16-9.2,32.6-9.2,49.8c0,29.1,8.6,50.7,25.7,65c17.1,14.4,40.4,21.5,70,21.5c16.6,0,31.8-3.6,45.6-10.5
					c13.6-7.1,26-16.3,37-27.8c11-11.5,21.2-24.2,30.4-38.6c9.2-14.2,17.8-28.8,25.7-43.3c-18.4,0.8-34.9,1.3-49.5,1.3s-24.9,0-31,0
					c-4.8-0.5-9.1-1-12.6-1.6s-6.5-1.9-8.6-3.9c-2.3-1.9-3.9-5.2-5.3-9.5c-1.3-4.4-1.9-10.3-1.9-17.8v-6c0-0.8,0.2-1.8,0.6-2.6
					c3.9,1.8,10.3,3.2,19.1,4.7c8.7,1.3,18.9,2.6,30.4,3.6c11.5,1.1,23.6,2.1,36.4,2.9c12.8,0.8,25.4,1.9,37.7,3.2
					c12-22.5,24.7-42.2,38.6-59.2c13.9-17,27.8-31,41.5-42.2c13.9-11.2,27.2-19.6,39.9-25.1s23.8-8.2,33-8.2
					c6.1,0,10.7,0.8,13.6,2.3c2.9,1.6,4.4,8.2,4.4,20.2c0,1.3,0,3.4,0,6.3c0,2.9-0.2,4.7-0.6,5.7c-8.7,13.3-18.7,29.3-30.1,48.2
					c-11.2,18.9-21.8,39.1-32,60.8c10.2,1,18.3,1.5,24.4,1.6s10.8,0.5,13.9,1c3.1,0.5,5,1,6,1.3c0.8,0.5,1.3,1.1,1.3,1.9
					c0,2.6-4.5,4.2-13.6,4.7c-9.1,0.5-21.5,1.1-37.3,1.9c-5.7,13.3-11.2,27.3-16.5,42.2c-5.3,15-7.9,28.1-7.9,39.6
					c0,8.7,2.4,16.3,7.3,22.8c4.8,6.5,13.3,10,25.1,10.8c8.4,0.5,16.3-0.5,23.8-2.9c7.4-2.4,13.9-5.3,19.1-8.6
					c5.3-3.2,9.5-6.3,12.9-9.2c3.2-2.9,5.2-4.4,5.7-4.4c0.8,0,1.8,0.5,2.6,1.3c0.8,1,1.3,1.8,1.3,2.6v-0.6c0.5,0-0.8,1.9-4,6
					c-3.1,3.9-7.8,8.4-14.2,13.3c-6.5,4.8-13.9,9.2-22.8,12.9s-18.4,5.7-29.1,5.7c-4.8,0-10.2-1.1-15.8-3.2
					c-5.7-2.3-11-5.3-15.8-9.2c-4.8-4-8.9-8.7-12.3-14.2c-3.2-5.5-5-11.5-5-18.1c0-15.8,1.3-30.7,4-44.6c2.6-13.9,6-27.5,9.9-40.6
					c-16.8,1-33.9,1.6-51.6,1.9c-7.4,12.3-15.5,25.7-24.1,40.2c-8.6,14.5-18.4,28.4-29.7,41.9c-11.2,13.4-23.9,25.5-38,36.4
					C180,578.4,164.2,585.9,146.6,590.3z M376.9,343.5c-14.1,8.7-27.3,20.5-39.9,35.4c-12.6,14.7-24.7,30.9-36.7,48.5
					c7.4,1,14.7,1.5,21.8,1.6c7.1,0.2,13.9,0.8,20.5,1.6c5.3-16.6,10.8-32.5,16.8-47.5C365.4,368.1,371.2,354.8,376.9,343.5z"/>
			</g>
		</g>
	</g>
</g>
</svg>
