<?xml version="1.0" encoding="utf-8"?>
<!-- Generator: Adobe Illustrator 18.1.0, SVG Export Plug-In . SVG Version: 6.00 Build 0)  -->
<svg version="1.1" id="Layer_1" xmlns="http://www.w3.org/2000/svg" xmlns:xlink="http://www.w3.org/1999/xlink" x="0px" y="0px"
	 viewBox="0 0 851 316" enable-background="new 0 0 851 316" xml:space="preserve">
<g>
	<g>
		<g>
			<path fill="#212121" d="M834.4,257.1c0,9.2-3.9,16.4-8.5,20.9c-2.6,3.3-5.2,5.2-8.5,7.9C778.8,315.3,706.2,316,693.1,316
				c-90.3,0-186.5-38.6-186.5-38.6c-66.1-22.9-99.4-26.2-114.5-26.2c-3.9,0-5.9,0.7-7.9,0.7c-1.3,0.7-2,0.7-2.6,0.7
				c0,0-2,1.3-2.6,1.3c-33.4,26.2-51,32.1-65.4,32.1c-16.4,0-19-4.6-19-9.2c0-31.4,75.9-41.9,80.5-41.9h0.7c0.7,0,0.7,0,0.7-0.7
				l-0.7,0.7c36.6-37.9,67.4-128.2,83.7-176.6c2,1.3,23.6,7.9,23.6,21.6c0,3.3-0.7,5.9-2,9.8c-15.7,32.7-41.2,88.3-65.4,119.7
				c-7.2,9.8-14.4,16.4-19.6,24.9c24.2,1.3,53,6.5,76.5,11.8c13.7,3.3,26.8,6.5,39.9,9.8c58.2,14.4,119.7,28.8,183.2,28.8
				c52.3,0,85.7-9.2,108-19c12.4-5.2,22.9-11.8,30.1-19C833.7,250.6,834.4,253.8,834.4,257.1z M361.4,251.9c-9.8,0.7-19,2-26.8,4.6
				c-13.7,3.3-30.1,8.5-29.4,18.3C305.1,284.6,348.3,263.7,361.4,251.9z"/>
		</g>
		<g>
			<path fill="#212121" d="M537.4,204.1c0,2.6-9.2,34.7-24.9,34.7c-5.2,0-11.8-3.9-13.7-14.4c-2.6,3.3-7.2,9.8-19,9.8
				c-15.7,0-19.6-17.7-19.6-26.2c0-19.6,16.4-44.5,37.9-44.5c7.9,0,11.1,2.6,15,5.2c0.7-1.3,0.7-2.6,1.3-3.3
				c1.3,0,13.1,7.2,13.1,13.1c0,2.6-1.3,5.2-2.6,7.9l0,0c-5.9,10.5-14.4,24.9-14.4,37.3c0,5.9,1.3,8.5,3.9,8.5
				c5.2,0,13.7-9.2,19.6-28.8c0,0,0.7,0,1.3,0C536.7,203.5,537.4,204.1,537.4,204.1z M507.3,185.2c-3.3-3.3-6.5-5.9-10.5-5.9
				c-11.8,0-26.2,17-26.2,32.1c0,7.2,1.3,17,13.1,17c5.9,0,11.1-3.3,15.7-8.5C498.8,207.4,503.4,194.3,507.3,185.2z"/>
			<path fill="#212121" d="M629,208c0,0.7-2,0.7-3.9,0.7c-2.6,0-6.5,0-10.5-2c-3.9,9.8-13.1,27.5-27.5,27.5
				c-10.5,0-18.3-5.2-20.9-19c-3.9,7.2-11.8,18.3-22.2,18.3c-6.5,0-13.7-6.5-13.7-19c0-29.4,17-45.1,19.6-58.9
				c0.7,0,12.4,7.2,12.4,12.4c0,10.5-19.6,33.4-19.6,51c0,4.6,0.7,7.9,5.2,7.9c5.2,0,12.4-5.2,18.3-19.6c1.3-26.2,15-42.5,15-42.5
				c3.9,0,14.4,7.2,14.4,7.9l0,0c-6.5,9.8-16.4,25.5-16.4,40.6c0,6.5,2,10.5,7.9,10.5c10.5,0,18.3-13.1,22.2-20.9
				c-3.9-3.3-5.9-9.2-5.9-16.4c0-6.5,5.9-24.9,14.4-24.9c5.2,0,6.5,3.9,6.5,9.8c0,10.5-5.9,26.2-7.9,32.1c2.6,2,6.5,2.6,10.5,2.6
				c1.3,0,2.6,0,2.6,0l0,0l0,0c0,0,0,0,0,0.7C629.6,207.4,629,207.4,629,208L629,208z M610.7,199.5c2-3.9,6.5-17.7,6.5-23.6
				c0-2.6-0.7-3.9-2-3.9c-3.9,0-7.2,13.1-7.2,17c0,3.3,0.7,6.5,2,9.2C610,198.9,610.7,198.9,610.7,199.5z"/>
		</g>
	</g>
	<g>
		<path fill="#212121" d="M322.1,36.6c0,3.3-1.3,6.5-2.6,9.2c-7.9,16.4-37.9,81.1-37.9,98.8c0,0.7,0,2,0.7,2c2,0,9.2-5.2,20.3-22.9
			c1.3-1.3,2.6-2,2.6-2s0.7,0.7,0.7,1.3c0,6.5-19.6,34.7-26.8,34.7c-2.6,0-9.2,0-9.2-10.5c0-22.2,21.6-81.8,32.7-108.6
			c0.7-2,1.3-3.9,2-5.9c1.3-3.3,2-6.5,2-8.5C309,23.6,322.1,29.4,322.1,36.6z"/>
		<path fill="#212121" d="M358.8,123.7c-2.6,5.2-5.9,9.2-9.2,13.1c-5.9,6.5-15,12.4-27.5,12.4c-18.3,0-24.2-17.7-24.2-28.1
			c0-23.6,17-46.5,35.3-46.5c11.1,0,17.7,7.9,17.7,15c0,14.4-13.7,27.5-30.1,27.5c-5.2,0-9.2-1.3-11.1-3.3c-1.3,3.3-1.3,6.5-1.3,9.2
			c0,9.8,6.5,19,17,19c7.9,0,16.4-5.2,20.9-8.5c10.5-7.9,10.5-11.1,11.8-11.1c0,0,0.7,0,1.3,0C358.8,123,358.8,123.7,358.8,123.7z
			 M310.4,109.9c0.7,0,1.3,0,3.3,0c10.5,0,20.3-11.1,20.3-17c0-2.6-1.3-3.3-3.9-3.3c-3.3,0-8.5,2.6-13.1,8.5
			C314.9,102.1,312.3,106,310.4,109.9z"/>
		<path fill="#212121" d="M423.5,117.1c0,1.3-3.3,9.2-9.2,17c-2.6,3.3-9.2,13.1-19.6,13.1c-11.8,0-18.3-13.1-22.2-22.9
			c-22.9,22.9-40.6,39.9-40.6,39.9c-0.7,0-1.3-0.7-1.3-1.3c0-2,21.6-28.8,37.9-49.1c-2-7.2-6.5-32.1-6.5-32.7
			c0-0.7,13.1-4.6,15.7-4.6c1.3,0,1.3,17,2,22.9c7.2-8.5,11.8-15,13.7-17c1.3-1.3,2.6-3.3,3.9-4.6c2-2.6,3.9-5.2,5.2-7.2
			c1.3,1.3,2.6,2.6,3.9,3.9c2,2,3.9,4.6,3.9,7.2c0,0.7,0.7,3.3-4.6,8.5l0,0l-23.6,23.6c1.3,7.2,5.2,23.6,13.1,23.6
			c8.5,0,15.7-9.2,19.6-13.1c6.5-7.9,6.5-9.2,7.9-9.2c0,0,0.7,0,1.3,0C423.5,116.5,423.5,117.1,423.5,117.1z"/>
	</g>
	<g>
		<path fill="#212121" d="M111.5,194.3c-3.3,0.7-7.2,1.3-10.5,1.3c-3.9,0.7-7.2,0.7-11.1,0.7c-10.5,0-19.6-1.3-28.8-4.6
			c-8.5-2.6-16.4-7.2-23.6-13.1c-6.5-5.9-11.8-13.1-15.7-21.6c-3.9-8.5-5.9-19-5.9-30.7c0-13.1,2.6-25.5,7.2-38.6
			C28.4,74.6,34.9,63.5,44.1,53c8.5-9.8,19-18.3,31.4-24.9c11.8-6.5,24.9-9.8,38.6-9.8c7.9,0,13.7,0.7,18.3,2.6
			c4.6,1.3,8.5,3.9,11.8,5.9c3.3,2.6,6.5,5.2,9.2,8.5c2.6,3.3,5.9,6.5,9.8,10.5c0,0-0.7,0.7-2,2c-1.3,1.3-2.6,2-4.6,3.3
			c-2,1.3-3.9,2-5.9,2.6c-2,0.7-4.6,1.3-6.5,1.3c-1.3,0-3.3-0.7-5.9-2.6c-3.3-2.6-7.2-5.9-11.1-9.2c-4.6-3.3-11.1-5.2-19.6-5.2
			c-11.8,0-22.2,2.6-32.1,7.2S57.2,56.3,50,64.8c-7.2,7.9-12.4,17.7-16.4,27.5c-3.9,10.5-5.9,20.9-5.9,32.1c0,19,5.2,32.7,16.4,41.9
			c11.1,9.2,26.2,13.7,45.1,13.7c11.1,0,20.9-2,29.4-6.5c8.5-4.6,17-10.5,24.2-17.7c7.2-7.2,13.7-15.7,19.6-24.9
			s11.8-18.3,16.4-28.1c-11.8,2-22.9,2-32.1,2c-9.2,0-16.4,0-20.3,0c-3.3,0-5.9-0.7-7.9-1.3c-2-0.7-3.9-1.3-5.2-2.6
			c-1.3-1.3-2.6-3.3-3.3-5.9c-0.7-2.6-1.3-6.5-1.3-11.8v-3.9c0-0.7,0-1.3,0.7-2c2.6,1.3,6.5,2,12.4,3.3c5.9,0.7,12.4,2,19.6,2.6
			c7.2,0.7,15,1.3,23.6,2c8.5,0.7,16.4,1.3,24.2,2c7.9-14.4,15.7-27.5,24.9-37.9c9.2-11.1,17.7-20.3,26.8-27.5s17.7-12.4,26.2-16.4
			C275,2,281.6,0,288.1,0c3.9,0,7.2,0.7,8.5,1.3c2,1.3,2.6,5.2,2.6,13.1c0,0.7,0,2,0,3.9s0,3.3-0.7,3.9c-5.9,8.5-12.4,19-19.6,31.4
			S264.6,79.2,258,92.9c6.5,0.7,11.8,0.7,15.7,1.3c3.9,0,7.2,0.7,9.2,0.7s3.3,0.7,3.9,0.7s0.7,0.7,0.7,1.3c0,2-2.6,2.6-8.5,3.3
			c-5.9,0-13.7,0.7-24.2,1.3c-3.9,8.5-7.2,17.7-10.5,27.5s-5.2,18.3-5.2,25.5c0,5.9,1.3,10.5,4.6,15c3.3,3.9,8.5,6.5,16.4,7.2
			c5.2,0,10.5-0.7,15.7-2c4.6-1.3,9.2-3.3,12.4-5.2c3.3-2,5.9-3.9,8.5-5.9c2-2,3.3-2.6,3.9-2.6s1.3,0,2,0.7c0.7,0.7,0.7,1.3,0.7,2
			v-0.7c0,0-0.7,1.3-2.6,3.9c-2,2.6-5.2,5.2-9.2,8.5c-3.9,3.3-9.2,5.9-15,8.5c-5.9,2.6-11.8,3.9-19,3.9c-3.3,0-6.5-0.7-10.5-2
			c-3.9-1.3-7.2-3.3-10.5-5.9s-5.9-5.9-7.9-9.2c-2-3.3-3.3-7.2-3.3-11.8c0-10.5,0.7-19.6,2.6-28.8c2-9.2,3.9-17.7,6.5-26.2
			c-11.1,0.7-22.2,1.3-33.4,1.3c-4.6,7.9-9.8,16.4-15.7,26.2c-5.2,9.2-11.8,18.3-19,26.8c-7.2,8.5-15.7,16.4-24.9,23.6
			C133.1,186.5,122.6,191.7,111.5,194.3z M260.6,34.7c-9.2,5.9-17.7,13.1-26.2,22.9c-7.9,9.8-15.7,20.3-23.6,31.4
			c4.6,0.7,9.8,0.7,14.4,1.3c4.6,0,9.2,0.7,13.1,1.3c3.3-11.1,7.2-20.9,11.1-30.7C252.8,50.4,256.7,41.9,260.6,34.7z"/>
	</g>
</g>
</svg>
