<?xml version="1.0" encoding="utf-8"?>
<!-- Generator: Adobe Illustrator 18.1.0, SVG Export Plug-In . SVG Version: 6.00 Build 0)  -->
<svg version="1.2" baseProfile="tiny" id="Layer_1" xmlns="http://www.w3.org/2000/svg" xmlns:xlink="http://www.w3.org/1999/xlink"
	 x="0px" y="0px" viewBox="0 0 128 48.3" xml:space="preserve">
<g>
	<g>
		<g>
			<path fill="#FAFBFB" d="M126.5,39.3c0,1.4-0.6,2.5-1.3,3.2c-0.4,0.5-0.8,0.8-1.3,1.2c-5.9,4.5-17,4.6-19,4.6
				c-13.8,0-28.5-5.9-28.5-5.9c-10.1-3.5-15.2-4-17.5-4c-0.6,0-0.9,0.1-1.2,0.1c-0.2,0.1-0.3,0.1-0.4,0.1c0,0-0.3,0.2-0.4,0.2
				c-5.1,4-7.8,4.9-10,4.9c-2.5,0-2.9-0.7-2.9-1.4c0-4.8,11.6-6.4,12.3-6.4h0.1c0.1,0,0.1,0,0.1-0.1l-0.1,0.1
				C62,30.1,66.7,16.3,69.2,8.9c0.3,0.2,3.6,1.2,3.6,3.3c0,0.5-0.1,0.9-0.3,1.5c-2.4,5-6.3,13.5-10,18.3c-1.1,1.5-2.2,2.5-3,3.8
				c3.7,0.2,8.1,1,11.7,1.8c2.1,0.5,4.1,1,6.1,1.5c8.9,2.2,18.3,4.4,28,4.4c8,0,13.1-1.4,16.5-2.9c1.9-0.8,3.5-1.8,4.6-2.9
				C126.4,38.3,126.5,38.8,126.5,39.3z M54.2,38.5c-1.5,0.1-2.9,0.3-4.1,0.7c-2.1,0.5-4.6,1.3-4.5,2.8
				C45.6,43.5,52.2,40.3,54.2,38.5z"/>
		</g>
		<g>
			<path fill="#FAFBFB" d="M81.1,31.2c0,0.4-1.4,5.3-3.8,5.3c-0.8,0-1.8-0.6-2.1-2.2c-0.4,0.5-1.1,1.5-2.9,1.5c-2.4,0-3-2.7-3-4
				c0-3,2.5-6.8,5.8-6.8c1.2,0,1.7,0.4,2.3,0.8c0.1-0.2,0.1-0.4,0.2-0.5c0.2,0,2,1.1,2,2c0,0.4-0.2,0.8-0.4,1.2h0
				c-0.9,1.6-2.2,3.8-2.2,5.7c0,0.9,0.2,1.3,0.6,1.3c0.8,0,2.1-1.4,3-4.4c0,0,0.1,0,0.2,0C81,31.1,81.1,31.2,81.1,31.2z M76.5,28.3
				c-0.5-0.5-1-0.9-1.6-0.9c-1.8,0-4,2.6-4,4.9c0,1.1,0.2,2.6,2,2.6c0.9,0,1.7-0.5,2.4-1.3C75.2,31.7,75.9,29.7,76.5,28.3z"/>
			<path fill="#FAFBFB" d="M95.1,31.8c0,0.1-0.3,0.1-0.6,0.1c-0.4,0-1,0-1.6-0.3c-0.6,1.5-2,4.2-4.2,4.2c-1.6,0-2.8-0.8-3.2-2.9
				c-0.6,1.1-1.8,2.8-3.4,2.8c-1,0-2.1-1-2.1-2.9c0-4.5,2.6-6.9,3-9c0.1,0,1.9,1.1,1.9,1.9c0,1.6-3,5.1-3,7.8c0,0.7,0.1,1.2,0.8,1.2
				c0.8,0,1.9-0.8,2.8-3c0.2-4,2.3-6.5,2.3-6.5c0.6,0,2.2,1.1,2.2,1.2v0c-1,1.5-2.5,3.9-2.5,6.2c0,1,0.3,1.6,1.2,1.6
				c1.6,0,2.8-2,3.4-3.2c-0.6-0.5-0.9-1.4-0.9-2.5c0-1,0.9-3.8,2.2-3.8c0.8,0,1,0.6,1,1.5c0,1.6-0.9,4-1.2,4.9
				c0.4,0.3,1,0.4,1.6,0.4c0.2,0,0.4,0,0.4,0h0v0c0,0,0,0,0,0.1C95.2,31.7,95.1,31.7,95.1,31.8L95.1,31.8z M92.3,30.5
				c0.3-0.6,1-2.7,1-3.6c0-0.4-0.1-0.6-0.3-0.6c-0.6,0-1.1,2-1.1,2.6c0,0.5,0.1,1,0.3,1.4C92.2,30.4,92.3,30.4,92.3,30.5z"/>
		</g>
	</g>
	<g>
		<path fill="#FAFBFB" d="M48.2,5.6c0,0.5-0.2,1-0.4,1.4C46.6,9.5,42,19.4,42,22.1c0,0.1,0,0.3,0.1,0.3c0.3,0,1.4-0.8,3.1-3.5
			c0.2-0.2,0.4-0.3,0.4-0.3c0,0,0.1,0.1,0.1,0.2c0,1-3,5.3-4.1,5.3c-0.4,0-1.4,0-1.4-1.6c0-3.4,3.3-12.5,5-16.6
			c0.1-0.3,0.2-0.6,0.3-0.9c0.2-0.5,0.3-1,0.3-1.3C46.2,3.6,48.2,4.5,48.2,5.6z"/>
		<path fill="#FAFBFB" d="M53.8,18.9c-0.4,0.8-0.9,1.4-1.4,2c-0.9,1-2.3,1.9-4.2,1.9c-2.8,0-3.7-2.7-3.7-4.3c0-3.6,2.6-7.1,5.4-7.1
			c1.7,0,2.7,1.2,2.7,2.3c0,2.2-2.1,4.2-4.6,4.2c-0.8,0-1.4-0.2-1.7-0.5c-0.2,0.5-0.2,1-0.2,1.4c0,1.5,1,2.9,2.6,2.9
			c1.2,0,2.5-0.8,3.2-1.3c1.6-1.2,1.6-1.7,1.8-1.7c0,0,0.1,0,0.2,0C53.8,18.8,53.8,18.9,53.8,18.9z M46.4,16.8c0.1,0,0.2,0,0.5,0
			c1.6,0,3.1-1.7,3.1-2.6c0-0.4-0.2-0.5-0.6-0.5c-0.5,0-1.3,0.4-2,1.3C47.1,15.6,46.7,16.2,46.4,16.8z"/>
		<path fill="#FAFBFB" d="M63.7,17.9c0,0.2-0.5,1.4-1.4,2.6c-0.4,0.5-1.4,2-3,2c-1.8,0-2.8-2-3.4-3.5c-3.5,3.5-6.2,6.1-6.2,6.1
			c-0.1,0-0.2-0.1-0.2-0.2c0-0.3,3.3-4.4,5.8-7.5c-0.3-1.1-1-4.9-1-5c0-0.1,2-0.7,2.4-0.7c0.2,0,0.2,2.6,0.3,3.5
			c1.1-1.3,1.8-2.3,2.1-2.6c0.2-0.2,0.4-0.5,0.6-0.7c0.3-0.4,0.6-0.8,0.8-1.1c0.2,0.2,0.4,0.4,0.6,0.6c0.3,0.3,0.6,0.7,0.6,1.1
			c0,0.1,0.1,0.5-0.7,1.3v0l-3.6,3.6c0.2,1.1,0.8,3.6,2,3.6c1.3,0,2.4-1.4,3-2c1-1.2,1-1.4,1.2-1.4c0,0,0.1,0,0.2,0
			C63.7,17.8,63.7,17.9,63.7,17.9z"/>
	</g>
	<g>
		<path fill="#FAFBFB" d="M16,29.7c-0.5,0.1-1.1,0.2-1.6,0.2C13.8,30,13.3,30,12.7,30c-1.6,0-3-0.2-4.4-0.7c-1.3-0.4-2.5-1.1-3.6-2
			c-1-0.9-1.8-2-2.4-3.3c-0.6-1.3-0.9-2.9-0.9-4.7c0-2,0.4-3.9,1.1-5.9c0.8-2,1.8-3.7,3.2-5.3c1.3-1.5,2.9-2.8,4.8-3.8
			c1.8-1,3.8-1.5,5.9-1.5c1.2,0,2.1,0.1,2.8,0.4c0.7,0.2,1.3,0.6,1.8,0.9c0.5,0.4,1,0.8,1.4,1.3c0.4,0.5,0.9,1,1.5,1.6
			c0,0-0.1,0.1-0.3,0.3c-0.2,0.2-0.4,0.3-0.7,0.5c-0.3,0.2-0.6,0.3-0.9,0.4c-0.3,0.1-0.7,0.2-1,0.2c-0.2,0-0.5-0.1-0.9-0.4
			c-0.5-0.4-1.1-0.9-1.7-1.4c-0.7-0.5-1.7-0.8-3-0.8c-1.8,0-3.4,0.4-4.9,1.1c-1.5,0.7-2.8,1.7-3.9,3c-1.1,1.2-1.9,2.7-2.5,4.2
			c-0.6,1.6-0.9,3.2-0.9,4.9c0,2.9,0.8,5,2.5,6.4c1.7,1.4,4,2.1,6.9,2.1c1.7,0,3.2-0.3,4.5-1c1.3-0.7,2.6-1.6,3.7-2.7
			c1.1-1.1,2.1-2.4,3-3.8c0.9-1.4,1.8-2.8,2.5-4.3C24.5,16,22.8,16,21.4,16c-1.4,0-2.5,0-3.1,0c-0.5,0-0.9-0.1-1.2-0.2
			c-0.3-0.1-0.6-0.2-0.8-0.4c-0.2-0.2-0.4-0.5-0.5-0.9c-0.1-0.4-0.2-1-0.2-1.8v-0.6c0-0.1,0-0.2,0.1-0.3c0.4,0.2,1,0.3,1.9,0.5
			c0.9,0.1,1.9,0.3,3,0.4c1.1,0.1,2.3,0.2,3.6,0.3c1.3,0.1,2.5,0.2,3.7,0.3c1.2-2.2,2.4-4.2,3.8-5.8c1.4-1.7,2.7-3.1,4.1-4.2
			s2.7-1.9,4-2.5C41,0.3,42,0,43,0c0.6,0,1.1,0.1,1.3,0.2c0.3,0.2,0.4,0.8,0.4,2c0,0.1,0,0.3,0,0.6c0,0.3,0,0.5-0.1,0.6
			c-0.9,1.3-1.9,2.9-3,4.8c-1.1,1.9-2.2,3.9-3.2,6c1,0.1,1.8,0.1,2.4,0.2c0.6,0,1.1,0.1,1.4,0.1c0.3,0,0.5,0.1,0.6,0.1
			c0.1,0,0.1,0.1,0.1,0.2c0,0.3-0.4,0.4-1.3,0.5c-0.9,0-2.1,0.1-3.7,0.2c-0.6,1.3-1.1,2.7-1.6,4.2c-0.5,1.5-0.8,2.8-0.8,3.9
			c0,0.9,0.2,1.6,0.7,2.3c0.5,0.6,1.3,1,2.5,1.1c0.8,0,1.6-0.1,2.4-0.3c0.7-0.2,1.4-0.5,1.9-0.8c0.5-0.3,0.9-0.6,1.3-0.9
			c0.3-0.3,0.5-0.4,0.6-0.4c0.1,0,0.2,0,0.3,0.1c0.1,0.1,0.1,0.2,0.1,0.3v-0.1c0,0-0.1,0.2-0.4,0.6c-0.3,0.4-0.8,0.8-1.4,1.3
			c-0.6,0.5-1.4,0.9-2.3,1.3c-0.9,0.4-1.8,0.6-2.9,0.6c-0.5,0-1-0.1-1.6-0.3c-0.6-0.2-1.1-0.5-1.6-0.9c-0.5-0.4-0.9-0.9-1.2-1.4
			c-0.3-0.5-0.5-1.1-0.5-1.8c0-1.6,0.1-3,0.4-4.4c0.3-1.4,0.6-2.7,1-4c-1.7,0.1-3.4,0.2-5.1,0.2c-0.7,1.2-1.5,2.5-2.4,4
			c-0.8,1.4-1.8,2.8-2.9,4.1c-1.1,1.3-2.4,2.5-3.8,3.6C19.3,28.5,17.7,29.3,16,29.7z M38.8,5.3c-1.4,0.9-2.7,2-4,3.5
			c-1.2,1.5-2.4,3.1-3.6,4.8c0.7,0.1,1.5,0.1,2.2,0.2c0.7,0,1.4,0.1,2,0.2c0.5-1.7,1.1-3.2,1.7-4.7C37.6,7.7,38.2,6.4,38.8,5.3z"/>
	</g>
</g>
</svg>
