<?xml version="1.0" encoding="utf-8"?>
<!-- Generator: Adobe Illustrator 18.1.0, SVG Export Plug-In . SVG Version: 6.00 Build 0)  -->
<svg version="1.1" id="Layer_1" xmlns="http://www.w3.org/2000/svg" xmlns:xlink="http://www.w3.org/1999/xlink" x="0px" y="0px"
	 viewBox="0 148 792 318" enable-background="new 0 148 792 318" xml:space="preserve">
<g>
	<g>
		<g>
			<path fill="#F9F9F9" d="M776.6,398.2c0,8.6-3.6,15.3-7.9,19.5c-2.4,3.1-4.8,4.8-7.9,7.4c-35.9,27.4-103.5,28-115.7,28
				c-84,0-173.6-35.9-173.6-35.9c-61.5-21.3-92.5-24.4-106.6-24.4c-3.6,0-5.5,0.7-7.4,0.7c-1.2,0.7-1.9,0.7-2.4,0.7
				c0,0-1.9,1.2-2.4,1.2c-31.1,24.4-47.5,29.9-60.9,29.9c-15.3,0-17.7-4.3-17.7-8.6c0-29.2,70.6-39,74.9-39h0.7c0.7,0,0.7,0,0.7-0.7
				l-0.7,0.7c34.1-35.3,62.7-119.3,77.9-164.4c1.9,1.2,22,7.4,22,20.1c0,3.1-0.7,5.5-1.9,9.1c-14.6,30.4-38.3,82.2-60.9,111.4
				c-6.7,9.1-13.4,15.3-18.2,23.2c22.5,1.2,49.3,6,71.2,11c12.8,3.1,24.9,6,37.1,9.1c54.2,13.4,111.4,26.8,170.5,26.8
				c48.7,0,79.8-8.6,100.5-17.7c11.5-4.8,21.3-11,28-17.7C775.9,392.2,776.6,395.2,776.6,398.2z M336.3,393.4
				c-9.1,0.7-17.7,1.9-24.9,4.3c-12.8,3.1-28,7.9-27.4,17C283.9,423.8,324.2,404.4,336.3,393.4z"/>
		</g>
		<g>
			<path fill="#F9F9F9" d="M500.1,348.9c0,2.4-8.6,32.3-23.2,32.3c-4.8,0-11-3.6-12.8-13.4c-2.4,3.1-6.7,9.1-17.7,9.1
				c-14.6,0-18.2-16.5-18.2-24.4c0-18.2,15.3-41.4,35.3-41.4c7.4,0,10.3,2.4,14,4.8c0.7-1.2,0.7-2.4,1.2-3.1
				c1.2,0,12.2,6.7,12.2,12.2c0,2.4-1.2,4.8-2.4,7.4l0,0c-5.5,9.8-13.4,23.2-13.4,34.7c0,5.5,1.2,7.9,3.6,7.9
				c4.8,0,12.8-8.6,18.2-26.8c0,0,0.7,0,1.2,0C499.5,348.3,500.1,348.9,500.1,348.9z M472.1,331.3c-3.1-3.1-6-5.5-9.8-5.5
				c-11,0-24.4,15.8-24.4,29.9c0,6.7,1.2,15.8,12.2,15.8c5.5,0,10.3-3.1,14.6-7.9C464.2,352,468.5,339.8,472.1,331.3z"/>
			<path fill="#F9F9F9" d="M585.4,352.5c0,0.7-1.9,0.7-3.6,0.7c-2.4,0-6,0-9.8-1.9c-3.6,9.1-12.2,25.6-25.6,25.6
				c-9.8,0-17-4.8-19.5-17.7c-3.6,6.7-11,17-20.7,17c-6,0-12.8-6-12.8-17.7c0-27.4,15.8-42,18.2-54.8c0.7,0,11.5,6.7,11.5,11.5
				c0,9.8-18.2,31.1-18.2,47.5c0,4.3,0.7,7.4,4.8,7.4c4.8,0,11.5-4.8,17-18.2c1.2-24.4,14-39.6,14-39.6c3.6,0,13.4,6.7,13.4,7.4l0,0
				c-6,9.1-15.3,23.7-15.3,37.8c0,6,1.9,9.8,7.4,9.8c9.8,0,17-12.2,20.7-19.5c-3.6-3.1-5.5-8.6-5.5-15.3c0-6,5.5-23.2,13.4-23.2
				c4.8,0,6,3.6,6,9.1c0,9.8-5.5,24.4-7.4,29.9c2.4,1.9,6,2.4,9.8,2.4c1.2,0,2.4,0,2.4,0l0,0l0,0c0,0,0,0,0,0.7
				C585.9,352,585.4,352,585.4,352.5L585.4,352.5z M568.4,344.6c1.9-3.6,6-16.5,6-22c0-2.4-0.7-3.6-1.9-3.6
				c-3.6,0-6.7,12.2-6.7,15.8c0,3.1,0.7,6,1.9,8.6C567.7,344.1,568.4,344.1,568.4,344.6z"/>
		</g>
	</g>
	<g>
		<path fill="#F9F9F9" d="M299.8,193c0,3.1-1.2,6-2.4,8.6c-7.4,15.3-35.3,75.5-35.3,92c0,0.7,0,1.9,0.7,1.9c1.9,0,8.6-4.8,18.9-21.3
			c1.2-1.2,2.4-1.9,2.4-1.9s0.7,0.7,0.7,1.2c0,6-18.2,32.3-24.9,32.3c-2.4,0-8.6,0-8.6-9.8c0-20.7,20.1-76.1,30.4-101.1
			c0.7-1.9,1.2-3.6,1.9-5.5c1.2-3.1,1.9-6,1.9-7.9C287.6,180.9,299.8,186.3,299.8,193z"/>
		<path fill="#F9F9F9" d="M333.9,274.1c-2.4,4.8-5.5,8.6-8.6,12.2c-5.5,6-14,11.5-25.6,11.5c-17,0-22.5-16.5-22.5-26.2
			c0-22,15.8-43.3,32.9-43.3c10.3,0,16.5,7.4,16.5,14c0,13.4-12.8,25.6-28,25.6c-4.8,0-8.6-1.2-10.3-3.1c-1.2,3.1-1.2,6-1.2,8.6
			c0,9.1,6,17.7,15.8,17.7c7.4,0,15.3-4.8,19.5-7.9c9.8-7.4,9.8-10.3,11-10.3c0,0,0.7,0,1.2,0C333.9,273.4,333.9,274.1,333.9,274.1z
			 M288.9,261.2c0.7,0,1.2,0,3.1,0c9.8,0,18.9-10.3,18.9-15.8c0-2.4-1.2-3.1-3.6-3.1c-3.1,0-7.9,2.4-12.2,7.9
			C293.1,254,290.6,257.6,288.9,261.2z"/>
		<path fill="#F9F9F9" d="M394.1,267.9c0,1.2-3.1,8.6-8.6,15.8c-2.4,3.1-8.6,12.2-18.2,12.2c-11,0-17-12.2-20.7-21.3
			c-21.3,21.3-37.8,37.1-37.8,37.1c-0.7,0-1.2-0.7-1.2-1.2c0-1.9,20.1-26.8,35.3-45.7c-1.9-6.7-6-29.9-6-30.4
			c0-0.7,12.2-4.3,14.6-4.3c1.2,0,1.2,15.8,1.9,21.3c6.7-7.9,11-14,12.8-15.8c1.2-1.2,2.4-3.1,3.6-4.3c1.9-2.4,3.6-4.8,4.8-6.7
			c1.2,1.2,2.4,2.4,3.6,3.6c1.9,1.9,3.6,4.3,3.6,6.7c0,0.7,0.7,3.1-4.3,7.9l0,0l-22,22c1.2,6.7,4.8,22,12.2,22
			c7.9,0,14.6-8.6,18.2-12.2c6-7.4,6-8.6,7.4-8.6c0,0,0.7,0,1.2,0C394.1,267.4,394.1,267.9,394.1,267.9z"/>
	</g>
	<g>
		<path fill="#F9F9F9" d="M103.8,339.8c-3.1,0.7-6.7,1.2-9.8,1.2c-3.6,0.7-6.7,0.7-10.3,0.7c-9.8,0-18.2-1.2-26.8-4.3
			c-7.9-2.4-15.3-6.7-22-12.2c-6-5.5-11-12.2-14.6-20.1c-3.6-7.9-5.5-17.7-5.5-28.6c0-12.2,2.4-23.7,6.7-35.9
			c4.9-12.2,11-22.5,19.5-32.3c7.9-9.1,17.7-17,29.2-23.2c11-6,23.2-9.1,35.9-9.1c7.4,0,12.8,0.7,17,2.4c4.3,1.2,7.9,3.6,11,5.5
			c3.1,2.4,6,4.8,8.6,7.9c2.4,3.1,5.5,6,9.1,9.8c0,0-0.7,0.7-1.9,1.9c-1.2,1.2-2.4,1.9-4.3,3.1c-1.9,1.2-3.6,1.9-5.5,2.4
			c-1.9,0.7-4.3,1.2-6,1.2c-1.2,0-3.1-0.7-5.5-2.4c-3.1-2.4-6.7-5.5-10.3-8.6c-4.3-3.1-10.3-4.8-18.2-4.8c-11,0-20.7,2.4-29.9,6.7
			s-17,10.3-23.7,18.2c-6.7,7.4-11.5,16.5-15.3,25.6c-3.6,9.8-5.5,19.5-5.5,29.9c0,17.7,4.8,30.4,15.3,39
			c10.3,8.6,24.4,12.8,42,12.8c10.3,0,19.5-1.9,27.4-6c7.9-4.3,15.8-9.8,22.5-16.5c6.7-6.7,12.8-14.6,18.2-23.2
			c5.5-8.6,11-17,15.3-26.2c-11,1.9-21.3,1.9-29.9,1.9s-15.3,0-18.9,0c-3.1,0-5.5-0.7-7.4-1.2c-1.9-0.7-3.6-1.2-4.8-2.4
			s-2.4-3.1-3.1-5.5c-0.7-2.4-1.2-6-1.2-11v-3.6c0-0.7,0-1.2,0.7-1.9c2.4,1.2,6,1.9,11.5,3.1c5.5,0.7,11.5,1.9,18.2,2.4
			c6.7,0.7,14,1.2,22,1.9c7.9,0.7,15.3,1.2,22.5,1.9c7.4-13.4,14.6-25.6,23.2-35.3c8.6-10.3,16.5-18.9,24.9-25.6
			s16.5-11.5,24.4-15.3c7.4-3.2,13.5-5,19.5-5c3.6,0,6.7,0.7,7.9,1.2c1.9,1.2,2.4,4.8,2.4,12.2c0,0.7,0,1.9,0,3.6
			c0,1.8,0,3.1-0.7,3.6c-5.5,7.9-11.5,17.7-18.2,29.2c-6.7,11.5-13.3,23.8-19.5,36.6c6,0.7,11,0.7,14.6,1.2c3.6,0,6.7,0.7,8.6,0.7
			c1.9,0,3.1,0.7,3.6,0.7s0.7,0.7,0.7,1.2c0,1.9-2.4,2.4-7.9,3.1c-5.5,0-12.8,0.7-22.5,1.2c-3.6,7.9-6.7,16.5-9.8,25.6
			c-3.1,9.1-4.8,17-4.8,23.7c0,5.5,1.2,9.8,4.3,14c3.1,3.6,7.9,6,15.3,6.7c4.8,0,9.8-0.7,14.6-1.9c4.3-1.2,8.6-3.1,11.5-4.8
			c3.1-1.9,5.5-3.6,7.9-5.5c1.9-1.9,3.1-2.4,3.6-2.4s1.2,0,1.9,0.7c0.7,0.7,0.7,1.2,0.7,1.9v-0.7c0,0-0.7,1.2-2.4,3.6
			c-1.9,2.4-4.8,4.8-8.6,7.9c-3.6,3.1-8.6,5.5-14,7.9c-5.5,2.4-11,3.6-17.7,3.6c-3.1,0-6-0.7-9.8-1.9c-3.6-1.2-6.7-3.1-9.8-5.5
			c-3.1-2.4-5.5-5.5-7.4-8.6c-1.9-3.1-3.1-6.7-3.1-11c0-9.8,0.7-18.2,2.4-26.8c1.9-8.6,3.6-16.5,6-24.4c-10.3,0.7-20.7,1.2-31.1,1.2
			c-4.3,7.4-9.1,15.3-14.6,24.4c-4.8,8.6-11,17-17.7,24.9c-6.7,7.9-14.6,15.3-23.2,22C123.9,332.5,114.1,337.4,103.8,339.8z
			 M242.5,191.2c-8.6,5.5-16.5,12.2-24.4,21.3c-7.4,9.1-14.6,18.9-22,29.2c4.3,0.7,9.1,0.7,13.4,1.2c4.3,0,8.6,0.7,12.2,1.2
			c3.1-10.3,6.7-19.5,10.3-28.6C235.3,205.9,238.9,197.9,242.5,191.2z"/>
	</g>
</g>
</svg>
