<?xml version="1.0" encoding="utf-8"?>
<!-- Generator: Adobe Illustrator 18.0.0, SVG Export Plug-In . SVG Version: 6.00 Build 0)  -->
<!DOCTYPE svg PUBLIC "-//W3C//DTD SVG 1.1//EN" "http://www.w3.org/Graphics/SVG/1.1/DTD/svg11.dtd">
<svg version="1.1" xmlns="http://www.w3.org/2000/svg" xmlns:xlink="http://www.w3.org/1999/xlink" x="0px" y="0px"
	 viewBox="-341 -341 782 782" enable-background="new -341 -341 782 782" xml:space="preserve">
<g id="Layer_2" display="none" opacity="0.46">
	<path display="inline" fill="#FFFFFF" d="M-37.4,209.3c-3.4-3.1-7.7-2.8-11.1,0c0.8-0.6-1.4,1.1-1.7,1.2c-0.9,0.6-1.9,1.1-2.8,1.6
		c-1.9,0.9-3.9,1.9-5.8,2.8c-1.7,0.8-2.8,2.3-3.4,4.2c-2.8,0.5-5.2,2.3-5.9,5.3c-1.1,3.7,1.2,8.9,5.5,9.7c7.8,1.2,14.8-0.6,20.9-5.6
		c1.9-1.6,2.5-4.1,2.2-6.4c0.8-0.5,1.6-1.1,2.3-1.7C-34.3,217.7-34.6,211.9-37.4,209.3z"/>
	<path display="inline" fill="#FFFFFF" d="M-58.7,265.2c-0.6-1.9-1.7-3.7-3.6-4.7c-0.8-0.5-1.7-0.8-2.5-0.9c-1.9-0.3-2.8-0.3-4.7,0
		c-1.9,0.3-3.7,2-4.7,3.6c-0.9,1.7-1.4,4.2-0.8,6.1c0.6,1.9,1.7,3.7,3.6,4.7c1.1,0.6,2.2,0.8,3.3,0.9c1.2,0.3,2.7,0.3,3.9,0
		c1.9-0.5,3.7-1.9,4.7-3.6C-58.5,269.4-58.1,267.2-58.7,265.2z"/>
	<path display="inline" fill="#FFFFFF" d="M-24.3,226.9c-0.3-0.5-0.8-0.9-1.2-1.4c-0.2-0.2-0.5-0.5-0.8-0.6
		c-0.2-0.2-0.3-0.2-0.5-0.3c-0.8-0.6-1.9-0.9-2.8-1.2c-1.7-0.5-3.3-0.3-5,0c-1.9,0.3-3.9,1.4-5.2,3c-0.9,0.9-1.6,2.2-2,3.4
		c-0.3,1.4-0.3,2.8,0,4.2c0.8,2.7,2.8,4.5,5.5,5.5c2,0.6,4.4,0.9,6.6,1.1c4.1,0.2,8-3.7,7.8-7.8C-21.8,230.2-22.8,228.3-24.3,226.9z
		"/>
	<path display="inline" fill="#F9F9FA" d="M204-236.6c0.3-0.5,0.6-1.1,0.5-2c-0.3-2.3-1.2-4.2-2.5-5.8
		c-5.5-12.2-13.3-23.1-22.8-32.2c-5-5.5-10.8-10.2-17.3-13.3c-1.6-0.9-3.3-2-5-2.8c-0.9-0.5-1.9-0.3-2.5,0.2
		c-0.6-0.2-1.2-0.3-1.9-0.5c-12.2-4.8-24.5-10-37.5-11.7c-7.8-1.1-15.8-0.9-23.7-0.6c-4.4,0.2-8.4,0.5-12.3,1.7
		c-0.6-0.6-1.7-0.9-2.7-0.3c-18.7,12.3-38.6,25.9-47.8,47.3c-1.7,4.2-3.1,8.6-4.4,13c-3.3,7.3-5.2,15-4.7,23.4
		c0,0.8,0.2,1.7,0.2,2.5c0,0.3,0,0.6-0.2,0.9c-1.1,12.3,0.9,23.4,4.7,34.8c0.5,1.7,1.1,3.4,1.7,5c0,0.2,0.2,0.5,0.2,0.6
		c8.3,22.2,19.5,41.5,40.4,53.9c8.6,5.2,18,8.6,27.6,10.6c3,2.2,6.4,3.6,10.2,3.1c2.7-0.3,5.3-0.6,8-0.8c0.5,0.3,0.9,0.3,1.6,0.3
		c2.2-0.3,4.4-0.6,6.4-1.1h0.2c1.6-0.2,3.3-0.3,4.8-0.6c0.2,0,0.5,0,0.6,0c0.2,0,0.5,0,0.6-0.2l0,0h0.2c0.3,0,0.6-0.2,0.9-0.2
		c0.5,0.5,1.2,0.6,2,0.3c0.9-0.3,1.9-0.8,3-1.1c2.7-0.5,5.3-1.1,8-1.7c3.1-0.8,5.8-2.3,8.3-4.1c8.9-4.2,17.5-9.2,24.4-16.6
		c9.5-10.2,16.1-23.1,21.7-35.8c5.8-13.1,11.2-27.3,13.1-41.5C209.3-220.5,207.3-228.6,204-236.6z"/>
	<path display="inline" fill="#F9F9FA" d="M113.1-106.9c-1.1-0.2-2.2-0.2-3.1-0.2c-1.4-0.2-3.3-0.3-5.2-0.2c-0.3,0-0.6,0-1.1,0
		c-0.8,0-1.2,0.2-1.6,0.6c-0.9,0.3-1.6,0.9-1.9,1.9c-0.9,1.4-0.3,3.6,1.9,3.6c1.6,0,3.1-0.2,4.5-0.2c0.5,0,0.8-0.2,1.1-0.3
		c1.7-0.2,3.6-0.3,5.3-0.5C116.1-102.6,116.1-106.8,113.1-106.9z"/>
	<path display="inline" fill="#F9F9FA" d="M228.4,280.3c-0.9-2.8-2.5-5.3-3.9-7.8c-2.8-4.7-4.2-8.3-5.2-13.9
		c-0.9-5.5-2.2-10.6-7.8-13c-6.1-2.5-13.9-1.1-20-0.2c-2.7,0.3-2,4.7,0.6,4.5h0.2c0.2,0.5,0.5,0.9,1.1,1.2c8.3,3.6,7.5,9.4,5.2,16.4
		c-0.6,1.9-1.6,2.8-1.1,4.8c0.3,2.2,2.2,3.7,3.1,5.6c1.6,3.1,1.9,6.7,3.3,10c3.4,8.7,16.1,13.3,23,5.2
		C229.9,289.7,229.8,284.6,228.4,280.3z"/>
	<path display="inline" fill="#F9F9FA" d="M211.3,190.1c0.2-0.5,0.2-1.1-0.3-1.9c-1.2-1.7-2.3-3.6-3.7-5.2c-2.7-3.1-5.8-5.8-10-6.7
		c-3.6-0.6-7.2,0-10.5,1.6c-2.3,0.5-4.7,1.2-6.9,2c-1.7,0.6-1.9,2.5-1.2,3.6c-0.3,0.3-0.5,0.5-0.8,0.8l0,0c-0.2,0-0.2,0-0.3,0
		c-0.9-0.2-2,0.8-2.2,1.7c0,0.2,0,0.2-0.2,0.3c-0.3,0.9,0.2,2,0.9,2.5c0.5,0.6,1.2,1.1,2.3,0.8c0.6-0.2,1.4-0.3,2-0.5
		c1.2-0.2,2.5-0.6,3.7-0.9c0.3,0,0.5-0.2,0.6-0.3c0.5,0.6,0.8,1.2,1.2,1.7c1.9,2.2,3.9,3.3,5,5.3c-0.3,2.3-0.5,4.7-0.3,7
		c0,0.8,0.5,1.4,0.9,1.7c-0.2,2-0.3,4.1,0.5,6.2c2.3,7.2,7.5,13.1,15.5,13.4C227.9,224.6,218.5,200.5,211.3,190.1z"/>
	<path display="inline" fill="#F9F9FA" d="M-97.6,282.5c-5,0-5,7.8,0,7.8S-92.6,282.5-97.6,282.5z"/>
	<path display="inline" fill="#F9F9FA" d="M127.3,247.1c-1.1-1.6-3.6-2.7-5.3-1.4c-0.3,0.3-0.6,0.5-1.1,0.8
		c-0.8,0.6-1.6,1.2-1.7,2.3c-0.3,0.9-0.2,2.2,0.5,3c1.1,1.6,3.6,2.7,5.3,1.4c0.3-0.3,0.6-0.5,1.1-0.8c0.8-0.6,1.6-1.2,1.7-2.3
		C127.9,249.1,127.8,247.9,127.3,247.1z"/>
	<path display="inline" fill="#F9F9FA" d="M131.7,177.3c-3.7-3.9-9.5-6.2-15.3-7.8c0-0.2,0-0.2,0-0.3c-0.2-0.9-0.5-1.7-0.6-2.7
		c0.2-0.2,0.3-0.2,0.5-0.3c0.3,0,0.8,0,1.1-0.2c0.3,0,0.6,0,0.9,0c1.6-0.2,2.5-1.1,3.1-2.2c0.3-0.2,0.6-0.2,0.8-0.3
		c3.6-1.9,2.3-7.3,0-9.7c-0.6-0.6-1.2-1.1-2-1.2c-0.8-0.8-1.7-1.2-2.8-1.6c-0.8-4.5-1.6-8.9-2-13.4c0-0.3-0.2-0.8-0.3-0.9
		c0-0.2,0-0.5,0-0.6c0.5-1.6,0.9-3.1,1.2-4.7c0.3-1.2-0.3-2.2-1.2-2.7c0.2-27,0.2-53.9-0.2-80.9c0-0.5,0-0.9,0-1.4
		c0-9.2-0.2-18.4-0.3-27.5c0.5-0.3,0.8-0.9,0.8-1.7c0-8,0.2-16.1,0.6-24c0-0.2,0-0.3,0-0.5c0-0.2,0-0.2,0-0.3c0-1.2,0.2-2.5,0.2-3.7
		c0-0.5-0.2-0.9-0.3-1.2c-0.2-7.7-0.6-15.5-1.2-23.1c0-0.9,0-1.7,0-2.7c0-0.2,0-0.5,0-0.6c0.3-12.8,0.8-25.5,1.6-38.3
		c0.2-2-2-2.7-3.6-1.9v-0.2c0-1.1-0.6-1.7-1.4-2c2.8-0.6,6.1-1.4,8-0.6c2.8,1.1,4.8-2.3,2.3-4.1c-4.7-3.3-7.7-8.1-8.6-13.7
		c-0.3-1.4-2.3-2.2-3.4-1.4c-0.6,0.5-1.1,0.9-1.6,1.4c-0.3-0.3-0.6-0.6-1.1-0.8h-0.2c-1.1-0.2-2.2,0.2-2.7,1.1c0,0,0,0.2-0.2,0.2
		c-0.5,0.8-0.3,1.6,0,2.2c-0.2,2.7-1.7,5.6-3.4,8.4c-2,2.3-4.2,4.5-6.6,6.6c-1.9,1.6,0.2,4.4,2.3,3.9c3.7-0.8,7.5-1.4,11.2-2.2
		c0.3,0,0.6-0.2,0.9-0.2c-0.3,0.3-0.5,0.8-0.5,1.4c0.3,12,0.6,24,0.9,36.1c-3.9,13.4,0.2,27.5-1.1,41.2c0,0.8,0.2,1.2,0.6,1.7
		C106.7,21,107.5,41.7,107,63c0,1.1,0.5,1.7,1.2,2v0.2c0.3,1.2,0.5,2.5,0.6,3.9c-0.6,5.6-1.1,11.2-1.1,16.9c0,8,0.3,15.3-0.8,23.1
		c-0.8,4.8,0.9,10.3,1.7,15c0,0.3,0.2,0.6,0.3,0.8c-1.1,6.1-1.9,12.2-2,18.3c0,0.9,0.5,1.6,1.1,2c-0.2,0.6-0.2,1.2-0.3,1.9
		c-0.2,1.7,0,4.1-0.3,5.8c-1.9,0.2-4.1,1.2-4.8,3c-1.4,2.8,0.6,5.5,2,7.7c0.6,1.1,1.2,2.7,2,4.1c-0.2,0.2-0.3,0.3-0.5,0.3
		c-0.3,0-0.6-0.2-0.9-0.2c-9.5-1.4-19.2-0.8-28.6,1.7c-9.5,2.7-18.6,7-27,12.5c-4.2,2.7-8.3,5.8-12.3,8.9c-1.1,0.9-8,5.9-11.1,9.4
		c-1.1,0-2.2,0.3-3.1,0.9c-0.9,0.8-2,1.6-3,2.3c-0.6,0.5-0.9,1.1-1.1,1.7c0-5.6-3.4-11.2-11.2-11.7c-5.6-0.3-10.9,2.2-13.3,7
		c-3.1-2.3-7.2-3-10.6-1.7c-0.3-5.9-7.8-10.9-14.4-8.1c-4.4,1.9-7.5,5.8-10,10c-6.1,7.2-11.6,14.8-18,21.7
		c-8.9,9.5-19.4,17-31.1,22.5c-5.6,2.7-5.8,10.8-1.7,14.8c0.8,0.9,1.7,1.9,2.8,2.7c0.8,0.5,1.7,0.9,2.5,1.6
		c5.5,3.6,9.7,9.1,14.4,13.3c5.8,5.2,11.9,10,18.4,14.1c7.3,4.5,15.8,8.6,24.2,9.8c-0.8,0.6-1.2,1.6-1.4,2.8
		c-0.2,2.2-0.2,4.4-0.3,6.6c-0.3,4.8-1.1,9.5-3.1,13.9v-0.5c-0.3-2-2.3-3-4.2-2.8c-0.8-1.7-2.8-2.3-4.4-1.9c-0.8-0.6-1.9-0.9-3-0.8
		c-1.1-1.2-2.8-1.6-4.4-1.1c-0.6-0.2-1.2-0.3-1.9-0.2c-0.9-0.9-2.2-1.2-3.3-1.1c-0.8-2-3.1-2.8-5-2.3c-0.9-0.6-2-0.8-3-0.8
		c-0.9-0.9-2.3-1.4-3.7-1.2c-0.9-1.9-2.5-2.5-4.1-2.2c-0.5-0.3-1.1-0.6-1.7-0.6c-0.6-1.9-2.2-2.7-3.7-2.5c-0.9-1.7-3-1.9-4.5-1.2
		c-0.5-0.9-1.2-1.7-2.3-1.9c-1.7-0.3-3.6-0.8-5.3-1.1c-1.4-0.2-2.8,0.3-3.9,1.2c-1.1,0-2.3,0.3-3.3,1.1c-0.9-1.2-1.7-2.5-2.5-3.7
		c-2-3.3-6.4-1.7-7.2,0.9c-0.3-1.1-1.2-1.9-2.5-2.2c-0.3,0-0.6-0.2-1.1-0.2l0,0c0,0,0,0-0.2,0c-0.9-0.2-1.9-0.2-2.8-0.2h-0.9
		c-0.6,0-1.1,0-1.6,0.2c-3.3,0.5-6.6,1.7-8.1,4.7c-2.3,4.4,2,8.7,5.6,11.9c0,0.2,0,0.3,0.2,0.5v0.2c-1.1,1.2-1.2,3-0.5,4.5
		c0,0.2,0.2,0.2,0.2,0.3c-0.3,0.9-0.6,2-0.8,3.1c-0.3,1.7,0.3,3.4,1.7,4.4c1.6,0.9,3,1.6,4.4,1.9c0,0.3,0,0.5,0,0.8
		c-0.2,0.3-0.2,0.8-0.3,1.1c-0.2,3-0.5,5.9-0.5,8.9c-1.4,4.4-2,8.6-2,13.3c0,1.2,0.6,2.3,1.6,3l0,0c0,3.1,4.4,5.5,6.7,2.8
		c4.4-5.5,4.2-13.9,5.3-20.5c0.2-0.8,0-1.4-0.3-2.2c0-0.2,0-0.3,0-0.5c0.3-0.3,0.6-0.8,0.8-1.4c0.2-0.3,0.2-0.6,0.3-0.9
		c1.2-0.2,2.3-0.8,3-1.9c0.2-0.3,0.3-0.5,0.5-0.8c0.9,0,2-0.2,2.7-0.9c0.8,0.8,1.7,1.4,2.8,1.6c-0.5,0.8-0.8,1.7-0.5,2.8
		c0.2,0,0.2,0,0.3,0c1.7,0.2,3.3,0.8,4.8,1.6c0.8,0.5,1.6,0.8,2.3,1.2c2.8-3,5.8-5.8,8-9.1c0.6-0.9,1.2-1.9,1.6-3c0,0,0.2,0,0.2-0.2
		c0.6,1.1,1.4,1.6,2.3,1.6c0.9,2,2.7,2.7,4.2,2.3c0.9,0.9,2.2,1.2,3.3,1.2c1.1,2,3.9,2.7,5.8,1.7c0.5,0.2,0.8,0.2,1.2,0.2
		c0.8,0.9,2,1.6,3.1,1.6c0.9,2,3.4,2.7,5.3,1.9c0.3,0,0.5,0,0.8,0c0.9,1.7,3,2.3,4.7,1.9c0.9,0.3,1.9,0.2,2.8-0.2
		c0.5,0.3,1.1,0.5,1.7,0.5c1.2,1.6,3.6,1.4,5.3,0.2c2.8,0.9,5,0.3,6.7-1.1c0.2,0,0.5,0,0.6-0.2c4.8-1.6,5.8-6.1,6.9-10.6
		c0.8-3.3,1.4-6.6,1.7-9.8c0.3-0.5,0.6-0.9,0.8-1.7c0.9-5.5,1.6-10.8,1.6-16.4c1.7-0.6,3.4-1.2,5.2-2.2c4.4-2.5,8.1-5.9,11.4-9.8
		c0.8-0.3,1.4-0.9,2-1.6c1.6-2,3.3-4.2,4.8-6.2c0.6-0.8,1.2-1.7,1.6-2.5c6.6-7,9.5-16.6,11.6-26.1c1.1-2.8,2-5.8,2-8.6
		c0.8-0.5,1.4-1.2,1.7-2.2c0.3-1.1,0.5-2.3,0.6-3.4c0.2,0,0.3,0.2,0.3,0.2c0,0.5,0,0.9,0.2,1.4c0,1.9,1.7,4.2,3.9,3.9
		c1.4-0.2,2.8-0.3,4.2-0.3c0,0.3,0.2,0.8,0.3,1.1c7.5,17,9.7,37.3,9.1,55.8c-0.6,18.1-9.8,33-13.6,50.1c-0.6-0.3-1.4-0.3-2.2,0.2
		c-6.4,3.6-12.5,7.3-18.4,11.6c-0.5,0-0.9,0.2-1.4,0.5c-1.6,1.1-2,1.6-3.1,3.1c-1.4,1.9,1.4,4.5,3.3,3.3c0.2-0.2,0.5-0.3,0.6-0.5
		c0.6,0.5,1.6,0.6,2.3,0c1.9-1.2,4.4-2.8,6.7-3.1c0,0.2-0.2,0.2-0.2,0.3c-0.9,1.2-0.6,2.7,0.3,3.4c-0.2,0.3-0.3,0.8-0.5,1.1
		c-0.5,1.1-0.2,2,0.5,2.8c0,0.2,0,0.5,0,0.6c0.5,8.6,1.1,17.3,1.6,25.9c0.2,2.7,3.7,3.3,4.5,0.6c1.2-4.2,2.7-8.6,3.9-12.8
		c0.8,0,1.7,0,2.5,0c1.7,5.9,2.5,12.5,3.9,17.6c0.5,2,4.2,2.3,4.5,0c0.9-6.6,2-13.1,3.1-19.7c2.3,3.9,5.2,7.5,8.6,10.6
		c1.9,1.7,4.2,0,3.9-2.3c-0.6-5-1.2-9.8-1.6-14.8c2.5,3.1,5.2,6.1,7.8,8.9c1.9,2,4.8-0.5,3.7-2.8c-4.5-8.7-9.2-17.3-14.2-25.8
		c-0.2-0.3-0.5-0.5-0.6-0.8c-0.2-1.9-0.8-3.6-1.6-5.5c1.1-1.6,1.7-3.7,1.9-5.9c0.9-1.7,1.2-3.7,1.1-5.8c0.8-2.5,1.4-5,2.2-7.7v-0.2
		c0.3-0.6,0.5-1.4,0.6-2.3c0-0.2,0-0.3,0.2-0.5c0.5-0.9,0.8-2,0.9-3.1c0.6-2.2,1.2-4.4,1.9-6.6c0.9-3.6,1.4-7.2,1.7-10.8
		c0.6-0.5,1.1-1.1,1.4-2c2.3-7.8,0.6-15.6-0.6-23.6c-0.2-0.5-0.2-0.9-0.3-1.4c0-0.8,0-1.4,0-2.2c-0.3-8.1-1.1-16.2-2-24.4
		c-0.5-3.6-0.6-7.7-1.2-11.4c3.1,0.3,6.2,0.3,8.7-1.4c2.8-1.9,3.3-5,3.3-8.1c0-1.6-0.2-3.1-0.2-4.7c5.3,0.9,10.2,3,14.8,5.5
		c-1.1,5.8-0.8,12.3,5.9,10.5c2-0.5,3.6-2.2,5-4.2c0.8,0.3,1.6,0.5,2.3,0.5c2.7,0.2,4.1-1.4,5.8-3.3c3.9-4.4,7.3-9.5,10.9-14.2
		C120.9,214.6,144.7,190.7,131.7,177.3z M-103.3,312.2c-0.5,0.3-0.9,0.8-1.2,1.4c-0.5-0.6-0.8-1.4-1.2-2c-0.5-1.1-1.1-2.2-1.9-3.1
		c-0.9-1.2-2.2-1.7-3.4-1.7c-0.2-0.2-0.2-0.2-0.3-0.3l3.1,0.2c2,0.2,3.4-1.6,3.7-3.3c0.2,0.2,0.2,0.5,0.3,0.6c1.1,1.7,2.2,3.3,3.3,5
		C-102.3,309.6-103.3,310.5-103.3,312.2z"/>
	<path display="inline" fill="#F9F9FA" d="M-76,222.4c-0.2-1.9-1.7-4.2-3.9-3.9c-1.1,0.2-1.9,0.3-2.8,0.8c-0.6,0.5-1.2,1.1-1.7,1.7
		c-0.9-0.5-1.9-0.8-2.8-0.9c-2.3-0.5-4.7-0.6-7-0.8c-0.3-0.3-0.8-0.6-1.1-0.9c-3.9-3.1-9.4,2.3-5.5,5.5c3.3,2.7,5.6,5.9,7.8,9.5
		c2.7,4.2,8.9,0.6,6.9-3.6c0.3,0.2,0.6,0.3,1.1,0.5c1.6,0.3,2.8-0.2,4.1-1.2c0.6-0.5,0.9-1.2,1.1-1.9c0.6-0.2,1.1-0.6,1.4-1.1
		c0.5-0.2,0.9-0.5,1.2-0.8C-76.5,224.4-76,223.3-76,222.4z"/>
	<path display="inline" fill="#F9F9FA" d="M-97.9,160.1c-1.6-1.4-4.1-1.6-5.5,0c-1.9,2-3.9,3.9-5.9,5.8c-1.6,1.4-1.4,4.2,0,5.5
		c1.7,1.6,3.9,1.4,5.5,0c2-1.9,4.1-3.7,5.9-5.8C-96.6,164.2-96.3,161.5-97.9,160.1z"/>
	<path display="inline" fill="#919191" d="M12.4,134.6c-1.6,2.2-3.1,4.4-4.8,6.6c-0.8-0.2-1.7,0.2-2.3,0.9
		c-7.5,8-17.3,13.4-23.7,22.5c-0.3-1.1-0.8-2.2-1.4-3.3c-3.7-6.1-11.1-9.8-17.3-13.4c-0.5-0.6-1.1-1.1-1.9-1.6
		c-19.8-10.5-44.2,1.6-59.2,15.5c-0.8,0.6-1.1,1.4-1.4,2c-7.3,8-12.8,17-17.3,26.9c-2.3,5-4.5,10-6.4,15.1c-0.6,1.9-0.9,3.6-0.9,5.2
		c-0.8,3.3,0.2,7,1.9,10.2c0.2,1.2,0.6,2.3,1.6,3.6c2.8,4.1,6.7,7.5,9.8,11.4c4.2,5.3,8,10.8,11.4,16.6c2.2,3.6,9.2,3.6,10-1.2
		c0-0.3,0-0.6,0.2-0.9c0.3-0.3,0.5-0.6,0.8-0.9c0.8,0,1.6-0.2,2.2-0.9c1.7-2,3.3-3.9,4.8-5.9c3-3,6.4-5.6,8.7-9.1
		c0.8-0.9,1.4-2,2.2-3.1c0.6-0.6,1.2-1.2,2-1.7c2.3-1.9,4.1-3.9,5.6-6.2c0.6-0.2,1.4-0.6,1.9-1.4c0.3-0.5,0.6-0.8,0.9-1.2
		c0.5-0.2,1.1-0.5,1.6-0.9c4.2-4.7,8.3-9.4,12.5-13.9c0.3-0.2,0.6-0.3,0.8-0.6c6.7-6.7,13.4-13.4,20-20.1c0.6-0.6,0.9-1.2,0.9-1.9
		c0.9,0.2,1.9,0,2.7-0.8c3.3-3.3,6.7-6.4,10.3-9.5c0.6-0.5,0.9-1.1,0.9-1.7c10.3-10.3,20.5-20.8,28.7-32.6
		C20,134.5,14.7,131.4,12.4,134.6z M-80.7,225.1c-0.8,1.4-1.7,2.5-3.1,2.8c-1.9,0.6-3.3-0.3-5-0.9c-0.8-0.3-1.2,0.8-0.8,1.2
		c0.3,0.5,0.8,0.8,1.1,1.2c0,0.3,0,0.5,0.2,0.8c1.1,0.9,1.4,2,1.2,3.3c-0.3,0.5-0.6,0.9-0.9,1.4c-0.2,0.2-0.2,0.2-0.3,0.3
		c-0.3,0.3-0.6,0.6-0.8,0.8c-1.2,1.1-2.2,0.9-2.7-0.3c-1.1-0.8-2-2.7-2.8-3.9c-3-4.2-5.6-8.4-8.1-13c2.2-1.1,5.3-0.6,7.5-0.5
		c3.3,0.2,6.4,0.6,9.5,1.2c1.2,0.3,2.5,0.5,3.7,0.9C-79.1,221.6-79.3,222.6-80.7,225.1z"/>
	<path display="inline" fill="#919191" d="M-93.5,224.4c-0.2,0-0.3,0-0.3,0c-0.5-0.2-1.2,0.5-0.9,1.1c0.3,0.6,0.9,0.9,1.6,0.5l0,0
		c0.2-0.2,0.3-0.2,0.5-0.5C-92.6,225.1-92.9,224.6-93.5,224.4z"/>
	<path display="inline" fill="#919191" d="M-106.6,360.9c-0.6,0.2-1.1,0.3-1.7,0.6c-0.2,0.2-0.3,0.2-0.5,0.3c-0.2,0-0.3,0.2-0.3,0.2
		c-0.3,0-0.5,0-0.8,0c0-0.2,0-0.3-0.2-0.3c-0.2-0.9-1.1-1.2-1.9-1.1c-0.9-0.3-2.5,0.5-2.2,1.9c0.3,1.6,0.8,3,1.6,4.2
		c0.2,0.2,0.3,0.3,0.5,0.5c0,0.2,0,0.3,0.2,0.3c0.2,0.9,0.9,1.2,1.7,1.1c0.3,0.2,0.8,0.2,1.1,0c0.5,0,0.8-0.2,1.1-0.5
		c0.5,0,0.9-0.2,1.2-0.8c0.5-0.8,1.1-1.7,1.6-2.5c0.3-0.5,0.3-0.9,0-1.4C-104,362.5-105.2,360.6-106.6,360.9z"/>
	<path display="inline" fill="#919191" d="M-98.7,318.1c-0.8-0.3-1.7-0.3-2.5-0.3c-0.9-0.9-3-0.2-2.7,1.6l0.3,1.6
		c-0.2,0.2-0.2,0.3-0.3,0.6c0,0.2,0,0.2,0,0.3c0,0,0,0-0.2,0.2c-0.5,0.9-1.1,1.1-2,0.8c-0.6-0.2-1.6,0.2-1.7,0.8
		c-0.9,2-2.3,3.6-1.6,5.9c0.3,0.8,1.1,1.2,1.9,1.1c2.3-0.6,4.8,0.8,7,1.4c0.8,0.2,1.7-0.3,1.9-1.1c0.6-3.3-0.8-7.2,0.6-10.2
		C-97.4,319.5-97.6,318.5-98.7,318.1z"/>
	<path display="inline" fill="#919191" d="M-93.2,300.8c-0.2-1.1-0.5-2-0.6-3.1c0.2-1.2,0-2.5-0.2-3.9c0-0.2,0.2-0.3,0.2-0.5
		c0-1.7,0.2-1.6-0.5-3.1c-0.3-0.8-0.9-1.1-1.6-1.1c-1.4-1.2-3.7-0.8-5.8-0.8c-1.1,0-1.6,0.9-1.4,1.7c-0.2,0.2-0.2,0.2-0.3,0.3
		c-0.5,0.3-0.8,0.6-0.8,1.2c0,0.2,0,0.3,0,0.5c-0.9,2.3-0.9,5.9-1.6,8.1c-1.4,5.3-3.1,10.3,0.8,15c0.6,0.8,2,0.6,2.5-0.3
		c2-4.4,4.8-8.3,7-12.3l0,0C-94.3,303.3-92.9,302.1-93.2,300.8z"/>
	<path display="inline" fill="#6B6B6B" d="M200.7,258.2c-2.3-3.4-4.7-5.2-8.6-6.4c-1.6-0.5-3.4,0-4.5,1.2c-0.2,0.3-0.5,0.5-0.6,0.6
		c-0.8-0.2-1.6-0.2-2.5,0.2c-1.4,0.6-3,1.2-4.4,1.9c-1.6,0.6-3.1,1.1-4.8,1.6c-0.9,0.3-1.7,0.8-2.2,1.4c-2.2,0.6-4.2,1.4-6.4,2.3
		c-0.8-0.8-1.7-1.4-2.5-2c-0.2,0-0.2-0.2-0.3-0.2c0.8-2.7,1.4-5.3,2.3-7.8c2.5-7,6.1-13.6,9.8-20.1c4.7-8.3,11.6-18,13.6-28
		c0.2-0.2,0.2-0.3,0.3-0.5c1.9-3.6,2-6.6-0.5-9.8c-1.7-2.3-5.8-2.8-7.7-0.9c-2.5,0.5-5,2.3-6.9,4.1c-7.2,6.7-13.9,14.2-18.7,22.8
		c-0.5-1.6-1.1-3.1-1.9-4.7c0.6-1.1,0.6-2.7-0.2-4.2c-3.6-7.3-7.5-14.5-11.7-21.4c0.5-5.9-8.7-5.8-9.4,0c-0.2,1.6,0,3.1,0.2,4.7
		c-1.7,4.8-3.6,9.5-6.1,14.1c-0.5-0.3-1.2-0.5-1.7,0.3c-0.2,0.2-0.2,0.2-0.3,0.3l0,0l0,0c-3.6,4.4-6.7,9.1-9.7,13.9
		c0,0-0.2,0-0.2,0.2l-4.8,5.5c-1.2,1.4-1.4,2.8-1.1,4.2l0,0c-2.8,2.8-5.3,5.9-7.3,9.4c-0.3,0.6-0.3,1.2,0,1.6
		c-0.3,0.5-0.6,0.8-0.9,1.2c-1.1-0.3-2.5,0.5-2,1.9c1.4,4.4,3.3,8,5.9,11.7c0.3,0.3,0.6,0.6,0.9,0.6c3.4,5.2,6.9,10.2,10.3,15.3
		c0.6,0.9,1.9,0.8,2.5,0.3c2.5,3.7,5.2,7.2,8.1,10.6c0.5,0.6,1.1,0.9,1.9,1.2c0.3,0.3,0.6,0.6,0.9,1.1c0,1.2,0.3,2.5,1.4,3.3
		c8.6,6.9,19.1,8.6,28.6,2.3c10.3-6.7,16.9-16.7,28.1-22.3c0.5-0.3,0.9-0.6,1.2-0.9c0.8,0.3,1.7,0.3,2.7-0.2
		c0.3-0.2,0.8-0.3,1.1-0.5l0,0l0,0c2.2-0.9,4.1-2,6.1-3.4C200.9,263.2,202.3,260.5,200.7,258.2z"/>
	<path display="inline" fill="#414042" d="M-65.2,268.2L-65.2,268.2L-65.2,268.2c-0.2-0.2-0.3-0.2-0.3-0.2c-0.2,0-0.3-0.2-0.3-0.2
		s-0.2,0-0.2-0.2c-1.4-0.3-2.5,0.5-2.8,1.9c-0.3,1.2,0.2,3,1.4,3.3c0.9,0.6,2.3,0.8,3.1,0C-63.1,271.3-63.8,269.1-65.2,268.2z"/>
	<path display="inline" fill="#414042" d="M-30.4,230.7c-1.6-0.5-3,0.3-3.9,1.4c-0.2,0.2-0.2,0.3-0.2,0.6c-0.2,0.2-0.2,0.5-0.2,0.6
		c-0.2,0.9,0.5,1.7,1.2,2.3c0.2,0.2,0.3,0.3,0.5,0.5c0,0,0.2,0,0.2,0.2c0,0,0.2,0,0.2,0.2c0.6,0.3,1.6,0.5,2.2,0.2
		c1.2-0.5,2-1.6,2-2.8C-28.1,232.4-29,231.2-30.4,230.7z"/>
	<path display="inline" fill="#414042" d="M-26.2,220.8c-6.1-3-13.1,0.2-16.2,5.8c-0.2,0.3-0.2,0.6-0.2,0.9
		c-1.9,4.4-0.9,9.5,3.3,12.6c5.2,3.7,15.8,2.2,19.1-3.4C-17,231.2-20.7,223.5-26.2,220.8z M-22.3,232.9c-0.6,5-8.4,7.5-13,6.1
		c-5.5-1.7-6.7-8.3-3.1-12.3c0.2-0.2,0.3-0.5,0.3-0.6C-32.3,220.5-21,223.5-22.3,232.9z"/>
	<path display="inline" fill="#414042" d="M-40.1,273.3c0-0.6-0.6-0.9-1.1-0.6c0,0,0,0-0.2,0l-0.2,0.2c-0.5-0.2-0.9,0-1.4,0.3
		c-1.7,1.4-6.2,5.3-8.9,4.8c0,0,0,0-0.2-0.2c0.6-4.1,5.6-8.3,8.4-10.5l0,0c0.8-0.6,0.8-1.7,0.2-2.5c-0.5-0.5-1.1-0.8-1.9-0.2
		c-2.7,1.9-5,4.1-6.9,6.7c-1.4,1.9-3.9,5-3.1,7.7c0.6,2.2,3.7,2.3,5.5,1.7c3.3-1.1,6.2-3.6,8.9-5.6c0.5-0.5,0.6-0.9,0.5-1.4
		C-40.1,273.8-39.9,273.6-40.1,273.3z"/>
	<path display="inline" fill="#414042" d="M-34.8,208.4c-2.2-1.4-5.6-0.3-7.8,0.5c-3.1,0.9-5.9,2.7-8,5.2
		c-2.2,2.7-5.3,10.8-0.3,12.2c0.6,0.2,1.1-0.6,0.6-0.9c-3.6-3.1,1.2-9.5,3.9-11.4c3-2.2,7.3-3.6,11.1-3.1
		C-34.2,210.7-33.8,208.8-34.8,208.4z"/>
	<path display="inline" fill="#414042" d="M-5.3,255.2c0.2-1.4,0-2.8-0.9-3.6c-1.4-1.4-3.6,0.8-2.2,2.2c0.6,0.6-1.2,5.5-1.6,6.2
		c-0.8,1.7-1.9,3.1-3,4.4c-2.2,2.5-4.8,4.7-7.2,6.9c-1.4,1.4,0.8,3.6,2.2,2.2c3-2.7,6.2-5.3,8.6-8.6C-6.7,262.1-4.8,258.6-5.3,255.2
		z"/>
	<path display="inline" fill="#414042" d="M12.2,198.4c-4.7-3.6-13.7-0.9-12.8,5.9c0.3,2,3.4,2,3.1,0c0-0.6,0-1.1,0.2-1.6
		c0.3-0.8,0.9-1.4,1.6-2c1.7-1.1,4.5-1.1,6.2,0.2c0.3,0.3,0.6,0.6,0.9,0.9c0.6,1.1,1.1,2.2,0.9,3.3c0,0.6-0.3,1.2-0.6,1.7
		c-0.8,0.8-2.2,1.4-3.1,1.7c-1.9,0.8-1.1,3.7,0.8,3c2.5-0.9,6.1-2.5,6.4-5.6C16,203.2,14.4,200.1,12.2,198.4z"/>
	<path display="inline" fill="#414042" d="M-78.4,221.9c0-0.3,0-0.8-0.5-1.1c-2.3-1.9-8-1.6-10.9-1.9c-4.5-0.5-9.4-1.6-13.7-0.8
		c-0.2,0-0.3,0.3-0.2,0.5c-0.2,0.2-0.2,0.5,0,0.6c0.3,0.5,0.6,0.8,0.9,1.2c-0.2,0.2-0.2,0.5,0,0.6c3.4,5.8,7.5,11.7,12.2,16.7
		c0.5,0.5,1.1,0.3,1.4-0.2c1.1-1.6,2.7-2.5,3.7-3.9c0.3-0.3,0.2-0.9-0.2-1.1c0.2-0.2,0.2-0.5,0-0.8c-0.9-1.7-2.5-3.3-4.2-4.4
		c0.9,0.3,2,0.5,3,0.6c1.1,0.3,2.2,0.9,3.3,1.4c0.9,0.5,1.6-0.6,1.1-1.2c0.9-0.6,1.6-1.7,2.3-2.5c0.8-0.9,1.9-1.7,2.5-2.8
		C-77.4,222.6-77.9,221.9-78.4,221.9z M-81.8,224.9c-0.6,0.8-1.6,1.7-1.9,2.7c-1.9-1.1-4.4-1.7-6.4-1.2c-0.3,0.2-0.5,0.5-0.3,0.8
		c-0.3-0.2-0.6,0.3-0.5,0.5c0.6,0.9,1.1,1.7,1.9,2.5c0.6,0.9,1.2,1.9,2,2.7l0,0c-1.4,0.6-2.3,1.7-3.3,3c-4.4-4.7-7.5-10.5-11.6-15.6
		l0,0c-0.2-0.3-0.5-0.6-0.6-0.9c2.8,0.8,5.9,0.8,8.9,1.2c0.5,0,13.1,1.4,13.3,1.6c0,0.3,0.3,0.5,0.5,0.5
		C-80.4,223.2-81.2,224.1-81.8,224.9z"/>
	<path display="inline" fill="#414042" d="M-91.3,224.4c-0.9-0.5-1.9-0.8-2.8-1.1c-0.5-0.2-1.9-0.6-2.2,0.2c0,0,0,0,0,0.2
		c-0.2,0.2-0.2,0.3-0.2,0.5c0.2,0.8,0.6,1.4,0.9,2.2c0.3,0.5,0.6,1.1,1.2,1.2c1.4,0.5,2.2-1.1,3.1-1.9
		C-90.8,225.4-90.8,224.6-91.3,224.4z M-94.1,225.7c-0.2-0.3-0.3-0.5-0.5-0.8c0.5,0.2,1.1,0.3,1.6,0.5l0,0
		C-93.5,225.8-93.8,226.2-94.1,225.7z"/>
	<path display="inline" fill="#414042" d="M-104,340.2c0-2.2-3-1.9-4.7-2.2c-0.9-0.2-1.2,1.1-0.6,1.4c-0.2,0-0.3,0.2-0.3,0.5
		c-0.8,4.2-1.4,8.4-1.9,12.8c0,0.3,0.3,0.6,0.6,0.8c0.8,0.3,1.7,0.5,2.5,0.8c0.9,0.3,1.4-1.2,0.5-1.6c-0.6-0.2-1.2-0.3-1.9-0.6
		c0.5-3.9,0.9-7.8,1.7-11.7c0-0.3,0-0.6-0.3-0.8c1.1,0.2,3,0.3,3.1,0.6c0.2,0.2-0.8,3.1-0.9,3.6c-0.5,2.7-1.1,5.2-1.9,7.8
		c-0.2,0.5,0.2,0.8,0.5,0.9c0.2,0.2,0.3,0.2,0.5,0.2c0.6,0,0.8-0.5,0.8-0.9c0.5-1.9,0.9-3.6,1.4-5.5C-104.7,344.2-104,342-104,340.2
		z"/>
	<path display="inline" fill="#414042" d="M98.6,223.3c-0.5-0.6-1.4-0.8-2-0.9c-0.9-0.3-1.9-0.8-2.8-1.1c-0.2,0-0.3,0.2-0.2,0.3
		c0.6,0.8,1.4,1.2,2.3,1.7c0.8,0.3,1.7,0.8,2.5,0.3C98.6,223.7,98.6,223.5,98.6,223.3z"/>
	<path display="inline" fill="#414042" d="M193.5,197.3c-0.2,0.2-0.2,0.2-0.3,0.3c-0.2,0.2,0,0.2,0.2,0.2
		C193.5,197.6,193.5,197.6,193.5,197.3C193.7,197.4,193.7,197.3,193.5,197.3z"/>
	<path display="inline" fill="#414042" d="M213.2,205.9c-0.2-0.6-0.9-1.1-1.6-0.6c-4.1,2.8-8.1,5.5-11.9,8.6
		c-0.5,0.5,0.2,1.1,0.6,0.9c3.9-2,7.7-4.5,11.2-7c2,3.7,5.9,8.1,0.3,10.9c-2.8,1.4-6.4,1.9-9.1,0c-1.7-1.2-2.5-3.3-4.2-4.4
		c-0.3-0.2-0.8,0-0.8,0.5c-0.2,2.8,3.1,5.8,5.6,6.9c2.8,1.1,6.6,0.3,9.2-0.8c2.3-1.1,3.9-3,4.2-5.6
		C217.6,211.2,214.6,209.1,213.2,205.9z"/>
	<path display="inline" fill="#414042" d="M220.2,277.5c-4.4-2-10.8,2.2-13.4,5.3c-0.2,0.3,0,0.6,0.3,0.6c2.7-0.6,4.8-2.5,7.2-3.6
		c2.7-1.2,5.5-0.9,7,1.9c0.9,1.7,0.9,4.1,0.3,5.9c-1.1,3-4.2,5.2-7.5,4.7c-3-0.5-4.2-2.7-6.4-4.2c-0.5-0.3-0.9,0.2-0.9,0.6
		c-0.2,3.9,4.7,6.2,8.1,6.4c4.2,0.2,8.1-3,9.2-6.9C225.4,284.4,224,279.3,220.2,277.5z"/>
	<path display="inline" fill="#414042" d="M114,26.6c-0.2-0.2-0.5-0.2-0.6-0.2c-0.9,0.2-1.7,0.5-2.7,0.5c-0.5,0-0.6,0.8-0.2,0.9
		c1.1,0.2,2,0.3,3.1-0.2c0.3-0.2,0.5-0.3,0.5-0.6C114.2,26.7,114.2,26.7,114,26.6z"/>
	<path display="inline" fill="#414042" d="M114.4,63c-0.9-0.5-2.2-0.2-3.1,0.2c-0.6,0.2-0.5,1.1,0.2,1.1c0.9,0,2.2,0,3-0.8
		C114.7,63.4,114.7,63.1,114.4,63z"/>
	<path display="inline" fill="#414042" d="M114,88.4c-0.5-0.5-0.8-0.6-1.4-0.8c-0.6-0.2-1.2-0.3-1.9-0.3c-0.8-0.2-0.8,1.1-0.2,1.2
		c1.1,0.5,2.3,0.8,3.4,0.5C114.2,88.9,114.2,88.6,114,88.4z"/>
	<path display="inline" fill="#414042" d="M70.8,209.8c-0.6-0.5-1.1-0.9-1.7-1.1c-0.5-0.2-0.8,0.5-0.6,0.8c0.5,0.6,0.9,0.9,1.6,1.4
		c0.5,0.3,0.8,0.5,1.4,0.5c0.2,0,0.2-0.2,0.2-0.3C71.4,210.4,71.3,210.1,70.8,209.8z"/>
	<path display="inline" fill="#414042" d="M73.4,208.2c-0.3-0.6-0.8-0.8-1.2-1.1c-0.6-0.3-1.1-0.6-1.7-0.8c-0.5,0-0.8,0.5-0.5,0.8
		c0.6,0.8,2.2,1.7,3.3,1.6C73.4,208.7,73.4,208.4,73.4,208.2z"/>
	<path display="inline" fill="#414042" d="M230.5,283.9c-0.5-4.1-2.3-7.8-4.1-11.6c-0.5-1.1-3.6-6.9-5.3-10c0.3,0,0.5-0.3,0.5-0.6
		c-1.2-5.3-0.9-13-6.2-16.1c-5.6-3.3-14.8-4.1-20.8-1.7c-0.2,0-0.2,0.2-0.2,0.2c-1.2,0-2.5,0.3-3.6,0.3c-1.4,0.2-3,0.5-3.6,1.9
		c-0.6,1.7,0.5,2.8,2.2,3.3c-0.6,0.2-1.1,0.3-1.9,0.5c-1.1,0.3-2,0.8-3.1,1.2c-4.2,0.9-8.4,2.2-12.5,3.9c-1.6,0.6-3.7,1.2-5.6,2.2
		c2.2-7.3,3.9-14.7,6.9-21.7c4.1-9.4,10-17,15.6-25.3c6.2,8.4,12.3,19.8,24.4,14.8c3-1.2,8-3.6,8.9-7c1.4-4.8-4.1-14.1-5.6-18.6
		c-3.3-9.1-7.7-22.6-18.3-25.5c-7.7-2-19.7,2.2-22.8,9.8c-0.2,0-0.3,0-0.6,0c-5.2,1.7-5.5,7-1.6,9.1c-5.5,5.9-12.6,12.3-16.4,19.7
		c-0.9-2.5-1.9-5-2.8-7.3c-1.9-6.2-4.7-12-9.1-17c-2.3-3.3-5-6.4-7.5-9.8c0-0.3-0.2-0.6-0.5-0.9c-5.5-4.8-12-8.1-19.2-9.2h-0.2
		c-0.2-0.6-0.2-1.1-0.3-1.7c0-0.2-0.2-0.3-0.3-0.5c2.5,0,5.2-1.7,6.7-3.4c2.5-2.7,2.2-5.6,0.8-8.7c-1.4-3-3.3-5.8-7-4.7
		c-0.3,0.2-0.6,0.3-0.9,0.3c1.7-13.9,1.1-28.6,0.6-42.9c0,0,0.2,0,0.2-0.2c0-0.6-0.2-1.1-0.2-1.7l0,0c0-3.1-0.2-6.1-0.2-9.1
		c0-15.6,0-31.1,0-46.7c-0.5-2.3-0.3-4.7,0-7c0-2.2,0-4.5,0-6.7c0-12.6,0-25.3,0-37.9c0.2-0.2,0.3-0.3,0.5-0.5
		c0.3-0.3,0-0.6-0.3-0.8c-0.2,0-0.2,0-0.3,0c0-3.1,0-6.1,0-9.2c0,0,0.2,0,0.2-0.2c0-0.6,0-1.2,0.2-2c-0.2,0-0.2,0-0.3,0v-2.3
		c0-0.2,0-0.5-0.2-0.6c-0.2-0.6-0.2-1.2,0.2-1.9c0-1.2,0-2.5,0-3.7c0-1.4,0-2.8,0-4.4l0,0c0-0.5,0-0.9,0-1.4l0,0
		c0-8.6,0.2-17.2,0.3-25.8c-0.2-0.3-0.3-0.8-0.3-1.2c0-0.5,0.2-0.9,0.3-1.4c0-5,0-9.8-0.2-14.8c0.2-0.2,0.2-0.5,0-0.6
		c0-2.7-0.2-5.3-0.3-8.1c2.7-0.2,5.5-0.2,8.3,0c1.1,0,1.9-1.2,1.4-2.2c0.9-0.2,1.2-1.4,0.3-1.9c-4.8-2.7-7.7-6.4-10.5-10.6
		c-0.9-1.7-1.9-3.4-2.7-5.3l0,0c1.9-0.5,3.6-1.1,5.3-1.9c0.8-0.3,0.8-1.4,0.3-2c-0.6-0.6-1.4-1.4-2.3-2c25-1.4,49-13.4,64.7-34.4
		c25.3-33.9,40.4-85.4,13.6-122.4c-26.7-36.7-77-48.1-120.9-42.6c-2.5,1.6-4.8,3-7.3,4.4c0.3,0,0.6,0,0.9,0
		c-0.3,0.3-0.8,0.5-1.1,0.8c-11.4,5.3-20.8,15.1-27.8,25.5c-1.6,2.3-3.1,4.7-4.5,7.2c-1.2,1.9-2.5,3.7-3.6,5.8
		c-3.3,5.6-6.4,11.6-8.9,17.6c-0.2,0.8-0.5,1.6-0.8,2.3c-0.3,1.7-0.8,3.3-1.1,5c-0.2,3-0.6,5.9-1.2,8.9c0.2,0.3,0.3,0.6,0.3,1.2
		c-0.8,8.6,0,17.2-1.6,25.6c0,0.3,0.2,0.6,0.2,0.9c0.3,1.9,0.6,3.6,0.9,5.5c3.7,32.2,22,62.3,50.6,78.1c7,4.2,14.5,7.3,22.5,8.7
		c2.5,0.6,5,1.1,7.3,1.4l0.2,0.2c-2.5,1.7-4.1,4.1-0.8,6.4c1.1,0.8,2.5,1.1,3.9,1.1c-4.4,6.7-8.6,13.6-12.6,20.6
		c-0.6,1.1,0.5,2.7,1.7,2.3c5-1.4,10-2.5,15.1-3.1c-0.5,15-0.6,30-0.8,45c-0.2,0.2-0.3,0.5,0,0.6c0,12.6,0,25.3,0.2,37.9
		c0,0,0,0-0.2,0.2c0,0.2,0,0.2,0,0.3v0.2v0.2l0,0c0,10.3,0.2,20.6,0.2,30.8c0,5.6,0,11.2,0,16.9c-0.2,0.2-0.2,0.6,0,0.8
		c0,13.3,0,26.5,0,39.7c0,19.1-1.4,38.6,0.6,57.6c-2-0.3-4.1,0.6-5.3,2.2c-3.4,4.1-0.8,10.3,3.6,12.5c0,0.3,0,0.8,0,1.1
		c-10-1.7-20.5-0.8-30.8,2c-4.2,1.1-8.4,2.5-12.5,4.2c-5.3,2.2-10.3,4.8-15.1,7.8c-3.6,2.2-7.2,4.5-10.5,7
		c-5.3,3.9-10.5,8-15.5,12.2c-1.4-3.4-4.1-6.2-7.5-7.7c-1.6-0.6-3-0.9-4.5-1.1c0-0.3,0-0.6-0.2-0.8c-2.8-3-6.2-5.3-9.5-7.8
		c-0.2-0.2-0.3-0.3-0.6-0.5c-0.2,0-0.3-0.2-0.5-0.3c-2.8-2.2-5.6-4.4-8.6-6.4c-0.3-0.2-0.5-0.2-0.8,0c-0.3-0.2-0.6-0.3-0.8-0.3
		c0.8-0.8,1.7-1.7,2.5-2.5c0.2-0.2,0.3-0.3,0.3-0.6c0.2,0,0.3-0.2,0.3-0.2c5.9-5.9,12.3-11.6,17.5-18.1c4.8-6.1,8.1-13.1,11.7-20
		c0.5-0.8-0.2-1.9-1.1-1.9c-1.9,0.2-3.4,0.8-5,1.6c-4.7,1.4-8.6,6.2-12,9.2c-6.7,5.9-13.3,12.3-19.5,18.9c-0.2-0.3-0.5-0.5-0.6-0.8
		c-8.6-11.6-25.9-19.7-39.4-20.3c-6.4-0.3-12.2,1.2-17.6,3.9c-8.6,3.1-16.7,8.6-23.1,15c-0.2,0-0.3,0-0.5,0
		c-4.7-1.9-10.2,1.2-13.4,4.5c-2.8,2.8-3.6,7.8,0.5,10c0.2,0.2,0.3,0.2,0.5,0.2c-8.6,10.2-15.5,23.9-15.6,37.3
		c-0.3,1.6-0.6,3.3-0.8,4.8c-0.9,8.6,6.1,13.7,11.2,20c3.7,4.7,7.5,10.2,11.9,14.8c2,3.6,5,8.9,8.6,8.4l0.2,0.2
		c14.4,12.2,28.6,26.7,44.8,36.2c5.5,3.3,12,5.8,18.9,6.9c0,3.1-0.2,6.2-0.3,9.4c-0.8,3-1.6,5.9-2.5,8.9c-9.4-2.8-18.9-5.8-27.8-9.7
		c-4.7-2-9.1-4.8-13.6-7c-0.2-0.2-0.2-0.2-0.3-0.3c-1.6-1.1-3.7-2.2-5.8-2.3c-1.2-0.5-2.5-0.8-3.7-1.1c-0.3-0.6-0.9-1.1-1.7-0.8
		c-1.1,0.5-2.3,0.9-3.6,1.4c0.5-3,0.8-6.1,0.9-9.1c0-0.3,0-0.5-0.2-0.5c-0.2-1.2-0.5-2.7-1.4-3.6c-0.3-0.3-0.6-0.5-0.9-0.5
		c0-0.2,0-0.3-0.2-0.3c-0.2-0.5-0.5-0.9-0.6-1.4c0-0.6,0-1.2-0.2-1.7c-0.3-1.4-0.8-3.4-2.2-4.1c-3-1.4-6.1,3.7-7.2,5.9l0,0
		c-0.3,0-0.5,0-0.6,0.2c-0.9,0.3-1.6,1.6-0.9,2.3c-1.7,2.3-2.5,5.3-3.1,8.3c-0.2,0.9-0.5,1.7-0.6,2.7c-3-0.6-6.1-0.9-9.1-0.3
		c-1.1,0.2-2,0.6-2.7,1.2c-1.7,0.9-3.1,2.5-3.6,4.7c-0.2,0.5-0.2,0.9-0.2,1.4c-0.5,1.4-0.6,2.8,0.3,4.4c0.9,1.7,3,3.1,4.8,4.4
		c-1.1,3-1.1,6.2,0.5,8.9l0,0c-1.4,2-0.8,5.9,0.8,7.8c0.9,1.2,2,1.6,3.1,1.4c-0.9,7.7-1.6,15.3-1.4,23.1c0,0.8,0,1.4,0.2,1.9
		c0,0.5,0,0.9-0.2,1.4c0,0.2,0,0.3,0.2,0.5c-0.6,0.3-1.2,0.9-1.1,1.9c0.6,3.7,1.6,7.5,3,10.9c0.2,0.3,0.3,0.5,0.5,0.6
		c-0.2,1.2,0.6,2.7,1.9,2.8c0.3,0,0.6,0,0.8,0c0.5,0.3,1.1,0.3,1.6-0.3c3-3.7,5.5-7.7,7.5-12c0.3-0.6,0.2-1.1-0.2-1.6
		c0.8-0.6,1.4-1.4,1.7-2.8c1.7-7.7,1.4-16.4,2.2-24.4v-0.2v-0.2v-0.2c2,0.3,4.1,1.2,6.2,2.3c0,0,0,0,0.2,0c1.7,0.2,3.3,0.8,4.8,1.6
		c0.5,0.3,0.9,0.5,1.4,0.8c1.6,0.3,3,0.2,4.4-0.3c1.6-0.6,2.8-1.7,3.7-3.1c0.9-1.1,1.7-2.8,2.2-4.5c0.2-0.3,0.2-0.6,0.3-0.9
		c0.2-0.2,0.5-0.5,0.6-0.6l0,0c4.1,4.5,10.9,6.1,16.4,8.1c8.7,3.1,19.2,7.2,28.7,6.7c2.3-0.2,4.1-0.6,5.5-1.7
		c4.4-1.6,6.1-6.1,6.9-11.2c0.3-2.2,0.6-4.4,0.8-6.4c1.7-7.5,2.7-15.1,3-23V301c1.4-0.5,2.7-0.9,3.9-1.6c2.7-1.1,5.3-2.5,7.7-4.5
		c0.3-0.3,0.5-0.8,0.8-1.1c0-0.2,0.2-0.2,0.2-0.3c7.3-6.7,13.3-16.4,17.6-25.5c3.1-5.6,5.8-11.4,7.2-17c0.8-2.2,1.4-4.5,1.9-6.7
		c1.4,0.5,3.9,0.2,5.6,0.2c1.6,5,3.1,10,4.5,15c2,12.3,4.2,24.7,5.8,37c0.2,1.7,0.3,3.3,0.3,5c-2.2,13.7-11.1,25.3-12.2,39.2
		c-0.2,0.3-0.3,0.8-0.5,1.1c-1.7,7.8-11.7,10.2-17.5,14.4c-3.6,2.7-8.3,6.9-9.5,11.4c-0.2,0.8,0.2,1.4,0.8,1.7
		c2.2,1.4,3.9,0.3,6.2-0.6c2.8-1.1,5.8-2.2,8.6-3.3c-2.2,5.5-3.7,10.9-3.1,17c0.3,3.4,1.2,6.7,1.9,10c0.5,2.7,0.5,7.5,2.5,9.7
		c5.5,5.9,8.1-7.5,9.2-16.1c0.9,4.8,1.1,9.8,2.3,14.7c0.6,2.3,1.6,6.7,4.7,6.7c3.6,0,4.8-5.6,5.2-8.3c0.8-5.3,0.9-10.5,1.7-15.8
		c2.3,7,5.2,17.6,10.9,14.8c3.4-1.7,3-6.2,2.8-9.4c-0.2-2.3-0.3-4.7-0.6-7c2,3.7,5,6.9,8.7,7.2c0.9,0,1.7-1.1,1.6-2
		c-3.1-10.5-7.5-24.5-15.9-32.5l2.5-6.9c0.2,0,0.3,0,0.5,0.2c0.3-1.6,0.9-3.1,1.7-4.7c1.1-6.1,2.2-12,3.6-18.1
		c1.4-6.2,3.4-12.5,4.4-18.9c0.6-2.5,1.1-5.2,1.2-7.7c0.8-7.8-1.7-15.8-3.4-23.3l-1.2-5.9c-0.9-8-1.7-15.8-2.2-23.9
		c2.8,0.2,5.6,0.2,8.3,0.3c0.8,0,1.6-0.8,1.6-1.6c0-3.7,0.2-7.5,0.3-11.2c2.2,0.2,4.5,0.2,6.7,0.5c2.3,0.8,4.5,2.2,6.4,3.3l0,0
		c-0.2,0.6-0.5,1.1-0.6,1.7c0,0.2,0,0.3,0,0.5c-0.9,2.3-0.8,4.8,0.8,6.9c1.7,2,5.8,3.4,7.7,1.1c0.3,0.5,1.1,0.6,1.4,0
		c0.6-1.2,1.4-2.3,2-3.6c0.2,0.2,0.5,0.2,0.8,0.2c0.5,0,0.8,0.2,1.1,0.5c0.2,0.6,0.3,1.1,0.5,1.6c0.3,1.1,0.6,2.2,1.1,3.3
		c0,0.2,0.2,0.3,0.3,0.3l0,0c5.9,10.5,12.8,20.6,21.1,29.4c0.3,0.3,0.6,0.6,0.9,0.9c5.8,6.9,12.8,15.8,21.4,18.3
		c3.3,0.9,6.6,0.9,9.5,0.2c3.6-0.5,6.6-2.3,9.5-5c1.9-1.4,3.6-3,5.2-4.5c2.3-2.3,4.7-4.7,7-6.7c7-5.2,15-9.1,23.1-12.5
		c0.6-0.2,1.4-0.3,2.2-0.3c-1.6,1.9-1.9,4.5-0.6,6.9c0.3,0.6,1.2,1.6,2.2,2.5v0.2c2.8,6.4,2.5,13.3,8.6,17.8
		c5.2,3.9,10.8,5.2,16.7,1.7c0.3-0.2,0.3-0.5,0.2-0.6C228.4,294.6,231,289.2,230.5,283.9z M223.2,270.5c-0.9,0.3-1.7,0.9-2.7,1.1
		c-1.4,0.3-2.8-1.1-2.5-2.5c0.2-0.8,0.6-1.6,0.9-2.3c0.5-0.8,0.9-1.9,1.2-2.8C221.2,266.1,222.3,268.3,223.2,270.5z M190.7,246.9
		c2-0.3,4.7,0,6.2-1.4c0.2-0.2,0.2-0.3,0.2-0.5c6.6-0.3,14.7-0.9,18.9,4.5c2.3,3.1,1.7,7.3,3.4,10.6c-0.3,0.2-0.5,0.6-0.3,0.9
		c0,0.2,0.2,0.2,0.2,0.3c-0.3,0.3-0.5,0.6-0.8,1.2c-0.6,1.4-1.1,2.7-1.9,4.1c-0.2,0.2-0.2,0.3-0.2,0.5c0-0.5-0.2-0.8-0.3-1.1
		c-0.8-2-2.7-2.7-4.7-3c-1.6-0.2-3.1-0.2-4.7,0.2c1.4-8.3-4.8-15.8-13.6-15.8c-0.3,0-0.6,0.2-0.9,0.3l0,0c-0.5,0-0.9-0.2-1.4-0.2
		C189.5,247.4,189.9,246.9,190.7,246.9z M196.3,251.9c-0.6-0.5-1.2-0.9-1.9-1.2c6.7,0.8,10.8,7.2,8.7,13.7c-0.6,0.3-1.2,0.6-1.9,1.1
		c0,0,0-0.2-0.2-0.2C204.6,261.8,199.5,254.3,196.3,251.9z M192.6,203.8c1.2-2.7,2.8-5,4.5-7.3c0,0,0,0,0-0.2
		c2.2-0.9,4.5-0.5,6.7,1.1c1.9,1.2,3.4,3.3,2.3,5c-0.2,0-0.3,0.2-0.6,0.2c0,0-0.2,0-0.2-0.2c-1.1-0.3-2,0.9-2.8,1.6s-1.7,1.2-2.3,2
		c-1.1,0.8-2,1.6-3,2.5c-0.3,0-0.5,0.2-0.6,0.3c0-0.2,0-0.2-0.5,0c-0.3,0.2-0.8,0.2-1.1,0.3c-1.7,0.3-1.9,0.3-2.8-1.6
		C191.3,205.9,191.7,205.9,192.6,203.8z M194,197.1c0.2,0.2,0.3,0.3,0.5,0.2s0.5-0.3,0.6-0.6c-0.2,0.3,0.2,0.5,0.3,0.6
		c-1.4,1.4-2.5,3-3.6,4.7c1.2-5.8,0-11.4-6.9-12.8h-0.2l0.2-0.2c0.6-1.2,4.2-0.3,5.2-0.2c1.4,0.5,3.3,1.2,4.4,2.3
		C197.1,193.8,192.4,194.8,194,197.1z M196.5,195.4c0.5-0.5,0.8-1.1,0.9-1.6c1.7-0.6,3.6-0.8,5.5,0c1.2,0.5,2,1.4,3,2.3
		c0,0.3,0,0.8,0,1.1C203.4,195.1,199.3,193.5,196.5,195.4z M195.2,214.6c-0.8-1.1-1.6-2-2.3-3.1c0.8,0.2,1.7,0.3,2.5,0.2
		c-0.2,0.8-0.2,1.7-0.2,2.5C195.2,214.3,195.2,214.4,195.2,214.6z M214.6,222.1c-8.1,5.2-14.1-0.8-19.1-7c0.6,0.3,1.6,0.2,1.7-0.8
		c0-1.1,0.2-2.2,0.2-3.1c0.2,0,0.2-0.2,0.3-0.2c0.5-0.3,0.6-0.8,0.5-1.2v-0.2l0,0c1.1-0.6,2.2-1.4,3.1-2c0.8-0.3,1.4-0.9,2.2-1.4
		c0.6-0.5,1.2-0.8,1.9-1.2c0.2,0.2,0.3,0.2,0.5,0.2c1.6-0.2,2.3-1.7,2.5-3.3c0-0.5,0-0.8-0.2-1.2c0.8,0.3,1.6,0.3,2.3,0.2
		c1.1-0.2,2.5-0.5,3.4-1.1C217,206.8,223,216.8,214.6,222.1z M209.9,189c1.4,3,2.5,6.1,3.6,8.9c-0.8,0.2-1.7,0.6-2.5,0.8
		c-1.1,0.3-2.2,0.3-3.3,0.3c0.2-0.2,0.3-0.5,0.3-0.8c-0.3-2.5,0.5-4.8,1.2-7.3C209.5,190.4,209.6,189.8,209.9,189z M175.7,187.1
		c0.2,0,0.5-0.2,0.6-0.2c0.6-0.2,1.1-0.3,1.7-0.6c1.6-0.6,2.7-1.4,3.9-2.7c0.3-0.3,0-0.6-0.3-0.6c-1.4,0.3-3,0.6-4.4,0.9
		c5.6-7.3,17.8-11.1,25.5-4.8c2.5,2,4.4,4.7,5.9,7.5c-1.1,1.2-1.2,3.4-1.7,4.8c-0.3,0.9-0.5,1.7-0.8,2.5c-0.9-0.9-2.2-1.6-3.4-2
		c-1.7-0.5-3.6-0.5-5.2,0.2c-0.3-1.6-1.6-2.7-2.8-3.4c-2-1.2-4.5-2.2-6.9-2.2c-1.1,0-2.8,0.2-3.7,0.9c0,0-0.2-0.2-0.3-0.2
		c-1.6-0.5-3.1,0.2-4.7,0.5c-0.8,0.2-1.7,0.5-2.5,0.6l-1.1,0.3c0-0.6-0.2-1.1-0.2-1.7C175.6,187.1,175.7,187.1,175.7,187.1z
		 M117,164.3c-0.3,0.2-0.8,0.3-1.1,0.5c-0.8-1.4-2-2.7-3.3-3c-0.2,0-0.3,0-0.5-0.2c0-0.6-0.2-1.4-0.3-2c-0.2-1.1-0.3-2.2-0.5-3.3
		c0,0,0.2-0.2,0.2-0.3l0,0c0.3-0.8,0.9-1.4,1.6-1.9l0,0c2.2,0.9,3.7,2.8,4.5,5S117.8,162.6,117,164.3z M110.9-79.6
		c0.8,0.3,1.6,0.3,2.5,0.3c0.6,0,1.2,0,1.9-0.3c-0.2,2-0.2,4.1-0.2,6.2c-0.8,0-1.7,0.2-2.7,0.3c-1.2,0.2-2.8,0-3.7,1.1
		c-0.2,0.2,0,0.5,0,0.6c1.1,0.9,2.7,0.5,3.9,0.3c0.8,0,1.6-0.2,2.2-0.2c-0.2,4.7-0.2,9.4-0.2,13.9c-0.8,0.2-1.7,0.5-2.3,0.8
		c-0.9,0.2-0.5,1.6,0.3,1.4c0.6-0.2,1.4-0.2,2-0.3c0,2.3,0,4.7,0,7c-0.6-0.3-1.1-0.3-1.7-0.3c-0.8,0.2-1.4,0.3-2.2,0.6
		c-0.6,0.3-0.3,1.1,0.3,0.9c1.2-0.2,2.7,0,3.7-0.6c0,2,0,3.9,0,5.9c-0.8-0.2-1.4,0.2-2.2,0.3c-0.9,0.3-1.9,0.5-2.8,0.9
		c-0.5,0.3-0.3,1.1,0.3,1.1c0.9,0,2-0.2,3-0.5c0.6-0.2,1.2-0.3,1.7-0.6c0,1.7,0,3.3,0,5c-1.2,0-2.5,0.5-3.9,0.5
		c-0.8,0-1.6,0.2-2.2,0.2c0-8.4-0.2-16.7-0.2-25.1c1.9,0.3,3.9,0.2,5.3-0.8c0.3-0.2,0.3-0.6-0.2-0.8c-1.1-0.3-2.2-0.2-3.4-0.2
		c-0.6,0-1.2,0-1.9,0.2c-0.2-6.2-0.3-12.3-0.5-18.6c0.8-0.2,1.7-0.2,2.5-0.3C110.5-80.2,110.6-79.6,110.9-79.6z M110.6-12.2
		c1.4,0.5,3,0.5,4.5,0.2h0.2v2.7c-0.8-0.3-1.7-0.2-2.5-0.3c-1.2-0.2-2.5-0.2-3.6,0c0-2.3,0-4.5,0-6.9c1.6,0,3.1-0.2,4.5-0.3
		c0.5,0,1.1-0.2,1.6-0.2c0,1.1,0,2,0,3.1c-0.2,0-0.3,0.2-0.5,0.2c-1.4,0.5-2.8,0.6-4.2,0.9C110.1-12.8,110.3-12.3,110.6-12.2z
		 M111.1,13c0.8,0,1.6-0.2,2.3-0.3c0.6-0.2,1.2-0.2,1.7-0.6c0,1.2,0,2.3,0,3.6c-0.5,0.2-0.9,0.2-1.4,0.3c-0.6,0.2-1.4,0.3-1.9,0.8
		c-0.2,0.2-0.2,0.5,0,0.6c0.6,0.3,1.2,0.3,2,0.2c0.3,0,0.8,0,1.1-0.2c0,6.1,0,12.2,0,18.1v6.9c-0.6,0-1.4,0-2,0
		c-1.4-0.2-2.8-0.5-4.2-0.6c0-2.3,0-4.5,0-6.9c0-10,0-19.8,0-29.8c0.9,0.2,2,0.3,3.1,0.2c0.9,0,2.2-0.3,3.1-0.6c0,2.2,0,4.4,0,6.6
		c-0.6-0.3-1.2-0.2-1.9,0c-0.8,0.2-1.6,0.3-2.3,0.6C110.3,12.1,110.5,13.1,111.1,13z M110.8,69.7c0.9,0,1.7-0.2,2.5-0.2
		c0.8-0.2,1.2-0.3,1.9-0.6c0,1.6,0,3.1,0,4.7c-0.2,0-0.5,0.2-0.6,0.2c-0.8,0.2-1.7,0-2.5-0.2c-0.8-0.2-1.2,0.9-0.5,1.2
		c0.9,0.5,2,0.6,3.1,0.5c0.2,0,0.3,0,0.6-0.2v19.2c0,3.7-0.2,7.3-0.2,11.1c-0.2,0-0.3,0-0.5,0c-1.9,0.2-3.6-0.3-5.2-1.2
		c-0.2-0.2-0.3-0.2-0.5,0c0-3.4-0.2-7-0.2-10.5c0-13.3,0-26.7,0-40c2,0.6,4.5,0.6,6.2-0.2v14.2c-0.6-0.2-1.2-0.2-2,0
		c-0.9,0.2-1.7,0.3-2.7,0.5C110,68.7,110,69.7,110.8,69.7z M109.4,130.6c0.3,0.2,0.6,0.3,0.8,0.3c1.2,0.5,3,0.9,4.4,0.6
		c0,2.3,0.2,4.5,0.2,6.9c-2,0-3.7,0.3-5.6-0.5C109.2,135.6,109.2,133.1,109.4,130.6z M109.2,115c1.7,0.9,3.9,1.4,5.5,0.9
		c-0.2,4.7-0.2,9.4-0.2,13.9c-0.8-0.3-1.9-0.3-2.7-0.5c-0.6-0.2-1.6-0.3-2-0.6c-0.3-0.2-0.3-0.5-0.5-0.6
		C109.4,123.6,109.2,119.2,109.2,115z M111.2,114c-0.8-0.3-1.6-0.6-2.2-1.1c0-2.5-0.2-4.8-0.2-7.3c1.4,0.9,3.7,1.7,5.9,1.7
		c0,2.3-0.2,4.7-0.2,7C113.6,114.3,112.5,114.3,111.2,114z M112,52.5c-1.1,0-2-0.2-3.1-0.3c0-2.8,0-5.8,0-8.6
		c1.2,0.5,2.7,0.6,4.1,0.9c0.8,0.2,1.6,0.2,2.3,0.3c0,2.3,0,4.8,0,7.2C114.2,52.2,113.1,52.5,112,52.5z M112.2,3.8
		c-1.1,0.2-2.2,0.2-3.3,0c0-1.9,0-3.7,0-5.6c1.9,0.5,4.2,0.8,6.2,0.3c0,1.4,0,2.8,0,4.2C114.2,3.2,113.1,3.6,112.2,3.8z M112.9-2.8
		c-1.2,0.2-2.7,0-3.9-0.2c0-1.9,0-3.9,0-5.8c1.1,0.3,2.2,0.5,3.4,0.6c0.9,0.2,1.9,0.5,2.8,0.3c0,1.6,0,3.1,0,4.5
		C114.4-3.1,113.7-2.8,112.9-2.8z M109-33.7c2.2,0.3,4.4,0.3,6.1-0.8c0,2,0,4.1,0,5.9c-0.8,0.3-1.7,0.8-2.5,0.9
		c-1.2,0.3-2.5,0.6-3.7,0.9C109-29,109-31.4,109-33.7z M113.4-19c-1.4,0.2-2.8,0.5-4.4,0.6c0-2.3,0-4.5,0-6.9c1.4,0,2.8-0.2,4.2-0.5
		c0.6-0.2,1.2-0.3,2-0.6c0,0.5,0,1.1,0,1.6c0,1.7,0,3.6,0,5.3C114.7-19.3,114-19.2,113.4-19z M109,140c1.9,0.8,4.1,0.9,5.8,0.3
		c0.2,3.4,0.5,6.7,0.9,10c-1.7,0.8-3.3,2-4.4,3.4c-0.6-1.4-1.7-2.7-3-3.1l0,0C108.6,147,108.9,143.5,109,140z M113.1,164.2
		c1.1,1.1,1.4,2.7,2.5,3.6c0,0.3,0,0.5,0.2,0.8c-0.8-0.5-1.7-0.6-2.5-0.8c-1.7-0.3-3.1,0-4.7,0.6c-0.6,0.3-0.2,1.1,0.5,0.9
		c1.4-0.3,3-0.3,4.4,0.2c0.9,0.3,1.7,0.8,2.5,0.9c0,0.2,0.2,0.3,0.2,0.5c0,0.6,0.2,1.4,0.2,2c-1.1-0.3-2.5,0.2-3.6,0
		c-1.1,0-2.2-0.2-3.3-0.5c-0.3,0-1.6-0.3-2.2-0.5c0-1.7-0.2-3.3-0.3-5c0.9-0.2,1.9-0.6,2.8-0.6c1.4-0.2,2.8,0,4.2-0.2
		c0.3,0,0.5-0.5,0.2-0.6c-1.9-1.2-5.3-1.2-7.5,0c0-0.2,0-0.3,0-0.3c0.2,0,0.3-0.2,0.3-0.2c0.2,0,0.3,0,0.3-0.2
		C109,164,110.9,162.4,113.1,164.2z M107,173.5c1.2,0.6,3.1,0.9,3.9,1.1c1.4,0.2,3.7,0.6,5.3-0.2c0,1.6,0,3.3-0.2,4.8
		c-1.4,0-2.8,0.3-4.2,0.3c-1.9,0-3.6-0.5-5.5-0.8C106.7,177.1,106.9,175.2,107,173.5z M123.3,156.2c0.9,3.1-0.3,5.3-3.1,6.9
		c-0.3,0.2-0.5,0.3-0.8,0.3c0.5-1.2,0.3-3,0-4.1c-0.8-2.5-2.8-5.3-5.5-5.9c0.8-0.6,1.7-1.1,2.5-1.4
		C120.1,150.3,122.3,153.2,123.3,156.2z M93.7-111.6c-0.5-0.2-0.9-0.2-1.4-0.3c-8.6-2-16.7-5.5-24.2-10
		c-9.4-6.1-17.6-14.1-24.7-22.2c-13.9-15.8-19.1-35.9-22.3-56.2c-1.4-20.5,3-41.1,12-59.5c0.2-0.3,0.3-0.8,0.6-1.1
		c0.5-0.6,0.8-1.4,1.2-2c9.2-15.1,21.6-28.1,36.5-37.2c2.2-0.8,4.5-1.6,7-2c16.1-0.6,32.2-1.1,48.4,2c19.5,3.7,37.9,11.6,52.8,24.8
		c14.2,12.6,24.5,29.7,26.4,48.9c2.2,22.5-5.8,45.4-15.8,65.1c-8.9,17.6-21.4,33.6-39.4,42.6c-14.4,7.3-30.9,10.2-47,8.6
		c-0.2-0.6-0.6-1.1-1.4-1.1C99.4-111,96.6-111.3,93.7-111.6z M102-102.4c-4.1-2.2-0.5-3.7,1.7-4.5c2.2,0.2,4.2,0.3,6.4,0.3
		c0.2,0,0.3,0,0.5,0c2,0.5,3.7,1.2,5.5,2.3c-2.8,1.1-5.8,1.6-8.9,1.6c-0.5-0.8-2-1.2-2.8,0c0,0.2-0.2,0.2-0.2,0.3
		C103.4-102.1,102.5-102.1,102-102.4z M96.4-81.2c4.4-5.8,8.1-11.9,10.9-18.6c0.5,0,0.9-0.2,1.4-0.2c0.9,0,1.7-0.2,2.7-0.3
		c-0.2,0.3-0.2,0.8,0,1.1c2.3,5.5,5.6,10.3,9.7,14.5c-1.4,0.2-2.8,0.3-4.2,0.5c-0.3-0.2-0.8-0.2-0.9,0.2c-0.8,0.2-1.6,0.2-2.2,0.3
		c-1.9,0.2-3.6,0.3-5.5,0.5c-0.3-0.2-0.6-0.2-0.8,0.2C103.6-82.7,100-82.1,96.4-81.2z M102.2,155.7c0.5-2,2.3-3.7,4.7-3.3
		c-0.5,0.3-1.1,0.6-1.4,1.1c-1.4,1.9-2.2,5.6-0.5,7.5c0.2,0.2,0.6,0.2,0.8-0.2c0.8-1.7,0.5-3.7,1.2-5.5c0.5-1.1,0.8-1.1,1.9-1.2h0.2
		c0.3,0.3,0.5,0.8,0.8,1.1l0,0c0,1.6,0.2,3.1,0.3,4.5c0,0.5,0.2,1.1,0.3,1.6c-1.6,0.2-3.1,1.1-4.2,2.2
		C104,161.5,101.5,159.2,102.2,155.7z M106.2,180.1c2.8,1.2,6.9,1.9,9.7,0.6c-0.2,0.9-0.3,1.9-0.5,2.7c-0.9,0-1.7,0.3-2.7,0.3
		c-1.4,0.2-3,0-4.5-0.2c-0.5,0-0.6,0.6-0.2,0.8c1.6,0.6,3,0.9,4.7,0.9c0.8,0,1.6,0,2.3-0.3c-0.6,2.8-1.4,5.8-2.5,8.6
		c-1.6,0.2-3.1,0.6-4.8,0.5c-1.9-0.2-3.6-0.9-5.2-1.9c0.3-0.9,0.8-1.9,1.1-3c0.9,0.3,1.9,0.3,3,0.5c0.9,0,2,0.2,2.8-0.5
		c0.2-0.2,0.3-0.5,0-0.6c-0.8-0.5-1.7-0.5-2.7-0.5c-0.9,0-1.9-0.2-2.8-0.2C105,185.6,105.6,182.7,106.2,180.1z M104.5,197.4
		c0.9,0.9,2.2,1.2,3.6,1.4c0.8,0,2,0.2,2.8-0.3c-0.3,0.8-0.6,1.7-0.9,2.5c-1.7-0.3-3.4-0.2-5-0.5c-1.7-0.5-3.1-1.1-4.7-1.7
		c0.6-1.6,1.2-3.3,2-4.8c2.5,1.9,6.7,3.1,9.8,2c-0.2,0.5-0.3,0.9-0.6,1.4l0,0c-0.9-0.5-2-0.2-3-0.2c-1.2,0-2.3-0.3-3.4-0.3
		C104.5,196.8,104.4,197.1,104.5,197.4z M99.5,207.3c1.1,1.1,2.3,1.6,3.9,1.7c0.9,0.2,2.3,0.3,3.3-0.2c-1.6,3.7-3.1,7.5-4.8,11.2
		l0,0c-1.1-0.6-2.3-0.5-3.4-0.9c-1.4-0.5-2.7-1.4-3.7-2.3c-0.3-0.3-0.9,0.2-0.8,0.6c1.2,2,5,4.7,7.7,3.6c-0.9,2.2-1.9,4.2-3,6.4
		c-1.4-0.6-3.3-0.5-4.7-1.1c-1.7-0.8-3-2-3.9-3.4c1.7-3.9,3.4-7.8,5.2-11.7c1.6,1.1,3.7,2.2,5.5,1.2c0.3-0.2,0.3-0.5,0-0.6
		c-0.8-0.5-1.7-0.5-2.7-0.6c-0.8-0.2-1.6-0.6-2.2-0.9c1.6-3.4,3-6.9,4.4-10.3c2.3,2,6.4,3.6,9.5,3c-0.8,1.7-1.4,3.4-2.2,5.2
		c-1.1-0.3-2.2,0.2-3.4,0.2c-1.4,0-2.8-0.5-4.1-0.8C99.5,206.8,99.2,207.1,99.5,207.3z M21.7,216.3c0,2.5-0.2,5.5-2,7
		c-1.1-1.1-2.2-2.3-3.1-3.6c-0.3-0.5-0.8-0.6-1.1-0.5c-0.8-0.8-1.2-1.6-1.7-2.5c1.6-2.8,4.2-3.7,6.1-5.9
		C21.7,211.3,21.7,214.6,21.7,216.3z M-111,236.3c-2.8-3.3-5.5-6.7-8.3-10.2c-0.2-0.2-0.3-0.3-0.3-0.5c-0.8-1.1-1.6-2-2.3-3.1
		c-0.5-0.8-0.9-1.4-1.2-2.3c-1.4-3.6-0.9-5.8-0.2-9.5c3.3-16.4,10.9-31.4,21.9-43.9c1.2-1.6-0.9-3.7-2.2-2.2c-1.2,1.4-2.5,3-3.6,4.5
		c-0.6,0.6-1.1,1.2-1.7,1.9c-0.2-0.3-0.3-0.6-0.6-0.8c-0.2,0-0.2-0.2-0.3-0.2c0-0.9,0-1.9,0.5-2.8c0.6-1.6,1.9-3,3-4.2
		c0.2-0.2,0.2-0.2,0.3-0.3c1.9-1.1,3.7-2,5.8-1.7c-0.2,0.2-0.5,0.5-0.6,0.6c-1.2,1.6,0.9,3.7,2.2,2.2c9.7-10.9,25.3-20.9,40.3-20.3
		c8.3,0.3,16.1,3,23.3,7.2c3.4,2,6.7,4.5,9.8,7.2c0.9,0.8,5.6,4.2,6.6,5.9c-0.2,0.3-0.2,0.5-0.2,0.8c-0.3,0.3-0.6,0.6-0.8,1.1
		c-0.5,0-0.6,0.5-0.6,0.8c-0.6,0.8-1.1,1.7-1.7,2.5c0.2,0.2,0.3,0.2,0.5,0.3c0.3,0.2,0.6,0.3,0.9,0.5l0.3,0.2c0.2,0,0.3,0.2,0.5,0.2
		c0.2,0,0.3,0.2,0.5,0.3c1.6-1.9,3.1-3.7,4.7-5.6c0,0,0,0,0-0.2c0.2-0.3,0.3-0.6,0.5-0.9c0.3-0.5,0.3-0.9,0-1.4
		c5.3-4.5,10.3-9.5,15.5-14.4c3.4-3.3,7.7-8.3,12.2-11.6c1.1-0.5,2-0.9,3.1-1.1c-6.7,13.3-16.2,23.4-26.9,34
		c-0.2,0.2-0.2,0.3-0.3,0.3s-0.3,0.2-0.6,0.3c-14.5,13.7-28.7,28-42.6,42.3c-13.4,14.1-27.8,27.8-40.1,42.8
		C-100.7,250.5-105.8,242.4-111,236.3z M-70.7,262.1c0.8-0.3,1.1-0.8,1.1-1.4c5.9-1.4,15.3,5.5,10.2,11.6c-2.5,2.8-6.7,2.8-9.8,1.1
		C-72.7,271.3-77,264.1-70.7,262.1z M-98.7,283.9c0.3-0.5,0.6-0.9,1.1-1.2c0.2-0.2,0.5-0.5,0.6-0.6c0.2,0.2,0.2,0.5,0.2,0.5
		c0.2,0.5,0.3,0.9,0.3,1.4c0.2,0.6,0,1.2,0,1.9c-1.1-0.2-2.2-0.2-3.3-0.3C-99.4,285-99.1,284.6-98.7,283.9z M-106.6,310
		c0.8-6.4,2-12.6,3.6-18.9c0.5-0.9,0.9-1.7,1.6-2.5c0.5,0.2,0.9,0.3,1.6,0.3c2.5,0.3,5.6-0.3,5.9,3.1c0.3,3.4-1.4,6.6-0.2,10
		c-2,1.1-3.7,2.5-5.3,3.9c-0.6,0.6-1.4,1.6-2,2.5c-0.2,0.2-0.3,0.2-0.3,0.3c0,0.2-0.2,0.3-0.2,0.5c-0.9,1.4-1.7,3-2,4.4
		c-0.2-0.2-0.2-0.2-0.3-0.3C-105.2,312.2-105.8,311.1-106.6,310L-106.6,310z M-119.9,304.6c1.1-4.8,7-4.2,11.1-3.4
		c-0.3,1.7-0.8,3.4-0.9,5c-1.4-0.6-3,1.2-1.7,2.7c0.8,0.9,7.7,9.8,4.8,11.4c0.5-0.3-5.6-6.1-5.9-6.2
		C-115.4,311.6-121,309.4-119.9,304.6z M-116.1,316.6c0.2-0.2,0.3-0.3,0.5-0.6c0,0,0-0.2,0.2-0.2c1.6,1.6,3,3.3,4.2,5.2
		c-0.2,0.3-0.2,0.6,0,0.9c0.5,1.4,0.6,2.7-1.1,1.9c-0.9-0.5-1.9-1.2-2.5-2.2C-116,320.2-116.3,318.3-116.1,316.6z M-115.1,327.8
		c-0.3-0.6-0.6-1.6-0.6-2.5c0.2,0.2,0.2,0.2,0.3,0.3c0.3,0.3,0.8,0.5,1.1,0.8c0.5,0.6,1.1,1.1,1.7,1.6
		C-113.3,328.6-114.4,329.2-115.1,327.8z M-108.2,368.6c-1.1-0.2-2.2-0.3-3.1-0.6l0,0c-0.2-0.5-0.3-0.9-0.5-1.4
		c-0.5-1.7-0.9-3.6-1.2-5.5c0.8,0.3,1.9,0.6,3.3,0.6c1.7,0.2,3.7,0.3,5.5,0.2C-105.4,364.2-106.6,366.4-108.2,368.6z M-101.5,346.9
		c-0.5,4.7,0.3,11.9-6.1,12c-6.1,0.2-4.7-7.3-4.7-11.6c0.2-5,0.6-10,1.2-15l0,0v-0.2c0.2,0.2,0.5,0.2,0.8,0.2c2,0.2,3.7,0.2,5.6,0.8
		c1.4,0.5,2.7,1.1,4.1,1.6L-101.5,346.9z M-100.1,331.3c-1.6-0.6-3.1-1.2-4.8-1.9c-1.6-0.5-2.8-0.5-4.4-0.5c0-0.5,0-0.8-0.3-1.1
		c0-0.3,0.2-0.5,0.2-0.8c0,0,0,0,0.2,0c1.2-0.8,1.7-2.2,1.6-3.6c1.4,0.8,3.1,0.6,4.1-0.9c0.5-0.6,0.8-1.6,0.8-2.3
		c0-0.2,0.2-0.3,0.2-0.5c0.2-0.5,0.2-1.1,0-1.7c1.2,0.6,3,0.6,4.5,0.5C-99,322.8-99.6,327-100.1,331.3z M-17.9,323.8
		c-0.6,2.7-1.4,5.8-2.5,8.4c-3,7.2-8.1,8.4-15,7.2c-6.1-1.1-12-3-17.8-4.8c-6.1-2-15.8-3.9-19.1-10c-0.2-0.3-0.3-0.5-0.5-0.5
		c-0.2-0.9-1.2-1.4-2-1.1c-0.3-0.2-0.6-0.2-0.6,0.3v0.2c-0.2,0.2-0.2,0.3-0.3,0.5c-0.9,4.4-2.2,10.6-7.3,10.9
		c-0.3,0-0.8-0.2-1.2-0.3c-1.6-0.3-3-0.8-4.5-1.1c-2.5-1.1-5-2.5-7.7-3c-0.2,0-0.3,0-0.5,0c0.3-2.3,0.6-4.8,1.1-7.2
		c0.2-0.9,0.3-1.7,0.5-2.7s0.3-2,0.6-3h0.2c1.1-0.3,2-0.9,3.1-1.6c0.3-0.2,0.5-0.3,0.8-0.3c3-1.2,5.6-1.6,8.9-1.1
		c1.1,0.2,1.6-0.8,1.4-1.7c0.2-0.2,0.2-0.3,0.2-0.5v-0.2c0-0.5-0.5-0.8-0.8-0.6l0,0c-0.2,0-0.5,0-0.6,0h-0.2h-0.2
		c0-0.2-0.2-0.2-0.3-0.2c-0.5,0-1.1,0-1.6,0c-0.6,0-1.2,0-2,0c-0.3,0-0.6,0-0.8,0s-0.2,0-0.3,0.2c-0.8,0.2-1.7,0.3-2.7,0.5
		c-2.7,0.9-5.2,2.7-8,3.3c-1.2,0.5-2.3,0.5-3.6-0.3c0.3-0.8,0.6-1.6,0.9-2.3c1.1-2.3,2.5-4.2,4.7-5.9c2.3-1.7,5.2-3.3,7.8-4.4
		c5.8,1.1,10.9,3.7,16.2,6.6c0,0,0,0.2,0.2,0.2c10.6,6.2,22.2,10,33.9,13.4c2,0.6,3.9,1.2,5.9,1.7c1.7,0.5,2.5-1.9,1.2-2.8
		c1.2-6.2,1.7-12.6,1.7-19.1c4.5,0.5,9.2,0.3,13.6-0.6C-15.3,309.1-16.2,316.4-17.9,323.8z M23.9,244c-1.6,7.5-4.7,15-8.1,21.9
		C9.6,278.3,0,294.6-14.3,298.3c-2.7,0.6-5.2,0.9-7.8,1.1c-1.7-0.2-3.4-0.5-5.2-0.8c-6.7-1.2-13.7-3-20.1-5.8
		c-3.9-2-7.5-4.5-10.9-7.2c-2.8-2.2-5.6-4.5-8.4-6.9c0.2,0,0.3,0,0.5,0c-1.1-0.8-2-1.4-3.1-2.3c3.4,1.4,7.5,1.4,10.6-0.9
		c4.8-3.4,5.3-10.3,0.8-14.2c-4.1-3.6-12-6.1-16.4-1.7c-0.3,0.3-0.5,0.8-0.5,1.2c-2.5,2.3-2.7,6.2-1.2,9.5c0,0.3,0.2,0.5,0.2,0.8
		c-3.1-2.7-6.1-5.3-9.2-7.8c-0.5-2.2-1.6-3.9-0.3-6.4c1.6-2.8,6.1-5.8,9.2-4.4c0.6,0.3,1.2-0.3,0.9-0.9c-2.2-4.8-9.8,0.2-11.9,2.8
		c-0.9,1.1-1.7,3.6-1.7,5.8c-0.6-0.6-1.4-1.1-2-1.7l0,0c-0.2-0.2-0.3-0.3-0.3-0.3c-0.5-0.5-1.1-0.9-1.7-1.4
		c14.4-13.3,27.2-28.6,40.8-42.6c7.8-8.1,15.6-16.1,23.6-23.9c0.5,0.5,1.1,0.8,1.6,1.1c3.6,3.9,8.3,6.9,12.5,10
		c2.2,1.6,4.4,3.1,6.6,4.7c0.9,0.6,1.9,1.6,3,2.2c0.5,0.5,1.1,0.6,1.7,0.5c0,0,0,0,0.2,0c0.6,0,0.9-0.6,0.9-1.1c0-0.2,0-0.5,0-0.8
		c-3.4-10.2,8.9-17.8,16.7-10.9c1.4,1.6,2.3,3.6,3,5.8c-0.3,0.6-0.2,1.1,0.3,1.6c0.2,0.8,0.2,1.4,0.2,2.2c0,0.6-0.2,1.2-0.3,1.9
		c-0.6,0.9-1.6,2-2.7,3c-1.2,1.1-2.3,2-3.3,3.1c-0.9-0.5-2.5,0.5-2.2,1.9c0.5,2.5,1.7,4.8,3.7,6.6c0.3,0.3,0.6,0.3,0.9,0.3
		c1.1,1.2,2,2.3,3,3.4c0.2,0.6,0.5,1.2,1.1,1.2C22.7,231.8,25.7,236.3,23.9,244z M59.4,276.9c1.1,6.7,2,13.6,2.3,20.5
		c0,1.6,0,3-0.2,4.5c-3.1,16.9-8.7,33.6-13.1,50.1c-0.2,0-0.2-0.2-0.3-0.2l0,0v0.2c-0.2,1.1-0.3,2.2-0.5,3.4
		c8.1,6.2,12.6,19.5,15.8,29.4c-3.6-2.8-6.4-10.5-7.2-13.3c-0.2-0.6-0.6-0.9-1.1-0.9c0-0.2-0.2-0.5-0.2-0.6c-0.5-2-3.4-1.1-3,0.8
		c0.9,4.4,1.7,8.7,2.2,13.3c0.2,2.2,2,12.2-2.3,10.3c-0.9-0.5-2-4.2-2.5-5.2c-0.9-2.2-1.9-4.4-2.8-6.7c-0.6-1.6-0.9-3.1-1.7-4.5
		c0-0.2,0-0.3,0.2-0.5c0.5-1.4-1.1-2.2-2-1.9c-1.4-0.5-2.8,1.4-1.6,2.7l0.2,0.2c-0.9,3.6-1.7,7.2-2,10.9c-0.2,1.6-0.3,15.6-3.1,14.5
		c-2.7-1.1-2.8-13.4-3.1-15.6c-0.5-3.4-1.2-6.6-2.8-9.7c-0.3-0.6-0.6-0.8-1.1-0.8c-0.8-0.3-1.7,0-1.9,0.9c-0.8,4.5-1.7,8.9-2.5,13.4
		c-0.2,0.5-1.6,7.3-1.6,7.3c-2-0.3-1.6-3.6-1.9-5.2c-0.9-4.7-2.3-9.7-2.5-14.5c-0.2-5.6,2-10.8,4.2-15.9c0-0.2,0-0.2,0-0.3
		c1.4-0.9,0.6-3.4-1.1-2.8c-2.8,1.1-5.6,2.2-8.6,3.3c-1.1,0.5-4.4,2.2-6.2,2.5c3.1-7.2,12.6-10.6,18.7-14.5c3.1-1.9,5.5-4.4,6.9-7.3
		c0.6-0.2,1.4-0.6,1.4-1.4c0-0.6,0-1.4,0.2-2c2.7-7.3,5.2-14.5,7.7-21.9c1.9-5.2,3.4-9.7,3.9-14.7c0.6-2.5,1.1-5.2,1.1-7.7
		c0.6-15.8-4.4-33-9.4-48.3c-0.3-1.4-0.6-2.8-0.9-4.2c3,0.2,5.9,0.2,8.9,0.3c2.3,0,4.5,0.2,6.9,0.2c0,0.2,0,0.5,0,0.6l5.5,25.9
		C58.4,273.2,58.9,275,59.4,276.9z M68.9,229.1c0.3-5,0.8-10.2,1.4-15.1c0.2-1.6-1.7-1.9-2.7-0.9v-0.2c0-0.5-0.9-0.5-0.9,0
		c-0.5,3.7-0.6,7.7-0.6,11.6c-0.3,3.4-0.5,6.7-0.6,10.2c-0.2,3.9,0.9,6.2-3.1,7.2c-0.2,0-0.2,0-0.3,0c-2,0-4.1,0-6.2,0
		c-1.4-0.2-2.8-0.3-4.1-0.3c-3-0.2-6.1-0.2-9.1-0.3c-3.3-0.2-9.2,0.9-12-0.3c-0.9,0-1.7,0-2.7,0c0.2-1.9,0.2-3.7,0.3-5.6
		c0.2-3.7,0.3-7.5,0.5-11.4c0.2-2-3-2-3.1,0s-0.2,4.2-0.3,6.2c-0.9-1.4-1.9-2.8-3-4.1c0.3-0.8,0.6-1.6,0.9-2.3
		c1.4-2,1.7-4.8,1.7-7.5c0-3-0.5-6.9-3.4-8.1c0.6-1.7,0.6-3.7,0.5-5.6c0-0.2,0-0.2,0-0.3c10.8-8.9,21.7-17.6,34.2-24
		c6.4-3.3,13.3-5.9,20.3-7.7c5.8-1.4,19.4-4.2,25.8-0.8c0,0.2,0.2,0.3,0.2,0.3l0.2,0.2c0.5,0.5,1.4,0.6,1.9,0.3
		c0.2-0.2,0.2-0.2,0.3-0.3c0.2-0.2,0.3-0.2,0.3-0.3c-1.4,22.5-13.1,42.6-21.9,63.2C78.7,230.8,73.9,228.2,68.9,229.1z M89.5,245.2
		C89.5,245.4,89.5,245.4,89.5,245.2C89.5,245.4,89.5,245.4,89.5,245.2c-2.3,0.2-4.4,0.3-6.1-1.6c-1.9-2.2-1.1-5.3,0.5-7.3v-0.2
		c0.5,1.2,1.6,2.2,2.8,2.8c1.2,0.8,3.4,1.7,5.2,1.4C91.2,242.1,90.5,243.6,89.5,245.2z M92.6,239.1c-1.1-0.3-2.3-0.5-3.3-0.8
		c-1.9-0.6-4.1-2-4.1-4.2c0-0.3-0.2-0.5-0.3-0.5c0.3-0.8,0.8-1.6,1.1-2.3c0.2,0.9,0.8,1.9,1.4,2.5c0.6,0.6,1.7,1.6,2.5,0.9
		c0.2-0.2,0.2-0.3,0.2-0.3c-0.2-0.5-0.5-0.6-0.8-0.9c-0.5-0.3-0.9-0.6-1.2-1.1c-0.3-0.5-0.5-0.9-0.8-1.4c-0.2-0.3-0.5-0.6-0.8-0.5
		l0,0l0,0c0.9-2.2,1.9-4.4,3-6.6c0.8,1.4,2,2.7,3.6,3.4c1.4,0.8,3.7,1.6,5.3,0.8C96.2,231.8,94.5,235.4,92.6,239.1z M97.3,241.3
		c0.2-0.5-0.2-0.8-0.6-0.8c-0.2,0-0.3,0-0.3,0c-0.5-0.3-1.1-0.6-1.7-0.8c5.8-10.8,10.3-22.2,14.8-33.4c4.7-11.6,9.2-22.3,8.3-34.5
		c0.6,0.2,1.2,0.2,1.7,0.3c2,0.9,4.4,1.7,6.2,2.8c2.3,1.4,5,3.4,7.7,4.5v0.2c0.9,9.8-4.1,18.3-9.8,26.4c-2.7,3.1-5.3,6.1-7.3,9.4
		c-4.5,7-8.6,14.5-12.6,21.9c-0.8,1.1-1.6,2-2.3,3C99.2,242.7,98.4,242.2,97.3,241.3z M197.6,265.2c-7.8,0.9-15.3,3.4-21.9,8
		c-8.9,6.1-14.8,17.8-25.5,21.1c-3.3,0.9-6.2,0.8-9.2-0.2c-2.5-1.1-5-2.5-7.3-4.2c-5.5-4.2-10.2-10.5-13.9-14.8
		c-7.3-8.6-13.7-18-19.5-27.8c0.2,0,0.3-0.2,0.5-0.2c2.7-1.4,4.2-6.2,5.6-8.6c2.7-4.5,5.3-9.1,8.1-13.4c5.8-9.4,14.8-18.9,19.5-29.7
		c2-3.6,3.4-7.3,3.3-11.4c0.5,0.3,0.8,0.8,1.2,1.2c2.8,3.6,5.8,7,8,11.2c2.8,5.2,5,10.8,7,16.2c0.5,2.2,0.9,4.5,1.1,6.9
		c0.8,6.4,0.5,12.8,0.2,19.2c-0.3,5.5-0.9,10.8,1.9,15.6c0.3,0.6,1.4,0.3,1.4-0.3c-0.5-10.9,0.2-23.3-1.2-35c0.6,0,1.4-0.3,1.6-1.1
		c0.2-0.5,0.3-1.1,0.6-1.6c5-5.6,9.2-11.9,14.1-17.6c0.2-0.2,0.3-0.5,0.5-0.6c1.2-1.2,2.5-2.7,3.4-3.7c5.5-3.9,15.1-3.7,13,7.8
		c-0.6,3.3-2.5,6.4-3.7,9.5c-6.6,6.4-11.2,15.3-14.8,23.6c-3.9,8.9-7.7,19.1-8.4,28.7c-0.8,1.2-1.6,2.5-2.5,3.7
		c-0.3,0-0.6,0.2-0.9,0.5c-8,8.9-16.9,1.6-23.9-8.7c-3.3-5.9-6.4-12-9.7-18c-1.2-3.1-2.2-5.8-2.8-7.3c-0.5-1.6-2.3-1.4-2.8-0.3
		c-0.2,0-0.5,0-0.6,0.2c-0.8,0.2-1.6,0.2-2.5,0.2c-0.2,0-0.3,0-0.5,0l-0.2-0.2l-0.2,0.2c-0.5,0.5-1.1,0.9-1.6,1.4l-0.2,0.2
		c0,0,0.2,0,0.2,0.2c0,0.5,0,0.8,0.5,1.2c2.5,2.5,5,5.2,7.3,7.7c0.3,0.3,0.6,0.5,1.1,0.5c3.1,7.7,7.3,14.8,13,20.9
		c1.9,3,4.2,5.8,6.9,8c5.8,4.7,11.9,2.7,16.1-1.9c0.6-0.5,1.2-1.1,1.9-1.7c0.3-0.5,0.5-0.8,0.3-1.2c0.6-1.1,1.2-2.2,1.7-3.3l0.2-0.2
		c0.5-1.1,0.8-2,1.1-3.1c0.6,0.2,1.4,0.2,1.9-0.5c5-1.6,9.8-3.9,14.5-6.2c2.7-0.8,5.5-1.4,8.3-1.9c0.6-0.2,1.1-0.6,1.1-1.1
		c2,0,3.9,0.6,5.8,2.3c3.3,3.1,4.2,6.2,2.8,9.7l0,0C198.5,264.7,198.1,264.9,197.6,265.2z M121.1,237.9c-0.6-0.6-1.2-1.2-1.9-1.9
		c0.5,0,0.8,0,1.2,0C120.6,236.6,120.8,237.2,121.1,237.9z M202.6,277.7c-1.2-0.3-2.5-1.2-3.4-2.2c-2.3-2.3-1.9-5.3,0.8-7l0,0
		c1.2-0.8,2.3-1.6,3.6-2.2c0.8,0.6,2.2,0.5,2.5-0.8c0-0.2,0-0.2,0.2-0.3c1.2-0.3,2.7-0.5,4.1-0.3c1.9,0.2,3.1,0.8,3.6,2.2
		c-0.9,0.3-1.6,1.4-1.1,2.3c0.5,0.8,0.6,1.7,0.5,2.7c0,0.2,0,0.2-0.2,0.3c-0.2,0.2-0.2,0.3-0.2,0.6c-0.6,0.2-1.2,0.5-1.9,0.8
		c-0.5,0.2-0.9,0.3-1.4,0.6C207.1,275.2,204.8,276.3,202.6,277.7C202.7,277.7,202.7,277.7,202.6,277.7z M226.8,291
		c-1.4,2.3-4.1,3.4-6.2,5.2c-1.4,0.2-2.8,0.5-4.5,0.5c-3.4,0-7.2-2.2-9.7-4.8c-2-2.2-2.7-5.2-3.4-8c0.8-0.3,1.2-0.9,1.9-1.6
		c0.6-0.6,1.4-1.2,1.4-2.2c0-0.3-0.2-0.5-0.3-0.6c1.9-1.1,3.7-1.9,5.8-2.3c0.5-0.2,0.8-0.5,0.9-0.8c0.6,0.6,1.9,0.8,2.5-0.3
		c0.6-0.9,0.9-2,1.1-3.1c0-0.2,0.2-0.3,0.2-0.3c1.7,2.2,5.3,1.4,7.5-0.2c0.9,2.2,1.9,4.2,2.7,6.4C228,282.7,229.1,287.1,226.8,291z"
		/>
	<path display="inline" fill="#414042" d="M74.7-290.9c-6.7,3.4-11.1,10.5-15.3,16.4c-5.3,7.5-9.4,15.3-11.6,24.2
		c-0.5,2,2.5,2.8,3,0.8c1.9-7.7,5.2-14.7,9.7-21.2c4.2-6.2,8.9-14.1,15.6-17.5C78.1-289,76.6-291.9,74.7-290.9z"/>
	<path display="inline" fill="#414042" d="M76.1-283.6c-9.5,7.3-16.1,17-19.4,28.6c-0.5,1.9,2.5,2.8,3,0.8c3-10.6,9.1-19.8,18-26.7
		C79.4-282,77.8-284.8,76.1-283.6z"/>
	<path display="inline" fill="#414042" d="M78.6-276.5c-5.2,4.8-9.4,10.6-12.3,17.2c-0.8,1.9,1.9,3.4,2.7,1.6
		c2.8-6.2,6.7-11.9,11.9-16.6C82.3-275.8,80.2-278,78.6-276.5z"/>
</g>
<g id="Layer_3">
	<path fill="none" stroke="#404040" stroke-width="2" stroke-miterlimit="10" d="M-127.9,222.6c0-25.9,31.2-83.4,72.6-83.4
		c18.7,0,38.7,21.5,38.7,21.5c12.3-12.3,27.6-30,34.1-30S-91,258-96.2,258S-127.9,226.5-127.9,222.6z"/>
	<path fill="none" stroke="#404040" stroke-width="2" stroke-miterlimit="10" d="M-109.9,175c0-8.2,2.5-14.1,11.2-14.1"/>
	<path fill="none" stroke="#404040" stroke-width="2" stroke-linejoin="round" stroke-miterlimit="10" d="M-95.2,257.5
		c0,0,41.2,44.4,66.2,44.4s73.9-53.8,43.1-84.5c0,0,14.4-11.4,5.2-20.7s-23.7,4.2-19.2,8.7L-26.7,185"/>
	
		<line fill="none" stroke="#404040" stroke-width="2" stroke-linecap="round" stroke-miterlimit="10" x1="-15.4" y1="172.2" x2="9.3" y2="193.3"/>
	<path fill="none" stroke="#404040" stroke-width="2" stroke-linecap="round" stroke-linejoin="round" stroke-miterlimit="10" d="
		M-50.5,226.1c0,0-5.5-16.4,14.9-16.4"/>
	<path fill="none" stroke="#404040" stroke-width="2" stroke-linecap="round" stroke-linejoin="round" stroke-miterlimit="10" d="
		M-88,264.4c0,0-2.8-12.6,11-12.6"/>
	
		<circle fill="none" stroke="#404040" stroke-width="2" stroke-linecap="round" stroke-linejoin="round" stroke-miterlimit="10" cx="-31.7" cy="232" r="10.7"/>
	
		<circle fill="none" stroke="#404040" stroke-width="2" stroke-linecap="round" stroke-linejoin="round" stroke-miterlimit="10" cx="-66.5" cy="267.2" r="9.5"/>
	<circle fill="#404040" cx="-31.5" cy="234" r="2.8"/>
	<circle fill="#404040" cx="-66.5" cy="271.2" r="2.7"/>
	<path fill="none" stroke="#404040" stroke-width="2" stroke-linecap="round" stroke-miterlimit="10" d="M-18.8,272.2
		c4.9-4.9,11.8-9,11.8-20"/>
	<path fill="none" stroke="#404040" stroke-width="2" stroke-linecap="round" stroke-miterlimit="10" d="M-44.5,265.5
		c-6,6-12.3,23.5,2.8,8.4"/>
	<path fill="none" stroke="#404040" stroke-width="2" stroke-linecap="round" stroke-linejoin="round" stroke-miterlimit="10" d="
		M5.3,206.2c0,0,3.2-10.2,9-4.3c5.8,5.8-2.9,10.8-2.9,10.8"/>
	<path fill="none" stroke="#404040" stroke-width="2" stroke-linecap="round" stroke-linejoin="round" stroke-miterlimit="10" d="
		M21,208.6c0,0,7.5,15.8-1.4,15.8"/>
	<path fill="none" stroke="#404040" stroke-width="2" stroke-linecap="round" stroke-linejoin="round" stroke-miterlimit="10" d="
		M25.7,223.8l-1,21.9c0,0,42,3,42,0s0.3-29,2.3-30.3"/>
	<path fill="none" stroke="#404040" stroke-width="2" stroke-linecap="round" stroke-linejoin="round" stroke-miterlimit="10" d="
		M35.6,246.3c18.4,56,7.4,85.8-6.6,99.8C15.1,360.1,1,363.7,4.3,367s18.3-5.9,18.3-4.3c0,1.6-5.1,34.4-2.1,37.4s7-21.7,8.5-21.7
		s3,28,6.7,28c3.7,0,5.3-29,7-29c1.7,0,6.1,20.3,9,20.3S51.5,372.5,53,371s8.3,16.3,10.3,16.3c1.7,0-3.1-24.9-8-32.9
		c-1.7-2.8-2.4-6.1-1.7-9.3c2.4-12.3,8.1-36.3,8.1-48.1c0-15-8.8-50-8.8-50"/>
	<path fill="none" stroke="#404040" stroke-width="2" stroke-linecap="round" stroke-linejoin="round" stroke-miterlimit="10" d="
		M-31.3,302.7c0,19.3-0.5,20.2-5.8,18.3s-47.7-21.3-51.2-21.3s-14,10.3-14,13.7c0,3.3,8.3-1.2,13.1-1.2c4.8,0,3.4,2.5,8.1,2.5"/>
	<path fill="none" stroke="#404040" stroke-width="2" stroke-linecap="round" stroke-linejoin="round" stroke-miterlimit="10" d="
		M-14.9,297.8c0,20.2-0.6,42-17.7,42s-37-16.8-41.3-16.8c-4.3,0-1.1,11.9-9.1,11.9s-14.5-4.9-14.5-4.9"/>
	<path fill="none" stroke="#404040" stroke-width="2" stroke-linecap="round" stroke-linejoin="round" stroke-miterlimit="10" d="
		M-108.8,299.6c-11.9-0.3-14.6-0.3-14.6,4.4s13.4,17,16.5,17s-3.8-12.1-3.8-14.2c0-2.1,2.4-0.5,2.4-0.5c0-22.5,7.4-18,11.5-18
		s3.7-0.5,3.7,13.1"/>
	<path fill="none" stroke="#404040" stroke-width="2" stroke-linecap="round" stroke-linejoin="round" stroke-miterlimit="10" d="
		M-118.7,312.7c0,6.7,4.6,13,8.3,13c3.7,0,1.4-4,1.4-4"/>
	<path fill="none" stroke="#404040" stroke-width="2" stroke-linecap="round" stroke-linejoin="round" stroke-miterlimit="10" d="
		M-118.3,321c0,6.5,3.7,9.6,6.9,9.6s2-4.3,2-4.3"/>
	<path fill="none" stroke="#404040" stroke-width="2" stroke-linecap="round" stroke-linejoin="round" stroke-miterlimit="10" d="
		M-107.3,306.8"/>
	<path fill="none" stroke="#404040" stroke-width="2" stroke-linecap="round" stroke-linejoin="round" stroke-miterlimit="10" d="
		M-96.5,314.2c-5.3,46.2-4.6,46.3-12.8,46.3c-11,0-4.5-29.9-4.5-29.9"/>
	<path fill="none" stroke="#404040" stroke-width="2" stroke-linecap="round" stroke-linejoin="round" stroke-miterlimit="10" d="
		M-102.5,287.2c0-4.5,3.5-5.5,5.2-5.5s2.8,2.2,2.8,6.1"/>
	<path fill="none" stroke="#404040" stroke-width="2" stroke-linecap="round" stroke-linejoin="round" stroke-miterlimit="10" d="
		M-115,356.5c0,0,0,17.8,3.2,17.8s7.1-5.8,8.6-15.9"/>
	<path fill="none" stroke="#404040" stroke-width="2" stroke-linecap="round" stroke-linejoin="round" stroke-miterlimit="10" d="
		M-109.1,329.9c5.1,0.9,9.8,4.6,9.8,4.6"/>
	
		<polygon fill="none" stroke="#404040" stroke-width="2" stroke-linecap="round" stroke-linejoin="round" stroke-miterlimit="10" points="
		-108.5,338 -110.2,352.8 -105.2,353.5 -103.6,338.5 	"/>
	
		<line fill="none" stroke="#404040" stroke-width="2" stroke-linecap="round" stroke-linejoin="round" stroke-miterlimit="10" x1="-114.2" y1="368.7" x2="-106.3" y2="369.2"/>
	<path fill="none" stroke="#404040" stroke-width="2" stroke-linecap="round" stroke-linejoin="round" stroke-miterlimit="10" d="
		M21.8,196.3C67.3,167.7,81.5,164,92.3,164s13.8,0.8,13.9,3.8c0.1,2.9-20.3,68.2-23.6,68.2s-15.6-8.9-15.6-5.5"/>
	<path fill="none" stroke="#404040" stroke-width="2" stroke-linecap="round" stroke-linejoin="round" stroke-miterlimit="10" d="
		M105.5,165.1c0-3.7,3.5-3.4,6.6-3.4c3.2,0,5.5,3.3,5.5,8.7c0,5.3-16.8,77.4-31.4,77.4S82.7,236,82.7,236"/>
	<path fill="none" stroke="#404040" stroke-width="2" stroke-linecap="round" stroke-linejoin="round" stroke-miterlimit="10" d="
		M117.7,169.3c0,0,18.7,3,18.7,8.7s-30.8,66.3-37.3,66.3c-6.4,0-5.3-2-5.3-2"/>
	<path fill="none" stroke="#404040" stroke-width="2" stroke-linecap="round" stroke-linejoin="round" stroke-miterlimit="10" d="
		M136.1,179.4c0,0,20.3,9,20.3,71"/>
	<path fill="none" stroke="#404040" stroke-width="2" stroke-linecap="round" stroke-linejoin="round" stroke-miterlimit="10" d="
		M154,217.9c0,0,17.3-28.6,25.6-28.6c11.1,0,16.7,13.3,9.3,20.6s-27.7,48.4-27.7,59.7c0,3-3,6.7-10.3,6.7S119.7,245,119.7,236"/>
	<path fill="none" stroke="#404040" stroke-width="2" stroke-linecap="round" stroke-linejoin="round" stroke-miterlimit="10" d="
		M95.1,243.8c0,18.2,37.6,53.2,48.6,53.2s29.6-23.3,39.3-25.8c9.6-2.4,18-4.1,18-7.2s-1.7-15-9.7-15s-27.1,8.8-27.1,8.8"/>
	<path fill="none" stroke="#404040" stroke-width="2" stroke-linecap="round" stroke-linejoin="round" stroke-miterlimit="10" d="
		M173.3,191.3c-7.3,0-1.3-7.5,2.7-7.5c0,0,2.3-10.1,19.3-10.1s27,36.4,27,42.8c0,6.5-9,9.8-16.7,9.8C198,226.3,189,210,189,210"/>
	<path fill="none" stroke="#404040" stroke-width="2" stroke-linecap="round" stroke-linejoin="round" stroke-miterlimit="10" d="
		M187.4,248.3c0-3.6,10.1-3.3,10.1-4.5s2.5-1.6,8.8-1.6c6.3,0,15.1,4.4,15.1,18.7c0,6.5,9.1,15.7,9.1,21.7s-0.9,17.3-12.9,17.3
		s-20.1-11.9-20.1-20.6c0-4.7-7.2-7.1-3.2-11.1"/>
	<path fill="none" stroke="#404040" stroke-width="2" stroke-linecap="round" stroke-linejoin="round" stroke-miterlimit="10" d="
		M205.5,283c10.8-5.2,14.3-6.1,17.8-2.6c2.3,2.3,0.1,12.6-3.4,14c-8.2,3.2-12.8-6.2-12.8-6.2"/>
	<path fill="none" stroke="#404040" stroke-width="2" stroke-linecap="round" stroke-linejoin="round" stroke-miterlimit="10" d="
		M214.7,274.7c1.7-6.3,1-14.3-11.3-9.3c-12.3,5-6.8,10.5-4.3,13S214.7,274.7,214.7,274.7z"/>
	<path fill="none" stroke="#404040" stroke-width="2" stroke-linecap="round" stroke-linejoin="round" stroke-miterlimit="10" d="
		M197.3,214.3c12.8-12.8,12.5-11.6,16.1-8s5.2,8.5,0,13.7C208.3,225.2,194.4,217.1,197.3,214.3z"/>
	<path fill="none" stroke="#404040" stroke-width="2" stroke-linecap="round" stroke-linejoin="round" stroke-miterlimit="10" d="
		M207.5,199.7c0-4.7-12.2-7.7-12.6-2.8c-0.3,3.5-3.7,13.8-2.6,13.8c3.1-0.1,13.2-7.8,13.2-7.8"/>
	<path fill="none" stroke="#404040" stroke-width="2" stroke-linecap="round" stroke-linejoin="round" stroke-miterlimit="10" d="
		M193.2,174.3c8.3,3.9,17.1,11.8,20.8,22.9c3.7,11.2,9.4,21.5,3,26.1"/>
	<path fill="none" stroke="#404040" stroke-width="2" stroke-linecap="round" stroke-linejoin="round" stroke-miterlimit="10" d="
		M197.1,245.1c8.2-0.1,15.8-1.1,18.2,3.7s3.3,10.9,5.4,15.9c2.1,4.9,7.2,14.7,7.2,19s-3.8,13.4-8,15.7"/>
	<path fill="none" stroke="#404040" stroke-width="2" stroke-linecap="round" stroke-linejoin="round" stroke-miterlimit="10" d="
		M176,183.8"/>
	<path fill="none" stroke="#404040" stroke-width="2" stroke-linecap="round" stroke-linejoin="round" stroke-miterlimit="10" d="
		M104.5,164c-7.5-9.5-4-14,1-14s6.7,11.7,6.7,11.7"/>
	<path fill="none" stroke="#404040" stroke-width="2" stroke-linecap="round" stroke-linejoin="round" stroke-miterlimit="10" d="
		M111.9,155.3c4.1-4.3,7-7,10.6-3.4c3.6,3.6-1.3,12.1-6.4,12.1"/>
	
		<line fill="none" stroke="#404040" stroke-width="2" stroke-linecap="round" stroke-linejoin="round" stroke-miterlimit="10" x1="107.7" y1="-81" x2="107.7" y2="150"/>
	
		<line fill="none" stroke="#404040" stroke-width="2" stroke-linecap="round" stroke-linejoin="round" stroke-miterlimit="10" x1="116.7" y1="-81.6" x2="117" y2="149"/>
	<path fill="none" stroke="#404040" stroke-width="2" stroke-linecap="round" stroke-linejoin="round" stroke-miterlimit="10" d="
		M105-101.5c-10.5,21-13.5,22-13.5,22s34.5-6,41-4s-17.8-9-17.8-19.2C114.7-104,105-101.5,105-101.5z"/>
	<path fill="none" stroke="#404040" stroke-width="2" stroke-linecap="round" stroke-linejoin="round" stroke-miterlimit="10" d="
		M123-107.2c0-0.3-3.6,4.2-14,4.2c-7.7,0-14-1.9-14-4.2c0-2.3,6.3-4.2,14-4.2S123-109.6,123-107.2z"/>
	
		<ellipse fill="none" stroke="#404040" stroke-width="2" stroke-linecap="round" stroke-linejoin="round" stroke-miterlimit="10" cx="110.6" cy="-214.2" rx="97.8" ry="102.8"/>
	<path fill="none" stroke="#404040" stroke-width="2" stroke-linecap="round" stroke-linejoin="round" stroke-miterlimit="10" d="
		M-102.4,219.1"/>
</g>
</svg>
