<?xml version="1.0" encoding="utf-8"?>
<!-- Generator: Adobe Illustrator 18.1.0, SVG Export Plug-In . SVG Version: 6.00 Build 0)  -->
<svg version="1.1" id="Layer_2" xmlns="http://www.w3.org/2000/svg" xmlns:xlink="http://www.w3.org/1999/xlink" x="0px" y="0px"
	 viewBox="0 0 260.3 482.3" enable-background="new 0 0 260.3 482.3" xml:space="preserve">
<path fill="#FFFFFF" d="M79.7,341.1c-2.2-2-4.9-1.8-7.1,0c0.5-0.4-0.9,0.7-1.1,0.8c-0.6,0.4-1.2,0.7-1.8,1c-1.2,0.6-2.5,1.2-3.7,1.8
	c-1.1,0.5-1.8,1.5-2.2,2.7c-1.8,0.3-3.3,1.5-3.8,3.4c-0.7,2.4,0.8,5.7,3.5,6.2c5,0.8,9.5-0.4,13.4-3.6c1.2-1,1.6-2.6,1.4-4.1
	c0.5-0.3,1-0.7,1.5-1.1C81.7,346.5,81.5,342.8,79.7,341.1z"/>
<path fill="#FFFFFF" d="M66.1,376.9c-0.4-1.2-1.1-2.4-2.3-3c-0.5-0.3-1.1-0.5-1.6-0.6c-1.2-0.2-1.8-0.2-3,0c-1.2,0.2-2.4,1.3-3,2.3
	c-0.6,1.1-0.9,2.7-0.5,3.9c0.4,1.2,1.1,2.4,2.3,3c0.7,0.4,1.4,0.5,2.1,0.6c0.8,0.2,1.7,0.2,2.5,0c1.2-0.3,2.4-1.2,3-2.3
	C66.2,379.6,66.5,378.2,66.1,376.9z"/>
<path fill="#FFFFFF" d="M88.1,352.4c-0.2-0.3-0.5-0.6-0.8-0.9c-0.1-0.1-0.3-0.3-0.5-0.4c-0.1-0.1-0.2-0.1-0.3-0.2
	c-0.5-0.4-1.2-0.6-1.8-0.8c-1.1-0.3-2.1-0.2-3.2,0c-1.2,0.2-2.5,0.9-3.3,1.9c-0.6,0.6-1,1.4-1.3,2.2c-0.2,0.9-0.2,1.8,0,2.7
	c0.5,1.7,1.8,2.9,3.5,3.5c1.3,0.4,2.8,0.6,4.2,0.7c2.6,0.1,5.1-2.4,5-5C89.7,354.5,89.1,353.3,88.1,352.4z"/>
<path fill="#F9F9FA" d="M234.3,55.6c0.2-0.3,0.4-0.7,0.3-1.3c-0.2-1.5-0.8-2.7-1.6-3.7c-3.5-7.8-8.5-14.8-14.6-20.6
	c-3.2-3.5-6.9-6.5-11.1-8.5c-1-0.6-2.1-1.3-3.2-1.8c-0.6-0.3-1.2-0.2-1.6,0.1c-0.4-0.1-0.8-0.2-1.2-0.3c-7.8-3.1-15.7-6.4-24-7.5
	c-5-0.7-10.1-0.6-15.2-0.4c-2.8,0.1-5.4,0.3-7.9,1.1c-0.4-0.4-1.1-0.6-1.7-0.2c-12,7.9-24.7,16.6-30.6,30.3c-1.1,2.7-2,5.5-2.8,8.3
	c-2.1,4.7-3.3,9.6-3,15c0,0.5,0.1,1.1,0.1,1.6c0,0.2,0,0.4-0.1,0.6c-0.7,7.9,0.6,15,3,22.3c0.3,1.1,0.7,2.2,1.1,3.2
	c0,0.1,0.1,0.3,0.1,0.4c5.3,14.2,12.5,26.6,25.9,34.5c5.5,3.3,11.5,5.5,17.7,6.8c1.9,1.4,4.1,2.3,6.5,2c1.7-0.2,3.4-0.4,5.1-0.5
	c0.3,0.2,0.6,0.2,1,0.2c1.4-0.2,2.8-0.4,4.1-0.7c0,0,0.1,0,0.1,0c1-0.1,2.1-0.2,3.1-0.4c0.1,0,0.3,0,0.4,0c0.1,0,0.3,0,0.4-0.1l0,0
	c0,0,0.1,0,0.1,0c0.2,0,0.4-0.1,0.6-0.1c0.3,0.3,0.8,0.4,1.3,0.2c0.6-0.2,1.2-0.5,1.9-0.7c1.7-0.3,3.4-0.7,5.1-1.1
	c2-0.5,3.7-1.5,5.3-2.6c5.7-2.7,11.2-5.9,15.6-10.6c6.1-6.5,10.3-14.8,13.9-22.9c3.7-8.4,7.2-17.5,8.4-26.6
	C237.7,65.9,236.4,60.7,234.3,55.6z"/>
<path fill="#F9F9FA" d="M176.1,138.6c-0.7-0.1-1.4-0.1-2-0.1c-0.9-0.1-2.1-0.2-3.3-0.1c-0.2,0-0.4,0-0.7,0c-0.5,0-0.8,0.1-1,0.4
	c-0.6,0.2-1,0.6-1.2,1.2c-0.6,0.9-0.2,2.3,1.2,2.3c1,0,2-0.1,2.9-0.1c0.3,0,0.5-0.1,0.7-0.2c1.1-0.1,2.3-0.2,3.4-0.3
	C178,141.4,178,138.7,176.1,138.6z"/>
<path fill="#F9F9FA" d="M249.9,386.6c-0.6-1.8-1.6-3.4-2.5-5c-1.8-3-2.7-5.3-3.3-8.9c-0.6-3.5-1.4-6.8-5-8.3
	c-3.9-1.6-8.9-0.7-12.8-0.1c-1.7,0.2-1.3,3,0.4,2.9c0,0,0.1,0,0.1,0c0.1,0.3,0.3,0.6,0.7,0.8c5.3,2.3,4.8,6,3.3,10.5
	c-0.4,1.2-1,1.8-0.7,3.1c0.2,1.4,1.4,2.4,2,3.6c1,2,1.2,4.3,2.1,6.4c2.2,5.6,10.3,8.5,14.7,3.3C250.9,392.6,250.8,389.3,249.9,386.6
	z"/>
<path fill="#F9F9FA" d="M239,328.8c0.1-0.3,0.1-0.7-0.2-1.2c-0.8-1.1-1.5-2.3-2.4-3.3c-1.7-2-3.7-3.7-6.4-4.3c-2.3-0.4-4.6,0-6.7,1
	c-1.5,0.3-3,0.8-4.4,1.3c-1.1,0.4-1.2,1.6-0.8,2.3c-0.2,0.2-0.3,0.3-0.5,0.5c0,0,0,0,0,0c-0.1,0-0.1,0-0.2,0
	c-0.6-0.1-1.3,0.5-1.4,1.1c0,0.1,0,0.1-0.1,0.2c-0.2,0.6,0.1,1.3,0.6,1.6c0.3,0.4,0.8,0.7,1.5,0.5c0.4-0.1,0.9-0.2,1.3-0.3
	c0.8-0.1,1.6-0.4,2.4-0.6c0.2,0,0.3-0.1,0.4-0.2c0.3,0.4,0.5,0.8,0.8,1.1c1.2,1.4,2.5,2.1,3.2,3.4c-0.2,1.5-0.3,3-0.2,4.5
	c0,0.5,0.3,0.9,0.6,1.1c-0.1,1.3-0.2,2.6,0.3,4c1.5,4.6,4.8,8.4,9.9,8.6C249.6,350.9,243.6,335.5,239,328.8z"/>
<path fill="#F9F9FA" d="M41.2,388c-3.2,0-3.2,5,0,5C44.4,393,44.4,388,41.2,388z"/>
<path fill="#F9F9FA" d="M185.2,365.3c-0.7-1-2.3-1.7-3.4-0.9c-0.2,0.2-0.4,0.3-0.7,0.5c-0.5,0.4-1,0.8-1.1,1.5
	c-0.2,0.6-0.1,1.4,0.3,1.9c0.7,1,2.3,1.7,3.4,0.9c0.2-0.2,0.4-0.3,0.7-0.5c0.5-0.4,1-0.8,1.1-1.5
	C185.6,366.6,185.5,365.8,185.2,365.3z"/>
<path fill="#F9F9FA" d="M188,320.6c-2.4-2.5-6.1-4-9.8-5c0-0.1,0-0.1,0-0.2c-0.1-0.6-0.3-1.1-0.4-1.7c0.1-0.1,0.2-0.1,0.3-0.2
	c0.2,0,0.5,0,0.7-0.1c0.2,0,0.4,0,0.6,0c1-0.1,1.6-0.7,2-1.4c0.2-0.1,0.4-0.1,0.5-0.2c2.3-1.2,1.5-4.7,0-6.2
	c-0.4-0.4-0.8-0.7-1.3-0.8c-0.5-0.5-1.1-0.8-1.8-1c-0.5-2.9-1-5.7-1.3-8.6c0-0.2-0.1-0.5-0.2-0.6c0-0.1,0-0.3,0-0.4
	c0.3-1,0.6-2,0.8-3c0.2-0.8-0.2-1.4-0.8-1.7c0.1-17.3,0.1-34.5-0.1-51.8c0-0.3,0-0.6,0-0.9c0-5.9-0.1-11.8-0.2-17.6
	c0.3-0.2,0.5-0.6,0.5-1.1c0-5.1,0.1-10.3,0.4-15.4c0-0.1,0-0.2,0-0.3c0-0.1,0-0.1,0-0.2c0-0.8,0.1-1.6,0.1-2.4
	c0-0.3-0.1-0.6-0.2-0.8c-0.1-4.9-0.4-9.9-0.8-14.8c0-0.6,0-1.1,0-1.7c0-0.1,0-0.3,0-0.4c0.2-8.2,0.5-16.3,1-24.5
	c0.1-1.3-1.3-1.7-2.3-1.2c0,0,0-0.1,0-0.1c0-0.7-0.4-1.1-0.9-1.3c1.8-0.4,3.9-0.9,5.1-0.4c1.8,0.7,3.1-1.5,1.5-2.6
	c-3-2.1-4.9-5.2-5.5-8.8c-0.2-0.9-1.5-1.4-2.2-0.9c-0.4,0.3-0.7,0.6-1,0.9c-0.2-0.2-0.4-0.4-0.7-0.5c0,0-0.1,0-0.1,0
	c-0.7-0.1-1.4,0.1-1.7,0.7c0,0,0,0.1-0.1,0.1c-0.3,0.5-0.2,1,0,1.4c-0.1,1.7-1.1,3.6-2.2,5.4c-1.3,1.5-2.7,2.9-4.2,4.2
	c-1.2,1,0.1,2.8,1.5,2.5c2.4-0.5,4.8-0.9,7.2-1.4c0.2,0,0.4-0.1,0.6-0.1c-0.2,0.2-0.3,0.5-0.3,0.9c0.2,7.7,0.4,15.4,0.6,23.1
	c-2.5,8.6,0.1,17.6-0.7,26.4c0,0.5,0.1,0.8,0.4,1.1c-1,13.5-0.5,26.8-0.8,40.4c0,0.7,0.3,1.1,0.8,1.3c0,0,0,0.1,0,0.1
	c0.2,0.8,0.3,1.6,0.4,2.5c-0.4,3.6-0.7,7.2-0.7,10.8c0,5.1,0.2,9.8-0.5,14.8c-0.5,3.1,0.6,6.6,1.1,9.6c0,0.2,0.1,0.4,0.2,0.5
	c-0.7,3.9-1.2,7.8-1.3,11.7c0,0.6,0.3,1,0.7,1.3c-0.1,0.4-0.1,0.8-0.2,1.2c-0.1,1.1,0,2.6-0.2,3.7c-1.2,0.1-2.6,0.8-3.1,1.9
	c-0.9,1.8,0.4,3.5,1.3,4.9c0.4,0.7,0.8,1.7,1.3,2.6c-0.1,0.1-0.2,0.2-0.3,0.2c-0.2,0-0.4-0.1-0.6-0.1c-6.1-0.9-12.3-0.5-18.3,1.1
	c-6.1,1.7-11.9,4.5-17.3,8c-2.7,1.7-5.3,3.7-7.9,5.7c-0.7,0.6-5.1,3.8-7.1,6c-0.7,0-1.4,0.2-2,0.6c-0.6,0.5-1.3,1-1.9,1.5
	c-0.4,0.3-0.6,0.7-0.7,1.1c0-3.6-2.2-7.2-7.2-7.5c-3.6-0.2-7,1.4-8.5,4.5c-2-1.5-4.6-1.9-6.8-1.1c-0.2-3.8-5-7-9.2-5.2
	c-2.8,1.2-4.8,3.7-6.4,6.4c-3.9,4.6-7.4,9.5-11.5,13.9c-5.7,6.1-12.4,10.9-19.9,14.4c-3.6,1.7-3.7,6.9-1.1,9.5
	c0.5,0.6,1.1,1.2,1.8,1.7c0.5,0.3,1.1,0.6,1.6,1c3.5,2.3,6.2,5.8,9.2,8.5c3.7,3.3,7.6,6.4,11.8,9c4.7,2.9,10.1,5.5,15.5,6.3
	c-0.5,0.4-0.8,1-0.9,1.8c-0.1,1.4-0.1,2.8-0.2,4.2c-0.2,3.1-0.7,6.1-2,8.9l0-0.3c-0.2-1.3-1.5-1.9-2.7-1.8c-0.5-1.1-1.8-1.5-2.8-1.2
	c-0.5-0.4-1.2-0.6-1.9-0.5c-0.7-0.8-1.8-1-2.8-0.7c-0.4-0.1-0.8-0.2-1.2-0.1c-0.6-0.6-1.4-0.8-2.1-0.7c-0.5-1.3-2-1.8-3.2-1.5
	c-0.6-0.4-1.3-0.5-1.9-0.5c-0.6-0.6-1.5-0.9-2.4-0.8c-0.6-1.2-1.6-1.6-2.6-1.4c-0.3-0.2-0.7-0.4-1.1-0.4c-0.4-1.2-1.4-1.7-2.4-1.6
	c-0.6-1.1-1.9-1.2-2.9-0.8c-0.3-0.6-0.8-1.1-1.5-1.2c-1.1-0.2-2.3-0.5-3.4-0.7c-0.9-0.1-1.8,0.2-2.5,0.8c-0.7,0-1.5,0.2-2.1,0.7
	c-0.6-0.8-1.1-1.6-1.6-2.4c-1.3-2.1-4.1-1.1-4.6,0.6c-0.2-0.7-0.8-1.2-1.6-1.4c-0.2,0-0.4-0.1-0.7-0.1c0,0,0,0,0,0c0,0,0,0-0.1,0
	c-0.6-0.1-1.2-0.1-1.8-0.1l-0.6,0c-0.4,0-0.7,0-1,0.1c-2.1,0.3-4.2,1.1-5.2,3c-1.5,2.8,1.3,5.6,3.6,7.6c0,0.1,0,0.2,0.1,0.3l0,0.1
	c-0.7,0.8-0.8,1.9-0.3,2.9c0,0.1,0.1,0.1,0.1,0.2c-0.2,0.6-0.4,1.3-0.5,2c-0.2,1.1,0.2,2.2,1.1,2.8c1,0.6,1.9,1,2.8,1.2
	c0,0.2,0,0.3,0,0.5c-0.1,0.2-0.1,0.5-0.2,0.7c-0.1,1.9-0.3,3.8-0.3,5.7c-0.9,2.8-1.3,5.5-1.3,8.5c0,0.8,0.4,1.5,1,1.9c0,0,0,0,0,0
	c0,2,2.8,3.5,4.3,1.8c2.8-3.5,2.7-8.9,3.4-13.1c0.1-0.5,0-0.9-0.2-1.4c0-0.1,0-0.2,0-0.3c0.2-0.2,0.4-0.5,0.5-0.9
	c0.1-0.2,0.1-0.4,0.2-0.6c0.8-0.1,1.5-0.5,1.9-1.2c0.1-0.2,0.2-0.3,0.3-0.5c0.6,0,1.3-0.1,1.7-0.6c0.5,0.5,1.1,0.9,1.8,1
	c-0.3,0.5-0.5,1.1-0.3,1.8c0.1,0,0.1,0,0.2,0c1.1,0.1,2.1,0.5,3.1,1c0.5,0.3,1,0.5,1.5,0.8c1.8-1.9,3.7-3.7,5.1-5.8
	c0.4-0.6,0.8-1.2,1-1.9c0,0,0.1,0,0.1-0.1c0.4,0.7,0.9,1,1.5,1c0.6,1.3,1.7,1.7,2.7,1.5c0.6,0.6,1.4,0.8,2.1,0.8
	c0.7,1.3,2.5,1.7,3.7,1.1c0.3,0.1,0.5,0.1,0.8,0.1c0.5,0.6,1.3,1,2,1c0.6,1.3,2.2,1.7,3.4,1.2c0.2,0,0.3,0,0.5,0
	c0.6,1.1,1.9,1.5,3,1.2c0.6,0.2,1.2,0.1,1.8-0.1c0.3,0.2,0.7,0.3,1.1,0.3c0.8,1,2.3,0.9,3.4,0.1c1.8,0.6,3.2,0.2,4.3-0.7
	c0.1,0,0.3,0,0.4-0.1c3.1-1,3.7-3.9,4.4-6.8c0.5-2.1,0.9-4.2,1.1-6.3c0.2-0.3,0.4-0.6,0.5-1.1c0.6-3.5,1-6.9,1-10.5
	c1.1-0.4,2.2-0.8,3.3-1.4c2.8-1.6,5.2-3.8,7.3-6.3c0.5-0.2,0.9-0.6,1.3-1c1-1.3,2.1-2.7,3.1-4c0.4-0.5,0.8-1.1,1-1.6
	c4.2-4.5,6.1-10.6,7.4-16.7c0.7-1.8,1.3-3.7,1.3-5.5c0.5-0.3,0.9-0.8,1.1-1.4c0.2-0.7,0.3-1.5,0.4-2.2c0.1,0,0.2,0.1,0.2,0.1
	c0,0.3,0,0.6,0.1,0.9c0,1.2,1.1,2.7,2.5,2.5c0.9-0.1,1.8-0.2,2.7-0.2c0,0.2,0.1,0.5,0.2,0.7c4.8,10.9,6.2,23.9,5.8,35.7
	c-0.4,11.6-6.3,21.1-8.7,32.1c-0.4-0.2-0.9-0.2-1.4,0.1c-4.1,2.3-8,4.7-11.8,7.4c-0.3,0-0.6,0.1-0.9,0.3c-1,0.7-1.3,1-2,2
	c-0.9,1.2,0.9,2.9,2.1,2.1c0.1-0.1,0.3-0.2,0.4-0.3c0.4,0.3,1,0.4,1.5,0c1.2-0.8,2.8-1.8,4.3-2c0,0.1-0.1,0.1-0.1,0.2
	c-0.6,0.8-0.4,1.7,0.2,2.2c-0.1,0.2-0.2,0.5-0.3,0.7c-0.3,0.7-0.1,1.3,0.3,1.8c0,0.1,0,0.3,0,0.4c0.3,5.5,0.7,11.1,1,16.6
	c0.1,1.7,2.4,2.1,2.9,0.4c0.8-2.7,1.7-5.5,2.5-8.2c0.5,0,1.1,0,1.6,0c1.1,3.8,1.6,8,2.5,11.3c0.3,1.3,2.7,1.5,2.9,0
	c0.6-4.2,1.3-8.4,2-12.6c1.5,2.5,3.3,4.8,5.5,6.8c1.2,1.1,2.7,0,2.5-1.5c-0.4-3.2-0.8-6.3-1-9.5c1.6,2,3.3,3.9,5,5.7
	c1.2,1.3,3.1-0.3,2.4-1.8c-2.9-5.6-5.9-11.1-9.1-16.5c-0.1-0.2-0.3-0.3-0.4-0.5c-0.1-1.2-0.5-2.3-1-3.5c0.7-1,1.1-2.4,1.2-3.8
	c0.6-1.1,0.8-2.4,0.7-3.7c0.5-1.6,0.9-3.2,1.4-4.9c0,0,0-0.1,0-0.1c0.2-0.4,0.3-0.9,0.4-1.5c0-0.1,0-0.2,0.1-0.3
	c0.3-0.6,0.5-1.3,0.6-2c0.4-1.4,0.8-2.8,1.2-4.2c0.6-2.3,0.9-4.6,1.1-6.9c0.4-0.3,0.7-0.7,0.9-1.3c1.5-5,0.4-10-0.4-15.1
	c-0.1-0.3-0.1-0.6-0.2-0.9c0-0.5,0-0.9,0-1.4c-0.2-5.2-0.7-10.4-1.3-15.6c-0.3-2.3-0.4-4.9-0.8-7.3c2,0.2,4,0.2,5.6-0.9
	c1.8-1.2,2.1-3.2,2.1-5.2c0-1-0.1-2-0.1-3c3.4,0.6,6.5,1.9,9.5,3.5c-0.7,3.7-0.5,7.9,3.8,6.7c1.3-0.3,2.3-1.4,3.2-2.7
	c0.5,0.2,1,0.3,1.5,0.3c1.7,0.1,2.6-0.9,3.7-2.1c2.5-2.8,4.7-6.1,7-9.1C181.1,344.5,196.3,329.2,188,320.6z M37.5,407
	c-0.3,0.2-0.6,0.5-0.8,0.9c-0.3-0.4-0.5-0.9-0.8-1.3c-0.3-0.7-0.7-1.4-1.2-2c-0.6-0.8-1.4-1.1-2.2-1.1c-0.1-0.1-0.1-0.1-0.2-0.2
	l2,0.1c1.3,0.1,2.2-1,2.4-2.1c0.1,0.1,0.1,0.3,0.2,0.4c0.7,1.1,1.4,2.1,2.1,3.2C38.2,405.3,37.5,405.9,37.5,407z"/>
<path fill="#F9F9FA" d="M55,349.5c-0.1-1.2-1.1-2.7-2.5-2.5c-0.7,0.1-1.2,0.2-1.8,0.5c-0.4,0.3-0.8,0.7-1.1,1.1
	c-0.6-0.3-1.2-0.5-1.8-0.6c-1.5-0.3-3-0.4-4.5-0.5c-0.2-0.2-0.5-0.4-0.7-0.6c-2.5-2-6,1.5-3.5,3.5c2.1,1.7,3.6,3.8,5,6.1
	c1.7,2.7,5.7,0.4,4.4-2.3c0.2,0.1,0.4,0.2,0.7,0.3c1,0.2,1.8-0.1,2.6-0.8c0.4-0.3,0.6-0.8,0.7-1.2c0.4-0.1,0.7-0.4,0.9-0.7
	c0.3-0.1,0.6-0.3,0.8-0.5C54.7,350.8,55,350.1,55,349.5z"/>
<path fill="#F9F9FA" d="M41,309.6c-1-0.9-2.6-1-3.5,0c-1.2,1.3-2.5,2.5-3.8,3.7c-1,0.9-0.9,2.7,0,3.5c1.1,1,2.5,0.9,3.5,0
	c1.3-1.2,2.6-2.4,3.8-3.7C41.8,312.2,42,310.5,41,309.6z"/>
<path fill="#919191" d="M111.6,293.3c-1,1.4-2,2.8-3.1,4.2c-0.5-0.1-1.1,0.1-1.5,0.6c-4.8,5.1-11.1,8.6-15.2,14.4
	c-0.2-0.7-0.5-1.4-0.9-2.1c-2.4-3.9-7.1-6.3-11.1-8.6c-0.3-0.4-0.7-0.7-1.2-1c-12.7-6.7-28.3,1-37.9,9.9c-0.5,0.4-0.7,0.9-0.9,1.3
	c-4.7,5.1-8.2,10.9-11.1,17.2c-1.5,3.2-2.9,6.4-4.1,9.7c-0.4,1.2-0.6,2.3-0.6,3.3c-0.5,2.1,0.1,4.5,1.2,6.5c0.1,0.8,0.4,1.5,1,2.3
	c1.8,2.6,4.3,4.8,6.3,7.3c2.7,3.4,5.1,6.9,7.3,10.6c1.4,2.3,5.9,2.3,6.4-0.8c0-0.2,0-0.4,0.1-0.6c0.2-0.2,0.3-0.4,0.5-0.6
	c0.5,0,1-0.1,1.4-0.6c1.1-1.3,2.1-2.5,3.1-3.8c1.9-1.9,4.1-3.6,5.6-5.8c0.5-0.6,0.9-1.3,1.4-2c0.4-0.4,0.8-0.8,1.3-1.1
	c1.5-1.2,2.6-2.5,3.6-4c0.4-0.1,0.9-0.4,1.2-0.9c0.2-0.3,0.4-0.5,0.6-0.8c0.3-0.1,0.7-0.3,1-0.6c2.7-3,5.3-6,8-8.9
	c0.2-0.1,0.4-0.2,0.5-0.4c4.3-4.3,8.6-8.6,12.8-12.9c0.4-0.4,0.6-0.8,0.6-1.2c0.6,0.1,1.2,0,1.7-0.5c2.1-2.1,4.3-4.1,6.6-6.1
	c0.4-0.3,0.6-0.7,0.6-1.1c6.6-6.6,13.1-13.3,18.4-20.9C116.5,293.2,113.1,291.2,111.6,293.3z M52,351.2c-0.5,0.9-1.1,1.6-2,1.8
	c-1.2,0.4-2.1-0.2-3.2-0.6c-0.5-0.2-0.8,0.5-0.5,0.8c0.2,0.3,0.5,0.5,0.7,0.8c0,0.2,0,0.3,0.1,0.5c0.7,0.6,0.9,1.3,0.8,2.1
	c-0.2,0.3-0.4,0.6-0.6,0.9c-0.1,0.1-0.1,0.1-0.2,0.2c-0.2,0.2-0.4,0.4-0.5,0.5c-0.8,0.7-1.4,0.6-1.7-0.2c-0.7-0.5-1.3-1.7-1.8-2.5
	c-1.9-2.7-3.6-5.4-5.2-8.3c1.4-0.7,3.4-0.4,4.8-0.3c2.1,0.1,4.1,0.4,6.1,0.8c0.8,0.2,1.6,0.3,2.4,0.6C53,349,52.9,349.6,52,351.2z"
	/>
<path fill="#919191" d="M43.8,350.8c-0.1,0-0.2,0-0.2,0c-0.3-0.1-0.8,0.3-0.6,0.7c0.2,0.4,0.6,0.6,1,0.3c0,0,0,0,0,0
	c0.1-0.1,0.2-0.1,0.3-0.3C44.4,351.2,44.2,350.9,43.8,350.8z"/>
<path fill="#919191" d="M35.4,438.2c-0.4,0.1-0.7,0.2-1.1,0.4c-0.1,0.1-0.2,0.1-0.3,0.2c-0.1,0-0.2,0.1-0.2,0.1c-0.2,0-0.3,0-0.5,0
	c0-0.1,0-0.2-0.1-0.2c-0.1-0.6-0.7-0.8-1.2-0.7c-0.6-0.2-1.6,0.3-1.4,1.2c0.2,1,0.5,1.9,1,2.7c0.1,0.1,0.2,0.2,0.3,0.3
	c0,0.1,0,0.2,0.1,0.2c0.1,0.6,0.6,0.8,1.1,0.7c0.2,0.1,0.5,0.1,0.7,0c0.3,0,0.5-0.1,0.7-0.3c0.3,0,0.6-0.1,0.8-0.5
	c0.3-0.5,0.7-1.1,1-1.6c0.2-0.3,0.2-0.6,0-0.9C37.1,439.2,36.3,438,35.4,438.2z"/>
<path fill="#919191" d="M40.5,410.8c-0.5-0.2-1.1-0.2-1.6-0.2c-0.6-0.6-1.9-0.1-1.7,1l0.2,1c-0.1,0.1-0.1,0.2-0.2,0.4
	c0,0.1,0,0.1,0,0.2c0,0,0,0-0.1,0.1c-0.3,0.6-0.7,0.7-1.3,0.5c-0.4-0.1-1,0.1-1.1,0.5c-0.6,1.3-1.5,2.3-1,3.8
	c0.2,0.5,0.7,0.8,1.2,0.7c1.5-0.4,3.1,0.5,4.5,0.9c0.5,0.1,1.1-0.2,1.2-0.7c0.4-2.1-0.5-4.6,0.4-6.5C41.3,411.7,41.2,411,40.5,410.8
	z"/>
<path fill="#919191" d="M44,399.7c-0.1-0.7-0.3-1.3-0.4-2c0.1-0.8,0-1.6-0.1-2.5c0-0.1,0.1-0.2,0.1-0.3c0-1.1,0.1-1-0.3-2
	c-0.2-0.5-0.6-0.7-1-0.7c-0.9-0.8-2.4-0.5-3.7-0.5c-0.7,0-1,0.6-0.9,1.1c-0.1,0.1-0.1,0.1-0.2,0.2c-0.3,0.2-0.5,0.4-0.5,0.8
	c0,0.1,0,0.2,0,0.3c-0.6,1.5-0.6,3.8-1,5.2c-0.9,3.4-2,6.6,0.5,9.6c0.4,0.5,1.3,0.4,1.6-0.2c1.3-2.8,3.1-5.3,4.5-7.9c0,0,0,0,0,0
	C43.3,401.3,44.2,400.5,44,399.7z"/>
<path fill="#6B6B6B" d="M232.2,372.4c-1.5-2.2-3-3.3-5.5-4.1c-1-0.3-2.2,0-2.9,0.8c-0.1,0.2-0.3,0.3-0.4,0.4c-0.5-0.1-1-0.1-1.6,0.1
	c-0.9,0.4-1.9,0.8-2.8,1.2c-1,0.4-2,0.7-3.1,1c-0.6,0.2-1.1,0.5-1.4,0.9c-1.4,0.4-2.7,0.9-4.1,1.5c-0.5-0.5-1.1-0.9-1.6-1.3
	c-0.1,0-0.1-0.1-0.2-0.1c0.5-1.7,0.9-3.4,1.5-5c1.6-4.5,3.9-8.7,6.3-12.9c3-5.3,7.4-11.5,8.7-17.9c0.1-0.1,0.1-0.2,0.2-0.3
	c1.2-2.3,1.3-4.2-0.3-6.3c-1.1-1.5-3.7-1.8-4.9-0.6c-1.6,0.3-3.2,1.5-4.4,2.6c-4.6,4.3-8.9,9.1-12,14.6c-0.3-1-0.7-2-1.2-3
	c0.4-0.7,0.4-1.7-0.1-2.7c-2.3-4.7-4.8-9.3-7.5-13.7c0.3-3.8-5.6-3.7-6,0c-0.1,1,0,2,0.1,3c-1.1,3.1-2.3,6.1-3.9,9
	c-0.3-0.2-0.8-0.3-1.1,0.2c-0.1,0.1-0.1,0.1-0.2,0.2c0,0,0,0,0,0c0,0,0,0,0,0c-2.3,2.8-4.3,5.8-6.2,8.9c0,0-0.1,0-0.1,0.1l-3.1,3.5
	c-0.8,0.9-0.9,1.8-0.7,2.7c0,0,0,0,0,0c-1.8,1.8-3.4,3.8-4.7,6c-0.2,0.4-0.2,0.8,0,1c-0.2,0.3-0.4,0.5-0.6,0.8
	c-0.7-0.2-1.6,0.3-1.3,1.2c0.9,2.8,2.1,5.1,3.8,7.5c0.2,0.2,0.4,0.4,0.6,0.4c2.2,3.3,4.4,6.5,6.6,9.8c0.4,0.6,1.2,0.5,1.6,0.2
	c1.6,2.4,3.3,4.6,5.2,6.8c0.3,0.4,0.7,0.6,1.2,0.8c0.2,0.2,0.4,0.4,0.6,0.7c0,0.8,0.2,1.6,0.9,2.1c5.5,4.4,12.2,5.5,18.3,1.5
	c6.6-4.3,10.8-10.7,18-14.3c0.3-0.2,0.6-0.4,0.8-0.6c0.5,0.2,1.1,0.2,1.7-0.1c0.2-0.1,0.5-0.2,0.7-0.3c0,0,0,0,0,0c0,0,0,0,0,0
	c1.4-0.6,2.6-1.3,3.9-2.2C232.3,375.6,233.2,373.9,232.2,372.4z"/>
<path fill="#414042" d="M61.9,378.8C61.9,378.8,61.9,378.8,61.9,378.8C61.9,378.8,61.9,378.8,61.9,378.8c-0.1-0.1-0.2-0.1-0.2-0.1
	c-0.1,0-0.2-0.1-0.2-0.1c0,0-0.1,0-0.1-0.1c-0.9-0.2-1.6,0.3-1.8,1.2c-0.2,0.8,0.1,1.9,0.9,2.1c0.6,0.4,1.5,0.5,2,0
	C63.3,380.8,62.8,379.4,61.9,378.8z"/>
<path fill="#414042" d="M84.2,354.8c-1-0.3-1.9,0.2-2.5,0.9c-0.1,0.1-0.1,0.2-0.1,0.4c-0.1,0.1-0.1,0.3-0.1,0.4
	c-0.1,0.6,0.3,1.1,0.8,1.5c0.1,0.1,0.2,0.2,0.3,0.3c0,0,0.1,0,0.1,0.1c0,0,0.1,0,0.1,0.1c0.4,0.2,1,0.3,1.4,0.1
	c0.8-0.3,1.3-1,1.3-1.8C85.7,355.9,85.1,355.1,84.2,354.8z"/>
<path fill="#414042" d="M86.9,348.5c-3.9-1.9-8.4,0.1-10.4,3.7c-0.1,0.2-0.1,0.4-0.1,0.6c-1.2,2.8-0.6,6.1,2.1,8.1
	c3.3,2.4,10.1,1.4,12.2-2.2C92.8,355.1,90.4,350.2,86.9,348.5z M89.4,356.2c-0.4,3.2-5.4,4.8-8.3,3.9c-3.5-1.1-4.3-5.3-2-7.9
	c0.1-0.1,0.2-0.3,0.2-0.4C83,348.3,90.2,350.2,89.4,356.2z"/>
<path fill="#414042" d="M78,382.1c0-0.4-0.4-0.6-0.7-0.4c0,0,0,0-0.1,0c0,0-0.1,0.1-0.1,0.1c-0.3-0.1-0.6,0-0.9,0.2
	c-1.1,0.9-4,3.4-5.7,3.1c0,0,0,0-0.1-0.1c0.4-2.6,3.6-5.3,5.4-6.7c0,0,0,0,0,0c0.5-0.4,0.5-1.1,0.1-1.6c-0.3-0.3-0.7-0.5-1.2-0.1
	c-1.7,1.2-3.2,2.6-4.4,4.3c-0.9,1.2-2.5,3.2-2,4.9c0.4,1.4,2.4,1.5,3.5,1.1c2.1-0.7,4-2.3,5.7-3.6c0.3-0.3,0.4-0.6,0.3-0.9
	C78,382.4,78.1,382.3,78,382.1z"/>
<path fill="#414042" d="M81.4,340.5c-1.4-0.9-3.6-0.2-5,0.3c-2,0.6-3.8,1.7-5.1,3.3c-1.4,1.7-3.4,6.9-0.2,7.8
	c0.4,0.1,0.7-0.4,0.4-0.6c-2.3-2,0.8-6.1,2.5-7.3c1.9-1.4,4.7-2.3,7.1-2C81.8,342,82,340.8,81.4,340.5z"/>
<path fill="#414042" d="M100.3,370.5c0.1-0.9,0-1.8-0.6-2.3c-0.9-0.9-2.3,0.5-1.4,1.4c0.4,0.4-0.8,3.5-1,4c-0.5,1.1-1.2,2-1.9,2.8
	c-1.4,1.6-3.1,3-4.6,4.4c-0.9,0.9,0.5,2.3,1.4,1.4c1.9-1.7,4-3.4,5.5-5.5C99.4,374.9,100.6,372.7,100.3,370.5z"/>
<path fill="#414042" d="M111.5,334.1c-3-2.3-8.8-0.6-8.2,3.8c0.2,1.3,2.2,1.3,2,0c0-0.4,0-0.7,0.1-1c0.2-0.5,0.6-0.9,1-1.3
	c1.1-0.7,2.9-0.7,4,0.1c0.2,0.2,0.4,0.4,0.6,0.6c0.4,0.7,0.7,1.4,0.6,2.1c0,0.4-0.2,0.8-0.4,1.1c-0.5,0.5-1.4,0.9-2,1.1
	c-1.2,0.5-0.7,2.4,0.5,1.9c1.6-0.6,3.9-1.6,4.1-3.6C113.9,337.2,112.9,335.2,111.5,334.1z"/>
<path fill="#414042" d="M53.5,349.2c0-0.2,0-0.5-0.3-0.7c-1.5-1.2-5.1-1-7-1.2c-2.9-0.3-6-1-8.8-0.5c-0.1,0-0.2,0.2-0.1,0.3
	c-0.1,0.1-0.1,0.3,0,0.4c0.2,0.3,0.4,0.5,0.6,0.8c-0.1,0.1-0.1,0.3,0,0.4c2.2,3.7,4.8,7.5,7.8,10.7c0.3,0.3,0.7,0.2,0.9-0.1
	c0.7-1,1.7-1.6,2.4-2.5c0.2-0.2,0.1-0.6-0.1-0.7c0.1-0.1,0.1-0.3,0-0.5c-0.6-1.1-1.6-2.1-2.7-2.8c0.6,0.2,1.3,0.3,1.9,0.4
	c0.7,0.2,1.4,0.6,2.1,0.9c0.6,0.3,1-0.4,0.7-0.8c0.6-0.4,1-1.1,1.5-1.6c0.5-0.6,1.2-1.1,1.6-1.8C54.1,349.6,53.8,349.2,53.5,349.2z
	 M51.3,351.1c-0.4,0.5-1,1.1-1.2,1.7c-1.2-0.7-2.8-1.1-4.1-0.8c-0.2,0.1-0.3,0.3-0.2,0.5c-0.2-0.1-0.4,0.2-0.3,0.3
	c0.4,0.6,0.7,1.1,1.2,1.6c0.4,0.6,0.8,1.2,1.3,1.7c0,0,0,0,0,0c-0.9,0.4-1.5,1.1-2.1,1.9c-2.8-3-4.8-6.7-7.4-10c0,0,0,0,0,0
	c-0.1-0.2-0.3-0.4-0.4-0.6c1.8,0.5,3.8,0.5,5.7,0.8c0.3,0,8.4,0.9,8.5,1c0,0.2,0.2,0.3,0.3,0.3C52.2,350,51.7,350.6,51.3,351.1z"/>
<path fill="#414042" d="M45.2,350.8c-0.6-0.3-1.2-0.5-1.8-0.7c-0.3-0.1-1.2-0.4-1.4,0.1c0,0,0,0,0,0.1c-0.1,0.1-0.1,0.2-0.1,0.3
	c0.1,0.5,0.4,0.9,0.6,1.4c0.2,0.3,0.4,0.7,0.8,0.8c0.9,0.3,1.4-0.7,2-1.2C45.5,351.4,45.5,350.9,45.2,350.8z M43.4,351.6
	c-0.1-0.2-0.2-0.3-0.3-0.5c0.3,0.1,0.7,0.2,1,0.3c0,0,0,0,0,0C43.8,351.7,43.6,351.9,43.4,351.6z"/>
<path fill="#414042" d="M37.1,424.9c0-1.4-1.9-1.2-3-1.4c-0.6-0.1-0.8,0.7-0.4,0.9c-0.1,0-0.2,0.1-0.2,0.3c-0.5,2.7-0.9,5.4-1.2,8.2
	c0,0.2,0.2,0.4,0.4,0.5c0.5,0.2,1.1,0.3,1.6,0.5c0.6,0.2,0.9-0.8,0.3-1c-0.4-0.1-0.8-0.2-1.2-0.4c0.3-2.5,0.6-5,1.1-7.5
	c0-0.2,0-0.4-0.2-0.5c0.7,0.1,1.9,0.2,2,0.4c0.1,0.1-0.5,2-0.6,2.3c-0.3,1.7-0.7,3.3-1.2,5c-0.1,0.3,0.1,0.5,0.3,0.6
	c0.1,0.1,0.2,0.1,0.3,0.1c0.4,0,0.5-0.3,0.5-0.6c0.3-1.2,0.6-2.3,0.9-3.5C36.6,427.5,37.1,426.1,37.1,424.9z"/>
<path fill="#414042" d="M166.8,350.1c-0.3-0.4-0.9-0.5-1.3-0.6c-0.6-0.2-1.2-0.5-1.8-0.7c-0.1,0-0.2,0.1-0.1,0.2
	c0.4,0.5,0.9,0.8,1.5,1.1c0.5,0.2,1.1,0.5,1.6,0.2C166.8,350.3,166.8,350.2,166.8,350.1z"/>
<path fill="#414042" d="M227.6,333.4c-0.1,0.1-0.1,0.1-0.2,0.2c-0.1,0.1,0,0.1,0.1,0.1C227.6,333.6,227.6,333.6,227.6,333.4
	C227.7,333.5,227.7,333.4,227.6,333.4z"/>
<path fill="#414042" d="M240.2,338.9c-0.1-0.4-0.6-0.7-1-0.4c-2.6,1.8-5.2,3.5-7.6,5.5c-0.3,0.3,0.1,0.7,0.4,0.6
	c2.5-1.3,4.9-2.9,7.2-4.5c1.3,2.4,3.8,5.2,0.2,7c-1.8,0.9-4.1,1.2-5.8,0c-1.1-0.8-1.6-2.1-2.7-2.8c-0.2-0.1-0.5,0-0.5,0.3
	c-0.1,1.8,2,3.7,3.6,4.4c1.8,0.7,4.2,0.2,5.9-0.5c1.5-0.7,2.5-1.9,2.7-3.6C243,342.3,241.1,341,240.2,338.9z"/>
<path fill="#414042" d="M244.7,384.8c-2.8-1.3-6.9,1.4-8.6,3.4c-0.1,0.2,0,0.4,0.2,0.4c1.7-0.4,3.1-1.6,4.6-2.3
	c1.7-0.8,3.5-0.6,4.5,1.2c0.6,1.1,0.6,2.6,0.2,3.8c-0.7,1.9-2.7,3.3-4.8,3c-1.9-0.3-2.7-1.7-4.1-2.7c-0.3-0.2-0.6,0.1-0.6,0.4
	c-0.1,2.5,3,4,5.2,4.1c2.7,0.1,5.2-1.9,5.9-4.4C248,389.2,247.1,385.9,244.7,384.8z"/>
<path fill="#414042" d="M176.7,224.1c-0.1-0.1-0.3-0.1-0.4-0.1c-0.6,0.1-1.1,0.3-1.7,0.3c-0.3,0-0.4,0.5-0.1,0.6
	c0.7,0.1,1.3,0.2,2-0.1c0.2-0.1,0.3-0.2,0.3-0.4C176.8,224.2,176.8,224.2,176.7,224.1z"/>
<path fill="#414042" d="M176.9,247.4c-0.6-0.3-1.4-0.1-2,0.1c-0.4,0.1-0.3,0.7,0.1,0.7c0.6,0,1.4,0,1.9-0.5
	C177.1,247.7,177.1,247.5,176.9,247.4z"/>
<path fill="#414042" d="M176.7,263.7c-0.3-0.3-0.5-0.4-0.9-0.5c-0.4-0.1-0.8-0.2-1.2-0.2c-0.5-0.1-0.5,0.7-0.1,0.8
	c0.7,0.3,1.5,0.5,2.2,0.3C176.8,264,176.8,263.8,176.7,263.7z"/>
<path fill="#414042" d="M149,341.4c-0.4-0.3-0.7-0.6-1.1-0.7c-0.3-0.1-0.5,0.3-0.4,0.5c0.3,0.4,0.6,0.6,1,0.9
	c0.3,0.2,0.5,0.3,0.9,0.3c0.1,0,0.1-0.1,0.1-0.2C149.4,341.8,149.3,341.6,149,341.4z"/>
<path fill="#414042" d="M150.7,340.4c-0.2-0.4-0.5-0.5-0.8-0.7c-0.4-0.2-0.7-0.4-1.1-0.5c-0.3,0-0.5,0.3-0.3,0.5
	c0.4,0.5,1.4,1.1,2.1,1C150.7,340.7,150.7,340.5,150.7,340.4z"/>
<path fill="#414042" d="M251.3,388.9c-0.3-2.6-1.5-5-2.6-7.4c-0.3-0.7-2.3-4.4-3.4-6.4c0.2,0,0.3-0.2,0.3-0.4
	c-0.8-3.4-0.6-8.3-4-10.3c-3.6-2.1-9.5-2.6-13.3-1.1c-0.1,0-0.1,0.1-0.1,0.1c-0.8,0-1.6,0.2-2.3,0.2c-0.9,0.1-1.9,0.3-2.3,1.2
	c-0.4,1.1,0.3,1.8,1.4,2.1c-0.4,0.1-0.7,0.2-1.2,0.3c-0.7,0.2-1.3,0.5-2,0.8c-2.7,0.6-5.4,1.4-8,2.5c-1,0.4-2.4,0.8-3.6,1.4
	c1.4-4.7,2.5-9.4,4.4-13.9c2.6-6,6.4-10.9,10-16.2c4,5.4,7.9,12.7,15.6,9.5c1.9-0.8,5.1-2.3,5.7-4.5c0.9-3.1-2.6-9-3.6-11.9
	c-2.1-5.8-4.9-14.5-11.7-16.3c-4.9-1.3-12.6,1.4-14.6,6.3c-0.1,0-0.2,0-0.4,0c-3.3,1.1-3.5,4.5-1,5.8c-3.5,3.8-8.1,7.9-10.5,12.6
	c-0.6-1.6-1.2-3.2-1.8-4.7c-1.2-4-3-7.7-5.8-10.9c-1.5-2.1-3.2-4.1-4.8-6.3c0-0.2-0.1-0.4-0.3-0.6c-3.5-3.1-7.7-5.2-12.3-5.9
	c0,0-0.1,0-0.1,0c-0.1-0.4-0.1-0.7-0.2-1.1c0-0.1-0.1-0.2-0.2-0.3c1.6,0,3.3-1.1,4.3-2.2c1.6-1.7,1.4-3.6,0.5-5.6
	c-0.9-1.9-2.1-3.7-4.5-3c-0.2,0.1-0.4,0.2-0.6,0.2c1.1-8.9,0.7-18.3,0.4-27.5c0,0,0.1,0,0.1-0.1c0-0.4-0.1-0.7-0.1-1.1c0,0,0,0,0,0
	c0-2-0.1-3.9-0.1-5.8c0-10,0-19.9,0-29.9c-0.3-1.5-0.2-3,0-4.5c0-1.4,0-2.9,0-4.3c0-8.1,0-16.2,0-24.3c0.1-0.1,0.2-0.2,0.3-0.3
	c0.2-0.2,0-0.4-0.2-0.5c-0.1,0-0.1,0-0.2,0c0-2,0-3.9,0-5.9c0,0,0.1,0,0.1-0.1c0-0.4,0-0.8,0.1-1.3c-0.1,0-0.1,0-0.2,0l0-1.5
	c0-0.1,0-0.3-0.1-0.4c-0.1-0.4-0.1-0.8,0.1-1.2c0-0.8,0-1.6,0-2.4c0-0.9,0-1.8,0-2.8c0,0,0,0,0,0c0-0.3,0-0.6,0-0.9c0,0,0,0,0,0
	c0-5.5,0.1-11,0.2-16.5c-0.1-0.2-0.2-0.5-0.2-0.8c0-0.3,0.1-0.6,0.2-0.9c0-3.2,0-6.3-0.1-9.5c0.1-0.1,0.1-0.3,0-0.4
	c0-1.7-0.1-3.4-0.2-5.2c1.7-0.1,3.5-0.1,5.3,0c0.7,0,1.2-0.8,0.9-1.4c0.6-0.1,0.8-0.9,0.2-1.2c-3.1-1.7-4.9-4.1-6.7-6.8
	c-0.6-1.1-1.2-2.2-1.7-3.4c0,0,0,0,0,0c1.2-0.3,2.3-0.7,3.4-1.2c0.5-0.2,0.5-0.9,0.2-1.3c-0.4-0.4-0.9-0.9-1.5-1.3
	c16-0.9,31.4-8.6,41.4-22c16.2-21.7,25.9-54.7,8.7-78.4c-17.1-23.5-49.3-30.8-77.4-27.3c-1.6,1-3.1,1.9-4.7,2.8c0.2,0,0.4,0,0.6,0
	c-0.2,0.2-0.5,0.3-0.7,0.5c-7.3,3.4-13.3,9.7-17.8,16.3c-1,1.5-2,3-2.9,4.6c-0.8,1.2-1.6,2.4-2.3,3.7c-2.1,3.6-4.1,7.4-5.7,11.3
	c-0.1,0.5-0.3,1-0.5,1.5c-0.2,1.1-0.5,2.1-0.7,3.2c-0.1,1.9-0.4,3.8-0.8,5.7c0.1,0.2,0.2,0.4,0.2,0.8c-0.5,5.5,0,11-1,16.4
	c0,0.2,0.1,0.4,0.1,0.6c0.2,1.2,0.4,2.3,0.6,3.5c2.4,20.6,14.1,39.9,32.4,50c4.5,2.7,9.3,4.7,14.4,5.6c1.6,0.4,3.2,0.7,4.7,0.9
	c0,0,0.1,0.1,0.1,0.1c-1.6,1.1-2.6,2.6-0.5,4.1c0.7,0.5,1.6,0.7,2.5,0.7c-2.8,4.3-5.5,8.7-8.1,13.2c-0.4,0.7,0.3,1.7,1.1,1.5
	c3.2-0.9,6.4-1.6,9.7-2c-0.3,9.6-0.4,19.2-0.5,28.8c-0.1,0.1-0.2,0.3,0,0.4c0,8.1,0,16.2,0.1,24.3c0,0,0,0-0.1,0.1
	c0,0.1,0,0.1,0,0.2c0,0,0,0.1,0,0.1c0,0,0,0.1,0,0.1c0,0,0,0,0,0c0,6.6,0.1,13.2,0.1,19.7c0,3.6,0,7.2,0,10.8
	c-0.1,0.1-0.1,0.4,0,0.5c0,8.5,0,17,0,25.4c0,12.2-0.9,24.7,0.4,36.9c-1.3-0.2-2.6,0.4-3.4,1.4c-2.2,2.6-0.5,6.6,2.3,8
	c0,0.2,0,0.5,0,0.7c-6.4-1.1-13.1-0.5-19.7,1.3c-2.7,0.7-5.4,1.6-8,2.7c-3.4,1.4-6.6,3.1-9.7,5c-2.3,1.4-4.6,2.9-6.7,4.5
	c-3.4,2.5-6.7,5.1-9.9,7.8c-0.9-2.2-2.6-4-4.8-4.9c-1-0.4-1.9-0.6-2.9-0.7c0-0.2,0-0.4-0.1-0.5c-1.8-1.9-4-3.4-6.1-5
	c-0.1-0.1-0.2-0.2-0.4-0.3c-0.1,0-0.2-0.1-0.3-0.2c-1.8-1.4-3.6-2.8-5.5-4.1c-0.2-0.1-0.3-0.1-0.5,0c-0.2-0.1-0.4-0.2-0.5-0.2
	c0.5-0.5,1.1-1.1,1.6-1.6c0.1-0.1,0.2-0.2,0.2-0.4c0.1,0,0.2-0.1,0.2-0.1c3.8-3.8,7.9-7.4,11.2-11.6c3.1-3.9,5.2-8.4,7.5-12.8
	c0.3-0.5-0.1-1.2-0.7-1.2c-1.2,0.1-2.2,0.5-3.2,1c-3,0.9-5.5,4-7.7,5.9c-4.3,3.8-8.5,7.9-12.5,12.1c-0.1-0.2-0.3-0.3-0.4-0.5
	c-5.5-7.4-16.6-12.6-25.2-13c-4.1-0.2-7.8,0.8-11.3,2.5c-5.5,2-10.7,5.5-14.8,9.6c-0.1,0-0.2,0-0.3,0c-3-1.2-6.5,0.8-8.6,2.9
	c-1.8,1.8-2.3,5,0.3,6.4c0.1,0.1,0.2,0.1,0.3,0.1c-5.5,6.5-9.9,15.3-10,23.9c-0.2,1-0.4,2.1-0.5,3.1c-0.6,5.5,3.9,8.8,7.2,12.8
	c2.4,3,4.8,6.5,7.6,9.5c1.3,2.3,3.2,5.7,5.5,5.4c0,0,0.1,0.1,0.1,0.1c9.2,7.8,18.3,17.1,28.7,23.2c3.5,2.1,7.7,3.7,12.1,4.4
	c0,2-0.1,4-0.2,6c-0.5,1.9-1,3.8-1.6,5.7c-6-1.8-12.1-3.7-17.8-6.2c-3-1.3-5.8-3.1-8.7-4.5c-0.1-0.1-0.1-0.1-0.2-0.2
	c-1-0.7-2.4-1.4-3.7-1.5c-0.8-0.3-1.6-0.5-2.4-0.7c-0.2-0.4-0.6-0.7-1.1-0.5c-0.7,0.3-1.5,0.6-2.3,0.9c0.3-1.9,0.5-3.9,0.6-5.8
	c0-0.2,0-0.3-0.1-0.3c-0.1-0.8-0.3-1.7-0.9-2.3c-0.2-0.2-0.4-0.3-0.6-0.3c0-0.1,0-0.2-0.1-0.2c-0.1-0.3-0.3-0.6-0.4-0.9
	c0-0.4,0-0.8-0.1-1.1c-0.2-0.9-0.5-2.2-1.4-2.6c-1.9-0.9-3.9,2.4-4.6,3.8h0c-0.2,0-0.3,0-0.4,0.1c-0.6,0.2-1,1-0.6,1.5
	c-1.1,1.5-1.6,3.4-2,5.3c-0.1,0.6-0.3,1.1-0.4,1.7c-1.9-0.4-3.9-0.6-5.8-0.2c-0.7,0.1-1.3,0.4-1.7,0.8c-1.1,0.6-2,1.6-2.3,3
	c-0.1,0.3-0.1,0.6-0.1,0.9c-0.3,0.9-0.4,1.8,0.2,2.8c0.6,1.1,1.9,2,3.1,2.8c-0.7,1.9-0.7,4,0.3,5.7c0,0,0,0,0,0
	c-0.9,1.3-0.5,3.8,0.5,5c0.6,0.8,1.3,1,2,0.9c-0.6,4.9-1,9.8-0.9,14.8c0,0.5,0,0.9,0.1,1.2c0,0.3,0,0.6-0.1,0.9c0,0.1,0,0.2,0.1,0.3
	c-0.4,0.2-0.8,0.6-0.7,1.2c0.4,2.4,1,4.8,1.9,7c0.1,0.2,0.2,0.3,0.3,0.4c-0.1,0.8,0.4,1.7,1.2,1.8c0.2,0,0.4,0,0.5,0
	c0.3,0.2,0.7,0.2,1-0.2c1.9-2.4,3.5-4.9,4.8-7.7c0.2-0.4,0.1-0.7-0.1-1c0.5-0.4,0.9-0.9,1.1-1.8c1.1-4.9,0.9-10.5,1.4-15.6
	c0,0,0-0.1,0-0.1c0,0,0-0.1,0-0.1c0,0,0-0.1,0-0.1c1.3,0.2,2.6,0.8,4,1.5c0,0,0,0,0.1,0c1.1,0.1,2.1,0.5,3.1,1
	c0.3,0.2,0.6,0.3,0.9,0.5c1,0.2,1.9,0.1,2.8-0.2c1-0.4,1.8-1.1,2.4-2c0.6-0.7,1.1-1.8,1.4-2.9c0.1-0.2,0.1-0.4,0.2-0.6
	c0.1-0.1,0.3-0.3,0.4-0.4c0,0,0,0,0,0c2.6,2.9,7,3.9,10.5,5.2c5.6,2,12.3,4.6,18.4,4.3c1.5-0.1,2.6-0.4,3.5-1.1
	c2.8-1,3.9-3.9,4.4-7.2c0.2-1.4,0.4-2.8,0.5-4.1c1.1-4.8,1.7-9.7,1.9-14.7c0,0,0-0.1,0-0.1c0.9-0.3,1.7-0.6,2.5-1
	c1.7-0.7,3.4-1.6,4.9-2.9c0.2-0.2,0.3-0.5,0.5-0.7c0-0.1,0.1-0.1,0.1-0.2c4.7-4.3,8.5-10.5,11.3-16.3c2-3.6,3.7-7.3,4.6-10.9
	c0.5-1.4,0.9-2.9,1.2-4.3c0.9,0.3,2.5,0.1,3.6,0.1c1,3.2,2,6.4,2.9,9.6c1.3,7.9,2.7,15.8,3.7,23.7c0.1,1.1,0.2,2.1,0.2,3.2
	c-1.4,8.8-7.1,16.2-7.8,25.1c-0.1,0.2-0.2,0.5-0.3,0.7c-1.1,5-7.5,6.5-11.2,9.2c-2.3,1.7-5.3,4.4-6.1,7.3c-0.1,0.5,0.1,0.9,0.5,1.1
	c1.4,0.9,2.5,0.2,4-0.4c1.8-0.7,3.7-1.4,5.5-2.1c-1.4,3.5-2.4,7-2,10.9c0.2,2.2,0.8,4.3,1.2,6.4c0.3,1.7,0.3,4.8,1.6,6.2
	c3.5,3.8,5.2-4.8,5.9-10.3c0.6,3.1,0.7,6.3,1.5,9.4c0.4,1.5,1,4.3,3,4.3c2.3,0,3.1-3.6,3.3-5.3c0.5-3.4,0.6-6.7,1.1-10.1
	c1.5,4.5,3.3,11.3,7,9.5c2.2-1.1,1.9-4,1.8-6c-0.1-1.5-0.2-3-0.4-4.5c1.3,2.4,3.2,4.4,5.6,4.6c0.6,0,1.1-0.7,1-1.3
	c-2-6.7-4.8-15.7-10.2-20.8l1.6-4.4c0.1,0,0.2,0,0.3,0.1c0.2-1,0.6-2,1.1-3c0.7-3.9,1.4-7.7,2.3-11.6c0.9-4,2.2-8,2.8-12.1
	c0.4-1.6,0.7-3.3,0.8-4.9c0.5-5-1.1-10.1-2.2-14.9l-0.8-3.8c-0.6-5.1-1.1-10.1-1.4-15.3c1.8,0.1,3.6,0.1,5.3,0.2c0.5,0,1-0.5,1-1
	c0-2.4,0.1-4.8,0.2-7.2c1.4,0.1,2.9,0.1,4.3,0.3c1.5,0.5,2.9,1.4,4.1,2.1c0,0,0,0,0,0c-0.1,0.4-0.3,0.7-0.4,1.1c0,0.1,0,0.2,0,0.3
	c-0.6,1.5-0.5,3.1,0.5,4.4c1.1,1.3,3.7,2.2,4.9,0.7c0.2,0.3,0.7,0.4,0.9,0c0.4-0.8,0.9-1.5,1.3-2.3c0.1,0.1,0.3,0.1,0.5,0.1
	c0.3,0,0.5,0.1,0.7,0.3c0.1,0.4,0.2,0.7,0.3,1c0.2,0.7,0.4,1.4,0.7,2.1c0,0.1,0.1,0.2,0.2,0.2c0,0,0,0,0,0
	c3.8,6.7,8.2,13.2,13.5,18.8c0.2,0.2,0.4,0.4,0.6,0.6c3.7,4.4,8.2,10.1,13.7,11.7c2.1,0.6,4.2,0.6,6.1,0.1c2.3-0.3,4.2-1.5,6.1-3.2
	c1.2-0.9,2.3-1.9,3.3-2.9c1.5-1.5,3-3,4.5-4.3c4.5-3.3,9.6-5.8,14.8-8c0.4-0.1,0.9-0.2,1.4-0.2c-1,1.2-1.2,2.9-0.4,4.4
	c0.2,0.4,0.8,1,1.4,1.6c0,0,0,0.1,0,0.1c1.8,4.1,1.6,8.5,5.5,11.4c3.3,2.5,6.9,3.3,10.7,1.1c0.2-0.1,0.2-0.3,0.1-0.4
	C249.9,395.7,251.6,392.3,251.3,388.9z M246.6,380.3c-0.6,0.2-1.1,0.6-1.7,0.7c-0.9,0.2-1.8-0.7-1.6-1.6c0.1-0.5,0.4-1,0.6-1.5
	c0.3-0.5,0.6-1.2,0.8-1.8C245.3,377.5,246,378.9,246.6,380.3z M225.8,365.2c1.3-0.2,3,0,4-0.9c0.1-0.1,0.1-0.2,0.1-0.3
	c4.2-0.2,9.4-0.6,12.1,2.9c1.5,2,1.1,4.7,2.2,6.8c-0.2,0.1-0.3,0.4-0.2,0.6c0,0.1,0.1,0.1,0.1,0.2c-0.2,0.2-0.3,0.4-0.5,0.8
	c-0.4,0.9-0.7,1.7-1.2,2.6c-0.1,0.1-0.1,0.2-0.1,0.3c0-0.3-0.1-0.5-0.2-0.7c-0.5-1.3-1.7-1.7-3-1.9c-1-0.1-2-0.1-3,0.1
	c0.9-5.3-3.1-10.1-8.7-10.1c-0.2,0-0.4,0.1-0.6,0.2c0,0,0,0,0,0c-0.3,0-0.6-0.1-0.9-0.1C225,365.5,225.3,365.2,225.8,365.2z
	 M229.4,368.4c-0.4-0.3-0.8-0.6-1.2-0.8c4.3,0.5,6.9,4.6,5.6,8.8c-0.4,0.2-0.8,0.4-1.2,0.7c0,0,0-0.1-0.1-0.1
	C234.7,374.7,231.4,369.9,229.4,368.4z M227,337.6c0.8-1.7,1.8-3.2,2.9-4.7c0,0,0,0,0-0.1c1.4-0.6,2.9-0.3,4.3,0.7
	c1.2,0.8,2.2,2.1,1.5,3.2c-0.1,0-0.2,0.1-0.4,0.1c0,0-0.1,0-0.1-0.1c-0.7-0.2-1.3,0.6-1.8,1c-0.5,0.4-1.1,0.8-1.5,1.3
	c-0.7,0.5-1.3,1-1.9,1.6c-0.2,0-0.3,0.1-0.4,0.2c0-0.1,0-0.1-0.3,0c-0.2,0.1-0.5,0.1-0.7,0.2c-1.1,0.2-1.2,0.2-1.8-1
	C226.2,338.9,226.4,338.9,227,337.6z M227.9,333.3c0.1,0.1,0.2,0.2,0.3,0.1c0.1-0.1,0.3-0.2,0.4-0.4c-0.1,0.2,0.1,0.3,0.2,0.4
	c-0.9,0.9-1.6,1.9-2.3,3c0.8-3.7,0-7.3-4.4-8.2c0,0-0.1,0-0.1,0c0,0,0.1-0.1,0.1-0.1c0.4-0.8,2.7-0.2,3.3-0.1
	c0.9,0.3,2.1,0.8,2.8,1.5C229.9,331.2,226.9,331.8,227.9,333.3z M229.5,332.2c0.3-0.3,0.5-0.7,0.6-1c1.1-0.4,2.3-0.5,3.5,0
	c0.8,0.3,1.3,0.9,1.9,1.5c0,0.2,0,0.5,0,0.7C233.9,332,231.3,331,229.5,332.2z M228.7,344.5c-0.5-0.7-1-1.3-1.5-2
	c0.5,0.1,1.1,0.2,1.6,0.1c-0.1,0.5-0.1,1.1-0.1,1.6C228.7,344.3,228.7,344.4,228.7,344.5z M241.1,349.3c-5.2,3.3-9-0.5-12.2-4.5
	c0.4,0.2,1,0.1,1.1-0.5c0-0.7,0.1-1.4,0.1-2c0.1,0,0.1-0.1,0.2-0.1c0.3-0.2,0.4-0.5,0.3-0.8c0,0,0-0.1,0-0.1c0,0,0,0,0,0
	c0.7-0.4,1.4-0.9,2-1.3c0.5-0.2,0.9-0.6,1.4-0.9c0.4-0.3,0.8-0.5,1.2-0.8c0.1,0.1,0.2,0.1,0.3,0.1c1-0.1,1.5-1.1,1.6-2.1
	c0-0.3,0-0.5-0.1-0.8c0.5,0.2,1,0.2,1.5,0.1c0.7-0.1,1.6-0.3,2.2-0.7C242.6,339.5,246.5,345.9,241.1,349.3z M238.1,328.1
	c0.9,1.9,1.6,3.9,2.3,5.7c-0.5,0.1-1.1,0.4-1.6,0.5c-0.7,0.2-1.4,0.2-2.1,0.2c0.1-0.1,0.2-0.3,0.2-0.5c-0.2-1.6,0.3-3.1,0.8-4.7
	C237.8,329,237.9,328.6,238.1,328.1z M216.2,326.9c0.1,0,0.3-0.1,0.4-0.1c0.4-0.1,0.7-0.2,1.1-0.4c1-0.4,1.7-0.9,2.5-1.7
	c0.2-0.2,0-0.4-0.2-0.4c-0.9,0.2-1.9,0.4-2.8,0.6c3.6-4.7,11.4-7.1,16.3-3.1c1.6,1.3,2.8,3,3.8,4.8c-0.7,0.8-0.8,2.2-1.1,3.1
	c-0.2,0.6-0.3,1.1-0.5,1.6c-0.6-0.6-1.4-1-2.2-1.3c-1.1-0.3-2.3-0.3-3.3,0.1c-0.2-1-1-1.7-1.8-2.2c-1.3-0.8-2.9-1.4-4.4-1.4
	c-0.7,0-1.8,0.1-2.4,0.6c0,0-0.1-0.1-0.2-0.1c-1-0.3-2,0.1-3,0.3c-0.5,0.1-1.1,0.3-1.6,0.4l-0.7,0.2c0-0.4-0.1-0.7-0.1-1.1
	C216.1,326.9,216.2,326.9,216.2,326.9z M178.6,312.3c-0.2,0.1-0.5,0.2-0.7,0.3c-0.5-0.9-1.3-1.7-2.1-1.9c-0.1,0-0.2,0-0.3-0.1
	c0-0.4-0.1-0.9-0.2-1.3c-0.1-0.7-0.2-1.4-0.3-2.1c0,0,0.1-0.1,0.1-0.2v0c0.2-0.5,0.6-0.9,1-1.2c0,0,0,0,0,0c1.4,0.6,2.4,1.8,2.9,3.2
	C179.5,310.4,179.1,311.2,178.6,312.3z M174.7,156.1c0.5,0.2,1,0.2,1.6,0.2c0.4,0,0.8,0,1.2-0.2c-0.1,1.3-0.1,2.6-0.1,4
	c-0.5,0-1.1,0.1-1.7,0.2c-0.8,0.1-1.8,0-2.4,0.7c-0.1,0.1,0,0.3,0,0.4c0.7,0.6,1.7,0.3,2.5,0.2c0.5,0,1-0.1,1.4-0.1
	c-0.1,3-0.1,6-0.1,8.9c-0.5,0.1-1.1,0.3-1.5,0.5c-0.6,0.1-0.3,1,0.2,0.9c0.4-0.1,0.9-0.1,1.3-0.2c0,1.5,0,3,0,4.5
	c-0.4-0.2-0.7-0.2-1.1-0.2c-0.5,0.1-0.9,0.2-1.4,0.4c-0.4,0.2-0.2,0.7,0.2,0.6c0.8-0.1,1.7,0,2.4-0.4c0,1.3,0,2.5,0,3.8
	c-0.5-0.1-0.9,0.1-1.4,0.2c-0.6,0.2-1.2,0.3-1.8,0.6c-0.3,0.2-0.2,0.7,0.2,0.7c0.6,0,1.3-0.1,1.9-0.3c0.4-0.1,0.8-0.2,1.1-0.4
	c0,1.1,0,2.1,0,3.2c-0.8,0-1.6,0.3-2.5,0.3c-0.5,0-1,0.1-1.4,0.1c0-5.4-0.1-10.7-0.1-16.1c1.2,0.2,2.5,0.1,3.4-0.5
	c0.2-0.1,0.2-0.4-0.1-0.5c-0.7-0.2-1.4-0.1-2.2-0.1c-0.4,0-0.8,0-1.2,0.1c-0.1-4-0.2-7.9-0.3-11.9c0.5-0.1,1.1-0.1,1.6-0.2
	C174.4,155.7,174.5,156.1,174.7,156.1z M174.5,199.3c0.9,0.3,1.9,0.3,2.9,0.1c0,0,0.1,0,0.1,0l0,1.7c-0.5-0.2-1.1-0.1-1.6-0.2
	c-0.8-0.1-1.6-0.1-2.3,0c0-1.5,0-2.9,0-4.4c1,0,2-0.1,2.9-0.2c0.3,0,0.7-0.1,1-0.1c0,0.7,0,1.3,0,2c-0.1,0-0.2,0.1-0.3,0.1
	c-0.9,0.3-1.8,0.4-2.7,0.6C174.2,198.9,174.3,199.2,174.5,199.3z M174.8,215.4c0.5,0,1-0.1,1.5-0.2c0.4-0.1,0.8-0.1,1.1-0.4
	c0,0.8,0,1.5,0,2.3c-0.3,0.1-0.6,0.1-0.9,0.2c-0.4,0.1-0.9,0.2-1.2,0.5c-0.1,0.1-0.1,0.3,0,0.4c0.4,0.2,0.8,0.2,1.3,0.1
	c0.2,0,0.5,0,0.7-0.1c0,3.9,0,7.8,0,11.6l0,4.4c-0.4,0-0.9,0-1.3,0c-0.9-0.1-1.8-0.3-2.7-0.4c0-1.5,0-2.9,0-4.4c0-6.4,0-12.7,0-19.1
	c0.6,0.1,1.3,0.2,2,0.1c0.6,0,1.4-0.2,2-0.4c0,1.4,0,2.8,0,4.2c-0.4-0.2-0.8-0.1-1.2,0c-0.5,0.1-1,0.2-1.5,0.4
	C174.3,214.8,174.4,215.5,174.8,215.4z M174.6,251.7c0.6,0,1.1-0.1,1.6-0.1c0.5-0.1,0.8-0.2,1.2-0.4c0,1,0,2,0,3
	c-0.1,0-0.3,0.1-0.4,0.1c-0.5,0.1-1.1,0-1.6-0.1c-0.5-0.1-0.8,0.6-0.3,0.8c0.6,0.3,1.3,0.4,2,0.3c0.1,0,0.2,0,0.4-0.1l0,12.3
	c0,2.4-0.1,4.7-0.1,7.1c-0.1,0-0.2,0-0.3,0c-1.2,0.1-2.3-0.2-3.3-0.8c-0.1-0.1-0.2-0.1-0.3,0c0-2.2-0.1-4.5-0.1-6.7
	c0-8.5,0-17.1,0-25.6c1.3,0.4,2.9,0.4,4-0.1l0,9.1c-0.4-0.1-0.8-0.1-1.3,0c-0.6,0.1-1.1,0.2-1.7,0.3
	C174.1,251.1,174.1,251.7,174.6,251.7z M173.7,290.7c0.2,0.1,0.4,0.2,0.5,0.2c0.8,0.3,1.9,0.6,2.8,0.4c0,1.5,0.1,2.9,0.1,4.4
	c-1.3,0-2.4,0.2-3.6-0.3C173.6,293.9,173.6,292.3,173.7,290.7z M173.6,280.7c1.1,0.6,2.5,0.9,3.5,0.6c-0.1,3-0.1,6-0.1,8.9
	c-0.5-0.2-1.2-0.2-1.7-0.3c-0.4-0.1-1-0.2-1.3-0.4c-0.2-0.1-0.2-0.3-0.3-0.4C173.7,286.2,173.6,283.4,173.6,280.7z M174.9,280.1
	c-0.5-0.2-1-0.4-1.4-0.7c0-1.6-0.1-3.1-0.1-4.7c0.9,0.6,2.4,1.1,3.8,1.1c0,1.5-0.1,3-0.1,4.5C176.4,280.3,175.7,280.3,174.9,280.1z
	 M175.4,240.7c-0.7,0-1.3-0.1-2-0.2c0-1.8,0-3.7,0-5.5c0.8,0.3,1.7,0.4,2.6,0.6c0.5,0.1,1,0.1,1.5,0.2c0,1.5,0,3.1,0,4.6
	C176.8,240.5,176.1,240.7,175.4,240.7z M175.5,209.5c-0.7,0.1-1.4,0.1-2.1,0c0-1.2,0-2.4,0-3.6c1.2,0.3,2.7,0.5,4,0.2
	c0,0.9,0,1.8,0,2.7C176.8,209.1,176.1,209.4,175.5,209.5z M176,205.3c-0.8,0.1-1.7,0-2.5-0.1c0-1.2,0-2.5,0-3.7
	c0.7,0.2,1.4,0.3,2.2,0.4c0.6,0.1,1.2,0.3,1.8,0.2c0,1,0,2,0,2.9C176.9,205.1,176.5,205.3,176,205.3z M173.5,185.5
	c1.4,0.2,2.8,0.2,3.9-0.5c0,1.3,0,2.6,0,3.8c-0.5,0.2-1.1,0.5-1.6,0.6c-0.8,0.2-1.6,0.4-2.4,0.6C173.5,188.5,173.5,187,173.5,185.5z
	 M176.3,194.9c-0.9,0.1-1.8,0.3-2.8,0.4c0-1.5,0-2.9,0-4.4c0.9,0,1.8-0.1,2.7-0.3c0.4-0.1,0.8-0.2,1.3-0.4c0,0.3,0,0.7,0,1
	c0,1.1,0,2.3,0,3.4C177.1,194.7,176.7,194.8,176.3,194.9z M173.5,296.7c1.2,0.5,2.6,0.6,3.7,0.2c0.1,2.2,0.3,4.3,0.6,6.4
	c-1.1,0.5-2.1,1.3-2.8,2.2c-0.4-0.9-1.1-1.7-1.9-2c0,0,0,0,0,0C173.2,301.2,173.4,299,173.5,296.7z M176.1,312.2
	c0.7,0.7,0.9,1.7,1.6,2.3c0,0.2,0,0.3,0.1,0.5c-0.5-0.3-1.1-0.4-1.6-0.5c-1.1-0.2-2,0-3,0.4c-0.4,0.2-0.1,0.7,0.3,0.6
	c0.9-0.2,1.9-0.2,2.8,0.1c0.6,0.2,1.1,0.5,1.6,0.6c0,0.1,0.1,0.2,0.1,0.3c0,0.4,0.1,0.9,0.1,1.3c-0.7-0.2-1.6,0.1-2.3,0
	c-0.7,0-1.4-0.1-2.1-0.3c-0.2,0-1-0.2-1.4-0.3c0-1.1-0.1-2.1-0.2-3.2c0.6-0.1,1.2-0.4,1.8-0.4c0.9-0.1,1.8,0,2.7-0.1
	c0.2,0,0.3-0.3,0.1-0.4c-1.2-0.8-3.4-0.8-4.8,0c0-0.1,0-0.2,0-0.2c0.1,0,0.2-0.1,0.2-0.1c0.1,0,0.2,0,0.2-0.1
	C173.5,312.1,174.7,311.1,176.1,312.2z M172.2,318.2c0.8,0.4,2,0.6,2.5,0.7c0.9,0.1,2.4,0.4,3.4-0.1c0,1,0,2.1-0.1,3.1
	c-0.9,0-1.8,0.2-2.7,0.2c-1.2,0-2.3-0.3-3.5-0.5C172,320.5,172.1,319.3,172.2,318.2z M182.6,307.1c0.6,2-0.2,3.4-2,4.4
	c-0.2,0.1-0.3,0.2-0.5,0.2c0.3-0.8,0.2-1.9,0-2.6c-0.5-1.6-1.8-3.4-3.5-3.8c0.5-0.4,1.1-0.7,1.6-0.9
	C180.6,303.3,182,305.2,182.6,307.1z M163.7,135.6c-0.3-0.1-0.6-0.1-0.9-0.2c-5.5-1.3-10.7-3.5-15.5-6.4c-6-3.9-11.3-9-15.8-14.2
	c-8.9-10.1-12.2-23-14.3-36c-0.9-13.1,1.9-26.3,7.7-38.1c0.1-0.2,0.2-0.5,0.4-0.7c0.3-0.4,0.5-0.9,0.8-1.3
	c5.9-9.7,13.8-18,23.4-23.8c1.4-0.5,2.9-1,4.5-1.3c10.3-0.4,20.6-0.7,31,1.3c12.5,2.4,24.3,7.4,33.8,15.9c9.1,8.1,15.7,19,16.9,31.3
	c1.4,14.4-3.7,29.1-10.1,41.7c-5.7,11.3-13.7,21.5-25.2,27.3c-9.2,4.7-19.8,6.5-30.1,5.5c-0.1-0.4-0.4-0.7-0.9-0.7
	C167.3,136,165.5,135.8,163.7,135.6z M169,141.5c-2.6-1.4-0.3-2.4,1.1-2.9c1.4,0.1,2.7,0.2,4.1,0.2c0.1,0,0.2,0,0.3,0
	c1.3,0.3,2.4,0.8,3.5,1.5c-1.8,0.7-3.7,1-5.7,1c-0.3-0.5-1.3-0.8-1.8,0c0,0.1-0.1,0.1-0.1,0.2C169.9,141.7,169.3,141.7,169,141.5z
	 M165.4,155.1c2.8-3.7,5.2-7.6,7-11.9c0.3,0,0.6-0.1,0.9-0.1c0.6,0,1.1-0.1,1.7-0.2c-0.1,0.2-0.1,0.5,0,0.7c1.5,3.5,3.6,6.6,6.2,9.3
	c-0.9,0.1-1.8,0.2-2.7,0.3c-0.2-0.1-0.5-0.1-0.6,0.1c-0.5,0.1-1,0.1-1.4,0.2c-1.2,0.1-2.3,0.2-3.5,0.3c-0.2-0.1-0.4-0.1-0.5,0.1
	C170,154.1,167.7,154.5,165.4,155.1z M169.1,306.8c0.3-1.3,1.5-2.4,3-2.1c-0.3,0.2-0.7,0.4-0.9,0.7c-0.9,1.2-1.4,3.6-0.3,4.8
	c0.1,0.1,0.4,0.1,0.5-0.1c0.5-1.1,0.3-2.4,0.8-3.5c0.3-0.7,0.5-0.7,1.2-0.8c0,0,0.1,0,0.1,0c0.2,0.2,0.3,0.5,0.5,0.7c0,0,0,0,0,0
	c0,1,0.1,2,0.2,2.9c0,0.3,0.1,0.7,0.2,1c-1,0.1-2,0.7-2.7,1.4C170.3,310.5,168.7,309,169.1,306.8z M171.7,322.4
	c1.8,0.8,4.4,1.2,6.2,0.4c-0.1,0.6-0.2,1.2-0.3,1.7c-0.6,0-1.1,0.2-1.7,0.2c-0.9,0.1-1.9,0-2.9-0.1c-0.3,0-0.4,0.4-0.1,0.5
	c1,0.4,1.9,0.6,3,0.6c0.5,0,1,0,1.5-0.2c-0.4,1.8-0.9,3.7-1.6,5.5c-1,0.1-2,0.4-3.1,0.3c-1.2-0.1-2.3-0.6-3.3-1.2
	c0.2-0.6,0.5-1.2,0.7-1.9c0.6,0.2,1.2,0.2,1.9,0.3c0.6,0,1.3,0.1,1.8-0.3c0.1-0.1,0.2-0.3,0-0.4c-0.5-0.3-1.1-0.3-1.7-0.3
	c-0.6,0-1.2-0.1-1.8-0.1C170.9,325.9,171.3,324.1,171.7,322.4z M170.6,333.5c0.6,0.6,1.4,0.8,2.3,0.9c0.5,0,1.3,0.1,1.8-0.2
	c-0.2,0.5-0.4,1.1-0.6,1.6c-1.1-0.2-2.2-0.1-3.2-0.3c-1.1-0.3-2-0.7-3-1.1c0.4-1,0.8-2.1,1.3-3.1c1.6,1.2,4.3,2,6.3,1.3
	c-0.1,0.3-0.2,0.6-0.4,0.9c0,0,0,0,0,0c-0.6-0.3-1.3-0.1-1.9-0.1c-0.8,0-1.5-0.2-2.2-0.2C170.6,333.1,170.5,333.3,170.6,333.5z
	 M167.4,339.8c0.7,0.7,1.5,1,2.5,1.1c0.6,0.1,1.5,0.2,2.1-0.1c-1,2.4-2,4.8-3.1,7.2c0,0,0,0,0,0c-0.7-0.4-1.5-0.3-2.2-0.6
	c-0.9-0.3-1.7-0.9-2.4-1.5c-0.2-0.2-0.6,0.1-0.5,0.4c0.8,1.3,3.2,3,4.9,2.3c-0.6,1.4-1.2,2.7-1.9,4.1c-0.9-0.4-2.1-0.3-3-0.7
	c-1.1-0.5-1.9-1.3-2.5-2.2c1.1-2.5,2.2-5,3.3-7.5c1,0.7,2.4,1.4,3.5,0.8c0.2-0.1,0.2-0.3,0-0.4c-0.5-0.3-1.1-0.3-1.7-0.4
	c-0.5-0.1-1-0.4-1.4-0.6c1-2.2,1.9-4.4,2.8-6.6c1.5,1.3,4.1,2.3,6.1,1.9c-0.5,1.1-0.9,2.2-1.4,3.3c-0.7-0.2-1.4,0.1-2.2,0.1
	c-0.9,0-1.8-0.3-2.6-0.5C167.4,339.5,167.2,339.7,167.4,339.8z M117.6,345.6c0,1.6-0.1,3.5-1.3,4.5c-0.7-0.7-1.4-1.5-2-2.3
	c-0.2-0.3-0.5-0.4-0.7-0.3c-0.5-0.5-0.8-1-1.1-1.6c1-1.8,2.7-2.4,3.9-3.8C117.6,342.4,117.6,344.5,117.6,345.6z M32.6,358.4
	c-1.8-2.1-3.5-4.3-5.3-6.5c-0.1-0.1-0.2-0.2-0.2-0.3c-0.5-0.7-1-1.3-1.5-2c-0.3-0.5-0.6-0.9-0.8-1.5c-0.9-2.3-0.6-3.7-0.1-6.1
	c2.1-10.5,7-20.1,14-28.1c0.8-1-0.6-2.4-1.4-1.4c-0.8,0.9-1.6,1.9-2.3,2.9c-0.4,0.4-0.7,0.8-1.1,1.2c-0.1-0.2-0.2-0.4-0.4-0.5
	c-0.1,0-0.1-0.1-0.2-0.1c0-0.6,0-1.2,0.3-1.8c0.4-1,1.2-1.9,1.9-2.7c0.1-0.1,0.1-0.1,0.2-0.2c1.2-0.7,2.4-1.3,3.7-1.1
	c-0.1,0.1-0.3,0.3-0.4,0.4c-0.8,1,0.6,2.4,1.4,1.4c6.2-7,16.2-13.4,25.8-13c5.3,0.2,10.3,1.9,14.9,4.6c2.2,1.3,4.3,2.9,6.3,4.6
	c0.6,0.5,3.6,2.7,4.2,3.8c-0.1,0.2-0.1,0.3-0.1,0.5c-0.2,0.2-0.4,0.4-0.5,0.7c-0.3,0-0.4,0.3-0.4,0.5c-0.4,0.5-0.7,1.1-1.1,1.6
	c0.1,0.1,0.2,0.1,0.3,0.2c0.2,0.1,0.4,0.2,0.6,0.3c0,0,0.2,0.1,0.2,0.1c0.1,0,0.2,0.1,0.3,0.1c0.1,0,0.2,0.1,0.3,0.2
	c1-1.2,2-2.4,3-3.6c0,0,0,0,0-0.1c0.1-0.2,0.2-0.4,0.3-0.6c0.2-0.3,0.2-0.6,0-0.9c3.4-2.9,6.6-6.1,9.9-9.2c2.2-2.1,4.9-5.3,7.8-7.4
	c0.7-0.3,1.3-0.6,2-0.7c-4.3,8.5-10.4,15-17.2,21.8c-0.1,0.1-0.1,0.2-0.2,0.2c-0.1,0-0.2,0.1-0.4,0.2c-9.3,8.8-18.4,17.9-27.3,27.1
	c-8.6,9-17.8,17.8-25.7,27.4C39.2,367.5,35.9,362.3,32.6,358.4z M58.4,374.9c0.5-0.2,0.7-0.5,0.7-0.9c3.8-0.9,9.8,3.5,6.5,7.4
	c-1.6,1.8-4.3,1.8-6.3,0.7C57.1,380.8,54.4,376.2,58.4,374.9z M40.5,388.9c0.2-0.3,0.4-0.6,0.7-0.8c0.1-0.1,0.3-0.3,0.4-0.4
	c0.1,0.1,0.1,0.3,0.1,0.3c0.1,0.3,0.2,0.6,0.2,0.9c0.1,0.4,0,0.8,0,1.2c-0.7-0.1-1.4-0.1-2.1-0.2C40,389.6,40.2,389.3,40.5,388.9z
	 M35.4,405.6c0.5-4.1,1.3-8.1,2.3-12.1c0.3-0.6,0.6-1.1,1-1.6c0.3,0.1,0.6,0.2,1,0.2c1.6,0.2,3.6-0.2,3.8,2c0.2,2.2-0.9,4.2-0.1,6.4
	c-1.3,0.7-2.4,1.6-3.4,2.5c-0.4,0.4-0.9,1-1.3,1.6c-0.1,0.1-0.2,0.1-0.2,0.2c0,0.1-0.1,0.2-0.1,0.3c-0.6,0.9-1.1,1.9-1.3,2.8
	c-0.1-0.1-0.1-0.1-0.2-0.2C36.3,407,35.9,406.3,35.4,405.6C35.4,405.6,35.4,405.6,35.4,405.6z M26.9,402.1c0.7-3.1,4.5-2.7,7.1-2.2
	c-0.2,1.1-0.5,2.2-0.6,3.2c-0.9-0.4-1.9,0.8-1.1,1.7c0.5,0.6,4.9,6.3,3.1,7.3c0.3-0.2-3.6-3.9-3.8-4
	C29.8,406.6,26.2,405.2,26.9,402.1z M29.3,409.8c0.1-0.1,0.2-0.2,0.3-0.4c0,0,0-0.1,0.1-0.1c1,1,1.9,2.1,2.7,3.3
	c-0.1,0.2-0.1,0.4,0,0.6c0.3,0.9,0.4,1.7-0.7,1.2c-0.6-0.3-1.2-0.8-1.6-1.4C29.4,412.1,29.2,410.9,29.3,409.8z M30,417
	c-0.2-0.4-0.4-1-0.4-1.6c0.1,0.1,0.1,0.1,0.2,0.2c0.2,0.2,0.5,0.3,0.7,0.5c0.3,0.4,0.7,0.7,1.1,1C31.1,417.5,30.4,417.9,30,417z
	 M34.4,443.1c-0.7-0.1-1.4-0.2-2-0.4c0,0,0,0,0,0c-0.1-0.3-0.2-0.6-0.3-0.9c-0.3-1.1-0.6-2.3-0.8-3.5c0.5,0.2,1.2,0.4,2.1,0.4
	c1.1,0.1,2.4,0.2,3.5,0.1C36.2,440.3,35.4,441.7,34.4,443.1z M38.7,429.2c-0.3,3,0.2,7.6-3.9,7.7c-3.9,0.1-3-4.7-3-7.4
	c0.1-3.2,0.4-6.4,0.8-9.6c0,0,0,0,0,0c0,0,0-0.1,0-0.1c0.1,0.1,0.3,0.1,0.5,0.1c1.3,0.1,2.4,0.1,3.6,0.5c0.9,0.3,1.7,0.7,2.6,1
	L38.7,429.2z M39.6,419.2c-1-0.4-2-0.8-3.1-1.2c-1-0.3-1.8-0.3-2.8-0.3c0-0.3,0-0.5-0.2-0.7c0-0.2,0.1-0.3,0.1-0.5c0,0,0,0,0.1,0
	c0.8-0.5,1.1-1.4,1-2.3c0.9,0.5,2,0.4,2.6-0.6c0.3-0.4,0.5-1,0.5-1.5c0-0.1,0.1-0.2,0.1-0.3c0.1-0.3,0.1-0.7,0-1.1
	c0.8,0.4,1.9,0.4,2.9,0.3C40.3,413.8,39.9,416.5,39.6,419.2z M92.2,414.4c-0.4,1.7-0.9,3.7-1.6,5.4c-1.9,4.6-5.2,5.4-9.6,4.6
	c-3.9-0.7-7.7-1.9-11.4-3.1c-3.9-1.3-10.1-2.5-12.2-6.4c-0.1-0.2-0.2-0.3-0.3-0.3c-0.1-0.6-0.8-0.9-1.3-0.7
	c-0.2-0.1-0.4-0.1-0.4,0.2c0,0,0,0.1,0,0.1c-0.1,0.1-0.1,0.2-0.2,0.3c-0.6,2.8-1.4,6.8-4.7,7c-0.2,0-0.5-0.1-0.8-0.2
	c-1-0.2-1.9-0.5-2.9-0.7c-1.6-0.7-3.2-1.6-4.9-1.9c-0.1,0-0.2,0-0.3,0c0.2-1.5,0.4-3.1,0.7-4.6c0.1-0.6,0.2-1.1,0.3-1.7
	c0.1-0.6,0.2-1.3,0.4-1.9c0,0,0.1,0,0.1,0c0.7-0.2,1.3-0.6,2-1c0.2-0.1,0.3-0.2,0.5-0.2c1.9-0.8,3.6-1,5.7-0.7
	c0.7,0.1,1-0.5,0.9-1.1c0.1-0.1,0.1-0.2,0.1-0.3l0-0.1c0-0.3-0.3-0.5-0.5-0.4c0,0,0,0,0,0c-0.1,0-0.3,0-0.4,0c0,0-0.1,0-0.1,0
	c0,0-0.1,0-0.1,0c0-0.1-0.1-0.1-0.2-0.1c-0.3,0-0.7,0-1,0c-0.4,0-0.8,0-1.3,0c-0.2,0-0.4,0-0.5,0c-0.1,0-0.1,0-0.2,0.1
	c-0.5,0.1-1.1,0.2-1.7,0.3c-1.7,0.6-3.3,1.7-5.1,2.1c-0.8,0.3-1.5,0.3-2.3-0.2c0.2-0.5,0.4-1,0.6-1.5c0.7-1.5,1.6-2.7,3-3.8
	c1.5-1.1,3.3-2.1,5-2.8c3.7,0.7,7,2.4,10.4,4.2c0,0,0,0.1,0.1,0.1c6.8,4,14.2,6.4,21.7,8.6c1.3,0.4,2.5,0.8,3.8,1.1
	c1.1,0.3,1.6-1.2,0.8-1.8c0.8-4,1.1-8.1,1.1-12.2c2.9,0.3,5.9,0.2,8.7-0.4C93.9,405,93.3,409.7,92.2,414.4z M119,363.3
	c-1,4.8-3,9.6-5.2,14c-4,8-10.1,18.4-19.3,20.8c-1.7,0.4-3.3,0.6-5,0.7c-1.1-0.1-2.2-0.3-3.3-0.5c-4.3-0.8-8.8-1.9-12.9-3.7
	c-2.5-1.3-4.8-2.9-7-4.6c-1.8-1.4-3.6-2.9-5.4-4.4c0.1,0,0.2,0,0.3,0c-0.7-0.5-1.3-0.9-2-1.5c2.2,0.9,4.8,0.9,6.8-0.6
	c3.1-2.2,3.4-6.6,0.5-9.1c-2.6-2.3-7.7-3.9-10.5-1.1c-0.2,0.2-0.3,0.5-0.3,0.8c-1.6,1.5-1.7,4-0.8,6.1c0,0.2,0.1,0.3,0.1,0.5
	c-2-1.7-3.9-3.4-5.9-5c-0.3-1.4-1-2.5-0.2-4.1c1-1.8,3.9-3.7,5.9-2.8c0.4,0.2,0.8-0.2,0.6-0.6c-1.4-3.1-6.3,0.1-7.6,1.8
	c-0.6,0.7-1.1,2.3-1.1,3.7c-0.4-0.4-0.9-0.7-1.3-1.1c0,0,0,0,0,0c-0.1-0.1-0.2-0.2-0.2-0.2c-0.3-0.3-0.7-0.6-1.1-0.9
	c9.2-8.5,17.4-18.3,26.1-27.3c5-5.2,10-10.3,15.1-15.3c0.3,0.3,0.7,0.5,1,0.7c2.3,2.5,5.3,4.4,8,6.4c1.4,1,2.8,2,4.2,3
	c0.6,0.4,1.2,1,1.9,1.4c0.3,0.3,0.7,0.4,1.1,0.3c0,0,0,0,0.1,0c0.4,0,0.6-0.4,0.6-0.7c0-0.1,0-0.3,0-0.5c-2.2-6.5,5.7-11.4,10.7-7
	c0.9,1,1.5,2.3,1.9,3.7c-0.2,0.4-0.1,0.7,0.2,1c0.1,0.5,0.1,0.9,0.1,1.4c0,0.4-0.1,0.8-0.2,1.2c-0.4,0.6-1,1.3-1.7,1.9
	c-0.8,0.7-1.5,1.3-2.1,2c-0.6-0.3-1.6,0.3-1.4,1.2c0.3,1.6,1.1,3.1,2.4,4.2c0.2,0.2,0.4,0.2,0.6,0.2c0.7,0.8,1.3,1.5,1.9,2.2
	c0.1,0.4,0.3,0.8,0.7,0.8C118.2,355.5,120.1,358.4,119,363.3z M141.7,384.4c0.7,4.3,1.3,8.7,1.5,13.1c0,1,0,1.9-0.1,2.9
	c-2,10.8-5.6,21.5-8.4,32.1c-0.1,0-0.1-0.1-0.2-0.1c0,0,0,0,0,0c0,0,0,0.1,0,0.1c-0.1,0.7-0.2,1.4-0.3,2.2c5.2,4,8.1,12.5,10.1,18.8
	c-2.3-1.8-4.1-6.7-4.6-8.5c-0.1-0.4-0.4-0.6-0.7-0.6c0-0.1-0.1-0.3-0.1-0.4c-0.3-1.3-2.2-0.7-1.9,0.5c0.6,2.8,1.1,5.6,1.4,8.5
	c0.1,1.4,1.3,7.8-1.5,6.6c-0.6-0.3-1.3-2.7-1.6-3.3c-0.6-1.4-1.2-2.8-1.8-4.3c-0.4-1-0.6-2-1.1-2.9c0-0.1,0-0.2,0.1-0.3
	c0.3-0.9-0.7-1.4-1.3-1.2c-0.9-0.3-1.8,0.9-1,1.7c0,0,0.1,0.1,0.1,0.1c-0.6,2.3-1.1,4.6-1.3,7c-0.1,1-0.2,10-2,9.3
	c-1.7-0.7-1.8-8.6-2-10c-0.3-2.2-0.8-4.2-1.8-6.2c-0.2-0.4-0.4-0.5-0.7-0.5c-0.5-0.2-1.1,0-1.2,0.6c-0.5,2.9-1.1,5.7-1.6,8.6
	c-0.1,0.3-1,4.7-1,4.7c-1.3-0.2-1-2.3-1.2-3.3c-0.6-3-1.5-6.2-1.6-9.3c-0.1-3.6,1.3-6.9,2.7-10.2c0-0.1,0-0.1,0-0.2
	c0.9-0.6,0.4-2.2-0.7-1.8c-1.8,0.7-3.6,1.4-5.5,2.1c-0.7,0.3-2.8,1.4-4,1.6c2-4.6,8.1-6.8,12-9.3c2-1.2,3.5-2.8,4.4-4.7
	c0.4-0.1,0.9-0.4,0.9-0.9c0-0.4,0-0.9,0.1-1.3c1.7-4.7,3.3-9.3,4.9-14c1.2-3.3,2.2-6.2,2.5-9.4c0.4-1.6,0.7-3.3,0.7-4.9
	c0.4-10.1-2.8-21.1-6-30.9c-0.2-0.9-0.4-1.8-0.6-2.7c1.9,0.1,3.8,0.1,5.7,0.2c1.5,0,2.9,0.1,4.4,0.1c0,0.1,0,0.3,0,0.4l3.5,16.6
	C141.1,382,141.4,383.2,141.7,384.4z M147.8,353.8c0.2-3.2,0.5-6.5,0.9-9.7c0.1-1-1.1-1.2-1.7-0.6c0,0,0-0.1,0-0.1
	c0-0.3-0.6-0.3-0.6,0c-0.3,2.4-0.4,4.9-0.4,7.4c-0.2,2.2-0.3,4.3-0.4,6.5c-0.1,2.5,0.6,4-2,4.6c-0.1,0-0.1,0-0.2,0c-1.3,0-2.6,0-4,0
	c-0.9-0.1-1.8-0.2-2.6-0.2c-1.9-0.1-3.9-0.1-5.8-0.2c-2.1-0.1-5.9,0.6-7.7-0.2c-0.6,0-1.1,0-1.7,0c0.1-1.2,0.1-2.4,0.2-3.6
	c0.1-2.4,0.2-4.8,0.3-7.3c0.1-1.3-1.9-1.3-2,0c-0.1,1.3-0.1,2.7-0.2,4c-0.6-0.9-1.2-1.8-1.9-2.6c0.2-0.5,0.4-1,0.6-1.5
	c0.9-1.3,1.1-3.1,1.1-4.8c0-1.9-0.3-4.4-2.2-5.2c0.4-1.1,0.4-2.4,0.3-3.6c0-0.1,0-0.1,0-0.2c6.9-5.7,13.9-11.3,21.9-15.4
	c4.1-2.1,8.5-3.8,13-4.9c3.7-0.9,12.4-2.7,16.5-0.5c0,0.1,0.1,0.2,0.1,0.2c0,0,0.1,0.1,0.1,0.1c0.3,0.3,0.9,0.4,1.2,0.2
	c0.1-0.1,0.1-0.1,0.2-0.2c0.1-0.1,0.2-0.1,0.2-0.2c-0.9,14.4-8.4,27.3-14,40.5C154.1,354.9,151,353.2,147.8,353.8z M161,364.1
	C161,364.2,161,364.2,161,364.1C161,364.2,161,364.2,161,364.1c-1.5,0.1-2.8,0.2-3.9-1c-1.2-1.4-0.7-3.4,0.3-4.7c0,0,0-0.1,0-0.1
	c0.3,0.8,1,1.4,1.8,1.8c0.8,0.5,2.2,1.1,3.3,0.9C162.1,362.1,161.6,363.1,161,364.1z M163,360.2c-0.7-0.2-1.5-0.3-2.1-0.5
	c-1.2-0.4-2.6-1.3-2.6-2.7c0-0.2-0.1-0.3-0.2-0.3c0.2-0.5,0.5-1,0.7-1.5c0.1,0.6,0.5,1.2,0.9,1.6c0.4,0.4,1.1,1,1.6,0.6
	c0.1-0.1,0.1-0.2,0.1-0.2c-0.1-0.3-0.3-0.4-0.5-0.6c-0.3-0.2-0.6-0.4-0.8-0.7c-0.2-0.3-0.3-0.6-0.5-0.9c-0.1-0.2-0.3-0.4-0.5-0.3
	c0,0,0,0,0,0c0,0,0,0,0,0c0.6-1.4,1.2-2.8,1.9-4.2c0.5,0.9,1.3,1.7,2.3,2.2c0.9,0.5,2.4,1,3.4,0.5
	C165.3,355.5,164.2,357.8,163,360.2z M166,361.6c0.1-0.3-0.1-0.5-0.4-0.5c-0.1,0-0.2,0-0.2,0c-0.3-0.2-0.7-0.4-1.1-0.5
	c3.7-6.9,6.6-14.2,9.5-21.4c3-7.4,5.9-14.3,5.3-22.1c0.4,0.1,0.8,0.1,1.1,0.2c1.3,0.6,2.8,1.1,4,1.8c1.5,0.9,3.2,2.2,4.9,2.9
	c0,0,0,0.1,0,0.1c0.6,6.3-2.6,11.7-6.3,16.9c-1.7,2-3.4,3.9-4.7,6c-2.9,4.5-5.5,9.3-8.1,14c-0.5,0.7-1,1.3-1.5,1.9
	C167.2,362.5,166.7,362.2,166,361.6z M230.2,376.9c-5,0.6-9.8,2.2-14,5.1c-5.7,3.9-9.5,11.4-16.3,13.5c-2.1,0.6-4,0.5-5.9-0.1
	c-1.6-0.7-3.2-1.6-4.7-2.7c-3.5-2.7-6.5-6.7-8.9-9.5c-4.7-5.5-8.8-11.5-12.5-17.8c0.1,0,0.2-0.1,0.3-0.1c1.7-0.9,2.7-4,3.6-5.5
	c1.7-2.9,3.4-5.8,5.2-8.6c3.7-6,9.5-12.1,12.5-19c1.3-2.3,2.2-4.7,2.1-7.3c0.3,0.2,0.5,0.5,0.8,0.8c1.8,2.3,3.7,4.5,5.1,7.2
	c1.8,3.3,3.2,6.9,4.5,10.4c0.3,1.4,0.6,2.9,0.7,4.4c0.5,4.1,0.3,8.2,0.1,12.3c-0.2,3.5-0.6,6.9,1.2,10c0.2,0.4,0.9,0.2,0.9-0.2
	c-0.3-7,0.1-14.9-0.8-22.4c0.4,0,0.9-0.2,1-0.7c0.1-0.3,0.2-0.7,0.4-1c3.2-3.6,5.9-7.6,9-11.3c0.1-0.1,0.2-0.3,0.3-0.4
	c0.8-0.8,1.6-1.7,2.2-2.4c3.5-2.5,9.7-2.4,8.3,5c-0.4,2.1-1.6,4.1-2.4,6.1c-4.2,4.1-7.2,9.8-9.5,15.1c-2.5,5.7-4.9,12.2-5.4,18.4
	c-0.5,0.8-1,1.6-1.6,2.4c-0.2,0-0.4,0.1-0.6,0.3c-5.1,5.7-10.8,1-15.3-5.6c-2.1-3.8-4.1-7.7-6.2-11.5c-0.8-2-1.4-3.7-1.8-4.7
	c-0.3-1-1.5-0.9-1.8-0.2c-0.1,0-0.3,0-0.4,0.1c-0.5,0.1-1,0.1-1.6,0.1c-0.1,0-0.2,0-0.3,0c0,0-0.1-0.1-0.1-0.1c0,0-0.1,0.1-0.1,0.1
	c-0.3,0.3-0.7,0.6-1,0.9c0,0-0.1,0.1-0.1,0.1c0,0,0.1,0,0.1,0.1c0,0.3,0,0.5,0.3,0.8c1.6,1.6,3.2,3.3,4.7,4.9
	c0.2,0.2,0.4,0.3,0.7,0.3c2,4.9,4.7,9.5,8.3,13.4c1.2,1.9,2.7,3.7,4.4,5.1c3.7,3,7.6,1.7,10.3-1.2c0.4-0.3,0.8-0.7,1.2-1.1
	c0.2-0.3,0.3-0.5,0.2-0.8c0.4-0.7,0.8-1.4,1.1-2.1c0,0,0.1-0.1,0.1-0.1c0.3-0.7,0.5-1.3,0.7-2c0.4,0.1,0.9,0.1,1.2-0.3
	c3.2-1,6.3-2.5,9.3-4c1.7-0.5,3.5-0.9,5.3-1.2c0.4-0.1,0.7-0.4,0.7-0.7c1.3,0,2.5,0.4,3.7,1.5c2.1,2,2.7,4,1.8,6.2c0,0,0,0,0,0
	C230.8,376.6,230.5,376.7,230.2,376.9z M181.2,359.4c-0.4-0.4-0.8-0.8-1.2-1.2c0.3,0,0.5,0,0.8,0C180.9,358.6,181,359,181.2,359.4z
	 M233.4,384.9c-0.8-0.2-1.6-0.8-2.2-1.4c-1.5-1.5-1.2-3.4,0.5-4.5c0,0,0,0,0,0c0.8-0.5,1.5-1,2.3-1.4c0.5,0.4,1.4,0.3,1.6-0.5
	c0-0.1,0-0.1,0.1-0.2c0.8-0.2,1.7-0.3,2.6-0.2c1.2,0.1,2,0.5,2.3,1.4c-0.6,0.2-1,0.9-0.7,1.5c0.3,0.5,0.4,1.1,0.3,1.7
	c0,0.1,0,0.1-0.1,0.2c-0.1,0.1-0.1,0.2-0.1,0.4c-0.4,0.1-0.8,0.3-1.2,0.5c-0.3,0.1-0.6,0.2-0.9,0.4c-1.6,0.5-3.1,1.2-4.5,2.1
	C233.5,384.9,233.5,384.9,233.4,384.9z M248.9,393.4c-0.9,1.5-2.6,2.2-4,3.3c-0.9,0.1-1.8,0.3-2.9,0.3c-2.2,0-4.6-1.4-6.2-3.1
	c-1.3-1.4-1.7-3.3-2.2-5.1c0.5-0.2,0.8-0.6,1.2-1c0.4-0.4,0.9-0.8,0.9-1.4c0-0.2-0.1-0.3-0.2-0.4c1.2-0.7,2.4-1.2,3.7-1.5
	c0.3-0.1,0.5-0.3,0.6-0.5c0.4,0.4,1.2,0.5,1.6-0.2c0.4-0.6,0.6-1.3,0.7-2c0-0.1,0.1-0.2,0.1-0.2c1.1,1.4,3.4,0.9,4.8-0.1
	c0.6,1.4,1.2,2.7,1.7,4.1C249.7,388.1,250.4,390.9,248.9,393.4z"/>
<path fill="#414042" d="M151.5,20.8c-4.3,2.2-7.1,6.7-9.8,10.5c-3.4,4.8-6,9.8-7.4,15.5c-0.3,1.3,1.6,1.8,1.9,0.5
	c1.2-4.9,3.3-9.4,6.2-13.6c2.7-4,5.7-9,10-11.2C153.7,22,152.7,20.2,151.5,20.8z"/>
<path fill="#414042" d="M152.4,25.5c-6.1,4.7-10.3,10.9-12.4,18.3c-0.3,1.2,1.6,1.8,1.9,0.5c1.9-6.8,5.8-12.7,11.5-17.1
	C154.5,26.5,153.5,24.7,152.4,25.5z"/>
<path fill="#414042" d="M154,30c-3.3,3.1-6,6.8-7.9,11c-0.5,1.2,1.2,2.2,1.7,1c1.8-4,4.3-7.6,7.6-10.6C156.4,30.5,155,29.1,154,30z"
	/>
</svg>
