<?xml version="1.0" encoding="utf-8"?>
<!-- Generator: Adobe Illustrator 18.1.0, SVG Export Plug-In . SVG Version: 6.00 Build 0)  -->
<svg version="1.1" id="Layer_1" xmlns="http://www.w3.org/2000/svg" xmlns:xlink="http://www.w3.org/1999/xlink" x="0px" y="0px"
	 viewBox="206 0 368 612" enable-background="new 206 0 368 612" xml:space="preserve">
<g>
	<path fill="#E0E0E0" d="M566.1,109.1c0,5.5,0,11.2,0,16.8c-0.2,1.6-0.3,2.9-0.3,4.5c-0.2,7.3,0,14.7-0.5,22
		c-0.2,1.6-0.7,2.8-1.9,3.8c-3.5,2.9-6.7,6.1-10.2,8.8c-2.6,1.9-3.3,4-2.6,7.3c1.7,8,3.6,15.9,2.8,24c-1.4,13.3,1,26.1,3.5,39.1
		c0.2,1,0.3,2.2,1.4,2.4c3.5,0.7,2.2,2.6,0.9,4.1c-8.1,10.4-13.5,22.3-19.7,33.7c-2.1,3.6-2.2,7.3-1.7,11.2
		c1.9,14,6.1,27.5,10.7,40.8c1.4,3.8,2.8,7.6,3.6,11.8c2.2,10.4-0.9,17.3-10,22.5c-3.3,1.9-6.6,3.1-10.7,2.4c-6.9-1-9.3,1.9-8.5,8.6
		c0.3,2.4,0.3,4.7,0.7,7.1c1,7.6-5.2,19.7-11.9,23.2c-2.1,1-2.1,1.7-1.2,3.6c2.1,4.3,1,7.8-2.8,10.7c-1.7,1.4-3.6,2.2-5.7,3.1
		c-1.4,0.5-2.2,1.4-2.9,2.9c-2.2,5.9-4.5,11.6-5.9,17.8c-0.3,1.7-0.5,3.6-1.4,5.2c-3.3,5.7-7.3,11.1-12.1,15.4
		c-4.5,4.1-9.7,6.4-16.1,6.1c-6.2-0.3-12.4-1.4-18.5-2.9c-9.7-2.6-19-6.2-28-10.7c-2.4-1.2-3.3-0.7-3.1,2.1c0.3,5.9,1,11.8,1.9,17.6
		c0.3,2.2,1.2,4,2.4,5.9c14.7,20.4,28,41.7,38,64.8c4.3,10,7.8,20.2,8.5,31.3c0.7,13.5-6.7,21.8-20.2,22c-11.6,0.3-22.5-2.4-33-6.4
		c-23.7-8.6-44.3-22.5-63.4-38.6c-41.1-34.6-74.7-75.7-104.8-119.8c-1-1.6-1.4-3.1-1-5.2c3.5-17.8,6.9-35.8,9.5-53.8
		c1.6-10.7,4.3-21.4,3.5-32.3c-0.9-9.7-2.2-19.2-3.8-28.7c-2.2-12.4-4.1-24.9-11.2-35.8c-0.5-0.7-0.7-1.9-0.9-2.8
		c-1.6-11.9-3.1-23.9-4.7-35.8c-2.2-17.6-4.5-35.4-6.9-53.1c-1-7.8-2.6-15.4,2.6-22.3c0,0-0.2-0.3-0.5-0.9
		c-3.5,3.6-6.9,7.3-10.4,10.7c-0.7,0.7-1.9,2.1-2.4,0.3c-0.9-2.9-2.6-6.1-1-9.3c2.1-4.5,4-9,6.1-13.5c0.9-1.9,0.5-2.6-1.6-3.1
		c-2.8-0.5-5.7,0-8.3-1.4c0-0.7,0-1.2,0-1.9c0.7-2.4,3.5-4.3,2.6-7.1c-0.5-1.6,0-2.4,0.9-3.3c1.2-1.2,2.2-2.6,3.6-3.6
		c2.2-1.9,2.6-3.5,0-5.2c-2.2-1.4-1.7-2.8,0-4.3c3.5-2.6,6.1-5.7,8-9.7c1-2.2,2.8-4,4.7-5.7c5-4.7,9.9-9.3,15.4-13.3
		c6.7-5.2,13.3-10.7,22.1-12.1c1.2-0.2,1.7-1.2,2.4-2.1c3.1-4,6.2-8,10.2-11.2c7.3-6.1,16.3-8.1,24.9-10.9c4-1.4,7.4-3.1,10.4-5.9
		c14-12.6,30.3-18,49.1-14.9c2.2,0.3,4.1,0.2,6.4-0.3c9.9-2.1,19.7-3.3,29.4,1.2c0.5,0.2,1,0.3,1.6,0.3c6.2-0.9,12.4-0.2,18.7-0.9
		c7.6-0.7,15-0.9,22.1,2.6c2.9,1.4,6.4,2.1,9.3,3.6c4.5,2.2,8.8,2.2,13.3,0.2c3.3-1.6,6.6-1.2,9.9,0c20.6,8.1,39.6,18.5,55.7,33.9
		c13,12.3,22.5,26.5,26.5,44.3c0.2,0.7,0.5,1.4,1,2.8c1.2-15.7-0.3-30.4-5.5-44.6C560.9,87.5,564.2,98,566.1,109.1z M274.1,303.8
		c-0.3,0.7-0.5,1-0.5,1.2c0,1.4,0,2.8,0,4.1c0.7,9.7-0.2,18.8-8,26.1c-1.4,1.2-2.2,2.8-2.6,4.7c-5.4,29.6-10.9,59.1-16.3,88.5
		c-0.3,1.7,0.2,3.1,1.2,4.5c4,5,7.8,10,11.8,15c15.9,20.2,30.8,41.3,49.1,59.5c23.5,23.5,48.4,45.1,77.1,61.9
		c15,8.6,30.6,15.9,47.7,19.4c6.2,1.2,12.6,1.7,18.8,0.2c6.1-1.6,8.1-5,6.9-11.1c-0.5-2.4-1-4.8-1.6-7.3
		c-6.2-27.5-16.4-53.2-34.2-75.5c-1.6-1.9-2.8-4.1-5.5-5.9c0.9,2.8,1.6,4.7,1.9,6.7c0.2,1,1.7,2.4,0,2.9c-1.4,0.5-1.7-1.2-2.2-2.2
		c-1.9-3.6-2.9-7.4-3.8-11.2c-2.4-10-3.5-20.4-4.1-30.6c-0.2-3.5-1.7-5-4.8-6.2c-13-4.5-25.4-9.9-38.2-14.7
		c-8.6-3.3-15.7-8.3-22.1-14.7c-8.5-8.5-15.2-18-17.5-30.1c-0.7-3.6-0.5-8.6,0.5-10.5c0.3,0.7,0.7,1.4,0.9,2.2
		c3.3,9.9,8,19,14.2,27.5c8,10.9,17.5,19.4,30.6,24.4c16.1,6.1,32.5,11.6,47.7,19.5c2.8,1.6,5.9,2.6,9,3.6
		c12.3,4.3,24.7,7.4,37.9,5.5c10.9-1.6,17.1-8.6,20.7-17.8c2.2-5.5,3.6-11.8,5.4-17.5c1.4-4.7,3.6-8.5,8.6-9.9c1-0.2,1.9-1,2.8-1.7
		c2.8-2.4,2.4-6.4-0.9-8.3c-0.9-0.5-1.9-0.9-2.9-1.2c-7.1-2.4-14.3-4.8-21.4-7.3c-1.6-0.5-3.3-0.7-4.3-2.2c0.9-0.5,1.4-0.2,2.1-0.2
		c8.3,1.7,16.6,3.3,25.1,5c2.6,0.5,5.4,0.9,7.4-0.9c5.4-4.7,9-10.4,9-17.8c0-4.1-0.7-8.3-0.7-12.6c0-4.1,2.1-6.7,6.1-8.1
		c2.8-0.9,5.5-0.7,8.3-0.5c7.8,0.2,15.4-7.4,15.4-15.2c0-5.4-1.9-10.4-3.6-15.2c-5.4-14.7-9.2-29.9-13-44.9c-1.2-4.3,0-8.5,2.4-12.3
		c2.9-4.8,5.7-9.9,8.5-14.9c-0.7-0.5-2.9,1.7-1.9-0.7c2.1-5.5,2.6-12.1,8.8-15c3.1-1.6,3.8-3.8,2.9-7.4c-2.4-10.2-4.8-20.7-4-31.3
		c0.9-10.7-0.2-21.3-2.2-31.8c-0.5-2.4-0.9-4.7,0.7-6.7c0.9-1.2,0.2-2.2-0.5-3.3c-3.1-5.4-7.4-8.8-13.5-10.2
		c-9-2.1-17.8-0.2-26.3,2.8c-2.2,0.7-4.3,1.2-6.6,1c-13.1-1.2-26.5-2.1-39.2-5.4c-3.8-1-5.2-0.2-6.1,3.6c-1,4.3-0.9,8.8-0.2,13.1
		c1.6,9.7,2.8,19.4,2.4,29.2c-0.2,2.9-0.5,4-3.8,3.5c-20.9-3.1-38.9,3.1-53.1,18.8c-18.5,20.6-29.6,44.8-34.4,71.9
		c-0.5,2.4-0.2,5-1.4,7.6c-0.9-0.5-0.9-1.2-0.9-1.9c-0.7-4.5-1.4-9.2-2.1-13.7c-3.1-23.7-15.4-41.8-33.9-56.2
		c-4.5-3.5-9.5-6.4-15.4-7.1c-5.2-0.7-10.5-0.9-15.7-0.7c-14.5,0.5-24.2,8.5-27.7,22.6c-2.6,11.4-1.4,22.8,0.2,34.4
		c1.2,8.6,3.6,16.8,9.3,23.7c3.8,4.7,7.3,9.7,11.4,14c4.8,5,9.9,9.5,16.4,12.4c8,3.5,15,1.7,20.6-4.8c1.2-1.4,2.1-2.9,3.3-4.5
		c0.5-0.7,0.7-1.6,1.9-1.4c-3.6,12.6-14.2,19.9-27.3,14.9c-11.1-4.1-19-12.4-26.8-20.9C276.9,306.7,275.7,305.3,274.1,303.8z"/>
	<path fill="#E0E0E0" d="M476.2,221.8c4.1-2.8,8.5-5,12.1-8.3c7.3-6.4,14.7-7.6,23.9-4.5c8.1,2.8,16.6,4.3,25.1,6.1
		c2.6,0.5,3.3,1.7,2.9,4.3c-0.7,4-0.9,8-1.4,11.9c-0.2,0.9-0.2,2.6-1.9,1.4c-6.7-5.2-14.9-6.1-22.8-7.3c-11.8-1.7-23.7-2.2-35.6-2.6
		c-0.7,0-1.2-0.2-1.9-0.2C476.6,222.3,476.4,222,476.2,221.8z"/>
</g>
</svg>
