<?xml version="1.0" encoding="utf-8"?>
<!-- Generator: Adobe Illustrator 18.1.0, SVG Export Plug-In . SVG Version: 6.00 Build 0)  -->
<svg version="1.1" xmlns="http://www.w3.org/2000/svg" xmlns:xlink="http://www.w3.org/1999/xlink" x="0px" y="0px"
	 viewBox="0 0 1920 1080" enable-background="new 0 0 1920 1080" xml:space="preserve">
<g id="Layer_2" display="none">
	
		<rect x="-686.6" y="-363.3" display="inline" fill="#A6C4E7" stroke="#D1D3D4" stroke-miterlimit="10" width="3102.3" height="1710.2"/>
</g>
<g id="Layer_3">
</g>
<g id="Layer_1">
	<path fill="#D1D3D4" d="M947.7-185c-7.7,0-7.7,11.9,0,11.9C955.4-173,955.4-185,947.7-185z"/>
	<path fill="#D1D3D4" d="M1939.6,664.3c-1.5-6.7-7.7-12.1-13-16.1c-6-4.6-13.1-8-20.4-10.2c-14-4.2-30.7-4.7-43.6,2.8
		c-2.1,1.2-0.7,4.4,1.6,3.9c13.5-3,26.7-4.2,40.2,0c6.4,2,12.3,5.1,17.9,8.8c5.5,3.7,9.6,9.1,15.2,12.5
		C1938.5,666.7,1939.8,665.6,1939.6,664.3z"/>
	<path fill="#D1D3D4" d="M101.8,664c-12.9-7.1-26.4-13.8-41.3-15.5c-12.9-1.5-26.4,0.3-35.4,10.3c-1,1.1,0,2.9,1.5,2.5
		c11.2-3.1,23.1-4.8,34.7-3.3c13.2,1.6,25.9,6.6,38.5,10.8C102.6,669.7,104.4,665.4,101.8,664z"/>
	<path fill="#D1D3D4" d="M1835.6,744c-2.8-6.5-12.9-10.4-19.1-12.9c-8.2-3.2-17.4-4.6-26.1-4.5c-9.6,0.2-19.1,1.9-28.3,4.6
		c-4.7,1.4-9.3,3-13.8,4.8c-4.4,1.7-9.6,3.3-12.9,6.8c-1.8,1.9-0.6,5.4,2.2,5.4c4.5-0.1,8.7-2.6,12.8-4.2c4-1.6,8-3,12-4.3
		c8.5-2.6,17.3-4.5,26.2-4.8c8-0.3,15.8,0.4,23.6,2.3c3.8,1,7.6,2.2,11.1,4c3.4,1.6,6.5,4.4,10.2,5.2
		C1835.2,746.8,1836.2,745.4,1835.6,744z"/>
	<path fill="#D1D3D4" d="M177.1,737c-5.4-5.2-12.7-8.3-19.4-11.4c-6.4-2.9-13-5.7-19.8-7.9c-14.4-4.8-29.6-7.7-44.8-7.4
		c-14,0.2-27.7,3.2-40.6,8.6c-11.1,4.7-26.2,11.5-30.9,23.4c-0.6,1.5,1.1,2.6,2.4,2.4c6.1-1.1,11-4.6,16.3-7.5
		c5.7-3.1,11.3-6.3,17.3-8.7c11.9-4.8,24.5-7.6,37.3-7.9c13.8-0.3,27.3,2.3,40.5,6.3c6.4,1.9,12.7,4.2,18.9,6.7
		c6.6,2.7,13.2,6.5,20.2,7.9C177,741.9,179.2,738.9,177.1,737z"/>
	<path fill="#D1D3D4" d="M304.3,737.3c-6.9-4.1-16.3-3-24.1-2.3c-8.2,0.7-16.3,2.1-24.2,4.3c-8,2.2-15.7,5.1-23.1,8.8
		c-6.8,3.3-15.1,7.2-18,14.6c-0.4,0.9,0.6,1.9,1.5,1.9c7.1-0.4,13.3-5.2,19.4-8.4c7.2-3.7,14.7-6.7,22.4-9.1
		c7.7-2.4,15.7-4.1,23.7-5.1c7.3-0.9,15.3,0,22.2-2.8C304.9,738.8,305.1,737.8,304.3,737.3z"/>
	<path fill="#D1D3D4" d="M1492.1,885.2c-3.4-6.7-11.3-11.2-17.9-14.2c-7.3-3.3-15-5.6-22.9-7.1c-9.3-1.8-18.8-3.1-28.3-3.1
		c-4.7,0-9.4,0.2-14.1,0.9c-4,0.5-8.4,1-11.4,3.8c-0.8,0.8-0.3,2,0.6,2.4c3.6,1.3,7.8,0.3,11.6,0c4.4-0.3,8.9-0.5,13.3-0.4
		c8.9,0.1,17.8,1.2,26.5,3.2c7.2,1.6,14.4,3.6,21,6.8c6.6,3.1,11.6,7.9,17.6,11.9C1490.7,891.1,1493.4,887.7,1492.1,885.2z"/>
	<path fill="#D1D3D4" d="M1627.1,910.9c-7.9-3.2-18.1-3.2-26.6-3.1c-8.4,0.1-16.8,0.3-25.2,1.4c-7.2,1-14.1,2.8-20.7,5.9
		c-5.4,2.6-13.1,7.5-14.2,13.9c-0.3,1.9,1.2,4,3.3,3.3c2.8-0.9,4.8-2.8,7.2-4.4c2.7-1.7,5.6-3.3,8.5-4.6c6.5-2.8,13.6-4.1,20.6-4.6
		c7.4-0.6,14.9-0.6,22.4-0.6c7.9,0,15.5,2.2,23.3,2.2C1631.6,920.4,1631.8,912.9,1627.1,910.9z"/>
	<path fill="#D1D3D4" d="M1958.7,993.9c-2.3-2.2-5.2-3.6-8.4-3.4c-0.8-0.8-1.6-1.5-2.5-2.1c-0.5-1.1-1.2-2.1-2-3
		c-1.4-4.8-5.3-8.8-11.1-8.5c-2.3,0.1-4.4,0.5-6.4,1.1l-5,1.1c-14.8-0.9-30.1,3.7-44.6,6.8c-6.2,1.3-12.4,2.3-18.8,2.3
		c-6.6,0-13-1.3-19.5-2.3c-10.1-1.5-20-1.5-29.9,0.8c-19,4.5-35.9,16.6-49.2,31.1c-6.7,7.3-12.7,15.4-17.8,24
		c-2.4,4.1-4.4,8.9-7.4,12.6c-0.3,0.3-0.5,0.6-0.8,0.9c-3.6,0.9-7.2,1.8-10.8,2.7c-1.6,0-3.2-0.1-4.7-0.1
		c-24.1,0.9-47.3,10.6-65.5,26.9c-2.5,2.3-0.7,5.6,1.9,6.3c-0.3,3.3,0.7,6.8,3.5,9.5c9,8.8,20.1,6.8,30.9,3.6
		c10.5-3.1,21-6.2,31.5-9.3c1.4-0.4,2.9-0.8,4.4-1.2c1.2,1.4,2.7,2.6,4.4,3.4c2.7,4.9,8,7.3,13.5,5.9c13.4-3.4,26.8-6.7,40.2-10.1
		c-2.3,3.5-2.7,8.6-1.2,12.2c2.3,5.3,8.4,9.3,14.2,7.2c3.9-1.4,7.7-2.8,11.6-4.3c-0.6,2.5-0.5,5.1,0.6,7.7c2.3,5.5,8.3,9,14.2,7.2
		c11.9-3.7,23.7-7.9,35.4-12.6c0.2,0.7,0.5,1.4,0.9,2c3,5.3,9.2,7.2,14.5,5.3c2.1,1.6,4.7,2.5,7.2,2.5c8.7-0.1,15.1-4.3,20.6-10.1
		c4.6,2,10.5,1.4,13.8-2.4c24.9-28.3,43.7-61.6,55.3-98.1C1974.6,1000.4,1966.4,993.2,1958.7,993.9z M1814.1,997.5
		c-11.8,2.1-23,6.1-33.1,12.1c6.9-5.3,14.4-9.8,22.4-12.8c8.7-3.3,17.7-4.9,27-4.5c4.5,0.2,9,0.9,13.4,1.5
		C1833.8,994.7,1823.9,995.8,1814.1,997.5z"/>
	<path fill="#D1D3D4" d="M1539,1058.1c-0.8,0-1.5,0.1-2.1,0.3c-14.7,2.7-29.7,2.8-44.6,2.7c-6.9-0.1-14.2,0.4-20.8-1.7
		c-6.6-2.2-12.2-6.7-17.6-11c-1.5-1.2-3.1-1.1-4.4-0.3c1.2-3.4-3.2-7.3-6-4.1c-4.1,4.6-10.4,4.4-16,4c-6.6-0.5-13-1.4-18.6-5.3
		c-10.8-7.4-18.4-20.3-26.4-30.6c-1.9-2.4-4.6-1.2-5.7,1c-3.8-2.4-7.3,4-3.5,6.8c10.2,7.4,16.8,18.7,25.7,27.4
		c-0.5,0.2-0.9,0.5-1.3,0.8c-0.4-0.9-0.8-1.9-1.3-2.8c-0.8-1.7-2.2-2.2-3.6-1.9c-0.8-1-2.1-1.6-3.7-1.2c-1.6,0.4-3.1,0.7-4.7,1.1
		c-1,0.2-1.7,0.8-2.1,1.5c-4.5,0.5-8.4,2.2-12.1,5.3c-0.9,0.7-1.3,2.3-1,3.6c-0.9,0.8-1.8,1.7-2.7,2.6c-0.8,0.1-1.5,0.4-2,1.1
		c-1.1-0.4-2.3-0.4-3.3,0.1c-3.1,1.7-6,3.6-8.7,5.8c-2.3,0.9-3.9,2.6-4.9,5.2c-0.3,0.8-0.3,1.6-0.1,2.2c-0.4,0-0.8,0-1.3,0.1
		c-7.3,2.2-14.3,5.2-20.9,9.2c-3.8,2.3-1.2,7.8,2.8,7c5.3-1.1,10.5-2.9,15.3-5.1c0,0.1,0,0.2,0,0.4c0,3,4.2,5.4,6.3,2.7
		c0.5-0.7,1-1.4,1.6-2c0.5,1.9,2.6,2.7,4.4,2.3c1.5,2.8,5.9,3.4,6.7-0.5c0-0.2,0.1-0.4,0.1-0.6c2.6,0.6,5.6,0.4,8.4,0
		c1.1,0.6,2.4,0.7,3.5,0.1c0.3,0.2,0.6,0.3,1,0.4c6.6,1.4,13.3,2.4,20.1,2.7c0.2,0,0.4,0,0.6,0c3.2,0.2,6.5,0.2,9.7,0.1
		c0.1,0.1,0.1,0.2,0.2,0.3c1.8,2.6,6.1,1.9,6.9-0.7c0.6-0.1,1.2-0.1,1.8-0.2c1.7-0.2,3.1-1.7,3.6-3.3c0.3,0.3,0.6,0.6,0.9,1
		c2.6,2.7,6.9,0.1,6.2-3.5c0,0,0,0,0,0c1.4,1.5,3.3,1.7,4.7,0.8c0.4,0.6,0.9,1.2,1.3,1.8c1.9,2.5,5,0.9,5.9-1.5
		c1.1,0.2,2.2-0.2,3.1-0.9c0.8,1.5,2.4,1.9,3.8,1.6c1.7,0.6,3.8-0.1,4.7-1.6c0.6,0.3,1.3,0.4,1.9,0.4c0.4,0.6,0.8,1.3,1.2,1.9
		c1.5,2.2,4.3,2.2,5.8,0.7c0.6,0.7,1.2,1.3,1.8,1.9c2.2,2.1,5.3,0.9,6.1-1.6c0,0,0,0,0,0c2.7,2.3,6.2,0.2,6.3-2.6
		c1.7,0.6,3.4,1.2,5.1,1.7c0.8,0.2,1.5,0.1,2.2-0.2c2,0.6,4.1,1,6.3,1.2c-0.1,2.3,1.7,4.9,4.6,4.3c5.6-1.2,11.3-1.5,17-0.6
		c4.6,0.7,6.6-5.8,2-7.4c-0.6-0.2-1.2-0.4-1.9-0.6c-0.3-1.2-1.1-2.3-2.5-2.9c-0.3-0.1-0.7-0.2-1-0.4c0.5,0,0.9,0,1.4,0
		c10,3.1,21,1.6,29.8-4.7c0.9-0.7,1.5-1.6,1.6-2.6c0.1-0.1,0.2-0.2,0.3-0.4c0.5-0.7,1-1.4,1.4-2.2c0.3-0.7,1-1.1,0.6-1.1
		c0.3-0.1,0.6-0.1,0.8-0.2C1544.2,1064.8,1543.1,1058.1,1539,1058.1z M1432.9,1064.1c-1.9-1-4.3-0.1-5.1,1.9
		c-0.1-0.1-0.2-0.3-0.3-0.4c-1.2-1.6-2.9-1.5-4.2-0.7c-0.3-0.5-0.7-0.9-1-1.4c-1.8-2.5-4.7-2.1-6.1-0.3c-0.2-0.2-0.3-0.3-0.5-0.5
		c-1.4-1.4-3-1.4-4.3-0.6c-1.4-3-3-6-4.7-8.8c0.6,0.4,1.1,0.8,1.7,1.1c7.4,4.4,16.1,6.1,24.5,7.4
		C1432.9,1062.7,1432.9,1063.4,1432.9,1064.1z M1443.4,1064c-0.1,0.2-0.1,0.4-0.1,0.6c-0.4-1-0.8-1.9-1.3-2.9
		c0.7-0.2,1.4-0.4,2.1-0.7c0.2,0.3,0.4,0.6,0.6,0.9C1444.1,1062.4,1443.7,1063.1,1443.4,1064z M1450.2,1055"/>
	<path fill="#D1D3D4" d="M1671.9,790.7c-11.1-2-23.8,3.2-33,9.5c-8.4,5.7-13.9,16.1-8.8,26.1c2.2,4.4,8.6,0.5,6.4-3.9
		c-4-7.9,3.9-14.7,9.9-17.9c6.9-3.7,15.6-8,23.5-6.5C1674.6,799,1676.6,791.6,1671.9,790.7z"/>
	<path fill="#D1D3D4" d="M1860.7,677.7c-16.7-10.6-35.4-16.6-54.9-17.9c-4.8-0.3-4.7,7.3,0,7.7c18.2,1.2,35.7,7,51.2,16.9
		C1861.1,686.8,1864.8,680.2,1860.7,677.7z"/>
	<path fill="#D1D3D4" d="M1945.9,527c0-7.4-5.5-11.6-12-12.4c-9.9-1.2-19.8-1.5-29,3.1c-8.9,4.4-15.7,13.7-22.5,20.8
		c-1,1-1.7,2.2-2.3,3.5c-4.9,2-9.4,4.5-13.6,7.9c-9.4,7.5-16.4,17.8-19.2,29.8c-0.6,2.4-0.4,4.9,0.3,7.2c-2.8,3-4.2,7.1-2.5,10.9
		c0,2.5,2.6,5.2,5.5,3.6c13.4-5.6,27.6-8.5,42-9.7c3.8-0.3,7.6-0.5,11.4-0.7c8.4,1,16.6,3.2,24.6,6.6c2,0.9,3.5-0.2,4.1-1.8
		c2.3,0.9,5.8-1.1,5.3-4.6c-0.3-2.1-1.3-3.7-2.7-4.8c-0.2-0.5-0.5-0.9-0.9-1.4c-0.8-0.8-1.7-1.5-2.5-2.2c2.9-2.4,4.9-6,4.6-9.7
		c-0.8-8.3-1.7-16.5-2.7-24.7c-0.4-2.9-0.8-5.8-1-8.7c0.5-0.1,0.9-0.2,1.4-0.3C1940.5,540,1945.9,533,1945.9,527z"/>
	<path fill="#D1D3D4" d="M1910.3,788.8c-1.1-3.8-5.9-3.5-7.1,0c-0.9,2.8-3,4.9-5.7,6c-2.8,1.1-5.1,0.1-7.9-0.3
		c-2.9-0.5-5.7,0.6-8.5,1c-3.7,0.4-7.3,0-10.9-0.9c-2.3-0.6-3.9,0.9-4.4,2.7c-3.6-2.1-6.8,4.1-3.2,6.9c3.9,3,8.7,3.2,13.3,2
		c2.8-0.7,5.4-2.1,8.3-2.8c3-0.7,6-0.3,9-0.1c4.8,0.4,10.3,0.3,14.1-3.3C1910.2,797.1,1911.5,792.9,1910.3,788.8z"/>
	<path fill="#D1D3D4" d="M1932.1,787.1c1-3-1.6-4.9-4-4.6c0.3-4.1,0.5-8.1,0.6-12.2c0-2.4-1.7-3.6-3.5-3.7
		c1.2-8.6,1.6-17.4,1.1-26.1c1-0.5,1.7-1.6,1.7-3.3c-0.1-5-1.1-9.4-2.8-13.2c-0.2-2.2-0.5-4.6-1-6.8c0.1-4.2,1.3-8.4,3.5-12.3
		c1.7-3.1-2-7.7-5.1-5.2c-1.9,1.5-4.9,3.5-7.4,5.7c-4.6-2-10.4-2.6-14.6-3.7c-1-0.3-1.9-0.1-2.6,0.3c-8.2-3.3-16.9-5.7-24.3-8.3
		c-4.5-1.6-6.5,5.8-2,7.4c10.3,3.6,21.2,6.6,31.1,11.4c3.7,1.8,7,4,9.8,6.6c1,2.3,2.1,4.5,3,6.6l3.2,7.9c-0.3,0.5-0.4,1.2-0.3,1.9
		c1.7,18.8-0.5,37.5-6.7,55.3c-0.7,1.9,0.2,3.4,1.5,4.1c-9.6,13.8-19.1,27.7-28.7,41.5c0-0.5,0-1.1,0-1.6c-0.1-4.9-7.5-4.9-7.4,0
		c0.2,10-5.8,19.1-15,22.2c-1.3,0.4-2,1.3-2.4,2.4c-4.3,0.5-8.6,0.8-12.4,1.4c-6.9,1-13.7,2.6-20.3,4.8c-6.8,2.2-13.8,5.3-21,2.7
		c-2.5-0.9-4.2,1-4.5,3.2c-2-0.4-4-0.7-6-0.4c-2.9,0.4-5.2,1.9-7.6,3.6c-5.8,4.2-11.4,4-18.2,3.3c-3.1-0.3-6.2-0.6-9.3-0.5
		c-1.3,0.1-2.5,0.3-3.8,0.3c-0.5,0-1,0-1.6,0c-0.3-0.2-0.6-0.2-0.7-0.3c-0.4-2.1-2.5-3.4-4.6-2.9c-7.5,1.7-17.4,3.8-24.2-0.6
		c-0.1-0.8-0.1-1.6-0.2-2.5c-0.4-5.4-3.9-8.7-8.6-10.7c-5.6-2.4-10.7-4-14.7-9.1c-3.9-5-5.6-11.1-5.1-17.5c0.4-4.9-7-4.9-7.4,0
		c-1.2,15.2,8.3,27.7,21.7,32.6c1.2,0.4,2.5,0.8,3.7,1.5c-0.9,0.9-1.4,2.1-0.9,3.6c1.1,3.7,3,6.5,5.4,8.6c0.5,1,1.1,1.9,1.9,2.7
		c0.7,0.7,1.3,1.3,2.1,1.8c-2.6-0.4-5.2-1-7.6-2c-0.8-2.7-2.4-5.1-5.1-6.7c-0.5-0.3-0.9-0.5-1.4-0.7c0-0.4,0-0.7,0-0.8
		c1-10.7-13.8-16.4-20.5-8.8c-4.9,5.6-10.2,8.8-17.6,10.2c-5.6,1-12.7-0.6-17.8-3.5c-12.8-7.2-21.3-20.4-28.9-33.9
		c-3.3-5.8-21.8-11.6-24.2-10c-16.8,10.7-19.2,12.9-25.8,8.9c-0.3-0.2-0.2,0.7-0.3,1c-0.5,0.6-0.8,1.3-0.8,2.3c0,0.6,0,1.2,0,1.8
		c-1.8,0.4-3.7,0.9-5.5,1.3c-2.7-2.5-6.6,0.9-5.7,4.2c-0.6,0.4-1.1,0.7-1.7,1.1c-1.5-0.3-3.2,0.1-3.9,1.7c-0.1,0.3-0.2,0.6-0.3,0.9
		c-3.5,0.8-6.6,4.1-7.5,7.8c-1.7,7.7,5.9,12.9,11.8,15.1c8.4,3.1,17.6,3.7,26.4,2.4c0.4,0.3,0.9,0.6,1.6,0.8
		c5.9,1.3,11.7,0.6,17.1-2.1c1.1,0.1,2.2,0.3,3.3,0.6c-1.7,1.9-2.4,4.9-1,7.8c7.3,15.3,26.7,23.8,41.5,29.7
		c8.9,3.6,17.9,6.6,27.6,4.2c0.3-0.1,1.2-0.2,1.6-0.3c0.3,0.3,0.8,0.8,0.9,0.9c1.1,1.5,2.3,2.9,3.6,4.2c0.3,0.3,0.6,0.6,0.9,0.9
		c-7.5,3-14.4,8.4-20.6,12.9c-10.7-8.8-31.4-5.4-40.6,5.1c-9.1-7.2-22.8-8.8-33.1-3.7c-0.9-0.6-2-1.1-3.3-1.2
		c-9.7-1.2-19.2-0.2-28.6,1.8c-3.4,0.7-6.7,0.9-10,0.9c-2-0.7-4.2-1.1-6.3-1.4c-4.8-0.6-9.9-1.2-14.9-1.3c-0.7-1.3-2-2.4-4-3
		c-15.7-4.5-28.8,4.2-43.5,7.6c-15.1,3.4-29.4-5.3-41.5-13.2c-2.8-1.8-5.6-3.8-7.8-6.4c-2-2.3-3.2-4.6-6.5-5.1
		c-3.3-0.5-7.2,0.3-10.5,0.2c-3.9,0-7.7-0.2-11.6-0.5c-8-0.7-15.8-2.4-23.5-4.7c-5.5-1.7-11.8-5.2-17.7-5.4c-5.7-4-9.4-8.4-8.6-16.2
		c0.1-0.5-0.8-0.9-1.1-0.5c-10.6,13.3,7.7,26.9,17.2,34.2c6.7,5.1,14.1,8.5,22.5,9.4c5.3,0.6,10.8,0.5,16.2,0.2
		c2.6,2.5,4.9,1.6,8.1,2.5c3.3,0.9,6.5,6.8,9,9.3c0.3,0.2,0.5,0.5,0.8,0.7c1.8,2.2,4,3.9,6.4,5.3c0.6,0.4,1.1,0.8,1.7,1.2
		c0.2,0.2,0.5,0.3,0.7,0.5c0.3,0.2,0.7,0.4,1,0.6c3.4,2.1,7,3.9,10.9,5.3c0.9,0.3,1.8,0.3,2.5,0.1c6.6,2.9,13.7,4.8,20.9,5.7
		c1.8,0.2,3.6,0,5.1-0.7c0.4,0.2,0.9,0.4,1.5,0.4h0.2c1.1,0,2.1-0.6,2.7-1.5c0.1,0,0.2,0,0.2-0.1c2.8,0,5.7-0.6,8.4-1
		c2.9-0.4,5.7-1.1,8.6-1.5c3.2-0.5,6.2,0.2,9.3-0.1c0.8-0.1,1.5-0.4,2.2-0.8c-0.2,0.8-0.3,1.6-0.2,2.5c0.1,0.8,0.4,1.5,0.8,2.2
		c-0.2,0-0.4,0-0.7,0.1c-0.1-0.1-0.2-0.1-0.4-0.2c-3.7-1.3-7.3-1.9-11.2-1.6c-1.7,0.1-2.9,1.3-3.4,2.7c-0.6,0.3-1.1,0.7-1.7,1
		c-6.7-0.4-14.8,4.1-14.5,11.7c0.2,3.9,3.5,5.9,7,5.3c0.4,0.2,0.8,0.3,1.4,0.4c6.4,0.5,12.9,1.1,19.3,0.8c1.8-0.1,3.5-0.4,5-1.6
		c0.4,0,0.8,0,1.2,0c0.6,0.4,1.2,0.6,1.9,0.6c2,0,3-0.4,4.4-1.9c0.4-0.4,0.7-0.9,0.9-1.5c8.6-1.7,16.3-6.5,23.4-11.7
		c2.6-1.1,4.9-2.7,6.7-5.1c1.4,0.3,2.7-0.3,3.5-1.3c1.5,1.5,3.7,2.3,5.9,1.9l0,0.1c5.9-1.3,11.7-2.9,17.8-3.1c1.6-0.1,2.9-0.5,4-1.3
		c6.4,0.3,12.8,1.7,19.1,3.4c6.2,1.6,11.8,2.1,17.7-0.7c2-0.9,4.4-3,6.6-2.9c2.4,0.1,5.1,2.2,7.3,3c5.3,2.1,13.1,3.8,18.5,0.9
		c5.7-3,11.1-7.6,16.4-11.2c5.4-3.8,10.8-7.7,16.3-11.3c5.2-3.4,10.6-6.7,17.1-5.7c9.7,1.4,11.7-12.2,1.8-13.3
		c-1.7-0.2-3.5-0.2-5.2,0c-3.3-4.9-4.2-11.9-9.6-14.8c-0.2-0.1-0.5-0.2-0.8-0.4c1.5-0.1,3-0.2,4.5-0.4c0.3,10,14.5,16.8,22.6,19.6
		c13.5,4.7,28.3,4.6,41.8,0.1c1.1-0.4,1.8-1.1,2.2-1.9c8.2-7.3,17.1-13.7,25.9-20.2c7.5-5.5,16.2-14.3,25.7-15.5
		c3.2-0.4,5.6-5.4,1.9-7.1c-3.7-1.7-6.9-1.3-10,1.4c-0.2,0.2-0.4,0.4-0.5,0.5c-1.3,0.6-2.5,1.2-3.8,1.9c-0.8-0.7-1.9-1.1-3.3-0.6
		c-4.6,1.5-9.3,2.6-13.8,4.1c-0.4-0.8-0.9-1.6-1.5-2.4c2.7,0.1,5.4,0.1,8-0.4c3.9-0.7,6.9-2.6,10.1-4.9c4.6-3.1,8.4-1.5,13.5-1.1
		c8.1,0.7,16.2-1.5,23.2-5.6c0.7-0.4,1.2-1,1.5-1.6c7-2.1,14-3.8,21.3-4.7c9.7-1.1,20.5-2,28.7-7.3c0.2,3.6,1.7,6.4,6.2,7.3
		c3.2,0.6,6.4-0.9,7.3-4.2c0.1-0.3,0.1-0.7,0.2-1c1.2,0.4,2.3,0.8,3.4,1.2c5.5,2.1,11.7,6.7,17.9,5.8c0.3,0,0.6-0.1,0.9-0.2
		c0,0.4,0.1,0.8,0.1,1.1c0.4,4,5.5,4.7,7,2.2c2.1,0.4,4.8-1,4.7-3.7l-0.1-4.7c2.4-1.7,3.1-5,2.1-7.6c-0.3-1.9-2.2-3.3-4-3.2
		c-0.4-0.1-0.8-0.1-1.3-0.1c-0.2,0-0.3,0-0.5,0c0.4-4.7,0.5-9.5,0.3-14.2c1.7-6.9,2.9-13.9,3.7-21c0.3-2.7-2.2-4-4.4-3.6
		c0.5-4.1,1-8.2,1.7-12.3C1928.2,797.5,1930.3,792.4,1932.1,787.1z M1548.3,955.7c-2.4-2.3-5.5-3.6-8.9-4.2c-2.5-0.6-5-0.8-7.6-0.5
		c-0.3-1.5-1.4-2.8-3.5-2.8c-5.1,0.1-10.1,1.3-14.6,4c-1.6,0.9-3.6,2.2-5.1,3.8c0-0.6,0-1.2-0.3-1.7c1.8-0.5,3.5-1.3,5-2.2
		c2.2-1.3,5.1-4.9,7.7-5.1c1.4-0.1,2.5-0.6,3.5-1.3c3.4,0.8,6.9,1.5,10.3,2.1c2.2,0.4,4.5,0.6,6.8,1c0.5,0.3,1.1,0.6,1.7,0.9
		c0.1,0.2,0.2,0.4,0.3,0.6c0.6,0.8,0.8,1,0.5,0.6c-0.1-0.2-0.2-0.2,0,0c0.5,1,1.3,1.6,2.1,2.2c-0.7-0.6,0.2,0.2,0.4,0.4
		c0.2,0.2,0.4,0.4,0.6,0.7c0,0,0,0,0,0c0,0,0,0,0,0c0.4,0.5,0.8,1,1.3,1.3C1548.4,955.5,1548.3,955.6,1548.3,955.7z M1736.5,891.5
		c-0.7-1.4-1.6-2.6-2.7-3.5c3.3-0.1,6.7-0.7,9.9-1.5c1.7-0.4,2.5-1.8,2.6-3.3c0.8-0.1,1.6-0.3,2.4-0.4c1.2,1.4,2.9,2.1,4.9,2.4
		C1747.9,887.3,1742.3,889.5,1736.5,891.5z"/>
	<path fill="#D1D3D4" d="M474.2,912.4c-2.7-11-8.7-20.3-20.1-23.4c-4.7-1.3-9.6-2.2-14.6-2.8c-0.2-0.3-0.5-0.6-0.8-0.8
		c-4.7-3.5-10.2-4.5-15.9-3.3c-0.9,0.2-1.5,0.6-2,1c-3.2,0.1-6.3,0.4-9.5,1c-1.7,0.3-2.6,1.4-2.8,2.6c-2,0.2-3.9,0.5-5.8,0.8
		c-5.1,0.9-2.9,8.6,2.1,7.7c11.3-2,22.9-1,33.9,2.3c5.3,1.6,10.3,3.7,15.2,6.3c4.5,2.4,11.2,5.4,12.7,10.8
		C467.9,919.5,475.4,917.4,474.2,912.4z"/>
	<path fill="#D1D3D4" d="M600.9,869.9c0-1.1-0.5-2-1.2-2.7c0.9-2,0.3-4.8-2.4-5.6c-2.2-0.7-4.3-0.8-6.1-0.5
		c-1.7-0.8-3.8-0.6-4.8,1.6c-0.1,0.2-0.2,0.3-0.2,0.5c-5.3,3.6-9.1,10.6-13.5,15.2c-3.4,3.5-7.1,7-11,10.2c-1.8,1.1-3.5,2.3-5,3.9
		c-4.8,3.6-9.7,6.8-14.8,9.4c-1.4,0.7-2.5,3-1.8,4.5c0.7,1.7-12.7,11-14.4,12.3c-3.7,2.9-7.5,5.7-11.4,8.5c-0.4-0.1-0.8-0.2-1.3-0.3
		c-5.8-0.2-11.6,0.6-17,2.5c-0.9-0.3-1.9-0.2-3,0.5c-6.9,4.5-14.4,6.8-22.5,7.1c-4.1-1.9-8.9-2.7-13.5-2.8
		c-12.1-0.1-24.5,2.1-36.4,4.4c-2.1,0.4-3,2.1-2.9,3.7c-2.6,1.6-4.5,4.3-4.7,7.5c-0.5-0.2-1.1-0.4-1.6-0.6
		c-4.3-2.3-8.1-5.6-12.3-8.2c-5.7-3.6-12-6.4-18.6-8.2c-13.2-3.6-27.2-3.3-40.2,0.9c-1.3,0.4-2.1,1.3-2.5,2.3
		c-5,0.9-10,2.8-14.9,5.1c-1.8,0.3-3.5,0.5-5.3,0.9c-16.6,3-32.7,8.5-47.8,16.1c-6.5,3.3-12.9,6.8-19.3,10.1c-0.1,0-0.2,0-0.4,0
		c-1.4,0.1-2.5,0.8-3.1,1.7c-8.3,4.1-16.9,7.7-26.1,9.7c-0.5,0.1-0.9,0.3-1.2,0.5c-5-0.7-7.1,6.9-2,7.7c17.5,3,35.9-4.8,52-10.9
		c8.2-3.1,15.9-6.9,23.5-11.3c8.3-4.7,16.4-7.5,26-8.5c6.9-0.8,13.9-1.4,20.8-2.1c0.3,0.4,0.7,0.8,1.2,1c1.4,0.9,3.2,1,4.6,0.3
		c1.1,0,2.1,0,3.2,0c1.6,0,3.1-1,3.7-2.5c7.8-0.7,15.5-1.4,23.2-2.2c4.3-0.4,9-1.3,13.2-0.4c0.1,0,0.2,0,0.3,0.1
		c4.2,1,7.6,3.9,11.3,6c6.3,3.8,13.2,5.7,20.1,2.4c3.3-1.6,2.2-5.6-0.4-6.9c0,0,0,0,0,0c0.3-0.4,0.6-0.8,0.9-1.2
		c1.1-0.5,1.9-1.4,2.3-2.6c0,0,0,0,0,0c0,0,0,0,0-0.1c1.3-0.5,2.4-1.7,2.6-3.1c8.4-1.5,16.9-2.7,25.5-3.2c3.7-0.2,7.7-0.3,11.4,0.5
		c0.5,0.8,1.2,1.5,2.2,1.9c1.6,0.6,3.2,1.1,4.9,1.5c1.2,1.1,2.3,2.4,3.1,4c2.2,4.4,8.7,0.8,7.1-3.5c2.3-0.5,4.6-1.5,6.7-3.2
		c5.7-4.7,12-7.5,19-8.5c0.2,2.7,3.2,5.2,6,3.3c0.9-0.6,1.7-1.2,2.5-1.8c1.7-0.9,3.6-1.2,5.6-1.6c0.1,0.3,0.2,0.6,0.4,0.9
		c-0.2,1.7,0.7,3.4,2.9,3.8c2.8,0.5,5.7,1.1,8.5,1.6c0.7,0.5,1.4,0.8,2.2,0.7c0.3,0,0.7-0.1,1-0.1c1.1,0.2,2.3,0.4,3.4,0.6
		c3.6,0.5,7.1,0.3,9.9-2.3c1.4-1.3,2.4-2.9,3.2-4.7c1.5-1.1,2.8-2.3,4.1-3.7c3.8-1.8,5.8-4.7,6.3-9.1c0.2-2.1-0.9-3.3-2.5-3.7
		c-0.3-0.7-0.8-1.3-1.4-1.7c0.4-1.1,0.9-2.1,1.5-3.1c2.1-4,7.9-5.7,11.7-7.9c0.2-0.1,0.4-0.3,0.7-0.4c12-5.5,21.9-14.7,27.9-26.6
		c0.6-1.2,0.6-2.4,0.2-3.4C600.7,874.1,601,872.1,600.9,869.9z"/>
	<path fill="#D1D3D4" d="M224.4,925.6c-16.4-9.4-36.3-4.8-47.1,10.5c-3,4.2,4,8.2,6.9,4c8.3-11.8,23.8-14.7,36.2-7.6
		C224.8,935.1,228.9,928.2,224.4,925.6z"/>
	<path fill="#D1D3D4" d="M259.5,905.5c-0.1,0.3-0.3,0.6-0.4,1l0,0c0,0,0,0,0,0c-4.7,11-8.1,22.2-11.5,33.7c-0.7,2.5-1.9,4.8-3.3,6.9
		c-1.8,0.5-3.2,2.3-3.2,4.1c-5.1,5.6-12,10-17.8,14.2c-4.7,3.4-9.8,6.6-15.9,5.9c-6.4-0.7-12.5-4.4-18.2-7.2
		c-12.2-5.8-24.4-11.7-36.6-17.5c-4.6-2.2-8.7,4.7-4,6.9c13.7,6.6,27.4,13.1,41.1,19.7c6,2.9,12.2,6.1,19,6.2
		c5.8,0.2,11.3-2.2,16.1-5.3c5.4-3.5,10.5-7.8,15.6-11.7c3-2.3,5.9-4.8,8.5-7.7c4.6-1.9,6.8-9.6,8.5-14.1c3.9-10.5,7.1-21.2,9.7-32
		C267.8,904.4,261.4,901.2,259.5,905.5z"/>
	<path fill="#D1D3D4" d="M356.8,1027.4c-2.9-1.6-5.7,0.7-6,3.3c-4.8-0.5-9.6,0.6-13.8,3.1c-3.9-7.6-9-14.8-16.8-18.6
		c-8.6-4.1-18.3-4.5-27.7-4.6c-5.1-0.1-5.2,7.9,0,8c7.8,0.1,16.2,0.1,23.4,3.4c8.2,3.7,12.5,12.2,16.2,20c1.1,2.4,4.6,2.5,6.3,0.8
		c5.6-5.6,13.7-5.6,19.6-0.4c4.9,4.3,7.8,10.5,10.3,16.4c1.6,3.6,7.8,1.8,7.5-2C374.6,1044.4,367.8,1033.6,356.8,1027.4z"/>
	<path fill="#D1D3D4" d="M651.9,1023.1c-4.1,3-8.5,4.1-13.5,3.6c-5.1-0.5-5.1,7.5,0,8c6.2,0.7,12.5-1,17.5-4.7
		C660,1027,656.1,1020.1,651.9,1023.1z"/>
	<path fill="#D1D3D4" d="M630.7,1038c-0.7,4.6-12.2,5.8-15.4,3.4c-3.7-2.7-4.3-8.3-8.1-11.2c-2-1.6-4.4-1-5.8,0.4
		c-1.6-0.9-5.5-2.9-4.5-4.8c0.9-1.9,0.5-4.3-1.4-5.5c-1.8-1-4.5-0.5-5.5,1.4c-1.5,3.2-1.5,6.6,0.4,9.7c1.7,2.9,4.6,4.7,7.5,6.3
		c1.9,1.1,3.8,0.4,4.9-0.9c2.3,2.5,3.2,6,5.4,8.7c2.7,3.3,6.5,4.8,10.7,4.9c7.1,0.2,18.3-1.9,19.6-10.4
		C639.2,1035,631.5,1032.9,630.7,1038z"/>
	<path fill="#D1D3D4" d="M604.5,1073.8c-1.2-0.2-2.4-0.4-3.6-0.5c-1.4-2-2.7-4-3.5-4.9c-4-4.3-9.2-7.7-14.5-10.2
		c-7-3.4-17.8-9-24.7-5c-2.6-0.6-4.9-1.7-6.1-4.3c2.6-8-0.4-16.9-6.2-22.8c-6.3-6.5-15.3-8.7-24-9.6c1-1.8,1.6-3.9,1.6-6.2
		c0-5-3.4-10.1-8-12.1c5.6-0.4,11-1.5,16.2-4.1c12.7-6.5,19.5-21,32.8-26.4c4.7-1.9,2.6-9.7-2.1-7.7c-12,4.9-18.9,15.3-28.6,23.2
		c-12.1,9.8-27.2,6.6-41.6,8.4c-7.4,0.9-13.4,4.6-20.5,6.2c-8.4,1.8-16.7-2.3-23.7-6.4c-6.4-3.8-12.6-7.9-19.6-10.5
		c-5-1.9-13.2-3.2-14.7-9.2c-1.3-5-9-2.9-7.7,2.1c1.5,6,6.3,9.4,11.7,11.7c7.5,3.1,14.7,5.8,21.7,10c6.9,4.2,13.9,8.4,21.9,10
		c9.1,1.8,15.5-1.4,23.9-4.2c5.9-2,12-2.4,18.1-2.5c-4.9,1.5-9.1,4.2-13.2,7.9c-2,1.8-3.8,3.9-5.7,5.9c-2.6,2.7-3.3,3.5-5.6,4.9
		c-6.7,4-14.5,6.5-21.7,9.5c-7.2,3-14.3,6-21.5,9.1c-1.2-2.1-4-3.2-6-0.8c-5.2,6.3-10.5,13-17.5,17.4c-7.6,4.7-16.3,5-24.8,6.7
		c-14,2.9-26.3,12.5-40.4,14.2c-9.3-5.5-16.4-13.5-24-21.1c-8.1-8-17-14.8-27.5-19.3c-5.2-2.2-10.6-3.8-16.2-4.9
		c-6.4-1.2-12.7-2-17.7-6.4c-4.7-4.1-8.5-9.4-12.4-14.2c-4.4-5.4-8.8-10.8-13.2-16.2c-3.3-4-8.9,1.7-5.7,5.7
		c4.4,5.4,8.8,10.8,13.2,16.2c3.9,4.8,7.7,10.1,12.4,14.2c9.4,8.2,22,7.6,33.2,11.7c11.8,4.3,21.3,11.8,30,20.6
		c5.9,6,11.8,12.1,18.5,17.1c-0.4,2.2,0.9,4.8,3.8,4.9c1.3,0.1,2.6,0,3.9,0c0.1,0,0.1,0.1,0.2,0.1c1.8,0.9,3.5,0.4,4.7-0.7
		c14.2-2.5,26.8-11.8,41.2-14.4c3.4-0.6,6.8-1.1,10.1-1.8c-2.3,0.8-4.5,1.7-6.8,2.5c-6.6,1.5-13.1,3.2-18.8,7
		c-1,0.6-1.7,1.4-2.2,2.4c-1.5,0.5-3,1-4.5,1.4c-8.6,2.6-4.9,16.1,3.7,13.5c9.8-3,19.5-6.4,29-10.1c0.9,1.5,2.3,2.7,4,3.2
		c3.6,0.9,7.4,1.6,11.1,2c1.9,2.4,5.1,3.5,8.6,1.6c0,0,0,0,0,0c0,0,0,0,0,0c0.9,0.5,1.9,0.8,3,0.8c25.3,1.6,50.1-8.4,75.4-5.4
		c10.7,1.3,25.1,7.4,35.5,2.2c2.2-1.1,3.6-2.7,4.5-4.5c0.5-0.1,1.1-0.2,1.6-0.3c5.7,0.5,11.4,1,17.1,1.6c7.2,0.7,14.3,1.6,21.5,2.5
		c3.2,0.4,6.4,0.9,9.5,1.3c0.9,0.9,1.8,1.8,2.8,2.6c5.2,4.3,16.3,7.6,20.1-0.3C620.6,1080,611.5,1074.8,604.5,1073.8z M416.3,1058.9
		c0.1-0.1,0.3-0.2,0.4-0.3c1.3-0.8,2.5-1.7,3.6-2.7c0.3,0.4,0.7,0.7,1,1.1C419.7,1057.6,418,1058.3,416.3,1058.9z M427.4,1049.5
		c0.1,0.8,0.3,1.6,0.5,2.3c-0.5-0.4-1-0.8-1.5-1.2C426.7,1050.2,427,1049.8,427.4,1049.5z M440.2,1062.2c8.5-1.4,17.4-6.1,25.3-9.8
		c-0.1,0.5-0.1,0.9-0.1,1.4c0,1.3,0.1,2.5,0.1,3.8c0,0.1,0,0.2,0,0.3C458,1062.3,449,1063.9,440.2,1062.2z M510.2,1032.6
		c-1,5.1-3.9,8.8-8.3,10.7c-1.4,0.5-2.7,0.8-3.6,1.1c-1.4,0.4-2.5,1.1-3.3,1.9c-5.3,0.2-10.5,0.9-15.7,2.2c-0.8-0.2-1.6-0.4-2.4-0.6
		c11.8-4.2,24.4-8.3,33.6-16.3C510.4,1031.8,510.3,1032.2,510.2,1032.6z"/>
	<path fill="#D1D3D4" d="M193.7,1068.1c-1.9-3.9-6.5-11.3-11.5-11.2c-1.7,0-3.5,1.2-3.9,2.9c0,0.1-0.1,0.3-0.1,0.4
		c0,0.2,0,0.4-0.1,0.6c-13.9-12.1-33.5-16.3-52.1-9.6c-2.6-7.5-6.1-14.7-10.5-21.3c0.1-0.7,0-1.5-0.3-2.2
		c-13.2-28.7-44.7-35.3-73.8-36.8c-2.5-0.5-5.1-0.8-7.7-0.9c-0.1-1.2-0.6-2.3-1.8-3.1c-7.4-5.2-16.5-5.3-25.1-4.1
		c-8.2,1.2-16.3,3.6-21,10.9c-1.1,1.7-0.5,4.6,1.4,5.5c0.6,0.3,1.2,0.6,1.8,0.8c0.7,0.3,1.4,0.4,2,0.4c0.8,1,2,1.9,3.4,2.4
		c0.1,0,0.3,0.1,0.4,0.1c-0.2,0.5-0.4,1-0.6,1.5c-4.5-0.3-6.4,6.4-2.1,7.6c-0.4,2.1,0.8,3.7,2.4,4.5c0.2,1.6,0.3,3.2,0.5,3.9
		c0.4,2.5,0.8,5,1.2,7.5c-0.1,1.3-0.1,2.6,0.2,3.8c-0.6,5.5-1.1,10.9-1.5,16.4c-2.3-2.2-7.4,0-6.7,4.1c0.8,4.5,1.6,9,2.4,13.4
		c-4.5,8.4-8.9,16.9-13.4,25.3c-3.5,6.7,5.6,14.8,11,8.5c0.7-0.8,1.4-1.7,2.2-2.5c1.1,0.8,2.4,1.2,3.9,1.1
		c5.9-0.3,10.3-3.5,13.7-7.7c-0.2,6.7,0.5,13.2,3.4,19.5c2.3,5,9.5,4.1,12.1,0c2.8-4.6,4.6-9.3,5.8-14.3c1.7,7.4,5.3,14,13.5,11.6
		c9.4-2.7,10.5-17.8,10.9-27c4.1,6,9.5,11.7,15.8,11.6c1.2,0,2.3-0.2,3.3-0.5c3.1,2.4,7.8,2.6,10.1-1.9c0.8-1.7,1.6-3.5,2.2-5.4
		c0.9-0.5,1.8-1,2.6-1.6c4.6,4.1,10.1,6.6,17,4.9c2.2-0.6,4.2-2.6,4.9-4.9c1.7,1.1,3.5,2,5.5,2.4c0.1,0,0.2,0,0.3,0
		c2.1,1.2,4.3,2.3,6.5,3.4c9.9,4.5,22.1,2.5,32.6,1.2c9.7-1.2,21.5-6,26.9,5.1c3.6,7.4,13.9,2.2,12.8-5c1.1-0.3,2.1-1.2,2.3-2.8
		C197.3,1080.3,196.6,1074,193.7,1068.1z"/>
	<path fill="#D1D3D4" d="M56.1,594.2c-0.6-0.4-1.3-0.7-1.9-1c-0.2-0.4-0.4-0.8-0.7-1.2c-0.6-0.7-1.3-1.4-1.9-2.1
		c0-0.4,0-0.8-0.2-1.2c-3.7-10.1-9.5-19-17.4-26.4c-0.3-0.3-0.6-0.5-0.9-0.6c-2.2-1.9-4.6-3.4-7.2-4.6c-1.8-3.1-3.8-6.1-5.9-9
		c0.3-0.5,0.5-1.1,0.4-1.8c-0.3-2.5-0.8-4.8-1.6-7c0.5-4.3-4-8.9-6.4-11.9c-2-2.5-4.3-4.7-6.7-6.8c-1.3-3.4-3.9-5.8-8.9-5.6
		c-2.3,0.1-3.7,1.8-3.9,3.7c-0.7,1.4-0.7,3.3,0.6,4.7c0.7,0.8,1.4,1.6,2.1,2.4c0.4,2.1,1.3,4.3,1.8,6.1c-1,0.9-1.5,2.3-1.2,3.9
		c0.9,4.6,1.6,9.3,2.2,14c0,0.1-0.1,0.2-0.1,0.4c0,0.2,0,0.4-0.1,0.6c-2,0.5-3.7,2.3-3.1,4.8c0.9,3.6,1.7,7.2,2.6,10.9
		c0.3,3.7,0.9,7.5,1.8,11.2c0.1,2.3,0.2,4.7,0.4,7c0,0.1,0,0.1,0,0.2c0,0.1,0,0.3,0,0.4c-1.9,1.7-4.1,3.1-6.1,4.5
		c-2.5,1.7-2.8,6.8,1,7.3c15.5,2.2,32.9-3,48.2,0.6c3.6,2,7.1,3.6,11.4,4.1C58.2,602.1,59.4,596,56.1,594.2z"/>
	<path fill="#D1D3D4" d="M74.7,789.3c-3.9,2.2-9.6,0.8-11.4-3.6c-0.7-1.8-1.9-2.8-3.9-2.9c-6.3-0.5-9.4-6.2-7.6-12
		c1.5-4.9-6.2-7-7.7-2.1c-3.2,10.2,3,19.5,12.8,21.7c4.5,7.3,13.9,10.4,21.8,5.8C83.2,793.7,79.2,786.7,74.7,789.3z"/>
	<path fill="#D1D3D4" d="M455.3,810.1c2.7-4.5-4-8.2-6.9-4c-0.5,0.7-1,1.4-1.5,2c-1,0.4-2,1.1-2.8,2.1c-1,1.3-1.7,2.8-2.5,4.3
		c-3.8,4.1-8.1,7.8-12.7,11c-0.4,0.2-0.8,0.5-1.2,0.7c-2.3,1.3-5,2.6-7.8,3.7c-0.3,0.1-0.5,0.2-0.8,0.2c-0.7,0.2-1.3,0.4-1.8,0.7
		c-6.5,2.1-13.5,2.9-19.2-0.3c-0.8-0.5-2-0.6-3-0.4c-1.3-0.1-2.6,0.4-3.6,1.8c-4.9,6.9-12.9,10.6-20.6,13.5c-8.2,3-16.6,5.4-25.1,7
		c-17,3.2-35,3-51.5-2.7c-1.2-0.4-2.4-0.9-3.6-1.4c-0.4-0.8-1.2-1.4-2.5-1.6c-0.8-0.1-1.6-0.3-2.4-0.5c-1.8-0.8-3.6-1.5-5.4-2
		c-3.5-1.7-6.6-4.2-9.3-7.4c-1.4-1.7-4.2-1.4-5.7,0c-2.1,2-4.2,4-6.3,6.1c-0.2,0.2-0.4,0.5-0.6,0.7c-2.5,0.4-5,0.5-7.5,0.5
		c-5.4,0-10.8-0.1-16.1-0.6c-5.7-0.5-11.4-1.4-16.8-3.5c-5.7-2.2-10.6-6-16.2-8.5c-2.3-1-4.4,0.1-5.5,1.8c-0.8-0.4-1.5-0.8-2.3-1.2
		c-1.3-0.7-2.5-0.6-3.5-0.1c22.4-16.7,47.9-31.9,76.1-29.6c8,0.6,16.2,3.9,24.3,2.4c8.1-1.6,12.3-8.2,17.7-13.7
		c5.7-5.7,12.4-10.5,19.5-14.2c0.5-0.3,1.1-0.5,1.6-0.8c7.3-1.7,14.9-2.1,22.6-1.1c5,0.7,7.2-7,2.1-7.7c-1.1-0.1-2.2-0.3-3.3-0.4
		c0.4-0.6,0.1-1.6-0.7-1.7c-7.1-1.1-14.3,0.2-21.2,2.9c-15.8,3.1-30.5,11.1-41.3,23.4c-28.5-10-59.6-0.1-85.2,13.8
		c-19.2,10.4-37,23.4-56.3,33.4c-4.8-2.3-9.6-4.4-14.6-6.3c-6.9-2.7-14.2-4-21.6-4.6c-3.8-0.3-7.6-0.3-11.3,0.4
		c-3.6,0.6-7.3,2.5-11.1,2c-2.6-0.3-5-1.7-7.3-2.8c-3.5-1.7-7.1-3.2-10.8-4.7c-7.3-2.9-14.8-5.2-22.5-7.1c-17.4-4.2-35.3-6-53.2-6
		c-3.8,0-4.8,4.4-2.9,6.7c-1.9,1.7-2,5.1,0.5,6.6c1.3,0.7,2.6,1.4,3.9,2.1c-0.8,1.1-1,2.6,0,4.1c0.3,0.5,0.7,0.9,1,1.4
		c-1.4,0.5-2.6,1.7-2.5,3.6c0,0.2,0,0.4,0,0.6c0,0.4,0,0.7,0.1,1.1c0.3,2.9,1.1,5.5,2.5,8.3c1.3,2.6,4.4,2.4,6.2,0.7
		c0.1,0,0.1,0,0.2,0c0.3,0.3,0.6,0.5,0.9,0.8c2.1,1.9,5.5,1,6.5-1.2c1.6,1.2,3.3,2.4,5.1,3.5c1.4,0.9,3.1,0.6,4.4-0.3
		c0.1,0.1,0.3,0.1,0.4,0.2c1.2,0.4,2.5,0.8,3.7,1.2c3.7,3.5,7.9,6.2,12.4,4.9c0.4-0.1,0.7-0.3,1.1-0.5c13.4,4.4,26.7,8.9,40,13.6
		c2.2,0.8,3.8-0.3,4.5-1.9c7.9,6,15,13.1,20.8,21.3c1.5,2.1,4.3,2.7,6.3,0.8c3.7-3.5,7.8-6,12.2-7.8c2.1,1.5,5.1,0.1,6.1-2
		c9.2-2.3,19.2-2,28.9-0.9c3.3,2.1,6.6,4.3,9.9,6.5c1.6,1.1,3.2,0.8,4.3-0.2c1.3,1.9,2.5,3.8,3.8,5.7c1.2,1.7,3.6,2.7,5.5,1.4
		c6.3-4,13-8.1,20.4-9.7c4-0.8,7.8-0.6,11.6,0.8c3.1,1.2,5.7,2.6,9.1,2.4c2.6-0.1,5-0.9,7.2-2.2c0.9,0.2,1.8,0.1,2.7-0.6
		c0.3-0.2,0.5-0.4,0.8-0.6c0,0,0,0,0,0c0.1-0.1,0.1-0.1,0.2-0.2c0.4-0.3,0.8-0.6,1.1-0.9c1.3,0.3,2.7,0.3,4.1-0.3
		c4.7-2,7.7-6.3,12.2-8.6c5-2.6,10.7-4.3,16-6.3c4.6-1.8,4.9-7.4,2.5-10.2c2.2-0.9,4.5-1.9,6.8-2c0.7,0,1.4,0,2.1,0.1
		c2,1,4.1,1.7,6.2,2.3c0.8,0.4,1.6,0.8,2.4,1.1c3.2,1.4,6.5,2.6,9.8,3.6c6.9,2,14.1,3.2,21.2,3.7c2.5,0.2,5,0.2,7.5,0.2
		c0.5,2.8,2.8,4.9,5.8,5c1.4,0.1,2.9,0,4.3-0.2c1.6-0.2,3-0.5,4.2-1.7c0.6-0.6,1.1-1.5,1.5-2.4c21.4,2.2,44.1-4.1,56-22.8
		c0.4-0.5,0.9-1,1.3-1.5c4.7,1.7,9.7,2,14.6,1.3c0.8,0.9,2.2,1.5,3.9,1.1c0.7-0.1,1.3-0.3,2-0.5c1.2,0.8,2.8,1.2,4.6,0.8
		c6.9-1.6,12.7-5.2,18.3-9.5c2.6-2,5.4-3.9,7.7-6.4c2.6-2.9,3.9-6.5,6.2-9.6c1.5-2,1.4-3.9,0.5-5.5
		C455.1,810.5,455.2,810.3,455.3,810.1z M188.3,837.5c-1-0.4-2.1-0.8-3.2-1.1c1.4-1,2.7-2.1,4.1-3.1
		C188.2,834.4,187.8,836.1,188.3,837.5z M200.9,847.8c-0.5-0.6-1-1.1-1.5-1.6c-1-1.5-2.3-2.8-3.6-4c4.3,2.2,8.6,4.3,13.1,6.2
		C206.2,847.8,203.6,847.6,200.9,847.8z M244.9,859.2c-1,0.4-1.9,1-2.8,1.6c-0.1-0.1-0.1-0.1-0.2-0.2c0.2-1.2,0-2.4-0.7-3.3
		c2.5,0.2,5.1,0.3,7.6,0.2C247.5,858,246.2,858.6,244.9,859.2z"/>
	<path fill="#424142" d="M1864.4,990.2c-25.5-3.6-52.3-3-76.1,8.3c-19.8,9.4-36.3,26.1-43.4,47.7c-1.2,3.7,4.4,5.3,5.6,1.6
		c6.6-20.1,22.4-35.3,40.7-44.1c22.2-10.5,47.8-11.1,71.6-7.7C1866.5,996.5,1868.1,990.7,1864.4,990.2z"/>
	<path fill="#424142" d="M186,1059.4c-16-13.9-38.7-17.7-58.3-10.2c-4.6-19.1-15.8-36.3-31.6-48c-18.2-13.5-41.5-18.7-63.8-15.1
		c-3.8,0.6-2.2,6.3,1.6,5.7c20.7-3.3,42.4,1.9,59.2,14.5c15.4,11.6,25.9,28.9,29.6,47.8c0.4,2,2.8,2.5,4.4,1.8
		c17.9-8.3,39.9-5.1,54.8,7.8C184.6,1066.1,188.9,1061.9,186,1059.4z"/>
	<path fill="#424142" d="M219.2,918.4c-15.3-7.9-35,0-40.9,16c-1.3,3.6,4.4,5.1,5.7,1.6c4.6-12.4,20.5-18.5,32.2-12.5
		C219.6,925.2,222.6,920.1,219.2,918.4z"/>
	<path fill="#424142" d="M1798.1,821.6c-7.4-0.4-15.5-0.7-22.1,3.3c-3.8,2.3-6.7,5.6-8.2,9.7c-9.7-6.2-23.3-3.6-30.3,6.2
		c-2.2,3.1,2.8,6.1,5,3c5.8-8.1,18.3-8.8,25.1-1.7c1.8,1.9,4.9,0.4,5-2.1c0.4-13,16.6-12.8,25.5-12.3
		C1801.8,827.8,1801.8,821.8,1798.1,821.6z"/>
	<path fill="#424142" d="M1904.2,780.1c0-3.6-2.1-7.3-5-9.4c-6.4-4.6-14.5-0.9-20.6,2.4c0,0,0,0-0.1,0c-0.5-0.6-1.2-1-2.1-1
		c-5.9,0-12.5,1.8-15.8,7.4c-3,5.1-2.2,10,0.8,14.6c1.9,3-0.1,5.5,0.7,8.8c0.5,2.1,1.7,3.8,3.3,5.1c4.3,3.6,9.9,3.6,14.9,2
		c3.6-1.2,7.1-3,10.9-3.2c3.6-0.1,6.9,1,10.5,0.4c5.1-0.9,10-4.1,12.4-9C1918,790.1,1912,780.8,1904.2,780.1z M1903.1,800.7
		c-4.2,1.7-8.3-0.1-12.6,0.2c-4.1,0.3-7.8,2.1-11.8,3.3c-3.2,1-7.4,1.7-10-1c-2.3-2.4,0.4-6.4-0.7-9.4c-1.2-3.4-4.6-5-3.4-9.2
		c1.5-5.2,14.3-7.9,16.9-6.4c3.5,2.1,8.7-5,12.9-3.4c2.9,1.1,5.1,4.5,3.1,7.3c-2,2.7,1.7,5.2,4,4.1c3.6-1.7,7.9,2.3,8.1,6.1
		C1909.8,796.3,1906.4,799.4,1903.1,800.7z"/>
	<path fill="#424142" d="M84.6,760.1c-4.5-1-7.5-2.4-11.5-4.7c-2.9-1.7-6.1-3.1-9.5-2.4c-4,0.8-7.9,4.1-8.2,7.9
		c-9.3,0.3-17.6,8.7-16.4,18.3c1,8.6,8.9,14.3,17.1,14.4c2.4,6.9,10.2,11.6,17.4,9.4c6.7-2,10.8-9.1,10-15.9
		c5.5-2.3,10.3-6.6,11.1-12.8C95.3,767.4,91.2,761.5,84.6,760.1z M88.7,773.1c-0.4,4.9-5.2,7.9-9.5,9.1c-1.5,0.4-2.6,2.1-2.1,3.7
		c1.5,4.3-0.5,9.7-5.1,11.2c-5.2,1.7-10.1-2.6-10.8-7.5c-0.3-1.7-2.2-2.3-3.7-2.1c-5.8,1.1-12.3-3.4-12.7-9.5
		c-0.5-6.6,5.8-11.6,12-11.2c0.7,0,1.3-0.1,1.7-0.4c2.2,0.4,4.8-1.9,3.2-4.3c-1.1-1.6,1.6-3.1,3-3.3c2.1-0.3,4.2,1.1,5.9,2.1
		c3.6,2.2,6.8,4,11,4.8C85.8,766.3,89.1,768.3,88.7,773.1z"/>
	<path fill="#424142" d="M341.2,1027.4c-9.2-15.5-29-23.2-46.3-17.8c-3.6,1.1-2.1,6.9,1.6,5.7c15.8-5,33.5,2.6,40.9,17.4
		c0.7,1.5,2.7,1.8,4.1,1.1c13.6-7.3,30.2,1.7,31.1,17.2c0.2,3.8,6.2,3.8,5.9,0C377.3,1032.1,358.3,1020.4,341.2,1027.4z"/>
	<path fill="#424142" d="M1976.9,893c-26.2-20-58.6-30.2-91.1-30.4c-0.3,0-0.6,0-0.8,0c2.1-1.6,3.9-3.6,4.9-6.4
		c2.2-5.8,0.6-12.7-4.5-15.8c-1.1-8.2-6-15.2-12.8-19.7c-8.3-5.4-18.5-6.2-28-5.3c-4.5-22.6-25.8-39.3-48-37.6
		c-0.1-0.1-0.3-0.2-0.4-0.3c-14-7.4-31.7-6.7-44.7,2.8c-10.7,7.9-17.3,20.9-18,34.4c-11.3-5.7-24.8,0.8-35.3,6.9
		c-5.5,3.1-11,7.3-12.7,13.9c-1.8,7.1,1.1,14.4,5.7,19.6c2.4,2.7,5.2,4.9,8.2,6.8c3.2,2.1,8.1,3.9,10.3,7.3c1.7,2.7,1.3,6.5,2.6,9.5
		c1.3,3.1,3.4,5.8,6,7.9c5.4,4.4,12.3,6.1,19.1,5.5c4-0.4,8-1.4,11.8-2.8c3.6-1.3,8.7-5.1,12.4-3.4c3.2,1.5,5.8,3.7,9.3,4.7
		c3.3,0.9,6.9,1.3,10.3,0.9c7.3-0.7,14-3.9,18.9-9.5c0.2-0.2,0.4-0.5,0.5-0.7c1.7,0.9,3.5,1.5,5.3,1.8c-4,2.1-7.9,4.3-11.7,6.7
		c-15.6,9.8-29.8,21.8-42.3,35.5c-0.3,0.4-0.5,0.7-0.7,1.1c-9.1-1.2-18.2-1.5-27.4-0.6c-0.4-0.9-1.2-1.5-2.5-1.4
		c-13.5,1.8-27.4-5.2-34.1-17.4c2.2-0.6,4.3-1.2,6.4-2c3.5-1.3,2-7.1-1.5-5.8c-2.6,1-5.3,1.8-7.9,2.4c-3.1-0.2-3.5-0.5-4.3,0.9
		c-28.6,4.5-57.2-11.3-68.9-39.8c-1.5-3.6-6.5-0.5-5,3c1.4,3.4,3,6.6,4.8,9.6c-17,3.3-35.8,1.9-51.6-5.7c-3.5-1.7-7.4-4.2-8.2-8.4
		c-0.8-4.7,3.7-7.1,7-9.1c8.3-4.8,16.8-9,25.6-12.6c1.3-0.5,1.9-1.7,1.9-2.9c0.4-0.4,0.8-0.9,0.9-1.6c5.5-23.8,20.3-44.4,39.9-57.9
		c22-15.2,59.2-21.9,85.4-20.7c3.7,0.2,3.7-5.8,0-6c-10.5-0.5-31.6,1-42.1,2.9c12-24.8,30.6-45.8,53.5-60.2
		c25.6-16.1,55.7-22.9,85.4-20.1c17.7,1.7,34.9,6.8,50.8,15.1c3.3,1.7,6.3-3.4,2.9-5.2c-17.9-9.3-37.4-14.8-57.3-16.1
		c3.7-29.7,26.9-52.5,53-62.8c14.3-5.6,29.5-8.4,44.7-9.1c14.1-0.7,29.5,0.6,40.7,10.5c2.8,2.5,7-1.7,4.1-4.3
		c-18.8-16.6-47.8-13.7-70.4-9c-9.2,1.9-18.3,4.8-26.8,8.8c-3.3-11.6-1.2-24.1,5.1-34.2c3.3-5.4,7.9-10.1,13.3-13.2
		c5.6-3.3,11.3-4.6,14.8-10.7c3.1-5.4,5.1-10.7,9.5-15.3c4.2-4.4,9.3-7.8,14.9-10c10.7-4.3,22.9-4.6,33.3,0.6
		c3.4,1.7,6.3-3.5,2.9-5.2c-17.8-8.8-39.8-4.6-54.1,9.3c-3.4,3.3-6.4,7.3-8.6,11.5c-1.5,2.9-2.5,6.5-4.9,8.8
		c-2.4,2.3-5.9,3.3-8.8,4.7c-9,4.6-16.2,12.7-20.4,22.1c-4.8,10.8-5.9,23-2.4,34.3c-12.2,6.5-23,15.4-31.5,26.9
		c-7.7,10.6-12.7,22.9-14.4,36c-10.4-0.3-20.8,0.5-31,2.5c-29.3,5.6-56.4,21-77.2,43c-11.4,12-20.8,26-27.8,41.2
		c-0.2,0.5-0.3,1.1-0.3,1.5c-14.5,3.4-28.3,9.3-40.7,18c-17.2,12.1-30.9,29.4-38.2,49.5c-0.2-0.2-0.4-0.3-0.7-0.4
		c-46.5-16.9-101.9,1-130.3,41.2c-16.5-2.9-33.3-3.3-50-0.9c-15.9,2.3-33.5,6.5-46.9,15.9c-5.1,3.6-9.8,8.2-12.3,14
		c-1.1,2.5-2.4,6-2.1,8.8c0.3,2.6,2.5,5.7,3.9,7.8c7.1,11.1,17.7,19.7,29.8,24.8c13,5.5,27.5,6.9,41.2,3.4
		c4.9,23.9,33.9,28.6,55.6,32.3c-1.9,2.5-3,5.6-2.4,8.8c0.5,2.5,2,4.6,3.9,5.8c-6.9,1.7-13.6,3.9-20.1,6.7c-6.4,2.7-12.6,6-18.5,9.7
		c-1.6,1-3,2.3-4.8,2.7c-1.4,0.3-3.2-0.1-4.5-0.1c-4-0.1-8.1,0.1-12.1,0.4c-14.9,1.1-29.5,4.5-43.4,10.1c-1.1,0.5-2.2,1.5-2.1,2.9
		c0.6,7.7,6.3,12.1,12,16.3c2.6,1.9,4.8,4.1,7,6.5c-7.5,0.4-16.2,7.1-20.1,11.7c-0.7,0.8-0.8,1.8-0.7,2.6
		c-9.1,0.8-18.7,5.8-21.4,14.2c-12.9,1.5-26.5,7.3-28.1,22.4c-0.4,3.8,5.4,3.8,5.8,0c1.3-12.3,14.7-15.9,24.6-16.6
		c1.2-0.1,2.6-0.9,2.8-2.2c1.8-10,17-13.8,25-10.7c3.5,1.4,5-4.4,1.5-5.8c-1.3-0.5-2.7-0.9-4.2-1.1c2.2-2.4,4.7-4.3,7.5-5.8
		c2.5-1.3,8.5-4.1,10.9-1.5c0.8,0.9,5.5,4,6.7,5.8c8.2,13.2,30.2,15.9,48.1,15c1,0,4.9-0.9,6.2-1.2c8.1,8.7,23.1,10.7,34.3,12.5
		c10,1.6,20.1,3.7,30.2,4.8c2.8,0.3,5.6,0.4,8.4,0.1c-6.6,10-12.3,20.7-16.8,32c-1.4,3.6,4.2,5.1,5.6,1.6
		c5.3-13.1,12.2-25.4,20.4-36.7c1.1-0.8,2.2-1.7,3.2-2.8c0.7-0.8,0.9-1.6,0.7-2.4c17.4-22.2,40.1-40,65.5-51.1
		c5-2.2,10.2-4.1,15.4-5.8c2.6-0.8,3.3-1.3,4.2-3.9c0.9-2.7,1.8-5.4,2.9-8.1c4.2-10.5,10-20.5,16.9-29.4c2.4-3,4.9-6,7.5-8.8
		c0.8-0.3,1.2-0.9,1.4-1.5c12.8-13.2,28.4-23.3,45.7-29.1c27-9.1,56.6-7.7,82.8,3.6c3.5,1.5,5-4.3,1.5-5.8
		c-7.9-3.4-16.2-5.9-24.6-7.6c43.3-45.9,107.1-70.6,168.3-53.3c17.3,4.9,33.5,12.9,47.9,23.9C1976.9,900.5,1979.8,895.2,1976.9,893z
		 M1617.9,1012.2c-34.7,11-65.3,33.6-87.2,63.2c-4.7,2.9-10.8,2.3-16.1,1.5c-8.3-1.2-16.6-2.7-24.9-4.1c-12.4-2-36.2-3.1-37.3-20.7
		c-0.2-3.8-6.1-3.9-5.8,0c0.2,2.9,0.8,5.4,1.7,7.7c-0.9-0.2-10.1,4.1-26.5,0.3c-8.1-1.9-14.4-5.9-19.8-12.3
		c-4.7-5.6-8.6-11.9-14-16.7c-4.1-3.7-11.6-7.1-13.4-12.9c12.2-4.6,24.9-7.7,37.8-8.8c3.5-0.3,7-0.5,10.6-0.5c2.8,0,7.1,0.9,9.8,0.1
		c2.7-0.8,5.6-3.6,7.9-5c2.7-1.6,5.4-3.1,8.2-4.5c11.7-5.9,24.4-10,37.4-11.9c9.4-1.4,26.3-4.4,32,6.1c1.8,3.4,6.8,0.4,5-3
		c-1.3-2.4-3-4.3-4.9-5.7c8.7-5.7,29.6-15.8,33.5-17.2c7.5-2.7,15.7-4.9,23.6-5.5c9.3-0.7,19,0.2,27.9,3.1c0,0,0,0,0,0.1
		c0.6,0.2,1.3,0.5,2,0.9c1.6,0.4,3.1,1,4.5,1.9c0.1,0,0.3,0,0.4-0.1c6.7,3.2,12.8,7.6,17.8,13.6c1,1.2,2,2.1,2.8,2.6
		C1625.6,992.9,1621.2,1002.4,1617.9,1012.2z M1532.7,951.1c6.6,0.5,13,5.5,13.9,12.1c-12.1,4.8-23.5,11.5-34.3,18.8
		c-5.5-1.7-11.9-1.7-17.5-1.3c-4.2,0.3-14.1,0.4-16-1.6c-2.1-2.2-3.4-2.8-2.6-4.6c0.5-1.2,1.5-2.3,2.4-3.1c0.2-0.2,0.5-0.4,0.7-0.7
		c0.1,0,0.3,0.1,0.4,0.1c1.8,0.3,3-1.1,3.1-2.5c1.4-0.7,2.9-1.4,4.3-1.8c6.3-2.1,13.1-1.7,19.2,1c1.9,0.8,4.5-0.1,4.4-2.6
		C1510.3,954.8,1525.2,950.5,1532.7,951.1z M1637,975.3c-1,1.3-2,2.7-2.9,4.1c-0.4-0.7-1-1.4-1.8-2c-5.3-4.1-10.9-8-16.7-11.2
		c2.8-1.4,5.3-3.2,7.5-5.6c4.9,5.3,11.6,8.4,18.7,8.6C1640.2,971.2,1638.5,973.2,1637,975.3z M1698.4,930.9
		c-19.7,6.2-37.6,17.8-51.9,33c-8,1.5-16.4-1.6-21.2-8.4c-1.2-1.6-3.2-1.6-4.3,0c-2.9,3.9-6.8,6.5-11.4,7.6
		c-10.3-4.9-21.3-7.7-32.8-7c-8.5,0.5-16.7,2.3-24.7,5c-1.8-8.3-9.7-14.9-18.2-15.9c-9.9-1.2-26,4.2-28.7,15.5
		c-9.6-3-20.2-1.7-28.4,4.4c-20.3-3.4-52.8-6.8-55.5-31.2c-0.2-1.5-1.5-2.9-3.2-2.4c-14.7,4.5-30.7,2.7-44.4-4.2
		c-6.7-3.4-12.8-7.9-17.9-13.5c-2.6-2.9-4.9-6-6.9-9.3c-2.4-4.1-2.2-7.2-0.1-11.4c7.8-15.3,29.5-20.9,44.8-24.2
		c19.6-4.3,40-4.4,59.8-0.7c1.2,0.2,2.2-0.2,2.8-1.1c26.9-39.6,80.8-56.7,125.7-40.4c0.2,0.1,0.3,0.1,0.5,0.1
		c-0.7,2.2-1.3,4.4-1.8,6.7c-0.1,0.3-0.1,0.5-0.1,0.8c-10,4.1-20.6,8.6-29.4,15c-7.5,5.4-8.3,14.9-1.5,21.4
		c7.4,7.1,20.1,9.7,29.8,11.2c11,1.7,22,1.4,32.9-0.8c0.7-0.1,1.1-0.4,1.5-0.8c15.5,21.4,41.7,32.4,67.3,28.1
		c5,9.9,13.7,17.4,23.8,20.7C1702.9,929.5,1700.6,930.2,1698.4,930.9z M1869.8,861.4c-1.4,0.1-2.3,1.1-2.6,2.3
		c-17.6,2-34.8,7-51,14.4c-0.4-1.3-1.6-2.3-3.3-1.6c-5.9,2.4-12.4-0.1-15.2-6c-1.6-3.5-6.6-0.4-5,3c0.8,1.7,1.8,3.2,3.1,4.5
		c-7.7,8.7-20.5,10.2-30,3.9c-5.4-3.6-8.8-2.2-14.4,0.2c-6.6,2.9-14.3,5.5-21.5,3.9c-5.5-1.2-11-4.8-12.8-10.5
		c-0.8-2.6-0.7-5.4-1.9-7.9c-1.1-2.4-3-4.3-5.2-5.8c-5.2-3.7-11-6.2-15.2-11.2c-4.5-5.5-5.8-13.3-0.5-18.7
		c4.8-4.9,12.4-8.5,18.6-10.9c7-2.8,15.5-3.8,21.5,1.8c1.7,1.6,5.2,0.6,5-2.1c-1-13.3,4.4-26.9,15-34.8c9.9-7.4,23.1-9,34.5-4.8
		c-0.2,1.9,1.2,4.1,3.6,3.6c21.1-4.6,44.1,12,46.8,34.3c0.2,1.5,1.2,3.2,2.9,3c14.5-1.8,36.4,1.5,37.6,20.7c0.1,1.4,0.9,2.4,2.1,2.9
		c4.1,1.5,3.8,7.6,1.5,10.5C1880.3,860,1874.5,860.9,1869.8,861.4z"/>
	<path fill="#424142" d="M165.6,727.4C139,702.3,98,696,65,711.4c-3.5,1.6-0.4,6.7,3,5.1c30.6-14.3,68.9-8.1,93.5,15
		C164.2,734.2,168.4,730,165.6,727.4z"/>
	<path fill="#424142" d="M474.1,905.7c-11.9-26-48.3-35.9-71.8-19.7c-3.1,2.2-0.2,7.3,3,5.1c21-14.5,53-5.7,63.7,17.5
		C470.6,912.1,475.7,909.1,474.1,905.7z"/>
	<path fill="#424142" d="M1669.7,787.8c-21.8-6.2-45.7,13.8-44.1,37.2c0.3,3.8,6.1,3.9,5.8,0c-1.4-19.5,18.4-36.7,36.7-31.4
		C1671.7,794.6,1673.3,788.8,1669.7,787.8z"/>
	<path fill="#424142" d="M1929.9,747.6c-0.7-7.1-4.5-12.5-8.8-17.8c-4.4-5.4-9-10.8-14.1-15.5c-9.4-8.7-20.9-15.6-34-14.3
		c-3.7,0.4-3.7,6.4,0,6c11.5-1.2,21.5,4.8,29.9,12.5c4.2,3.9,8,8.1,11.7,12.5c4,4.8,8.9,10,9.6,16.5
		C1924.4,751.5,1930.3,751.5,1929.9,747.6z"/>
	<path fill="#424142" d="M1518.7,1019.7c-10.6-4.7-22.5-2.1-33.3,0.4c-3.7,0.8-2.1,6.6,1.5,5.8c8.7-2,18.2-4.3,27-1.6
		c6.7,2.1,13.2,7.6,13.8,15.3c0.3,3.8,6.1,3.9,5.8,0C1532.8,1030.3,1526.8,1023.2,1518.7,1019.7z"/>
	<path fill="#424142" d="M657.6,1024.3c-0.6-6.7-5.9-11.8-10.9-15.7c-6.5-5.2-13.2-9.9-21.9-8.6c-7.1,1.1-14.2,3.4-21.2,5.7
		c-0.8,0.5-1.6,1-2.3,1.5c-1.9,1.4-3.2,3.8-5,5c-1,0.7-2.3,0.9-3.6,1.1c-6.9,6.5-7.5,18.2,1,24.8c2.6,2.1,5.6,2.8,8.8,3.6
		c4.7,1.1,6.1,3.6,8.9,7.1c3.4,4.2,8.6,5.8,13.8,5.1c5-0.7,9.8-3.6,12.2-8.1c1.1-2.2,0.9-6.9,2.9-7.9c1.5-0.8,3.8,0.4,5.4,0.5
		c1.4,0.1,2.8,0,4.1-0.5C655.3,1036,658.1,1029.6,657.6,1024.3z M650.2,1030.3c-2.6,3.6-5.9,1.2-9.5,1.1c-2.6,0-5,1.2-6.3,3.5
		c-1.4,2.4-0.9,5.3-2.1,7.7c-1.1,2.4-3.5,4-5.9,4.8c-2.1,0.7-4.5,0.9-6.6,0.2c-3.2-1-4.5-3.9-6.5-6.3c-2-2.5-4.3-4.1-7.4-5
		c-3.6-1.1-7.1-1.1-9.9-4.1c-5.3-5.7-2.6-14.1,4.1-16.8c0.9-1.1,2.1-2.1,3.3-2.8c0-0.2,0-0.4,0-0.5c5.9-1.8,11.8-3.6,17.8-5.2
		c4.8-1.3,9-1.8,13.5,0.6c3.3,1.7,6.4,4.2,9.2,6.6C648.5,1017.7,654.7,1024.2,650.2,1030.3z"/>
	<path fill="#424142" d="M620.8,1080.3c-1.5-3.3-4-6.1-7.5-7.3c-2.8-1-5.8-0.8-8.3-2.7c-1.9-1.5-3.2-3.8-4.6-5.7
		c-9.4-12.7-25.7-19-41.1-16c0.7-9.2-3.1-18.3-9.7-24.9c-6.9-6.9-16.1-10.5-25.6-12c0.4-3.4-0.8-6.6-2.6-9.6
		c7.5-1.5,14.5-5,20.7-9.4c7-5,13.2-11.2,19-17.6c3.8-4.3,13.3-12,7.5-18c-2.9-3-7.4-5-10.9-7.1c-3.3-2-6.6-3.9-10-5.7
		c3.5-1.6,6.7-3.5,9.6-6.2c2.9-2.7,5.3-6.1,6.7-9.8c0.7-1.8,1.2-3.8,1.3-5.7c0.2-2.1-0.9-5.5,1.1-7.2c1.4-1.1,4.4-1.4,6.1-2.1
		c1.9-0.8,3.8-1.6,5.6-2.5c4.2-2.2,8.2-4.9,11.8-7.9c6.5-5.4,13.4-13,15.5-21.3c2-8-1.6-15.6-7.8-20.6c-7.4-5.9-17-7-26.1-7.2
		c-11.3-0.3-22.5-0.3-33.8-0.4c-5.1-0.1-10.3,0.1-15.4-0.4c-5.9-0.6-10.5-2.9-15.2-6.5c-8.8-6.8-18.3-9.6-29.2-11.4
		c-10.9-1.8-21.9-2.6-32.9-2.4c5.2-4.6,9.6-10.1,12.7-16.3c-0.2-0.5-0.2-1.1,0.4-1.4c0.2-0.1,0.3-0.2,0.5-0.4
		c0.4-0.9,0.8-1.8,1.1-2.7c0-0.1,0-0.1,0-0.2c-0.1-3.2-0.6-6.4-1.3-9.7c-0.1-0.1-0.1-0.2-0.2-0.3c-0.7-1.1-1.3-2.2-1.8-3.4
		c-8.2-10.8-24-11.1-37-10c-1.8,0.2-5.3,1.2-6.9,0.5c-1.6-0.6-2.3-3.3-3.2-4.6c-1.8-2.6-4.1-4.8-6.6-6.6c-1.3-0.9-2.8-1.8-4.2-2.5
		c-1.8-0.6-3.6-1.2-5.4-1.9c-2.7-1.1-5.8-2.2-8.2-4c-6.8-0.6-13.6-0.5-20.3,0.1c0-0.4-0.2-0.8-0.4-1.1c-1.4-2.2-3-4.2-4.7-6.2
		c0,0,0,0-0.1-0.1c-7.1-12.9-19.2-22.9-33.3-27.3c-7.2-2.2-14.8-2.8-22.4-2.8c-0.1-0.3-0.2-0.6-0.4-1
		c-13.4-20.8-35.1-33.6-58.2-41.4c-21.2-7.1-44.5-11.3-67.2-11.2c-4.9-13.5-12.5-25.9-22.5-36.2c-11.6-12-26.2-20.6-41.3-27.5
		c-17-7.8-34.9-13.4-53.3-16.9c-0.4-2.4-1.1-4.7-2.1-6.9c-0.2-0.4-0.5-0.8-0.9-1l-8.4-16c-2.5-4.7-4.8-9.8-8.9-13.4
		c-3.8-3.4-9.7-4.1-13.1-7.7c-3.6-3.8-2.6-11.2-4.1-16c-5.8-18.5-24.4-31.8-43.7-30.9c-3.8,0.2-3.8,6.1,0,5.9
		c20-1,37.2,14.6,39.5,34.1c0.5,4.5,1.4,8.7,5,11.8c3.4,2.9,8,3.9,11.6,6.5c4.6,3.3,6.9,9.3,9.5,14.1c3,5.6,5.9,11.3,8.9,16.9
		c0.1,0.3,0.3,0.5,0.5,0.7c0.1,0.3,0.2,0.5,0.3,0.8c-11.9-1.9-23.9-2.9-35.9-2.9c-18.7,0-37.5,2.3-55.7,6.8
		c-3.7,0.9-2.1,6.7,1.6,5.7c30.6-7.6,62.7-8.6,93.7-3c15.3,2.8,30.3,7.1,44.6,12.9c14.9,6.1,29.7,13.6,42,24.2
		c11.9,10.3,21,23.4,26.6,38c-2.1,0.1-4.2,0.2-6.2,0.4c-15.7,1.2-30.9,5.1-44.9,12.3c-3.4,1.8-0.4,6.9,3,5.1
		c13.3-6.9,27.8-10.3,42.5-11.5c0.1-0.1,0.2-0.2,0.4-0.2c4.6-1.2,9-1.4,13.5-0.9c1.8,0.1,3.5,0.3,5,0.8c5.4,0.2,10.9,0.7,16.3,1.3
		c23.6,2.9,47.8,8.9,68.4,21.1c10.7,6.4,20.2,14.7,27.3,24.9c-10.2,0.2-20.5,0.7-30.6,1.7c-3.8,0.4-3.8,6.3,0,5.9
		c9.4-0.9,18.8-1.5,28.2-1.7c9.2-0.2,18.6-0.4,27.6,1.8c14.9,3.8,27.1,14.3,33.7,28c0.5,1,1.2,1.4,2,1.5c0.2,0.3,0.4,0.5,0.6,0.8
		c-19.1,2.9-37.4,10.6-52.7,22.6c-2.8,2.2-5.5,4.6-8.6,6.3c-4.3,2.3-8.6,2.1-13.3,1.6c-7-0.8-13.9-1.1-20.9-0.7
		c-13.9,0.8-27.5,4.1-40.2,9.6c-14.6,6.3-27.7,15.4-38.7,26.9c-1.3,1.3-1.1,3.7,0.6,4.7c24.3,12.8,53.1,26.7,80.5,20
		c-2.2,1.3-5.3,1.6-8.1,1.9c-4.2,0.5-7.4,2.2-10.3,5.3c-3,3.2-5.2,6.8-9.2,8.8c-4.6,2.4-9.9,3-14.9,3.6c-0.9,0.1-1.5,0.5-2,1
		c-1.1-1-2.3-1.8-3.6-2.6c-13.3-7.4-27.9,1.5-38.5,10.1c-17.2-21.5-49.2-24.4-69.7-5.9c-0.3-0.3-0.6-0.5-0.9-0.8
		C84.2,861.8,56,847.6,25,844.7c-17.6-1.6-35.6,0.6-52,7.4c-3.5,1.4-2,7.2,1.6,5.7c27.3-11.1,58-9.4,85.1,1.3
		c17,6.7,32.4,17,46,29.2c0.4,0.7,1,1.2,1.7,1.5c6.4,5.9,12.4,12.2,18,18.8c5.1,5.9,10.1,12.1,14.3,18.7c3.9,6.3,7.6,14.3,4.9,21.6
		c-1.5-0.3-3-0.5-4.5-0.7c-14.4-2.1-29-1.4-43,2.8c-3.7,1.1-2.1,6.8,1.6,5.7c30.5-9.1,62.4-0.3,89.2,15.1
		c13.1,7.5,25.3,16.4,37,25.8c10.6,8.6,20.9,18.3,25.8,31.3c-3.5,0-7,0.2-10.6,0.6c-3.8,0.4-3.8,6.4,0,5.9c26.7-3.2,53,6,74.4,21.9
		c8.5,6.3,16.2,13.7,23.2,21.6c-0.3,1.1,0,2.4,1.2,3.3c1.1,0.7,2.1,1.4,3.2,1.9c3.9,4.8,7.6,9.7,11.1,14.8
		c2.2,3.2,7.3,11.1,2.7,14.3c-3.1,2.2-0.2,7.3,3,5.1c11-7.6-0.1-22-5.5-29.3c-0.7-1-1.5-2-2.2-2.9c12.7-0.4,24.9-12.3,36.7-15.7
		c11.2-3.2,26.1-2.6,32.9-13.2c0.2,0.6,0.5,1.1,1.1,1.5c9.2,6.9,21.9,8.3,32.6,4.3c4.9-1.8,9.5-4.7,13.1-8.6
		c2.8-3.1,3.9-5.5,8.7-5.2c3.8,0.3,7.5,0.9,11.3,0.6c12.4-0.9,25.2-8.5,26.9-21.7c0.2-1.5,0.1-3,0.3-4.5c0.4-2.6,1.2-2.7,3.4-3.9
		c1.5-0.8,2.7-1.6,3.6-2.8c8.3,1.2,16.5,4,22.7,9.7c6.8,6.2,10.6,15.6,8.4,24.8c-0.5,2.1,1.4,4.3,3.7,3.7
		c14.6-4.5,30.5,0.9,39.5,13.2c1.9,2.6,3.7,5.3,6.4,7.1c3.2,2.2,7.5,1.5,10.5,3.7c8,5.9,0.5,17.2-3.4,22.9c-2.2,3.2,3,6.1,5.1,3
		C619.6,1098,624.7,1089.2,620.8,1080.3z M190.8,837.2c18.9-18.4,44.2-29.9,70.5-31.8c6.9-0.5,13.8-0.3,20.7,0.5
		c7.4,0.8,13.7,0.6,20-3.6c5.7-3.8,10.8-8.5,16.7-12.1c6.1-3.8,12.6-6.9,19.4-9.4c13.3-4.8,27.4-7,41.5-6.4c0.3,0.4,0.8,0.7,1.4,0.8
		c6.2,1.5,12.7,3.2,18,6.9c2.8,1.9,4.8,4.3,6.4,7.3c1.4,2.6,2.6,4.3,5.6,4.9c3.8,0.7,8.3-0.5,12.2-0.7c4.6-0.3,9.3-0.6,13.8,0.2
		c6.9,1.2,14.1,4.9,16.7,11.8c0.2,0.6,0.6,1.1,1.1,1.4c-7.2,23.2-33.6,38.7-57.4,32c-1.5-0.4-3.3,0.5-3.7,2.1
		c-2.2,9.2-10.8,13.8-19.3,16.4c-9.9,3-20.4,4-30.6,4.8c-22.2,1.8-45.4,0.2-64.5-12.4c-0.9-0.6-2.1-0.5-3,0
		c-1.7,0.9-3.4,1.8-5.2,2.5c-0.1,0-0.1,0-0.2,0c-0.9,0.4-1.7,0.8-2.7,1c0,0-0.1,0.1-0.1,0.1C242.3,862.5,214.3,849.5,190.8,837.2z
		 M209.1,978.4c-17.6-12.4-37.1-22.9-58.1-28c0.2-0.1,6.3-17.3-12.7-35c-9.3-8.7-16.2-19.8-25.5-28.5c18.6-16.2,47.8-13.2,62.2,7.6
		c1.2,1.7,3.1,1.9,4.7,0.6c8.4-7.1,21.7-17.4,33.3-11.6c8.5,4.2,12,14.7,21.6,17.5c5.7,1.6,11.6-0.4,17.4,0.7
		c5.6,1.1,11.2,5,12.4,10.9c0.5,2.6,0.3,5.2-0.8,7.6c-1.2,2.7-3.5,3.8-5.5,5.8c-4.3,4.3-1,9.1-0.8,14.1
		c0.5,11.5-11.3,22.5-22.7,20.5c-2.9-0.5-5,2.7-2.9,5c2,2.2-1.2,5.2-2.9,6.4c-2.2,1.4-5,1.6-7.6,2.1c-4.3,0.7-8.3,1.8-11.5,4.9
		C209.5,978.7,209.3,978.5,209.1,978.4z M225.6,990.3c-3.6-2.8-7.2-5.4-10.9-8c5.1-3.9,13-2.2,18.2-6.2c3.1-2.4,5.3-6,5.2-9.5
		c9.6-0.4,18.4-6.6,22.6-15.5c2.6-5.4,2.7-10.5,1.7-16.3c-0.5-2.5-0.8-4.2,1.4-6c1-0.8,2-1.6,2.8-2.6c1.9-2.3,3.2-5.1,3.6-8
		c2.1-12.5-8.7-22.2-20.6-22.9c-4-0.2-8.1,0.8-12.1,0.1c-3.3-0.6-5.9-2.5-8.2-4.8c-1.6-1.6-3-3.2-4.5-4.9c4.8-0.6,9.7-1.4,14.2-3.5
		c5.1-2.4,7.8-6.4,11.6-10.3c4.5-4.8,10.5-2.7,16-5.3c3.7-1.8,6-5.1,6.9-8.9c1.5-0.6,3-1.3,4.4-2c20.9,13.1,46.4,14.3,70.3,12
		c16.8-1.7,43.9-3.7,50.6-22.4c13.6,2.9,27.9-0.3,39.4-7.7c0.5,0.6,1.2,1,2.2,0.9c10.2-0.4,20.5-0.1,30.7,1.2
		c9.2,1.2,19.3,2.6,27.4,7.5c3.6,2.2,6.6,5.2,10.2,7.3c3.7,2.2,7.7,3.3,11.9,3.9c9.5,1.3,19.4,0.7,28.9,0.8
		c9.6,0.1,19.5-0.4,29.1,0.6c8.6,0.9,19,4.6,21.3,14c2.2,8.7-6.1,17.5-12,22.9c-6.4,5.8-13.8,9.7-21.9,12.5
		c-3.3,1.1-6.4,2.6-6.8,6.5c-0.2,2.4,0.6,4.7,0.2,7.2c-0.4,2.3-1.3,4.5-2.5,6.4c-3.8,5.9-9.8,9.1-16.3,11.3
		c-6.7-3-13.8-5.4-21.1-6.3c-8.1-1-16.5-0.5-24.2,2.2c-3.6,1.3-7,3-10.1,5.2c-1.4,1-2.7,2.1-4,3.3c-2.6,2.4-4.1,0.7-6.5-0.7
		c-15.6-9.4-36.3-8.7-51.4,1.5c-1,0.7-5.3,5.2-3.5,11.4c-1.8,0.7-3.6,1.6-5.2,2.6c-0.7-0.4-2.1-2.9-2.9-3.8
		c-8.2-8.9-21.3-11.4-33.4-10.7c-6.1,0.3-12.1,1.8-17.7,4.4c-6.7,3.1-12.5,7.4-20.3,5.7c-6-1.3-11.7-2.8-17.9-2.7
		c-5.8,0.1-11.6,1.1-17.1,3c-9.2,3.2-17.2,8.6-23.6,15.9c-4.1,0-8.2,0.3-12.3,0.8c-15.7,2.1-30.8,8-43.4,17.6
		C225.8,990.1,225.7,990.2,225.6,990.3z M416.9,1052.2c-1.3,1.9-1.9,3.7-3.9,5.2c-1.9,1.4-4.1,2.3-6.3,3c-9.8,3.1-20,3.2-29.3,8.1
		c-9.3,4.9-21,14.9-31.9,10.8c-6.6-8-13.9-15.4-21.9-22c-18.9-15.6-42.3-26.5-66.7-28c0-0.3,0-0.6-0.2-1
		c-4.9-13.8-15-24.7-26.4-34.1c13.7-10.1,40.8-22,72.9-14.2c6.4,1.6,12.7,3.8,18.6,6.8c2.8,1.4,5.5,3,8.1,4.7
		c2.7,1.8,5.3,4.2,8.4,5.3c6.6,2.3,13.5-3.5,19.5-5.7c7.1-2.5,14.6-4,22.1-3.6c15.3,0.9,30.8,11.7,31.9,28c0.1,1.6,1.3,2.9,3,3
		c12.4,0.3,20.5,13.7,13.9,24.5c-1.5,2.5-3.7,4.7-6.3,6.1C420.3,1050.1,418.2,1050.2,416.9,1052.2z M513.7,1016.1
		c-0.3,0-0.6,0-0.8-0.2c-4,2.5-3.7,7-4.2,11.2c-1.6,14.3-17.7,18.1-29.7,16.7c-5.5-0.6-9.9-0.6-13.6,4c-3.2,3.9-6.5,7.1-11.2,9.1
		c-9.5,4.2-20.6,3.2-28.9-2.9c7.8-4.4,12.8-13.1,11.7-22.3c-1.3-10.1-9.8-17.7-19.5-19.1c-1.9-12.2-10.5-22.3-21.7-27.4
		c-14.1-6.4-30.5-4.1-44.4,1.9c-3.8,1.6-8.5,5.5-12.6,3.1c-3.3-2-6.2-4.5-9.6-6.4c-5.9-3.5-12.4-6.3-19-8.3
		c-6.7-2.1-13.6-3.3-20.6-3.9c5.7-5.3,12.6-9.2,20.2-11.3c5.3-1.5,10.7-2.1,16.2-1.8c5.6,0.3,10.7,2.5,16.3,3.1
		c5.4,0.6,10.4-1.4,15.1-3.8c5.4-2.7,10.5-5.1,16.5-6.2c23.7-4.4,34.3,11.3,35.7,12.1c-2.1,2.1-3.6,4.7-4.2,7.6
		c-1.2,5.4,2.7,8.2,6.9,10.4c6.7,3.5,13.5,6.9,20.2,10.4c11.5,5.9,23.6,14,36.5,16.1c9.2,1.5,19.1-1,24.8-8.4
		c6.6,1.6,13.2,2.9,19.9,2.9c0.1-0.7,0.9-1.3,1.7-0.9C521.4,1004.6,520.7,1015,513.7,1016.1z M516.8,996.6c-0.6-0.1-1.1-0.1-1.7,0.1
		c-7.4,0.3-14.7-1.3-21.9-3.2c-1.3-0.3-2.7,0.2-3.4,1.4c-4.4,7.4-13.7,8.9-21.6,7.2c-9.5-2.1-18.3-7.6-26.9-12
		c-9-4.6-18-9.1-27-13.8c-10.5-5.5,3.8-18.9,15.3-15.4c4.2,1.3,5.1-3.4,0-5.9c-1.5-0.8-3.5-0.1-4.6-1.2c-2.7-2.8,10.5-20.2,43.6-5.8
		c5.5,2.4,9.7,7.6,15.3,2.5c5.8-5.2,11.7-8.6,19.5-10.1c9.4-1.7,18.6-0.3,27.4,2.7c-0.1,0-0.1,0-0.2,0c3.2,0.6,6.3,1.9,9,3.8
		c0.1,0,0.2-0.1,0.3-0.1c3,1.4,6,3,8.9,4.6c3.5,2,6.9,4.1,10.3,6.2c1.7,1.1,5.2,2.3,4.5,5.1c-0.3,1.3-2.9,3.5-3.8,4.5
		c-4.8,5.5-9.8,11-15.3,15.8c-6.3,5.5-13.6,10.3-21.8,12.5C520.9,996,518.8,996.4,516.8,996.6z"/>
	<path fill="#424142" d="M1624.7,910.5c-17.2-4.6-35.3-9.4-53.2-6c-14,2.7-27.3,10.7-33.7,23.7c-1.4,2.9,2.9,5.4,4.3,2.5
		c15.2-30.7,55-22.5,81.3-15.5C1626.5,916.1,1627.9,911.3,1624.7,910.5z"/>
</g>
</svg>
