<?xml version="1.0" encoding="utf-8"?>
<!-- Generator: Adobe Illustrator 18.1.0, SVG Export Plug-In . SVG Version: 6.00 Build 0)  -->
<svg version="1.1" id="Layer_1" xmlns="http://www.w3.org/2000/svg" xmlns:xlink="http://www.w3.org/1999/xlink" x="0px" y="0px"
	 viewBox="0 0 631 250" style="enable-background:new 0 0 631 250;" xml:space="preserve">
<style type="text/css">
	.st0{clip-path:url(#SVGID_2_);fill:#D1D2D4;}
	.st1{fill:#424142;}
</style>
<g>
	<g>
		<defs>
			<path id="SVGID_1_" d="M616.2,174.7c-11.7-8.1-24.9-13.7-38.7-16.6c-2.7-18.8-19.6-33.6-36.5-40.6c-7.2-2.9-14.7-4.6-22.2-5
				c-6-15.2-20-26.1-35.8-30.1c-20.6-5.2-41.7,1.4-60.2,10.7c-1.8,0.9-3.2,2.4-4,4.2c-6.2-3.8-12.8-7.3-19.4-10.2
				c-10.8-4.8-21.9-7.7-33.1-7.3c-15.4-20.5-35-37.7-59.3-46.6c-12.3-4.5-25.9-6.4-39.2-5.3c-0.4-3.2-2.1-6.2-5-7.5
				c-42.5-19.9-87.8,1-117.3,33.4c-2.2,2.4-3,5.1-2.8,7.7c-0.5,0.5-0.9,0.9-1.3,1.4C115.1,67,89.9,81.5,68.1,97.5
				c-2.4,1.8-4.2,4.2-4.9,6.9c-9.2,1.5-18.1,4.5-26.4,9c-5.8,3.2-12.6,7.2-16.2,12.9c-4,6.2-3.2,14.3,1.7,19.7
				c4,4.5,9.7,6.7,15.3,8.5c6.9,2.1,13.7,4.2,20.6,6.2c14.4,4.4,28.7,8.7,43.1,13.1c0.1,0,0.1,0,0.2,0c14.5,12,33.3,18.5,52.4,20.1
				c28.5,2.4,56.3-7.1,82.7-17c16.1,8.1,33.6,9.5,51.1,7.2c-1.2,3.3-1.5,6.9-0.8,10.3c2.8,12.9,17.8,17.3,29.9,19.1
				c3.7,6.1,9.6,11.2,16.2,14.3c13.5,6.3,28,5.6,42.3,3.8c2.1,0.8,4.3,1.4,6.7,1.5c2.1,0.2,4.1,0,6-0.5c5.5,1.9,11.2,3,16.9,3.2
				c12.5,0.5,24.4-3.2,35.7-8.5c2.2,2.7,4.7,5.1,7.7,7.2c7.6,5.4,17.1,7.5,26.2,8.1c20.8,1.4,42.3-4.7,61.2-13.1
				c11.7,0.9,24.5-1.7,34.8-5.1c11.6-3.8,22.8-9,32.9-15.8c5.5-3.7,12.1-7.7,14-14.5c0.2-0.8,0.4-1.7,0.4-2.6
				c0.8-0.7,1.5-1.5,2.1-2.5C623,183.9,620.9,178,616.2,174.7z"/>
		</defs>
		<use xlink:href="#SVGID_1_"  style="overflow:visible;fill:#FFFFFF;"/>
		<clipPath id="SVGID_2_">
			<use xlink:href="#SVGID_1_"  style="overflow:visible;"/>
		</clipPath>
		<path class="st0" d="M626.6,188.4c0.5-3.6-0.1-7.2-2.7-10.4c-1.4-1.7-3.5-1.9-5.3-1.2c-3.4-3.7-7.2-6.9-10.9-9.3
			c-6.1-4-13.3-6.9-20.5-8.1c-1.8-0.3-15.4-1.4-12.4,4.3c1.6,3,5.5,3.2,8.5,4c3.7,1,7.4,2.1,10.9,3.8c6.9,3.4,12.8,8.4,17.4,14.5
			c0.6,0.8,1.1,1.6,1.7,2.4c-0.3,0.9-0.7,1.9-1.3,2.8c-1.9,3-4.4,5.6-7,7.9c-5.7,5-12.7,8.4-19.7,10.9c-13.5,4.8-29.5,9.4-44.1,8.1
			c2-1.7,3.7-3.6,4.8-5.8c0.1-0.2,0.1-0.4,0.1-0.7c0.1-0.1,0.2-0.2,0.2-0.2c3.7-3.9,9.8-9.8,7.3-15.8c-0.9-2.1-2.2-3.1-4.5-3.4
			c-5-0.6-8.5,4-11.5,7.3c-3.3,3.6-6.8,7-10.5,10.2c-7.4,6.2-15.8,11.3-24.7,15.3c-8.6,3.8-17.8,6.5-27.1,7.9
			c-7.7,1.2-16.6,2.5-22.5-3.4c5.1-3.2,9.8-7.2,13.8-11.7c7.4-8.3,16.4-21.9,13.1-33.7c-0.2-0.7-0.6-1.3-1-1.8
			c0.1-2.8-0.1-5.6-0.5-7.9c-0.4-2.1-3.3-2.5-4.6-1.2c-4.3-0.4-7.3,4.2-9.7,7.2c-3.2,4-6.3,8.1-9.5,12.2c-6.2,7.7-12.8,15.7-21.2,21
			c-2,1.2-4.1,2.4-6.3,3.3c-6,0.5-12-0.4-17.5-2.8c-4.8-2.1-9.4-5.2-13.1-8.9c-1.9-1.9-3.7-5-6.1-6.6c0.1-4-6-5.8-7.8-2
			c-2,4.3-2.5,9.1-4.4,13.4c-1-0.1-1.9,0.5-2.2,1.5c-0.3,0.8-0.4,1.7-0.3,2.5c-2.1,2.6-5,4.4-8.1,5.6c-1.3,0.2-2.6,0.4-3.9,0.6
			c-11.5,1.2-21-2.7-31-7.3c3-1.9,5.7-4.2,7.9-7c5.5-6.8-4.3-16.4-9.6-9.6c-5.2,6.6-13.5,10.8-22.1,9.1c-8.9-1.8-16.1-9.7-16.7-18.8
			c-0.5-9.2,5.1-18.5,14-21.5c4.5-1.5,9-0.8,13.4,0.3c-4.4,3.3-8.6,8.8-3.8,13.2c0.5,0.5,1.4,0.8,2.1,0.6c4-1.4,7.2-4.5,11-6.5
			c1.7-0.8,3.4-1.6,5.1-2.4c1,0.2,1.9,0.4,2.9,0.4c1.4,0.1,2.1-1.2,2-2.3c3.1-1.1,6.4-2.1,9.6-3c6.4-1.7,13.3-3.7,20-2.8
			c1.3,0.2,2.6,0.4,3.9,0.8c0.3,1,0.7,2,1.3,3.1c3.1,5.9,11.6,10.3,17.2,5.3c1.3-1.1,1.3-3.6,0-4.8c-2.2-1.9-4.3-3.1-5.6-5.7
			c-1.8-3.6-1-7,0.2-10.7c2.6-7.6,6.4-15,10.5-21.9c8.2-13.7,20.1-22.5,34.8-28.5c14.8-6.1,31.9-11.8,48.1-9.1
			c13.8,2.4,22.9,10.4,29.5,22.3c2.1,3.7,8.2,2.1,8-2.2c-0.5-13.2-11.7-23.8-23.1-29.1c-14.8-6.8-31.8-5.3-47.1-1
			c-10.5,2.9-21.3,6.8-31.1,12.1c-1.2-2.6-4.3-4.4-7.6-2.8c-14.1,6.7-25.2,17.9-32.2,31.4c-4.1-2.2-8.5-3.4-12.9-3.9
			c-6.2-2.1-13.2-2.6-19.6-2c-6.5,0.6-12.7,2.6-18.4,5.8c-0.4,0.2-0.8,0.5-1.3,0.8c-4.5,1.9-7.8,6.4-11.5,9.5
			c-0.3,0.2-0.6,0.4-0.9,0.7c-4.7,1.8-9.5,3.5-14.4,5c-3.7-0.7-7.6-1-11.2-1c-8,0.1-18.6,2.1-26.5,6.8c-0.2-0.1-0.4-0.3-0.6-0.4
			c-0.4-0.2-0.8-0.4-1.3-0.6c1.1-2.5,1.4-5,0.6-7.3c-0.6-1.7-2.1-3.2-4.1-3.1c-6,0.2-11.5,7.3-16.2,10.7c-5.6,4.1-11.7,7.5-18.2,10
			c-14.7,5.7-30.7,9-46.4,10.1c-15.8,1.1-31.8-0.5-46.8-6c-13.3-4.8-23.7-13.5-35.2-21.1c-0.9-1.8-1.9-3.5-3-5.1
			c2-7.8,6-15.4,10.3-22.1c9.3-14.5,25.1-18.4,40.6-22.7c5-1.4,6-7.7,3.5-11.2c1-1.9-0.1-4.8-2.3-5.4c-7.1-1.9-15.8,1-22.5,3.2
			c-7.6,2.6-15,6-22,9.9c-9.1,5.1-20.8,10.5-27.5,19.3c-0.6,0.3-1.3,0.9-1.8,1.6c-0.1,0.2-0.2,0.3-0.3,0.4
			c-11.6-4-21.8,4.5-30.2,11.9c-6,5.2-12.6,12-14.9,19.8c-2.6-0.5-5.6,2.6-3.7,5c0.5,0.7,1.1,1.4,1.7,2.1
			c-2.3,4.8-3.6,10.3,0.3,13.8c0.5,0.5,1.3,0.8,2,0.5c3.2-1.1,5.1-3.9,6.8-6.8c7,4.4,15.3,7.3,23,9.4c12.7,3.5,26.7,6.4,39.9,6.8
			c3.4,4.5,8.1,8.2,12.7,11c4,2.4,8.3,4.3,12.8,5.7c0.4,1.7,2.1,3.2,3.9,3.4c10.5,1.3,19.5,8,29.9,9.7c11.4,1.8,23.9-1.3,35.2-3
			c8.7-1.3,17.4-3,25.9-5.6c6.8-0.9,13.6-2.4,20-4.8c3.9-1.5,7.7-3.2,11.3-5.4c4.1,7,14,9.1,21.8,10.3c6.5,1,12.5,0.7,17.8-1.6
			c0,0.7,0,1.4,0.1,2c1.1,13,10.3,24.2,22.5,28.5c6.9,2.4,14.4,2.1,21.2-0.2c8.6,11.1,24.6,15.9,38.1,15.4
			c6.8-0.3,13.3-1.9,19.5-4.6c2.4,2.6,5.3,4.5,8.4,5.9c1.3,0.8,2.6,1.5,4,2.1c12.2,5.6,26.6,5.8,39.5,2.2c3.3-0.9,6.5-2.1,9.7-3.5
			c9.4,20.3,42.5,11.9,58.4,5.9c10.7-4,20.8-9.6,29.9-16.5c0.9-0.5,1.8-0.9,2.7-1.5c6.6,8.3,17.7,7,27.2,5.4c10-1.6,20-3.6,29.5-7.1
			c9.3-3.5,18.1-8.3,25.1-15.4c0.9-0.9,1.8-1.9,2.7-3c0.8,1.7,1.6,3.4,2.6,5.1c3,5.1,6.7,2.7,7.3-2.4
			C630.4,199.2,629.1,193.6,626.6,188.4z M347.1,154.6c5.5-4,13.1-4.9,19.5-2.5C360.1,151.7,353.2,153.1,347.1,154.6z M314,154.3
			c0.9,0.3,1.8,0.6,2.7,0.9c1.3,0.5,2.5,0.3,3.5-0.2c4,1,8,2.7,11.4,4.5c-0.6,0.2-1.2,0.4-1.7,0.7c-3.2-1.7-6.6-2.8-9.5-3.7
			c-3.7-1.1-7.4-1.7-11-1.6C310.9,154.5,312.5,154.3,314,154.3z M109.7,163.9c-0.1-0.1-0.2-0.1-0.2-0.2c-0.4-0.4-0.8-0.8-1.2-1.1
			c1.3,0.8,2.7,1.6,4,2.4C111.3,164.6,110.5,164.3,109.7,163.9z"/>
		<use xlink:href="#SVGID_1_"  style="overflow:visible;fill:none;stroke:#D1D2D4;stroke-miterlimit:10;"/>
	</g>
	<path class="st1" d="M613,173.6c-9-7.6-22.5-16.6-35-14.6c-0.6-13.5-11.3-25.8-20.4-34.8c-9.7-9.6-22.6-13.7-36.1-13.3
		c-1,0-2,0.1-3,0.2c-3.2-8.5-10.1-14.3-17.6-19.2c-9.4-6-19.7-11.7-30.9-13.1c-18.5-2.4-35.4,5.7-50.5,15.7
		c-15.1-10.5-33.3-15.7-51.4-15.5c0.2-0.7,0-1.5-0.6-2.2c-18.8-20.2-39.6-40.3-66.7-48.6c-10.4-3.2-20.6-3.8-30.5-2.8
		c-17.6-25.1-56.8-11.7-79.8-2.1c-20.8,8.7-40.6,22.8-50.5,42.8c-0.1-1.4-1.3-2.9-3.1-2.5c-19.7,3.7-39.5,11-56,22.6
		c-12.9,9-24.7,26.1-14.3,41.5c1.8,2.7,6.1,0.2,4.3-2.5C59.9,108.8,77.5,93.5,90.3,86c14.8-8.7,31-14.5,47.8-17.6
		c0.4-0.1,0.6-0.2,0.9-0.3c-2.4,5.2-4.1,10.8-4.9,16.9c-12.3,2.5-23.9,8.5-32.8,17.4c-13.7,13.8-20.3,33.6-18.2,52.8
		c0.2,1.8,1.9,2.6,3.3,2.3c1.5,3.4,3.4,6.6,5.5,9.7c-22.3-2-44-8.8-63.4-20.1c-2.4-1.4-5-2.8-6.9-4.7c-3.2-3.2-1.9-6.7,0.4-9.9
		c3-4.2,6.7-8,10.6-11.3c8.5-7.3,18.7-12.2,29.6-14.8c3.1-0.7,1.8-5.6-1.3-4.8c-12.2,2.9-23.6,8.7-33,17.1
		c-7.1,6.3-19.3,18-9.9,27.3c4.4,4.4,10.8,7.3,16.3,10.1c6.1,3.1,12.5,5.8,19,8c13.8,4.8,28.2,7.6,42.8,8.5
		c10.8,12.1,26.2,20,42.3,22.9c14.8,2.7,29.9,1.7,44.6-1.1c14-2.7,28.4-6.5,41.6-12.1c3.5-1.5,6.9-3.2,10.2-5.2
		c13.6,12.5,33.5,15.9,50.5,8.9c-1.6,10.2,5.4,20.3,14.7,24.9c5,2.4,10.4,3.6,15.9,3.5c4.1,11,17.2,15.8,27.5,19.3
		c13.4,4.5,27.4,3.5,40-2.8c0.1,0,0.1-0.1,0.2-0.1c11.1,8.3,26.5,9.7,40,6.3c6-1.5,11.8-3.8,17.5-6.5c3,7.9,11.4,11.9,19.6,13
		c10.6,1.4,22,0.6,32.6-0.6c10.5-1.2,20.9-3.5,30.7-7.7c3-1.3,5.9-2.7,8.7-4.3c0.2,0.1,0.5,0.2,0.8,0.2c15.6,1.8,31.5,0.3,46.5-4.7
		c13.1-4.3,28-11.3,37.1-22.1C625.5,193.9,622.8,182,613,173.6z M284.9,180.7c-0.4,0-0.8,0.1-1.2,0.2c-14.9,6.6-32.8,3.7-45-7
		c5.7-4.4,10.3-9.9,12.9-17c1.1-3-3.7-4.3-4.8-1.3c-4.9,13.6-18.9,20.4-31.7,24.8c-16.5,5.7-34,10.3-51.5,11.3
		c-29.6,1.8-64.2-9.8-74.4-40.5c-0.3-0.8-0.8-1.3-1.5-1.6c-0.4-16.2,5.5-32.2,17.1-43.8C117.6,93,136,87,154,88.9
		c3.2,0.3,3.2-4.7,0-5c-4.9-0.5-9.9-0.5-14.8,0.1c4.4-27,27.7-45.3,51.6-55.5c20.1-8.7,56.5-22.5,73.7-2.3
		c-15.5,2.7-30.6,9.2-45.4,16.1c-2.9,1.4-0.4,5.7,2.5,4.3c12.5-5.9,25.1-11.8,38.7-15c2.4-0.6,24.5-3.9,40.7,1.8
		c24.8,8.8,44.2,26.9,61.8,45.6c-16.6,1.1-32.9,6.6-46.5,16.7c-2.6,1.9-0.1,6.2,2.5,4.3c27.8-20.5,67.1-21.6,96-2.8
		c-21.3,10.8-36.8,31.7-40.7,55.4c-11.1-5.3-26.9-1.5-38.3,4.1c-0.2-0.3-0.5-0.5-0.9-0.7c-11.6-5.8-27.5-6.2-38.8,0.8
		C287.9,161.9,283,171.6,284.9,180.7z M604.4,208.4c-19,13.3-42.3,19.4-65.3,18c3.1-2.2,6.1-4.7,7-8.4c0.7-3.1-4.1-4.5-4.8-1.3
		c-1,4.3-7.5,7.5-11,9.6c-3.9,2.3-8,4.2-12.2,5.7c-8,3-16.5,4.7-25,5.7c-8.3,1-16.7,1.3-25,1.1c-8.6-0.2-19.5-1.8-22.6-10.8
		c2.8-1.4,5.5-3,8.1-4.5c7.5-4.4,14.9-10.3,16.4-19.4c0.5-3.1-4.3-4.5-4.8-1.3c-1.4,8.6-8.9,13.5-15.9,17.5
		c-2.3,1.3-4.6,2.5-6.9,3.8c-0.6,0.1-1.1,0.4-1.6,0.8c-5.4,2.7-11,5.1-16.9,6.7c-15.8,4.4-35.2,2.2-44.6-12.8
		c-1.7-2.7-6-0.2-4.3,2.5c1.3,2.1,2.8,4,4.5,5.7c-10.5,4.8-22.1,5.6-33.2,2.2c-8.3-2.5-21.4-6.8-25.3-15.5c5.3-0.9,10.3-3,14.7-6.3
		c2.5-1.9,0-6.3-2.5-4.3c-7.8,5.9-17.9,7.8-27.3,4.7c-8.2-2.7-16.7-10.9-16-19.9c1.5-0.3,2.8-1.9,1.8-3.7c-0.2-0.3-0.4-0.7-0.6-1.1
		c0.5-1.3-0.2-2.6-1.2-3.2c-2-8.4,3.9-16.8,11.8-20.4c8.8-4,20-3.8,29,0c-0.6,0.4-1.2,0.7-1.8,1.1c-2.7,1.8-0.2,6.1,2.5,4.3
		c7.2-4.8,15.2-7.9,23.9-9c7.9-1,17.3-0.8,22.7,6.1c2,2.5,5.5-1,3.5-3.5c-1-1.2-2-2.3-3.2-3.2c0.3-0.3,0.5-0.7,0.6-1.3
		c3.1-19,13.9-35.9,29.3-46.9c0.6,0.3,1.4,0.3,2.1-0.3c2.7-2,5.5-4,8.3-5.9c1-0.5,2.1-1,3.1-1.4c0.8-0.3,1.2-0.9,1.3-1.5
		c12.9-8.5,27.1-15.4,42.8-14.6c10.5,0.5,19.8,5.2,28.6,10.5c7.5,4.4,15.4,9.5,18.9,17.7c-22.4,2.9-49.1,14.8-55.1,37.2
		c-0.8,3.1,4,4.4,4.8,1.3c6.1-22.5,36.1-33,56.9-34.1c12.4-0.7,24.4,2.4,33.5,11.2c8.7,8.4,19.8,20.6,19.6,33.4c0,0,0,0.1,0,0.1
		c-1.8,1.6-0.5,5.3,2.2,4.3c11.9-4.4,26.7,5.4,35.3,13.2c4.5,4.1,8.1,9.6,6.4,15.9C615.2,200.3,609.5,204.9,604.4,208.4z"/>
</g>
</svg>
