<?xml version="1.0" encoding="utf-8"?>
<!-- Generator: Adobe Illustrator 18.1.0, SVG Export Plug-In . SVG Version: 6.00 Build 0)  -->
<svg version="1.1" id="Layer_1" xmlns="http://www.w3.org/2000/svg" xmlns:xlink="http://www.w3.org/1999/xlink" x="0px" y="0px"
	 viewBox="0 0 189.6 92.6" style="enable-background:new 0 0 189.6 92.6;" xml:space="preserve">
<style type="text/css">
	.st0{clip-path:url(#XMLID_2_);fill:#D1D2D4;stroke:#D1D2D4;stroke-miterlimit:10;}
	.st1{clip-path:url(#XMLID_2_);fill:#D1D2D4;}
	.st2{fill:#424142;stroke:#D1D2D4;stroke-miterlimit:10;}
</style>
<g>
	<g>
		<defs>
			<path id="XMLID_7_" d="M182.1,47.8c-0.1-3.3-2.3-6.1-5.5-6.8c-0.7-0.5-1.4-0.9-2.2-1.3c-0.3-0.1-0.5-0.2-0.8-0.3
				c-0.5-2.3-1.6-4.5-3.4-6.1c-3.7-3.4-8.7-4.2-13.5-4.4c-1.6-0.1-2.9,0.3-3.9,1c-3.3-6.6-10.7-10.9-18.8-9.5
				c-2.3,0.4-3.7,1.6-4.4,3.1c-4.6,0.2-7.9,2.3-9.8,5.3c-0.3,0.3-0.5,0.5-0.8,0.8c-0.8-1.5-1.7-2.9-3-4.2
				c-4.5-4.6-10.5-6.9-16.7-7.2c0.4-2.5-0.4-5.2-3.1-7c-11.6-7.8-28.5-6.1-37.9,4.4c-3.5,3.9-5.4,8.7-4.9,13.6
				c-4.8,1.5-9.4,3.9-13.5,7.3c-1.1,0.9-2.1,1.8-3.1,2.9c-8.5,0.8-20.1,2.3-26.1,8.4c-3.4,3.5-3.9,8.9-1.1,12.9
				c2.7,3.9,8,5.9,12.4,7.1c3.6,1,7.7,0.8,11.2-0.5c6.2,6.9,15.3,10.3,24.3,9.7c1.7,3.1,4.4,5.7,7.8,7.5c7.6,4,16.1,2,23.6-1.3
				c4.9,2,10.7,2.6,16.3,1.5c7.5-1.5,15.4-6.2,20.1-12.6c4.2-0.4,8.1-1.9,11.3-5.2c1.5,0.5,3.1,0.9,4.7,1.1
				c4.7,2.4,10.6,2.4,14.9-1.5c0.7-0.6,1.2-1.3,1.7-2c0.3-0.2,0.5-0.4,0.8-0.7c0.7,0.2,1.4,0.3,2.2,0.3c1.4,0,2.5-0.3,3.5-0.9
				c4.7,1.8,10.4,1.1,14.2-2.9c2.4-2.6,3.5-6.2,3.2-9.7C181.9,49.6,182.2,48.7,182.1,47.8z"/>
		</defs>
		<use xlink:href="#XMLID_7_"  style="overflow:visible;fill:#FFFFFF;"/>
		<clipPath id="XMLID_2_">
			<use xlink:href="#XMLID_7_"  style="overflow:visible;"/>
		</clipPath>
		<path class="st0" d="M169.4,45.7c-8.6,1-15.5,6.4-22.9,10.5c-6.1,3.4-12.5,6.3-18.6,8.6c-7.1,2.7-14.4,4.9-21.6,7.4
			c-0.4,0.1-0.9,0.3-1.3,0.4c3.9-5.1,6.3-11.2,4.6-17.4c-2.1-7.5-10.4-8.6-15.9-4.2c-3.4,2.7-5.8,6.8-8.4,10.1
			c-3.2,3.9-7.1,6.9-11.4,9.2c-5.9,0.2-11.3,0.1-15.8-1c-6.6-1.5-11.2-3.5-17-7.6c-5.3-3.7-10.5-9.4-17.6-12.3c-5-2-9.3,3-9.7,7.4
			C12.4,73.4,31.9,85.6,45,91c7,2.9,14.3,4.5,21.9,5.1c5.8,0.4,13.6-0.3,19.3-3.5c15.2,5.3,32.4,1.8,47.8-2.8
			c16.9-5,42.3-14.4,45-34.5C179.6,50.6,174,45.2,169.4,45.7z"/>
		<path class="st1" d="M183.3,43.7c-2.9-1.9-6-3.5-8.9-5.3c-1.1-2.5-3.2-4.3-5.8-5.1c-1-1.5-2.3-2.8-4-3.7c-1.9-1-3.9-1.1-5.7-0.7
			c-1.1-1.1-2.8-1.3-4.2-1c-0.1,0-0.1,0-0.1,0c-2.3-2.4-4.8-4.7-7.6-6.4c-4.5-2.8-9.1-2.5-14-0.8c-3,1-5.9,2.3-8.7,3.8
			c0.3-4.3-3.6-8.5-8.6-5.7c-1.1,0.6-2.2,1.3-3.3,2c-7.1-4.6-14.4-10.3-22.9-11.7c-8-1.4-18.1,0.2-25.3,3.9
			c-3.1,1.6-5.5,3.8-7.1,6.4c-3.9,2-6.9,6-6.2,10.5c0.1,0.5,0.3,1.1,0.5,1.6c0,0.8,0,1.6,0.2,2.3c-0.5,0.7-0.9,1.5-1.2,2.4
			c-1-0.4-2.1-0.3-3,0.4c-1.2-0.2-2.5,0.2-3.4,1.5c-0.3,0.5-0.6,0.9-0.9,1.4c-1.1-1.3-2.5-2.2-4.3-2.7c-5.6-1.5-10.9,2.5-15.2,5.5
			c-0.9,0.6-1.8,1.3-2.7,2c-5.2,1.2-10.9,4.1-11,9.5c-0.6,0.6-1.3,1.2-1.9,1.8c-3.7,3.6,1.3,10.6,5.6,7.3c0.3-0.2,0.6-0.5,0.9-0.7
			c0,0,0,0,0,0c0,0,0.1-0.1,0.1-0.1c0.2-0.1,0.3-0.3,0.5-0.4c0.3,0.1,0.7,0.2,1,0.3c2.9,3.8,7.2,7.3,9.8,9
			c7.8,5.2,17.1,5.8,26.3,6.1c0.2,0.4,0.4,0.9,0.6,1.3c6.3,10.8,19.2-0.1,25-5.2c7.6-6.6,14.1-14.3,20.8-21.9c1.4,2.4,2.9,4.8,4.6,7
			c0.3,0.4,0.5,0.7,0.8,1.1c0,0.5,0,1,0,1.4c-6.3-0.1-7.4,9.4-1.4,11c1.2,0.3,2.5,0.6,3.8,0.8c0.4,0.4,0.9,0.7,1.5,0.9
			c4.3,1.3,7.8,2.1,12.2,1.5c4.3-0.6,8.4-1.4,12.5-2.6c2.7-0.8,5-4.2,4-7.1c0.5-0.2,1-0.3,1.6-0.4c1.9-0.5,3.8-0.8,5.7-1.3
			c3.8-0.8,7.5-1.8,11.3-2.9c2.4-0.7,3.6-2.7,3.9-5.1c0.1-1,0.5-1.7,1.3-2.2c0.8-0.7,0.9-0.8,0.3-0.2c0.8,0.2,1.7,1.3,2.4,1.7
			c1.9,1,4.2,1.5,6.3,1.4c2.8-0.1,5.3-1.1,7.3-2.7c0.7,0.2,1.3,0.4,2,0.6C185.4,56.4,188.8,47.3,183.3,43.7z M32.7,63.2
			c-1.3-0.7-2.5-1.5-3.7-2.4c0.6-0.3,1.2-0.5,1.7-0.9c0.1,0,0.1,0.1,0.2,0.1c0.8,0.4,1.5,0.7,2.3,1.1C33,61.9,32.8,62.5,32.7,63.2z"
			/>
		<use xlink:href="#XMLID_7_"  style="overflow:visible;fill:none;stroke:#D1D2D4;stroke-miterlimit:10;"/>
	</g>
	<path class="st2" d="M173.6,37c-0.6-4.6-4.7-8.1-9.4-9.3c-3.2-0.8-6.4-0.7-9.5,0.1c-6-13.9-23.8-9.9-34.3-1.7
		c-5-4.8-11.1-9.2-17.7-9.5c0,0,0-0.1,0-0.1C97.9,2.8,81,3.4,69.6,6.9C58.9,10.2,45.1,18.7,48,31.5c-2.8,0.5-5.4,1.8-7.3,3.9
		c-0.8,0.8-1.4,1.7-1.9,2.7C26.4,34.6,5.7,43.8,8.4,59c1.2,6.8,7.4,10.3,13.7,11.5c3.7,0.7,8,1.5,11.5,0.2c3.8,4.4,9.3,6,15.2,6.6
		c1.7,0.2,3.6,0.3,5.5,0.2c6.1,7.5,15.4,11.4,25.1,9.4c2.2-0.5,4.5-1.3,6.5-2.3c8.8,4.6,19,4.1,27.8-0.4c3-1.5,10-6,13.4-10.7
		c3.8,0.3,6.8-2,9.2-4.9c0.1,0.1,0.2,0.2,0.3,0.2c5.9,3,12.9,6.3,19.4,3c3-1.5,5.3-4,6.6-6.9c9.1,2.2,20.6-2,23.8-11.5
		C189,45.3,181.5,37.3,173.6,37z M179.2,55.5c-3.9,4.3-9.9,5.9-15.4,4.5c0-0.6,0.1-1.2,0-1.8c-0.1-3.2-5.1-3.2-5,0
		c0.1,4.1-2,8.1-6,9.5c-4.7,1.6-9.7-1.2-13.8-3.3c-0.1,0-0.1-0.1-0.2-0.1c0.4-0.7,0.7-1.4,1-2.1c1.3-2.9-3-5.5-4.3-2.5
		c-1.3,2.9-3.3,7.4-6.5,8.5c0-0.9-0.3-1.8-0.9-2.6c-1.9-2.6-6.2-0.1-4.3,2.5c0,0,0,0.1,0,0.1c-0.7,0.5-1.1,1.4-1.1,2.3
		c-1.8,2.1-4.9,4.8-5.6,5.3c-2.6,2.1-5.5,3.9-8.6,5.2c-5.8,2.3-12.1,2.5-17.9,0.3c4.2-3.7,6.6-9,5.3-15.1c-0.7-3.1-5.5-1.8-4.8,1.3
		c1.8,8.5-7.7,14-15,14.8C70,83,64.2,80.7,59.9,76.5c2.3-0.9,4.1-2.6,4.8-5.5c0.8-3.1-4-4.4-4.8-1.3c-1.1,4.4-9.7,2.9-12.9,2.4
		c-3.6-0.6-7-1.6-9.4-4.3c0,0,0.1-0.1,0.1-0.1c1.9-2.6-2.4-5.1-4.3-2.5c-1.9,2.6-8.9,0.8-11.4,0.2c-5-1.2-9.3-4.1-8.6-9.9
		c1.2-9.9,15.4-15,24-12.7c-0.4,3.9,0.9,8,3.7,11c2.2,2.4,5.7-1.2,3.5-3.5c-3-3.3-3.2-8.9,0.2-12c3.2-2.9,8.1-2.5,11.3,0
		c2.5,2,5-2.4,2.5-4.3c-1.6-1.2-3.5-2-5.5-2.4c-3.3-10.7,9.4-17.2,17.7-19.7c8.2-2.5,22.7-4.6,26.8,5.4c-1.3,0.4-2.5,0.9-3.8,1.7
		c-2.7,1.7-0.2,6,2.5,4.3c7.6-4.6,14.8,0.8,20.4,6.2c-0.4,0.5-0.9,1-1.3,1.5c-1.9,2.6,2.4,5.1,4.3,2.5c0.2-0.3,0.5-0.6,0.8-0.9
		c1.5,0.2,2.9-1.2,2.8-2.7c7.9-6.3,22.2-10.8,26.6-0.4c-1.3,0.7-2.6,1.6-3.8,2.5c-2.5,2,1.1,5.6,3.5,3.5c2.8-2.3,6.2-3.6,9.8-3.6
		c3.3,0,9.1,1.7,9.1,5.8c-2.2,1.5-0.9,5.5,1.9,4.5c3.1-1.1,6-0.3,8.4,2C182.5,47.7,182.4,52,179.2,55.5z"/>
</g>
</svg>
