<?xml version="1.0" encoding="utf-8"?>
<!-- Generator: Adobe Illustrator 18.1.0, SVG Export Plug-In . SVG Version: 6.00 Build 0)  -->
<svg version="1.1" id="Layer_1" xmlns="http://www.w3.org/2000/svg" xmlns:xlink="http://www.w3.org/1999/xlink" x="0px" y="0px"
	 viewBox="0 0 390.1 147.1" enable-background="new 0 0 390.1 147.1" xml:space="preserve">
<path fill="#F9F9FB" d="M176.9,12.8c-10.8,1.1-21.8,3-31.5,8.1c-9.6,5.1-17.9,13.7-20.2,24.4c-7.7-0.8-15.5,0.3-22.7,3.1
	c-5.6,2.2-11.5,6.9-10.8,12.9C86.4,61.6,81,62.8,76,64.7c-2.4,0.9-4.8,2.1-6.3,4.1c-1.2,1.6-1.6,3.6-2.1,5.5c-0.7,2.9-1.3,5.8-2,8.7
	c-0.6,2.5-1.1,5.1-0.5,7.5c1,3.5,4.2,5.8,6.6,8.5c3.3,3.8,5,8.7,7.7,13.1c7.5,12.1,23.1,18.6,37,15.1c7.5-1.8,14.8-6.3,22.3-4.5
	c2.6,0.6,5,2,7.6,3c11.8,4.7,25.1,1.4,36.9-3.2c7-2.7,14.8-7.3,15.1-14.7c3.3,7.8,12.1,12.2,20.6,12.8c8.5,0.6,16.8-2,24.9-4.6
	c5.4-1.8,11.7-4.5,12.6-10.2c8.5,3.7,18.3,4.3,27.3,1.9c4.3-1.2,8.4-3.2,12.6-4.6c4.6-1.5,8.7-4.2,13-6.5
	c10.1-5.3,21.3-8.2,31.8-12.5c3.2-1.3,6.5-2.9,8.4-5.8c1.8-2.9,1.3-7.6-1.9-9c-2.5-1.1-5.7,0-7.7-1.8c-1-0.9-1.4-2.3-2.2-3.4
	c-1.1-1.6-2.8-2.5-4.6-3.3c-17.2-7.9-37.5-8.7-55.4-2.3c0.3-6.7-2.7-13.3-7.4-18.1s-10.8-7.9-17.2-9.9c-13.6-4.3-28.8-3.6-42,2
	c-0.7,0.3-1.5,0.6-2.2,0.6c-1.1,0-2.1-0.8-3-1.5c-5.5-4.4-11-8.7-16.6-13.1C185.9,15.8,181.5,12.3,176.9,12.8z"/>
<path fill="#D1D2D4" d="M232.5,89.8c-0.2-0.2-0.5-0.2-0.9-0.2c-0.4,0.1-0.8,0.4-0.8,0.8c-0.1,0.5,0.6,0.6,0.8,0.2
	c0.1-0.2,0.1-0.4,0.3-0.6C232.1,89.9,232.3,89.9,232.5,89.8C232.5,89.8,232.5,89.8,232.5,89.8z"/>
<path fill="#D1D2D4" d="M88.9,81c-0.3-0.2-0.6-0.4-0.8-0.7c-0.3-0.2-0.5,0.2-0.3,0.4c0.2,0.3,0.4,0.5,0.7,0.8
	c0.2,0.2,0.4,0.5,0.8,0.5c0.1,0,0.3-0.1,0.3-0.3C89.5,81.4,89.2,81.2,88.9,81z"/>
<path fill="#D1D2D4" d="M84.5,83.3c-0.7-0.7-1.4-1.3-1.4-2.4c0-0.8,0.5-1.9,1.2-2.3c0.2-0.1,0.1-0.4-0.2-0.4
	c-0.7,0.1-1.1,0.2-1.5,0.8c-0.4,0.6-0.6,1.3-0.5,2c0,1.2,0.8,2.8,2.2,2.6C84.6,83.7,84.6,83.4,84.5,83.3z"/>
<path fill="#D1D2D4" d="M82.9,73.8c-3.7,1.3-7.3,6.8-4.4,10.5c0.1,0.2,0.6,0.2,0.5-0.1c-0.2-1.8-0.5-3.5,0.1-5.3
	c0.7-2,2.2-3.6,4.1-4.4C83.6,74.4,83.3,73.7,82.9,73.8z"/>
<path fill="#D1D2D4" d="M214.8,71c-0.6-0.6-1.4-0.7-2.2-0.9c-1-0.3-1.9-0.5-2.9-0.6c-0.7-0.1-0.9,0.8-0.3,1.1
	c0.9,0.4,1.8,0.7,2.8,0.9c0.8,0.2,1.6,0.5,2.4,0.3C214.9,71.6,215,71.3,214.8,71z"/>
<path fill="#D1D2D4" d="M219,67.1c-1.5-0.4-3-0.3-4.5-0.7c-1.7-0.4-3.2-1.1-4.6-2c-0.7-0.4-1.3,0.6-0.6,1.1c2.5,1.8,6.8,3.6,9.8,2.2
	C219.3,67.6,219.2,67.2,219,67.1z"/>
<path fill="#D1D2D4" d="M177,15.4c-10.4-0.2-20.8,2.5-29.8,7.7c-4.4,2.5-8.6,5.7-12.1,9.3c-1.4,1.4-4.6,4.4-5.8,7.1
	c-0.6,0.2-1.2,0.7-1.4,1.3c-0.4,1-0.7,1.7-0.2,2.8c1.5,2.9,5.8,2.3,8.6,2.8c3.6,0.7,7.1,1.9,10.5,3.3c4.9,2,7.2-6.1,2.2-8
	c-4.3-1.6-8.9-2.5-13.5-2.6c1.7-1.9,3.7-3.6,5.3-5c3.3-2.9,6.9-5.4,10.7-7.4c7.9-4.1,16.7-6.1,25.6-5.8
	C180.6,21.1,180.6,15.5,177,15.4z"/>
<path fill="#D1D2D4" d="M212,33.1c-2.8-2-5.3,2.1-3.4,4.4c3.7,4.6,5.1,9.8,3.9,15.5c-1.1,5.2,6.8,7.4,8,2.2
	C222.2,47,218.9,37.9,212,33.1z"/>
<path fill="#D1D2D4" d="M367.1,76.1c-0.4,0-0.8,0-1.2,0c0-1.3-0.8-2.7-2.7-2.8c-3.1-0.2-6.2-0.3-9.3-0.7c-3-0.4-6-0.8-9-0.5
	c-4.8,0.6-9.1,3.1-13,6c-3.3,2.4-6.6,5.7-10.7,6.5c-0.4-1-1.1-1.9-1.8-2.6c-1.2-1.4-2.7-2.5-4.3-3.3c0.1-1.3-0.3-2.6-1.3-3.9
	c-1.8-2.3-5.6-3.5-8.1-1.6c-3.6,2.6-3.6,5.1-3.2,9.1c0.3,2.2-0.4,4.2-1.5,6c-2.6,4.4-7.2,7.5-11.9,9.2c-5.2,1.9-10.8,2.2-16.3,1.9
	c-6-0.4-11.9-3.6-17.7-5c-1.3-0.3-2.8,0.6-3.2,1.8c-3.7,0.4-5.8,3.5-6.2,7c-0.4,2.9-5.6,4.6-8.2,5.3c-4.8,1.1-9.8,1.9-14.7,2.2
	c-4.6,0.2-9.2-0.2-13.4-2c-1.6-0.7-3.1-1.5-4.4-2.6c-0.6-0.6-1.1-1.2-1.6-1.8c-0.2-2-1.3-3.9-3-4.9c-3.1-1.8-6.4-0.5-8.4,2.2
	c-5.8,7.8-14.8,11.4-24,13.4c-4.8,1-9.8,1.6-14.7,2c-2.3,0.2-5.3,0.8-7.5-0.1c-0.6-0.3-0.9-0.5-1.3-1c0.4,0.5,0.2,0,0-0.5
	c1.6-1.2,2.3-3.5,1.8-5.4c-0.6-2.3-2.6-3.4-4.9-3.7c-9.5-1.2-17.1,6.9-26.4,7.2c-4.8,0.2-9.7-0.8-14.3-2.1
	c-4.1-1.2-8.6-2.6-11.7-5.7c-1.4-1.4-2.3-3.2-3.5-4.8c-1.4-1.9-3.1-3.3-5-4.7c-0.2-0.2-0.5-0.3-0.7-0.5c-0.7-0.9-1.4-1.8-2.2-2.7
	c-1-1.2-2.1-2.5-3.1-3.8c-0.2-0.5-0.4-1.1-0.6-1.6c-1.2-4.4-0.5-8.7,1.6-12.3c0.8-1,1.7-1.9,2.4-3c1.1-1.1,2.3-2,3.7-2.8
	c0.2-0.1,0.3-0.2,0.5-0.2c0.1,0,0.3,0,0.4-0.1c2.2-0.7,4.3-1.4,6.4-2c2.3-0.2,4.7-0.3,6.9-1.2c4.1-0.2,8.2,0,12,0.1
	c4.2,0.2,4.1-6.2,0-6.5c-9.2-0.9-19-1.2-27.7,2.5c-6.6,2.8-11.5,8-13.6,14.6c-1-0.8-2.4-1.3-4-0.9c-8.7,1.8-16.6,5.6-23.7,10.8
	c-6.3,4.6-12.7,10.7-20.8,11.6c-2,0.2-2.9,1.9-2.8,3.4c-0.3,0.5-0.6,1-0.9,1.6c-0.7,1-0.4,2.7,0.5,3.5c4.9,4.6,11.2,5.5,17.6,6.1
	c3.5,0.3,6.9,0.4,10.4,1.1c5,5,12,5.9,18.6,7.6c0.6,0.2,1.2,0.2,1.7,0.1c1.6,0.6,3.2,0.8,5,0.6l0.2,0.1c1.2,0.4,2.3,0.1,3.1-0.6
	c0.1,0,0.1,0,0.2,0c0.3,0,0.6-0.1,0.9-0.1c0.9,1.2,2.2,2,3.6,2.5c1.7,0.6,3.1,0.3,4.5-0.1c0.3,0.3,0.6,0.5,0.9,0.7
	c0.9,0.5,1.9,0.8,3,0.7c1.9-0.1,3.4-1.5,3.8-3.3c2.5,1.9,5.3,3.5,8.6,4.5c9.4,3.1,19.4,1.7,28.8-0.9c4-1.1,8-2.3,11.6-4.4
	c1.2,1.7,2.9,3.2,5,4.2c6.4,2.9,15.2,2.2,22,1.4c12.6-1.4,25.7-5.1,34.6-14.3c1.2,1.7,2.5,3.2,3.9,4.5c5.7,5.1,13.2,6.9,20.8,7
	c14.2,0.1,32.7-3.1,36.1-18.9c3.2,1.9,6.7,3.2,10.5,4.3c7.1,2.1,14.3,2.2,21.5,0.1c6.5-1.9,12.9-5.6,17.4-10.8
	c0.3-0.4,0.6-0.8,0.9-1.1c0.4,0.9,1.3,1.7,2.3,2c2.4,0.8,5.1,0.8,7.5-0.1c3.2,0.5,6.5,0.8,9.8,0.2c1.1-0.2,2.1-0.5,2.9-0.9
	c0.1,0,0.1,0,0.2,0c4.2-0.3,6.1-4,8.3-7.1c0.5-0.6,0.6-1.4,0.5-2.2c0.3,0,0.7-0.1,1-0.1c0.9-0.1,1.7-0.2,2.6-0.4
	c0.2,0.1,0.5,0.2,0.7,0.3c2.3,0.6,4.9,0.1,7.3-0.2c2.6-0.3,5.2-0.5,7.9-0.8c4.3-0.4,8.1-0.7,10.8-4.4
	C373.9,80.4,370.7,76.2,367.1,76.1z"/>
<path fill="#424142" d="M376.3,76.6c-11.2-5.6-23.2-9-35.6-10.1c0.1-0.1,0.1-0.3,0.2-0.4c0.5-1,0.3-2.3-0.8-2.9
	c-17.8-11.1-40.2-14-60.2-7.3c-0.7-3.1-1.8-6.1-3.3-8.9c-3.6-6.8-9.3-12.2-16.3-15.4c-15.8-7.2-37.1-6.6-52.8,0.5c0,0,0,0,0,0
	c-0.9-1.1-1.9-2.2-2.9-3.3c-7-7.4-16.1-13.8-25.9-16.6c-0.4-0.1-0.7,0-1,0.3c-4.7-0.8-9.7-0.1-14.3,0.9c-5.7,1.1-11.1,3.1-16.2,5.8
	c-5,2.6-9.6,6-13.6,9.9c-2.1,2-4,4.2-5.7,6.5c-1.6,2.1-3.6,4.3-3.9,7c0,0.1,0,0.2,0,0.3c-3.2-0.3-6.5-0.3-9.7-0.1
	c-9.9,0.7-19.6,4.5-25.1,13.1c-0.5,0.8-0.3,1.7,0.3,2.3c0.2,0.2,0.3,0.3,0.5,0.4c-1.4,0.2-2.8,0.4-4.1,0.7
	c-6.4,1.4-13.7,3.3-17.9,8.8c-1,1.3-1.9,2.9-2.6,4.5c-0.1,0-0.2,0-0.4,0C55,73.7,45.3,77.5,37,83.3c-4.3,3-7.6,6.6-12.6,8.4
	c-4.2,1.6-9.2,4-11.9,7.8c-6.4,9.2,8.8,13.5,15,14.5c5.3,0.9,10.5,1.5,15.6,3.6c4.6,1.9,9,4.3,13.8,5.9c2.5,0.8,5,1.4,7.6,1.5
	c1.2,0.1,2.3,0,3.4-0.2c2.4-0.3,3.7-0.6,5.9,0.6c4.9,2.5,10.1,1.4,15-0.7c0.2-0.1,0.3-0.2,0.4-0.3c2.2,1.4,4.5,2.5,6.8,3.5
	c13.3,5.2,28.6,2.7,40.1-5.5c11.1,8.2,25.4,8.8,38.5,5.2c6.6-1.8,13.8-4.2,19.3-8.4c2-1.5,4.2-3.7,5.5-6.1
	c6.5,9.4,19.5,10.5,30.2,9.6c6.1-0.6,12.6-1.1,18.2-3.9c4.4-2.2,7.1-5.6,8.8-9.8c13.1,4.8,27.6,4.2,40.5-1.4
	c2.8-1.2,5.9-2.8,8.7-4.7c0.2,0.2,0.5,0.3,0.9,0.3c4.5,0,9-0.5,13.5-0.8c4.1-0.3,8.3-0.3,12.3-1.1c5.2-1,10.5-4.9,10.5-10.2
	c7,1.2,14.4,2.3,21.3,0c6-2,11.1-6,13-12.1C377.6,78.2,377.1,77,376.3,76.6z M81,123.2c-2.7,0.3-4.5-0.8-6.8-1.9
	c-1.6-0.8-3.1-0.8-4.8-0.5c-2.7,0.4-5.1,0.6-7.8,0c-8.3-1.7-15.3-7-23.6-8.9c-3.8-0.9-28.9-3.1-22-10.9c3.1-3.6,7.8-5,12-6.8
	c3.6-1.5,6.1-4.3,9.1-6.7c7.9-6.3,17.2-10,27-12c-1.4,4.2-2,8.7-1.7,12.6c0.4,6,3.6,11.6,9.5,13.6c1.9,8,7.2,15.1,13.8,20.2
	C84.2,122.6,82.6,123.1,81,123.2z M341.2,87c-1.4-0.3-2.8,0.9-2.4,2.4c2.4,7.7-9,8.6-13.8,8.9c-4.8,0.4-9.7,0.5-14.5,1
	c1.5-1.5,2.8-3.2,3.7-5c2.7-5.5,2.8-15-3.1-18.5c-1.9-1.1-4.3,0.7-3.7,2.8c0.7,2.6,2.2,4.8,2.3,7.6c0.1,2.9-1.1,5.5-3.1,7.6
	c-4.1,4.4-10.1,7.3-15.7,9.2c-11.5,3.9-23.9,3.5-35.3-0.7c-2.3-0.9-4.1,1.7-3.7,3.7c0.9,4.8-5.5,8.7-9.1,10
	c-4.9,1.7-10.3,2.1-15.4,2.5c-9.7,0.8-20.7-0.4-26.7-9c0.1-1.3-0.2-2.6-0.9-3.9c-1.1-1.8-4-1.1-4,1.1c0,2.4,0.3,4.3-1.2,6.4
	c-1.5,2.1-3.7,3.6-5.9,4.9c-5.3,3-11.4,5-17.2,6.4c-11.4,2.7-24.3,2-33.9-5.5c-0.9-0.7-1.8-0.7-2.7,0c-10.4,8.3-25,10.8-37.4,6
	c-11.1-4.2-18.2-13-22.9-23.3c1.1-1.1,1.1-3.5-0.9-4c-5.9-1.6-7.3-8.2-6.8-13.5c0.5-5.2,2-11.7,6-15.4c3.9-3.6,10.1-4.8,15.1-5.9
	c5.6-1.1,12.1-1.4,17.7,0.3c1.2,0.4,1.9-1.4,0.8-2c-3.2-1.8-5.8-2.8-9.6-3.1c-1.6-0.1-3.3-0.1-4.9,0.1c0.2-0.1,0.4-0.3,0.5-0.6
	c5.5-8.4,15.6-11.2,25.2-11.3c5,0,10,0.4,14.9,1.1c5.4,0.7,10.7,2,16.2,2.2c0.8,0,1.2-1.2,0.4-1.6c-5.4-2.7-11.3-3.6-17.3-4.4
	c-1.7-0.2-3.5-0.5-5.3-0.7c1.6-1.5,2.5-3.8,3.8-5.5c1.6-2.2,3.4-4.3,5.4-6.2c3.8-3.8,8.2-7,12.9-9.6c4.6-2.5,9.5-4.3,14.6-5.5
	c5.3-1.2,10.5-1,15.8-1.5c7.8,4,15.2,8.3,21.5,14.6c3.3,3.3,6.4,6.9,8.6,11c1.1,2.1,2,4.4,2.4,6.8c0.4,2.3-0.5,4.7,0.2,6.8
	c0.3,0.8,1.2,1.1,1.8,0.5c3-3,1-9.6-0.4-13c-1.1-2.5-2.5-4.9-4.1-7.1c15.6-4.1,32.7-6,48,0.2c6.5,2.7,11.9,7.3,15.3,13.4
	c1.6,2.9,2.8,5.9,3.5,9.2c0.7,3.1-0.1,6.8,0.9,9.8c0.4,1.3,2.4,1.7,3.1,0.4c1.2-2.3,1-5.4,0.5-8.2c18.7-5.2,38.9-3,55.7,6.8
	c-0.2,0.5-0.5,1-0.7,1.5c-0.8,1.5,0.2,3.1,1.8,3.2c12.2,0.8,24,3.9,35,9.1C367.3,91.2,351.4,89.2,341.2,87z"/>
</svg>
