<?xml version="1.0" encoding="utf-8"?>
<!-- Generator: Adobe Illustrator 18.1.0, SVG Export Plug-In . SVG Version: 6.00 Build 0)  -->
<svg version="1.1" id="Layer_1" xmlns="http://www.w3.org/2000/svg" xmlns:xlink="http://www.w3.org/1999/xlink" x="0px" y="0px"
	 viewBox="0 0 114.6 101.1" style="enable-background:new 0 0 114.6 101.1;" xml:space="preserve">
<style type="text/css">
	.st0{clip-path:url(#XMLID_2_);fill:#D1D2D4;}
	.st1{fill:#424142;}
</style>
<g>
	<g>
		<defs>
			<path id="XMLID_4_" d="M104.6,54.3c-0.9-3.8-3.7-6.7-7.2-8.2c0-2.6-1.2-5.1-4.1-7.2c-3.3-2.4-7.9-4.2-12.5-4.9
				c-1-0.5-1.9-0.8-2.9-1.1c0.6-2.8,0.5-5.8-0.6-9c-2.6-7.6-11.2-11.3-18.2-9.4c-11.2-1.3-23.9,4-24.1,16.9
				c-8.6,0.5-17.1,2.7-22.9,9.4c-4.3,5-4.9,11.8-1,17.2c2.8,4,7.1,6,11.7,6.7c-0.3,3.1,0.5,6.3,2.9,9.4c5.6,7.1,14.6,7.6,22.9,6.5
				c0.7-0.1,1.3-0.2,2-0.4c1,0.8,2,1.4,3.1,2c3.5,4.1,8.9,6.5,15.3,5c7.1-1.7,13.1-8.2,13.4-15.6c4.9,0.9,10.5,0.1,14.3-2.6
				C102.2,66.2,106.2,60.7,104.6,54.3z"/>
		</defs>
		<use xlink:href="#XMLID_4_"  style="overflow:visible;fill:#FFFFFF;"/>
		<clipPath id="XMLID_2_">
			<use xlink:href="#XMLID_4_"  style="overflow:visible;"/>
		</clipPath>
		<path class="st0" d="M107.6,63c-0.4-1.9-1.4-3.3-2.7-4.3c0.4-1.5,0.2-3.2-1-4.7c-1-1.9-2.6-3.1-4.5-3.9c-0.8-5.8-3.5-11.2-8-15.2
			c-2.7-2.5-5.6-3.8-8.6-4.7c-1.6-2-3.4-3.7-5.2-4.9c-0.9-0.6-1.8-1.2-2.7-1.7c-0.8-0.7-1.7-1.3-2.5-1.9c-3.5-2.6-7.8-5-12.3-5.3
			c-0.3,0-0.6,0.1-0.9,0.2c-1.1-1.4-2.8-2.4-4.4-2.6c-9.2-1.1-18.6,3.1-24.3,10.1c-0.4,0-0.8,0.3-0.8,0.8c0,0.1,0,0.1,0,0.2
			c-1.7,2.4-3,5-3.8,7.9c-0.3-0.4-0.6-0.8-1-1.2C22,27.7,15,31.4,18,36c0.1,0.1,0.1,0.2,0.2,0.4c-0.9,0.3-1.7,0.9-2.4,1.9
			c-0.2,0.2-0.3,0.4-0.4,0.6c-2.6,0.3-4.8,2.7-5.7,5c-1.5,3.8-0.3,9.2,0.5,13c0.4,1.7,1,3.4,1.8,4.9c0.8,2.9,2.6,5.4,5.4,6.6
			c0.6,0.5,1.2,0.9,1.8,1.4c2.4,1.6,5.1,2.6,7.9,3.2c0.2,0.3,0.3,0.7,0.5,1c3.2,5.5,9,8.5,15.1,9.5c6.7,1.1,13.6,0.3,19.8-2.4
			c1.1,1.1,2.4,1.9,3.9,2.5c5.9,2.5,13,1.1,18.2-2.4c4.6-3.1,7.9-7.7,9.5-13c1.2,0.2,2.3,0.5,3.5,1c2.5,1,4.7,2.2,7.3,0.7
			C107.2,68.6,108.2,65.6,107.6,63z M55,51.5c0-0.2,0.1-0.4,0.1-0.6c0-0.1,0-0.1,0-0.2c0.5,0.1,0.9,0.2,1.4,0.3
			C55.9,51.1,55.4,51.3,55,51.5z M79,57.6c-0.2-0.3-0.4-0.5-0.6-0.8c-0.1-0.2-0.3-0.3-0.4-0.5c0.6,0.1,1.2,0.1,1.8,0
			C79.6,56.8,79.3,57.2,79,57.6z"/>
		<use xlink:href="#XMLID_4_"  style="overflow:visible;fill:none;stroke:#D1D2D4;stroke-miterlimit:10;"/>
	</g>
	<path class="st1" d="M102.3,47.9c0.3-2.4-0.4-5-2-7.2c-4.3-5.7-12.1-9-19-10.1c-0.2-3.4-1.6-6.7-4-9.5c-4.5-5.2-11.4-7-18-7.4
		C47.8,12.9,29.6,16.1,30,30.2c-9.1,1.3-18.9,5.6-23.3,13.6c-6.1,11.1,5.7,19.6,14.4,23.6c-0.2,3,0.4,6.1,1.8,8.9
		c3.9,7.2,12.3,10.7,20.2,10.5c2.2-0.1,4.4-0.4,6.6-0.8c3-0.7,6.3-2.6,9.4-1.3c3.5,1.4,5.5,3.2,9.6,2.6c7.9-1.2,12.3-7.6,15.5-14.3
		c7.6,2.8,16.7,0.8,21.2-6.4C109.6,60.1,108.2,51.9,102.3,47.9z M99.9,65.5c-3.6,3.8-9.3,4.6-14.1,2.7c-0.4-2.2-3.5-3.5-4.5-1
		c-2.5,5.9-5.6,13.4-12.6,15c-3.9,0.9-5.7-1.5-9-2.9c-2.6-1.1-4.8-0.1-7.3,0.8c-6.8,2.2-14.8,3-21-1.4c-6-4.2-7.7-12.7-1.8-17.8
		c2.4-2.1-1.1-5.6-3.5-3.5c-1.7,1.5-3,3.3-3.8,5.2c-7.4-3.7-17.1-10.6-9.1-19C18,38.4,25,35.7,32,35c0.5,0.1,1,0,1.5-0.1
		c1-0.1,2-0.1,2.9-0.1c3.2,0,3.2-5,0-5c-0.5,0-1,0-1.5,0c-0.2-10.3,15-11.5,22.7-11.1c8.1,0.4,23,5.5,18,16.6
		c-1.3,2.9,3,5.5,4.3,2.5c0.3-0.7,0.6-1.4,0.8-2.1c3.6,0.7,7,1.8,10.2,3.7c1.5,0.9,3.1,2,4.3,3.2c0.8,0.8,1.8,2.3,2.1,3.8
		c-1.1,0.4-1.6,1.7-1.4,2.9c-0.1,0-0.2,0.1-0.3,0.1c-3.1,1-1.8,5.8,1.3,4.8c1.2-0.4,2.2-1,3-1.8C104,55.5,103.5,61.8,99.9,65.5z"/>
</g>
</svg>
