<?xml version="1.0" encoding="utf-8"?>
<!-- Generator: Adobe Illustrator 18.1.0, SVG Export Plug-In . SVG Version: 6.00 Build 0)  -->
<svg version="1.1" id="Layer_1" xmlns="http://www.w3.org/2000/svg" xmlns:xlink="http://www.w3.org/1999/xlink" x="0px" y="0px"
	 viewBox="0 0 826.2 381.8" style="enable-background:new 0 0 826.2 381.8;" xml:space="preserve">
<style type="text/css">
	.st0{clip-path:url(#XMLID_3_);}
	.st1{fill:#D1D2D4;}
	.st2{clip-path:url(#XMLID_3_);fill:#D1D2D4;}
	.st3{fill:#424142;}
</style>
<g>
	<g>
		<defs>
			<path id="XMLID_2_" d="M804.3,237.2c-0.7-16.5-13.4-30.5-30.5-30.5c-3.3,0-6.5,0.6-9.6,1.7c-0.4-0.5-0.8-1-1.3-1.4
				c-5.9-6.4-13.4-11.4-21.5-14.9c0-6.2-1.7-12.4-5.6-17.9c-9.5-13.5-26.1-21-42.8-24.1c-1.8-5.2-4.3-10.2-7.7-14.5
				c-12.2-15.8-31-19.8-49.8-17.1c-1.8-7.6-4.3-15.1-7.6-22.5c-11.9-26.7-34.5-47.8-60.3-60.9C520.3,11.3,463.3,8.5,411.3,19.3
				c-16.5-6.9-34.6-7.1-52.3-5.6c-19.7,1.6-38.5,4.2-56.5,12.9c-14.3,6.9-25.7,19.1-34.9,32.1c-11.7,0.6-23.3,3.1-34.4,7.8
				c-8.7,3.7-17.5,8.5-24.3,15.1c-4,3.9-6.6,8.5-7.7,13.4c-13.9,1.8-27.2,5.8-40,11.9c-16.3,7.7-31.3,19.1-37.8,36.4
				c-1.5,4-2.6,8.3-3.3,12.7c-1.9,0.4-3.7,1.1-5.4,2c-3.8,1.2-7.1,3.3-9.8,6.3c-0.7,0.7-1.4,1.4-2.1,2.2c-4.5-2.9-9.9-4.5-15.8-4.5
				c-7,0-14,2.7-19.4,7.2c-0.3,0.1-0.5,0.2-0.8,0.3c-3.5-1.4-7.3-2.2-11.4-2.2c-11.9,0-23.5,7.9-28.3,18.7
				c-10.5,5-18.5,16.1-18,27.8c0.7,15.1,10.6,26.8,24.7,29.8c5.2,5.4,11.5,9.7,18.8,12.8c12.8,5.4,26.2,5.5,39.7,3.8
				c6-0.8,11.2-1.8,15.9-4.6c3.2,1,6.5,1.9,9.7,2.4c4.4,0.7,8.8,1.2,13.2,1.4c1.3,4.7,3.8,9.1,7.5,12.9c7.1,7.3,15.5,12.1,25,15.4
				c9.5,3.3,18.7,2.7,28.3,1.4c10,6.4,20.9,11.5,31.1,15.8c16,6.7,33.2,11,50.6,10.3c4.3,5.5,9.1,10.5,14,14.8
				c29.8,25.5,68.1,33.3,106.3,27.3c13.6-2.1,29.2-6,42-13.5c17,9,34.9,16.3,53.9,19.8c16.9,3.1,35.1,3.9,51.6-2
				c9-3.2,16.7-7.9,23.1-13.9c2.5,2.2,5.1,4.4,7.9,6.4c12.8,9.3,29.6,14,45.3,13.8c24.1-0.3,49.8-12.6,63.5-32.5
				c12.5-3.8,24.4-8.7,34.8-16.8c2.5,0.7,5,1,7.6,0.8c11.8-1,21.9-4.2,31.3-11.5c9.3-7.2,15-16,19-27c1.4-3.9,1.4-8.6,0.6-13.1
				C790.3,267.2,805,253.4,804.3,237.2z"/>
		</defs>
		<use xlink:href="#XMLID_2_"  style="overflow:visible;fill:#FFFFFF;"/>
		<clipPath id="XMLID_3_">
			<use xlink:href="#XMLID_2_"  style="overflow:visible;"/>
		</clipPath>
		<g class="st0">
			<path class="st1" d="M30.3,209.8C30.4,209.7,30.4,209.7,30.3,209.8C30.4,209.7,30.4,209.7,30.3,209.8
				C30.3,209.8,30.3,209.8,30.3,209.8z"/>
			<g>
				<path class="st1" d="M713.4,239.4c0.1,0,0.3,0,0.5,0c0,0,0,0,0,0C713.8,239.5,713.6,239.4,713.4,239.4z"/>
				<path class="st1" d="M782.3,203.6c-4.7-2.3-10.5-2.6-15.2-0.5c-6.1-6-12.9-11.1-20.4-15.2c-8-18.7-27.7-33.3-48.3-37.6
					c0.7-4.7-0.6-9.7-4.5-12.9c-14.9-12.4-34-19.4-53.4-18.3c-0.6-1-1.4-2-2.3-2.9c-1.8-1.8-3.6-3.6-5.2-5.6
					c-0.1-0.1-0.1-0.2-0.2-0.2c-0.1-0.1-0.2-0.3-0.4-0.6c-0.7-0.9-1.3-1.9-1.9-2.8c-3-4.5-5.7-9.2-8.6-13.8
					c-5.1-8.1-11-15.9-17.3-23.2c-12.3-14.1-27.3-26.4-43.4-35.9c-36.2-21.5-78.4-28.4-120-23.8c-0.8,0.1-1.6,0.2-2.3,0.3
					c-1.6-3.2-4.1-6.2-7.4-8.5c-13.6-9.6-31-11.3-47.2-11.5c-14.7-0.2-29.6,1.3-44,4.2c-28.4,5.8-55.6,19-76,39.8
					c-1.1,1.1-2,2.4-2.8,3.8c-21.2,1.1-41.3,10.2-58,23.2c-8,6.3-15,13.4-21.3,21.4c-1.1,1.4-2.2,2.7-3.2,4.1
					c-18.6,1.7-37.2,12.3-51,23.4c-8.3,6.7-16.2,15.5-21.9,25.4c-1.5,0-3,0.3-4.5,0.7c-13.5,4.1-27,8.2-40.5,12.3
					c-12.5,3.8-25.2,7.8-36.6,14.3c-15,8.7-28.1,24.2-32.2,41.4c-3.5-2.4-7.2-4.3-11.5-5.5c-9.5-2.8-21.1,3.3-23.4,13.3
					c-2.3,10.1,3,20.4,13.3,23.4c0.1,0,0.1,0,0.2,0.1c0.3,0.2,0.5,0.3,0.8,0.5c3.6,3.6-2.7-2.7,1,0.9c2.3,2.2,4.7,4.4,7.2,6.4
					c5.5,4.5,11.3,8.7,17.6,12.2c12.4,6.9,25.9,11.9,39.5,15.6c22.2,6.1,47.5,10.9,68.8,2.5c0.7,1.1,1.6,2.2,2.7,3.2
					c12.1,11,25.6,22.4,40.4,29.7c16.7,8.2,33.3,7.6,50.9,5c15.3,17.3,43.8,18.2,66.3,15.7c1-0.1,2.1-0.2,3.1-0.4
					c20.7,26,52.6,38.1,85.6,38.5c18.7,0.2,37.8-2.9,55.9-7.6c5.3-1.4,10.6-3,15.8-5c1.9,3.7,5.3,6.6,9.8,8.1
					c44,15.1,93.2,15.5,137.4,1c8.3,8.9,20.5,13.9,33.3,14.3c18,0.6,36.7-6.6,52.7-14.1c7.3-3.4,14.3-7.5,20.9-12
					c4-2.7,7.8-5.7,11.5-8.7c1.5-1.2,3-2.5,4.5-3.7c0.4-0.3,0.7-0.5,0.9-0.7c0.6-0.4,1.2-0.9,1.8-1.3c1.3-0.8,2.5-1.6,3.9-2.3
					c-0.4,0.3,2.5-0.8,3.1-1c3.1-0.9,6.3-1.6,9.4-2.5c3.6-1,7.2-2.3,10.6-4c4.4,1.9,9.6,1.8,14.2-0.8c13.1-7.2,24.4-17.5,29.5-31.8
					c2.4-6.8,2.8-14.3,2.5-21.5c0.6,0.4,1.3,0.8,2,1.2c0.7,0.6,1.4,1.1,2.2,1.5c8.4,4.4,16.5,1.5,21.9-5.7
					C814.3,247.6,806,215.3,782.3,203.6z M714,295.4c-0.5,0.6-1,1.2-1.6,1.8c-0.1,0-0.6,0.3-1.2,0.6c-0.5,0.2-1.7,0.8-2.2,0.9
					c-1.3,0.4-2.6,0.8-4,1.1c-6.4,1.7-12.6,3.3-18.5,6.4c-6.5,3.4-11.8,8.6-17.5,13c0,0-2.4,1.8-2.7,2c-1.4,1-2.8,2-4.3,2.9
					c-3.1,2.1-6.3,4-9.6,5.8c-11.8,6.6-22.4,10.9-36.6,13.8c-4.7,0.9-10,1.3-15.3-0.5c-0.5-0.3-1.1-0.6-1.6-0.9
					c-0.4-0.2-0.9-0.5-1.3-0.8c0,0,0,0-0.1-0.1c-0.5-0.4-1-0.9-1.4-1.4c-0.2-0.4-0.4-0.7-0.6-1.1c0-0.1-0.1-0.3-0.1-0.4
					c-2.4-7.6-11.3-14.4-19.7-11.2c-11,4.3-22.2,7.6-33.8,10c-2.6,0.5-5.2,1-7.8,1.4c-0.5,0.1-2.3,0.4-2.5,0.4
					c-1.2,0.2-2.5,0.3-3.7,0.4c-5.8,0.6-11.7,1-17.6,1.1c-5.6,0.1-11.2,0-16.7-0.3c-2.9-0.2-5.9-0.4-8.8-0.7c-0.3,0-2.4-0.3-3.1-0.4
					c-0.6-0.1-3.1-0.5-3.1-0.5c-6.9-1.1-13.8-2.6-20.6-4.4c14.5-12.7,24.2-32.1,23.2-51.6c-0.4-8.3-7-16.4-16-16
					c-8.3,0.4-16.5,7-16,16c0.1,1.8,0.1,3.5,0,5.3c-0.1-0.6-0.6,3.6-0.8,4.2c-0.1,0.5-1.7,4.8-1.3,4.1c-0.8,1.7-1.7,3.3-2.6,4.9
					c-0.2,0.4-2.6,3.7-2.4,3.7c-1.2,1.5-2.5,2.9-3.8,4.2c-1.4,1.4-2.8,2.7-4.3,3.9c0.1-0.1-3.5,2.4-4,2.7c-14.2,9-32.3,13.1-50.4,16
					c-16.2,2.6-35.4,2.8-51.8-2.2c-2-0.6-3.9-1.2-5.8-2c-0.7-0.2-1.3-0.5-2-0.8c-0.2-0.1-0.6-0.3-1.3-0.6c-3.7-1.9-7.3-3.7-10.7-6
					c-0.4-0.2-3.6-2.6-3.5-2.5c-0.1-0.1-0.3-0.2-0.4-0.3c16.9-7.7,30-20.5,25.8-41c-1.7-8.2-11.8-13.7-19.7-11.2
					c-8.1,2.6-12.4,9.8-11.5,17.9c0,0,0,0,0,0c-0.7,0.8-1.4,1.5-2.2,2.2c-0.1,0-0.1,0.1-0.1,0.1c-0.1,0.1-0.2,0.1-0.3,0.2
					c-0.9,0.5-1.7,1.1-2.6,1.6c-1.2,0.7-2.5,1.3-3.8,1.9c-0.2,0.1-1,0.4-1.3,0.6c-4.4,1.7-9,3-13.7,4.1c-5.7,1.3-7,1.4-12.1,1.9
					c-4.6,0.4-9.3,0.6-13.9,0.7c-2.7,0-5.4,0-8.1-0.1c-1.2-0.1-2.4-0.1-3.6-0.3c-0.2,0-0.4,0-0.5,0c-0.1,0-0.3-0.1-0.6-0.1
					c-2.4-0.5-4.8-1-7.1-1.9c0.4,0.1-0.8-0.6-1.9-1.2c3.5-4.2,6.6-8.7,9.1-13.6c4.6-8.8,2.6-21-6.8-26c-8.7-4.6-21.1-2.6-26,6.8
					c-1,2-2.1,3.9-3.3,5.7c-0.4,0.6-0.8,1.3-1.3,1.9c-0.2,0.2-0.6,0.6-1.1,1.2c-1.5,1.6-3,3.2-4.7,4.7c-0.2,0.2-0.5,0.4-0.7,0.7
					c-0.1,0-0.3,0.2-0.6,0.4c-0.1,0-0.1,0.1-0.2,0.1c-0.7,0.1-1.3,0.2-2,0.3c-0.2,0-0.5,0.1-0.7,0.1c-0.2,0-0.4,0-0.7,0.1
					c-3.4,0.2-6.7,0.6-10.1,0.5c-0.3,0-3.8-0.4-3.5-0.2c-1.1-0.2-2.1-0.5-3.2-0.8c-0.9-0.3-2.5-0.9-2.3-0.7c-1.3-0.6-2.5-1.3-3.7-2
					c-5.8-3.3-11.2-7.2-16.5-11.1c-0.3-0.2-0.6-0.5-0.9-0.7c-0.1-0.1-0.2-0.1-0.3-0.2c-1.2-1-2.4-1.9-3.5-2.9
					c-2.8-2.3-5.6-4.7-8.3-7.2c-1.6-1.5-3.4-2.6-5.4-3.5c-0.3-4.4-2.1-8.8-5.4-11.8c-7.6-7-19.3-7.5-26.9,0
					c-0.7,0.7-4.2,3.1-0.9,1.1c-1.1,0.7-2.2,1.4-3.3,2.1c-0.6,0.3-1.2,0.6-1.5,0.7c-1.2,0.4-2.3,0.8-3.5,1.1
					c-1.3,0.3-2.5,0.5-3.8,0.8c-0.2,0-0.3,0-0.6,0c-3.1,0.1-6.2,0.2-9.4-0.1c-0.2,0-3.9-0.5-3.6-0.4c-1.2-0.2-2.3-0.4-3.5-0.6
					c-3.3-0.6-6.6-1.4-9.9-2.1c-5.7-1.3-11.4-2.8-17-4.6c-2.7-0.8-5.3-1.7-8-2.6c-0.4-0.1-0.8-0.3-1.2-0.4c0.5-2.7,0.4-5.4-0.7-8.2
					c-0.4-1.1-0.9-2.2-1.2-3.4c0,0,0-0.1,0-0.1c0.1-0.4-0.1-2.8-0.2-4.2c0.1-0.3,0.1-0.6,0.2-1c0.3-1.1,0.6-2.1,1-3.2
					c0,0.1-0.1,0.1-0.1,0.2c0-0.1,0.1-0.2,0.1-0.2c0-0.1,0.1-0.2,0.1-0.3c0.7-2,0.6-0.9,0,0.2c0.6-0.9,1-2,1.6-2.9
					c0.5-0.9,1.1-1.8,1.7-2.6c0,0,0-0.1,0.1-0.1c1.5-1.6,3.2-3.1,4.8-4.7c0.1-0.1,0.1-0.1,0.2-0.2c0.2-0.1,0.3-0.2,0.6-0.4
					c0.9-0.6,1.8-1.2,2.8-1.8c2.4-1.4,4.8-2.7,7.3-3.9c0.6-0.3,1.3-0.6,1.9-0.9c0.3-0.1,1.2-0.5,2-0.8c2.4-0.9,4.7-1.7,7.1-2.5
					c5.1-1.7,10.2-3.2,15.3-4.7c7.7-2.3,15.3-4.7,23-7c0.8,2.9,2.1,5.6,4.6,8c3.3,3.3,8.7,5.8,13.4,5.6c9.2-0.4,20.4-8.4,19-19
					c-0.3-2.2-0.3-4.4-0.4-6.6c0-0.3,0-0.6,0.1-0.9c0.2-0.7,0.3-1.5,0.5-2.2c0.1-0.4,1.1-3.1,1.4-4c0.5-1,1.7-3.3,1.9-3.7
					c0.9-1.6,1.9-3.1,3-4.6c-0.2,0.4,2.6-3.1,3.1-3.6c2.6-2.8,5.4-5.3,8.2-7.8c0.2-0.2,0.4-0.3,0.6-0.4c0.7-0.5,1.3-1,2-1.5
					c1.3-0.9,2.7-1.8,4.1-2.6c1.8-1.1,3.7-2.2,5.6-3.2c0.3-0.1,1.4-0.7,2.4-1.1c3.1,6,8.8,10.5,16.4,10.2c8.9-0.4,19-7.6,19.1-17.4
					c3.5-2.5,6.2-6,7.2-10.3c0.4-1.7,0.5-3.4,0.5-5.1c0.3-0.4,0.6-0.7,0.9-1.1c2.5-3,5.2-5.9,8-8.7c1.6-1.6,3.2-3.1,4.9-4.6
					c0.5-0.4,4.2-3.3,3.7-3c3.4-2.4,6.8-4.7,10.5-6.6c1.5-0.8,3.1-1.6,4.7-2.3c-3.5,1.7,2.9-1.1,3.6-1.3c2.2-0.7,4.4-1.4,6.7-1.9
					c0.6-0.1,4.9-0.9,4.9-1c4.1-0.4,8.3-0.4,12.5-0.1c8.2,0.6,16.1-6.1,18.4-14c0.4-0.3,0.8-0.7,1.1-1.1c2.2-2.2,4.4-4.4,6.7-6.4
					c1.2-1,2.4-2,3.5-3c-3.4,2.8,0.5-0.4,1.1-0.7c4.8-3.4,9.8-6.4,15.1-9.1c1.4-0.7,2.8-1.4,4.2-2c0.3-0.2,2.5-1.1,3.2-1.4
					c0.7-0.3,1.3-0.5,1.5-0.6c1.4-0.5,2.9-1.1,4.4-1.6c5.9-2,11.9-3.7,18-5c3.1-0.7,6.2-1.2,9.2-1.7c0.2,0,0.4-0.1,0.5-0.1
					c1.5-0.2,3-0.4,4.6-0.5c4.1-0.4,8.3-0.7,12.4-0.8c-1.8,1-3.5,2-5.2,3.1c-7,4.5-10.6,14.4-5.7,21.9c4.5,7,14.3,10.6,21.9,5.7
					c3.9-2.5,7.9-4.7,12-6.6c1.6-0.7,1.6-0.7,4.1-1.7c2.7-1,5.4-1.9,8.2-2.7c8.7-2.6,17.7-4.4,26.7-5.6c0.2,0,1.8-0.2,1.8-0.2
					c1.2-0.1,2.5-0.3,3.7-0.4c2.5-0.3,5-0.5,7.5-0.7c5.6-0.4,11.3-0.6,16.9-0.6c9.7,0,19.3,0.8,27.5,2.3c8.8,1.6,17.5,4,25.9,7
					c1.7,0.6,3.5,1.3,5.2,2c-1-0.4,3.4,1.5,3.8,1.7c4,1.8,7.9,3.8,11.7,6c3.4,1.9,6.7,3.9,9.9,6c1.7,1.1,3.4,2.3,5.1,3.5
					c0.8,0.6,1.7,1.2,2.5,1.8c0.4,0.3,0.7,0.5,0.9,0.6c0.2,0.2,0.4,0.4,0.8,0.6c6.6,5.3,12.8,11.1,18.6,17.4
					c1.6,1.7,3.1,3.4,4.6,5.2c0.7,0.8,1.3,1.6,2,2.4c0.3,0.4,0.5,0.6,0.7,0.8c0.1,0.2,0.3,0.5,0.6,0.8c2.8,3.8,5.5,7.7,8,11.8
					c3.7,6,7.4,12.1,11.6,17.8c-10.5,5.8-19.1,14.2-22.9,25.9c-2.6,8,3,17.8,11.2,19.7c8.8,2,16.9-2.7,19.7-11.2
					c-0.8,1.5-0.8,1.4,0.1-0.2c0.2-0.3,0.3-0.5,0.4-0.7c0.6-0.6,1.2-1.2,1.8-1.8c1-0.8,1.4-1.2,1.1-1c0.1-0.1,0.2-0.1,0.3-0.2
					c0.8-0.6,1.6-1.1,2.4-1.6c1.6-1,3.3-1.9,5-2.8c0.3-0.2,0.5-0.3,0.7-0.4c0.2-0.1,0.4-0.1,0.7-0.2c1.8-0.6,3.6-1.2,5.5-1.7
					c1.4-0.4,2.8-0.6,4.2-0.9c0.4-0.1,0.6-0.1,0.9-0.1c0.7-0.1,1.3-0.1,2-0.2c3.4-0.2,6.7-0.1,10.1,0.1c0.2,0,0.3,0,0.5,0
					c0.8,0.1,1.6,0.3,2.4,0.4c1.4,0.3,2.8,0.6,4.2,1c1.4,0.4,2.9,0.9,4.3,1.4c0.1,0.1,1.4,0.6,2.1,0.9c-5.2,3.9-8.5,10.1-6.3,16.9
					c2.4,7.5,11.4,14.5,19.7,11.2c1.4-0.6,2.8-1.1,4.3-1.5c0.7-0.2,2.9-0.5,2.7-0.6c1.1-0.1,2.3-0.1,3.4-0.1c0.3,0,3.3,0.4,2.9,0.2
					c2.6,0.5,5.2,1.2,7.8,2.1c0.4,0.1,0.6,0.2,0.9,0.3c0.2,0.1,0.5,0.3,1,0.6c1.4,0.7,2.8,1.4,4.1,2.3c1.3,0.8,2.6,1.7,3.9,2.6
					c0.4,0.3,0.7,0.5,0.8,0.5c0.1,0.2,0.4,0.4,0.8,0.8c1.1,1.1,2.4,2.1,3.5,3.3c0.2,0.3,2,2.3,2.2,2.4c0.8,1.1,1.5,2.4,2.3,3.5
					c0.3,0.5,0.5,1,0.8,1.4c-0.4-1.1-0.4-1.2,0-0.2c0.1,0.4,0.6,2,0.8,2.9c-0.2,0.8-0.3,4.6,0.2,1.7c-0.2,0.9-0.3,1.8-0.3,2.7
					c-6.7-1-13.5-0.8-20.3,0.5c-8.2,1.6-13.7,11.9-11.2,19.7c2.8,8.7,10.9,12.9,19.7,11.2c0.4-0.1,0.6-0.1,0.8-0.2
					c0.9,0,1.9-0.1,2.8-0.1c1,0,2,0.1,3,0.1c-0.9-0.1-0.7-0.2,0.5,0c0,0,0.1,0,0.1,0c0,0-0.1,0-0.1,0c0,0,0.1,0,0.1,0
					c2.4,0.5,4.7,1.1,6.9,1.9c1.3,0.4,1.6,0.8,0.2,0.1c1.1,0.5,2.2,1.1,3.2,1.7c1.1,0.6,2.1,1.3,3.1,1.9c0.4,0.3,0.7,0.5,0.9,0.6
					c1.5,1.2,2.9,2.6,4.3,4c0.8,0.8,1.6,1.7,2.3,2.6c0.1,0.1,0.2,0.3,0.3,0.4c1.3,1.9,2.6,4,3.6,6.1c-0.4-0.6,0.7,3.6,0.9,4.2
					c0,0.6,0.2,1.9,0.2,2.1c0.1,1.5,0.2,2.9,0.3,4.4c0.2,2.8,0.3,5.6,0.2,8.4c0,0.3-0.2,2.9-0.1,2.6c-0.2,1.1-0.5,2.1-0.8,3.2
					c-0.1,0.3-0.1,0.5-0.2,0.6c-0.1,0.1-0.1,0.2-0.3,0.4c-0.6,1.1-1.2,2.1-1.9,3.2c-0.1,0.1-0.2,0.2-0.3,0.4
					c-0.9,0.9-1.7,1.9-2.7,2.7c-0.6,0.6-1.2,1.1-1.8,1.6C726.4,289.7,718.4,289.9,714,295.4z"/>
			</g>
		</g>
		<path class="st2" d="M511.9,111c-25.7-19.1-60-24.8-91.3-21c-15.7,1.9-30.8,5.8-45.5,10.9c-18.6,4.1-36.5,11.2-51.8,22.5
			c-1.1,0.6-2.3,1.1-3.4,1.7c-2.6,1.3-4.6,3.5-5.9,6c-2.4,2.3-4.8,4.7-7.1,7.2c-13.1,14.8-21,31.9-23.5,51.5c-1,8.3,8.1,16.4,16,16
			c9.6-0.4,14.9-7.1,16-16c-0.4,3.1,0.3-1.2,0.5-2.1c0.3-1.4,0.7-2.8,1-4.2c0.5-1.6,1-3.2,1.5-4.7c0-0.1,0.1-0.3,0.2-0.5
			c0.2-0.5,0.6-1.4,0.7-1.6c1.3-2.8,2.8-5.5,4.5-8.1c0.9-1.4,1.9-2.8,2.8-4.2c0.1-0.2,0.2-0.3,0.2-0.4c0.6-0.7,1.1-1.4,1.7-2.1
			c2-2.4,4.2-4.7,6.5-6.8c1.1-1,2.1-2,3.2-2.9c0.3-0.3,1.4-1.1,2.2-1.8c12.4-6.1,24.8-12,36.7-16.5c2.2-0.8,4.4-1.6,6.6-2.4
			c1.2-0.2,2.4-0.5,3.6-0.7c5.2-0.9,6.1-1,11.1-1.5c16.5-1.5,33.2-1.1,49.7-0.1c4.5,0.3,9,0.6,13.5,0.9c2.3,0.2,4.6,0.4,6.9,0.6
			c0.6,0.1,4.2,0.5,3.9,0.5c4.4,0.7,8.7,1.6,13,2.9c1.2,0.4,4.5,1.5,4.5,1.5c0.6,0.3,4.1,2.1,5.7,3c7.2,4.2,17.9,1.9,21.9-5.7
			C522,124.5,519.1,116.3,511.9,111z"/>
		<use xlink:href="#XMLID_2_"  style="overflow:visible;fill:none;stroke:#D1D2D4;stroke-miterlimit:10;"/>
	</g>
</g>
<path class="st3" d="M500.6,115.7c-27.4-23.3-64.9-27.1-99.5-23.4c-36.3,3.9-76.9,13.9-100.9,43.5c-12.4,15.3-19.8,34.8-17.2,54.6
	c0.4,3.1,5.4,3.2,5,0c-4.9-36.8,23.8-66.4,55.5-79.6c16.6-6.9,34.5-10.7,52.2-13c16.7-2.2,33.8-2.8,50.5-0.4
	c18.6,2.7,36.5,9.4,50.9,21.6C499.5,121.3,503,117.7,500.6,115.7z"/>
<path class="st3" d="M805.9,230.5c-4.2-19.6-24.3-30.3-43.1-25.8c-4.4-6-11-10.2-18.5-11.7c-3.1-0.6-4.5,4.2-1.3,4.8
	c8.5,1.7,15.3,7.2,18.8,15.2c1.3,2.9,5.6,0.4,4.3-2.5c-0.2-0.4-0.4-0.8-0.6-1.2c15.3-2.9,31.1,5.4,35.2,21.1
	c4.2,16-6.7,32.4-23.4,34c-0.1,0-0.1,0-0.2,0c-1.5-13.5-8.3-26.2-18.5-35.4c-15.5-14.1-36.9-19.4-57.4-18.9c-3.2,0.1-3.2,5.1,0,5
	c18.7-0.5,38.2,4,52.7,16.4c13.3,11.5,21.2,29.5,17.7,47.1c-0.2,1.3,0.4,2.2,1.2,2.7c-9.2,21.1-29.7,35.4-53.4,36.1
	c1.5-2.4-1.8-5.6-3.7-3.2c-6.8,8.4-16.5,13.3-27,13.8c4.2-6.9,6.7-15,6.7-24.2c0-3.2-5-3.2-5,0c0,9.3-2.8,17.3-7.5,24.1
	c-1.4,0.1-2,1.3-1.9,2.5c-10.6,13.4-28.3,21.9-44.1,27.2c-13.8,4.7-28.8,9-43.5,6.3c-10.7-1.9-20.5-7.6-26.1-16.9
	c0.2-0.4,0.4-0.9,0.6-1.3c1.1-2.4-1.8-4.6-3.5-3.5c-1.7-1-4.5,1.2-3.4,3.6c0.2,0.4,0.4,0.8,0.6,1.2c-11.7,19-39.1,15.5-58.4,13.5
	c-12-1.3-24.3-1.9-36.3-4c-10.4-1.9-21.6-6.8-23.7-18.3c-0.5-2.8-4.5-2-4.8,0.4c-26.2,15.4-57.7,21.6-87.8,16.2
	c-28.4-5-54.4-19.6-73.8-40.9c4.7-1.4,9.3-3.4,13.5-5.9c3.7-2.2,8.7-5.1,9.9-9.6c0.8-3.1-4.1-4.5-4.8-1.3c-1,3.9-8.4,7.2-11.8,8.9
	c-4.1,2-8.5,3.5-13,4.5c-9.8,2.2-20.1,2-29.9,0.3c-9.6-1.7-18.9-4.7-27.9-8.5c-6.6-2.8-13.5-6.4-17.6-12.3c1.8-0.4,3.5-1,5.3-1.7
	c8-3.2,14.6-8.9,19.2-16.2c1.7-2.7-2.6-5.2-4.3-2.5c-5.8,9.1-13.9,13.8-23,15.5c-1.3-1.2-3.6-0.8-4.2,0.6c-5.9,0.5-12,0-18.1-1.2
	c-15.2-3.1-29.7-10.7-37.2-24.6c0.1-0.9-0.4-2-1.2-2.5c-0.1-0.3-0.2-0.5-0.4-0.8c-1-2.4-4-1.2-4.5,0.9c-6.9,0.7-13.6-1.5-18.8-6
	c1.5-2.1-1.5-5-3.6-3.3c-1.5-0.5-3.2,0.9-3.2,2.6c-9.4,6.9-21.7,7.5-33.1,5.6c-12.1-2-25-5.6-35.7-11.8
	c-10.1-5.8-18.9-15.3-20.8-27.2c-1.6-10.2,3.3-21.2,12.8-25.4c1.4,0.6,3.2,0.1,3.5-1.5c1-0.9,0.9-2.6,0.1-3.6
	c1.3-13,16.5-15.7,28.4-15.3c-1.7,2.1,0.6,5.7,3,3.9c9.4-7.2,21-10.5,32.6-9.2c-3.8,4-6.1,9.1-6.1,15.6c0,3.2,5,3.2,5,0
	c-0.1-6.4,2.8-11,7.1-14.5c1.5,0.3,2.6-0.8,2.9-2.1c4.7-3,10.4-5,15.6-6.5c-0.1,3,0,6,0.4,9c0.5,3.2,5.3,1.8,4.8-1.3
	c-2.8-19,8.6-37.3,23.5-48.1C159.4,108,176.4,103,193.3,99c-1.5,4.6-2.2,9.5-2,14.8c0.1,3.2,5.1,3.2,5,0c-0.2-6,0.9-11.5,3-16.4
	c0.6-0.4,0.9-1.1,0.8-1.8c10.7-21.4,41.3-32.1,64.8-32.4c0.8,2.1,4.1,2.1,4.7,0.1c0.3,0,0.6,0,0.9,0c3.2,0.2,3.2-4.8,0-5
	c-0.1,0-0.3,0-0.4,0c2.7-9.7,17.4-15.9,25.2-19.9c11.6-5.9,23.8-10.4,36.4-13.6c22-5.6,44.9-6.8,67.4-3.7
	c-13.8,4.1-26.3,11.4-32,25.9c-1.2,3,3.7,4.3,4.8,1.3c8.1-20.6,32.7-24.4,51.9-27c22.6-3,45.5-5.4,68.4-4
	C532.7,20,572.6,37,601,66.2c13.9,14.3,24.6,31.8,28.7,51.4c-7.8,1.2-15.5,3.4-22.3,6.6c-5.2,2.5-8.7,6.9-12.4,11.1
	c-3.3,3.8-8.1,7.5-8.6,12.8c-0.3,3.2,4.7,3.2,5,0c0.2-2.5,3.7-5.4,5.2-7.2c1.8-2.1,3.6-4.1,5.4-6.2c3.3-3.7,6.7-6.1,11.4-7.7
	c5.5-1.9,11.2-3.4,17-4.4c0,0.1,0,0.1,0,0.2c0.4,3,4.8,1.9,4.8-0.9c3.2-0.4,6.3-0.6,9.5-0.5c18.4,0.2,37.7,9,45,26.8
	c-6.1,0.4-12.3,1.4-18.2,2.7c-3.1,0.7-1.8,5.5,1.3,4.8c15.3-3.4,32.3-4.9,46.3,3.6c14.1,8.5,16.3,23.2,16.9,38.4
	c0.1,3.2,5.1,3.2,5,0c-0.7-16.5-3.3-32.3-18.1-42c-8.5-5.6-18.2-7.6-28.1-7.7c0-0.3,0-0.6-0.2-0.9c-8.3-20.8-30.2-31-51.7-30.7
	c-2.8,0-5.6,0.2-8.5,0.5c-7.5-39-40.3-69.3-74.6-86.5c-19.4-9.7-40.4-15.6-62-17.6c-25.4-2.4-51,0.4-76.2,3.8
	c-3.7,0.5-7.5,1.1-11.3,1.8c-0.3-0.3-0.7-0.5-1.2-0.6c-27.8-5.3-56.6-4.1-83.8,3.6c-13.4,3.8-26.5,9.1-38.6,15.9
	c-8.3,4.6-20,10.8-22,20.9c-25.3,0.2-57.6,12-69.3,35.1c-20.2,4.6-41,10.4-57.2,23.9c-11.1,9.2-19.3,22.1-21.5,36.1
	c-6.7,1.9-14.1,4.6-20,8.7c-11.8-2.4-23.9-0.5-34.3,5.3c-0.3-0.2-0.6-0.3-1-0.3c-9.4-1.1-19.7-1.4-28,3.8c-5.8,3.7-10,9.5-10.6,16.3
	c-9.8,4.1-16.1,14.1-16.7,24.8c-0.7,13.3,7.6,25.6,17.9,33.2c12.5,9.3,29.2,14.1,44.4,16.3c12.4,1.9,25.4,0.7,35.5-6.7
	c6.6,6.1,15.5,8.7,24.3,7.5c8.5,16.1,26,24.6,43.5,27.6c6,1,12,1.6,17.9,1c4.1,6.8,10.7,11.3,18,14.7c11,5.1,22.9,8.8,35,10.5
	c9.6,1.4,19.5,1.3,29-0.9c0.1,0.5,0.3,0.9,0.6,1.3c20.3,22.7,48.2,38.4,78.4,43.3c30.5,5,62-1,88.8-16.3c3.2,8.1,10.9,13.5,19.3,16
	c13.4,4.2,28.5,4.1,42.4,5.6c20.7,2.2,49.6,5.5,63.2-13.4c6,8.7,15.8,14.4,26.2,16.6c16,3.4,32.4-0.9,47.6-6.1
	c17.1-5.8,35.9-15.1,47.1-29.5c10.9,0.4,21.6-3.4,29.6-10.7c0.2,0,0.4,0.1,0.6,0.1c32.5,1.2,61-21.8,66.5-53.9
	C798.7,264.5,809.6,247.9,805.9,230.5z"/>
</svg>
