<?xml version="1.0" encoding="utf-8"?>
<!-- Generator: Adobe Illustrator 18.1.0, SVG Export Plug-In . SVG Version: 6.00 Build 0)  -->
<svg version="1.1" id="Layer_1" xmlns="http://www.w3.org/2000/svg" xmlns:xlink="http://www.w3.org/1999/xlink" x="0px" y="0px"
	 viewBox="0 0 655 258" style="enable-background:new 0 0 655 258;" xml:space="preserve">
<style type="text/css">
	.st0{clip-path:url(#SVGID_2_);}
	.st1{fill:#D1D2D4;}
	.st2{clip-path:url(#SVGID_2_);fill:#D1D2D4;}
	.st3{fill:#424142;}
</style>
<g>
	<g>
		<defs>
			<path id="SVGID_1_" d="M646.3,128.3c-0.4-9.5-7.7-17.4-17.4-17.4c-3,0-6,0.9-8.6,2.4c-2.7-2.1-6.1-3.3-9.8-3.4
				c-1.4-1.7-3.1-3.3-5.1-4.6c-5.1-3.3-10.5-4.2-15.9-3.6c-7.8-14.8-26-23.4-42.7-25.1c-8.5-8.8-19.8-14.8-32-16.2
				c-0.2-0.5-0.4-1-0.5-1.6c-5.4-14.4-15.8-26.9-29.8-33.7c-15.5-7.6-32.5-9.4-49.5-6.8c-6.8,1-13.8,3.3-20.1,6.8
				c-7.5-5.1-16-8.6-25.1-10.1c-17-2.8-34.5-1.1-50.6,5c0,0,0,0,0,0c-10.1-2.5-21-1.8-31.7,0.3c-15.1,3-30,9.1-43,17.4
				C250.6,46.6,237.2,58,229,72.3c-2.3,3.9-4.1,8-5.3,12.2c-10.9-1.2-22.1-0.6-33,0.7c-0.3-0.3-0.5-0.6-0.8-0.9
				c-15.4-15.9-40.2-10.9-57.7-1.5c-8.6,4.6-15.4,12-18.4,21.3c-0.6,1.7-1,3.4-1.2,5.1c-13.9,4.1-26.9,11.5-37.6,21.8
				c-4.4,4.2-8.7,9.2-12.4,14.6c-1.7,0.1-3.5,0.3-5.2,0.5c-7.8,0.5-15.5,1.9-22.9,4c-9.3,2.8-17.1,8.5-20.3,17.9
				c-3.4,10.2,1.1,21.3,10.2,26.9c10.1,6.2,23.2,7.2,34.9,5.6c1.4,1.7,3,3.2,4.7,4.5c3.6,13.5,13.7,25.1,26.2,31.2
				c14,6.9,29.6,8.5,45,8.5c15.1,0,30.2-1.8,44.9-4.9c12-2.5,27.4-5.4,36.7-14.3c3.7,1.4,7.5,2.7,11.2,3.9
				c17.4,5.5,35.9,10.8,54.4,11.4c17.7,5.3,37.4,4.6,55.8,1.6c19.8-3.2,39.5-10.7,55.5-22.8c10.4,2.3,21.4,3,31.6,3.1
				c11.5,0.1,22.9-1.3,33.7-5.2c22.4,9.5,50.5,3.5,69.4-11.5c8.1-6.5,14.5-15.1,18.9-24.5c11.8,3,27.2-1.6,36.9-6
				c13.5-6,25-16.9,32.2-29.8c0.5-1,1-2,1.3-3c0.3-0.2,0.6-0.3,0.9-0.5c2.8,2.1,6.3,3.4,10.2,3.4
				C637.9,145.7,646.7,137.7,646.3,128.3z"/>
		</defs>
		<use xlink:href="#SVGID_1_"  style="overflow:visible;fill:#FFFFFF;"/>
		<clipPath id="SVGID_2_">
			<use xlink:href="#SVGID_1_"  style="overflow:visible;"/>
		</clipPath>
		<g class="st0">
			<path class="st1" d="M447,34.9c1.1,0.5,2,0.4,1.4,0.2C447.9,35.1,447.4,35.1,447,34.9C447,34.9,447,34.9,447,34.9z"/>
			<path class="st1" d="M514,22c-4.1-3.6-8.8-6.8-13.6-9.5c-8.7-4.8-18.4-8.5-28.1-10.7c-9.6-2.1-19.6-3.2-29.4-2.7
				c-5.3,0.3-11.1,1.1-16.3,2.8c-2.8,0.9-5.8,2.3-8.5,3.7c-0.9,0.5-1.9,0.9-2.8,1.4L415,7.4c-5.4-3.7-12-6.3-17.8-8.2
				c-7.4-2.4-15.7-3.6-23.5-3c-8.5,0.6-16.3,2.4-24.1,5.9c-2.9,1.3-6,2.9-8.8,4.9c-0.5-0.2-0.9-0.4-1.4-0.5
				c-13.9-4.5-31.3-2.2-45.4,0.8c-12.2,2.5-24.1,7.2-35,13.3c-10.6,5.9-20.5,13.5-29,22.2c-4.5,4.6-8.3,9.6-11.9,15
				c-3.8,5.7-7.2,11.7-7.7,18.7c-0.2,3.5,1.8,6.4,4.6,7.9c-4.6,0.2-9.1,0.9-13.6,1.8c-9.5,1.9-18.7,4.8-27.5,9
				c-12,5.7-33.8,19.3-26.4,35.3c0.9,2,4.2,2.4,5.6,0.7c3.9-4.8,6.4-10.5,11-14.8c5.2-4.9,11.8-8.2,18.3-11.1
				c7.4-3.3,15-5.9,22.9-7.7c3.9-0.9,8-1.6,11.9-2.3c3.6-0.6,7.9-1.3,10.3-4.3c0.9-1.1,1-2.4,0-3.4c-1.2-1.3-2.6-2.1-4.3-2.5
				c0.3-0.2,0.7-0.3,1-0.5c5-3.2,8.4-8,12.4-12.3c3.8-4,7.9-7.7,12.1-11.3c0.9-0.8,1.8-1.5,2.7-2.3c0.1-0.1,0.2-0.2,0.3-0.2
				c0.4-0.3,0.8-0.6,1.2-0.9c2.1-1.5,4.2-2.9,6.3-4.3c4.7-3,9.6-5.5,14.6-7.8c0.2-0.1,0.3-0.1,0.4-0.2c0.1,0,0.3-0.1,0.5-0.2
				c1.5-0.5,2.9-1.1,4.4-1.6c2.4-0.8,4.9-1.6,7.3-2.3c2.5-0.7,5-1.3,7.5-1.8c1.6-0.3,3.1-0.6,4.7-0.8c0.1,0,0.1,0,0.2,0
				c0.1,0,0.2,0,0.3,0c2.7-0.3,5.5-0.5,8.2-0.6c1.7-0.1,3.3-0.1,5,0c0.5,0,1,0.1,1.5,0.1c0.1,0,0.2,0,0.4,0.1
				c1.4,0.3,2.8,0.6,4.1,0.9c0.2,0.1,0.3,0.1,0.5,0.2c0.5,0.3,1.1,0.5,1.6,0.7c6.1,2.7,12,6,18.9,3.6c8.4-2.9,12.6-9.1,13.6-17.5
				c1.1-0.3,2.3-0.6,3.5-0.8c0.2-0.1,0.4-0.1,0.6-0.1c0.5-0.1,1-0.1,1.5-0.2c1.4-0.1,2.9-0.2,4.3-0.2c1.5,0,2.9,0,4.4,0.1
				c0.7,0,1.4,0.1,2.2,0.2c0,0,0,0,0,0c2.8,0.6,5.7,1.2,8.4,2.1c1.2,0.4,2.4,0.9,3.7,1.3c0.5,0.3,1.1,0.5,1.6,0.8
				c1.3,0.7,2.6,1.4,3.8,2.1c0.5,0.3,0.9,0.6,1.4,0.9c2.1,1.9,4.1,4,6.4,5.8c3.9,3.1,7.5,5.3,12.7,5.3c4.4,0,9.7-2,12.7-5.3
				c1.3-1.4,2.3-2.9,3.1-4.4c1.8,0.1,3.7,0.3,5.5,0.4c3.9,0.4,7.9,0.5,11.9,0.8c2,0.1,4,0.2,6,0.4c0,0,0,0,0,0
				c-0.1,0-0.1-0.1-0.2-0.1c0.1,0,0.2,0.1,0.2,0.1c0.7,0.1,1.2,0.2,1.4,0.2c0.4,0,0.7,0.1,1,0.1c4.1,0.7,8.2,1.7,12.2,3
				c1.9,0.6,3.8,1.3,5.6,2c0.4,0.2,0.7,0.2,0.8,0.3c0.5,0.3,0.9,0.6,1.2,0.7c3.5,1.7,6.9,3.7,10.2,5.9c0.5,0.4,1,0.7,1.5,1.1
				c1.4,1.2,2.7,2.4,4,3.7c1.3,1.3,2.7,2.6,4,3.9c1.6,1.5,3.2,3,5,4.1c3.5,2.3,7.2,2.4,11.2,2.9c4.5,0.6,11-2.6,14-5.8
				c3.8-4.1,5.1-8.5,5.8-14C525.9,35.1,519.8,27,514,22z"/>
		</g>
		<path class="st2" d="M533.5,65.5c-0.9-3.1-3.6-4.6-6.6-5c-4.5-0.6-9.9,1.2-14.2,2.5c-4.8,1.6-9.5,3.6-13.8,6.3
			c-6.5,4-19.2,13-16.1,22.3c0.6,1.8,1.9,2.6,3.7,2.8c4,0.4,7.6-2.5,10.6-4.7c3.4-2.4,6.7-5,10.2-7.1c3.2-1.9,6.5-3.7,9.9-5.1
			c4.2-1.7,8.8-2.4,13-4.3C533,72,534.2,68.3,533.5,65.5z"/>
		<path class="st2" d="M447.6,118.5c-5.9-2.9-14.3-5.6-21.8-5.4c-2.2-3.2-5.3-5.9-8.3-8.1c-6.7-4.7-14.9-7.1-23-7.6
			c-9.8-0.5-19.6,2.2-28.6,5.8c-4.9,1.9-9.8,4-14.4,6.5c-3.7,2-7.5,4.3-9.3,8.3c-2.3,4.9,4.2,8.8,7.3,4.3c1.8-2.7,6.4-3.3,9.2-4.5
			c3.8-1.6,7.6-3.2,11.4-4.5c7.5-2.6,15.3-4.6,23.3-4.3c5.8,0.2,11.6,1.8,16.5,4.9c1.7,1,3.1,2.3,4.4,3.7c-1.5,2.4-0.8,5.9,1.8,7.5
			c2.4,1.5,4.9,2,7.6,2.3c0.6,0.2,1.3,0.3,2,0.2c1.1,0.1,2.2,0.2,3.4,0.3c4,0.4,8,0.8,11.8,2.2c6,2.1,10.3,7.7,16.3,9.4
			c0.9,0.3,2.1-0.2,2.6-1C463.9,129.8,454.3,121.8,447.6,118.5z"/>
		<path class="st2" d="M181.9,163.6c-0.5-0.3-2.1-1.1-2.6-1.3c-0.7-0.4-1.7-0.9-1.3-0.7c-2.5-1.1-4.8-1-7.5-0.7
			c-2.8,0.3-5.6,0.5-8.4,0.5c-1.5,0-3,0-4.5-0.1c-0.6,0-1.1-0.1-1.7-0.2c-0.2,0-0.4-0.1-0.7-0.1c-2.8-0.6-5.5-1.3-8.2-2.2
			c-0.7-0.2-1.4-0.5-2.1-0.8c-0.1,0-0.2-0.1-0.2-0.1c0,0-0.1,0-0.1,0c-1.5-0.7-3.1-1.5-4.5-2.3c-1.1-0.7-2.2-1.4-3.3-2.1
			c-0.1-0.1-0.7-0.6-1.1-0.8c-0.3-0.2-0.7-0.6-0.6-0.5c-1.9-1.8-3.9-3.6-5.5-5.7c-4.2-5.5-7.4-12.2-9.4-18.9
			c-4.1-14,4.7-25.4,17-31.3c6.5-3.2,14.1-4.9,21.3-5.4c4-0.3,8.1-0.3,12.1,0c3.8,0.3,7.6,1.5,11.2-0.4c1.6-0.8,2.5-3.1,2-4.9
			c-2.1-6.6-11.5-8.4-17.6-9.3c-7.3-1-14.7-0.2-21.8,1.2c-14.1,2.8-27.2,9.7-35.7,21.4c-3.9,5.3-6.1,11.2-7,17.2
			c-3.4,1.1-6.7,2.8-9.7,4.7c-7.3,4.8-13,11.3-18.1,18.3c-4.8,6.6-9.2,13.8-12.8,21.1c-3.5,7.4-8.2,19.2-0.8,25.8
			c2.4,2.1,5.7,2.2,8.1,0c4.8-4.4,5.3-12,7.9-17.8c2.9-6.4,6.7-12.5,10.4-18.5c3.4-5.5,7.1-10.8,12.1-15c1.1-0.9,2.2-1.6,3.3-2.3
			c0.6,3,1.4,6,2.4,9c4.8,13.9,12.6,25.6,24.7,34.2c10.5,7.4,24.1,11.3,37,10.8c8.3-0.3,18.1-3.2,20.3-12.3
			C187.4,169.7,185.6,165.9,181.9,163.6z"/>
		<path class="st2" d="M61.6,142.2c-6-4-15.5-3.2-22.1-1.6c-7.1,1.7-13.9,5.3-19.2,10.3c-10.5,9.8-14.9,26-9.3,39.4
			c2.6,6.3,7.3,12.2,13.8,14.9c4.7,2,16.8,2.8,14.7-5.8c-0.6-2.5-3.4-4.6-5.2-6.4c-2-2-3.7-3.8-5.2-6.2c-2.7-4.5-3.6-8.6-2.1-13.7
			c1.7-5.9,6-10.9,11.4-13.9c3.1-1.8,6.5-2.7,10-3.4c3.8-0.9,8.1-0.5,11.8-1.8C65.3,152,66.4,145.3,61.6,142.2z"/>
		<path class="st2" d="M645.2,125.5c0.1-0.9,0.1-1.7,0.1-2.5c-0.2-2.6-1.6-4.9-3.8-5.9c-6.9-9-21.3-11.8-31.6-7.5
			c-2.5-6.3-10.6-9-16.7-10.3c-8.7-1.9-17.6-1-26.2,0.8c-8,1.7-16.4,3.7-23.9,7.1c-6.3,2.9-14.4,7.5-14.5,15.3c0,2.1,2,3.3,3.9,3
			c5.7-1,10.6-5,16.1-6.9c6.7-2.3,13.4-4.4,20.3-5.9c6.9-1.6,13.7-2.2,20.8-1.8c6.2,0.4,12,3.9,18.2,3.5c0,0,0,0,0.1,0
			c0.5,1.1,1.4,2,2.4,2.4c2,0.8,4.7,1.2,7.4,1.7c-2.6,1.6-4.8,4.4-6.4,6.6c-5.2,7.1-9,15-13.9,22.4c-3.4,5.1-8.3,9.8-13.6,13.1
			c-6.9,4.4-13.4,6.9-21.5,8.4c-3.8,0.7-7.2,1.1-11,1.4c-2,0.2-4,0.3-6,0.5c-0.1-1.4-0.2-2.7-0.5-4c-0.6-2.8-2.4-4.7-3.4-6
			c-1.2-1.6-4.2-1.8-5.8-0.7c-0.7,0.5-3,1.8-4.1,3.1c-1,1.3-1.7,2.9-2.4,4.4c-1.7,3.7-2.6,7.5-3.8,11.4c-1.8,5.9-4.6,11.6-9.2,15.8
			c-5.3,4.8-13,7.2-19.8,9c1.4-4.1,1.5-8.5-0.1-12.9c-1.6-4.3-5.1-7.5-9.9-7.5c-4.4,0-8.9,3.2-9.9,7.5c-0.2,0.7-1,3.3-1.3,4.1
			c0.3-0.7-2.2,3.6-1.3,2.5c-1.4,1.8-1.5,1.7-3.5,2.9c-0.7,0.4-1.5,0.8-2.3,1.2c-0.4,0.2-0.8,0.4-1.2,0.5c0.5-0.3,0.4-0.2-0.3,0
			c-7.5,2.7-15.5,4.4-23.3,5.8c-14.2,2.5-29.5-0.3-44.3-2.1c-0.2,0-0.3,0-0.5,0c0.9-1,1.8-2.1,2.6-3.2c3.7-4.8,9.5-13.6,5.9-19.7
			c-0.7-1.1-1.8-1.4-3.1-1.2c-5.2,0.7-8.7,6.9-12.2,10.4c-4.1,4.2-8.1,8.2-12.7,11.9c-9.2,7.2-20,12.4-31.2,15.7
			c-13.5,4.1-27.5,5.8-41.6,6.7c-10.3,0.6-20.8,1.1-31.1,1c-1.4-0.7-2.8-1.4-4.3-2.1c-7-3.5-13.9-7.1-21-10.5
			c-2.7-1.3-5.5-2.5-8.4-3.5c5.8-8.3,10.3-17.6,12.2-27.4c0.8-3.9,1.2-10.2-0.8-13.8c-2.4-4.2-7.3-5.4-11.4-3
			c-3.4,2-5.8,7.8-7.3,11.4c-1.1,2.8-2.8,6.3-4.7,9.7c-1.9,3.2-3.9,6.4-6.1,9.4c-0.4,0.5-0.8,1.1-1.1,1.6c-0.2,0.2-0.6,0.8-0.7,0.8
			c-1.5,1.8-3.1,3.6-4.7,5.3c-5.5,5.8-10.1,9.4-16,13.2c-14,9-30.1,13.2-46.3,14.4c-18.1,1.4-37.1-0.8-54.2-7
			c-7.8-2.8-15.4-6.5-22.1-11.5c-6.6-4.9-11.8-11.2-18-16.5c-1.1-0.9-2.9-0.3-2.9,1.2c-0.1,15.2,13.7,27.7,25.2,35.7
			c13.3,9.2,29.7,15.1,45.7,17.7c33.1,5.4,68.4-0.5,94.7-21.8c7.1,5,15.5,8.6,23.8,11.2c4.9,1.6,10.1,2.9,15.2,3.7
			c1.6,0.3,3.1,0.5,4.7,0.5c4.2,1.8,8.5,3.4,12.9,4.3c7.6,1.6,15.2,1.6,22.8,0.6c14.6-1.8,29-5,43.2-8.9c12.1-3.3,24.6-7,35.4-13.7
			c6.1-3.7,12.4-9,15.2-15.4c12.1,15.8,35.6,17.2,53.9,15.3c9.9-1,20.3-3,29.4-7.3c6.9,1,14.3,0.1,20.7-1.3
			c9.9-2.1,19.8-5.7,27.7-12.1c6.8-5.5,11.2-13.3,14.3-21.4c0.5-1.3,0.9-2.5,1.3-3.8c4.6,2.3,10.4,3.1,15.1,3.4
			c7.6,0.5,15.5-1,22.7-3.5c15.4-5.5,29.1-16.6,36.4-31.4c0.8-1.6,1.6-3.2,2.3-4.9c0.3,0.3,0.7,0.6,1,0.8c2,1.2,4.5,1.6,6.8,1.4
			c3.6-0.3,7.1-1.8,9.9-3.9C643.9,140.6,646.6,133,645.2,125.5z"/>
		<use xlink:href="#SVGID_1_"  style="overflow:visible;fill:none;stroke:#D1D2D4;stroke-miterlimit:10;"/>
	</g>
	<path class="st3" d="M645.5,121.4c-0.7-8.1-7.6-11.3-14.9-12.4c-6.7-1-13.4,0.1-19.5,2.9c-3.1-7.6-13.5-10.2-21.2-11.4
		c-3.1-13.8-19.1-20.2-30.9-25.1c-7.3-3.1-15.1-5.5-22.9-6.4c-6-5.3-13-9-20.7-10.9c-6.7-17.3-21.9-29.8-39.3-35.7
		c-11.2-3.8-23.2-5-35-4.7c-5.6,0.2-11.1,0.7-16.6,1.4c-3.6,0.5-7.6,0.9-9.9,3.9c-9.5-7.4-22.5-10.4-34.2-11.6
		c-14.4-1.4-29,0.7-42.4,6.1c0,0-0.1,0-0.1,0c-13-4.2-26.7-1.3-39.6,2.1c-12.5,3.3-24.7,7.8-36,14.1c-19,10.7-35.2,27.8-40.9,49.1
		c-9-0.6-18.1,0.2-26.9,2.4c-0.1-0.3-0.3-0.6-0.5-0.8c-17.5-16.3-47.4-9.9-65.1,2.8c-7.6,5.4-12.6,12.5-15.2,20.8
		c-12.7,5.3-24.7,12.2-35.5,20.8c-5.6,4.5-10.8,9.7-14.2,15.9c-0.3-0.2-0.6-0.3-1-0.3c-11.3-0.1-22.9,0.5-33.1,5.6
		c-8.6,4.3-17.5,12.6-16.1,23c2.8,21.6,26.8,33.9,46.7,29.3c12.9,23,35.9,38.2,62.4,42.1c15.9,2.3,32,1.2,47.8-1.3
		c8.2-1.3,16.2-2.9,24.3-4.7c8.2-1.8,16.5-3.8,24-7.7c0.6-0.3,1.2-0.7,1.9-1c24.9,11.9,52.4,16.5,79.8,16.9c14.4,0.2,28.7-0.6,43-2
		c12.7-1.2,25.9-2.9,36.3-11c5-3.8,8.9-8.6,12.2-13.9c22.6,8.1,47.6,7.1,69.5-2.6c15.4,9.4,35.9,0.4,50.8-5.9
		c13.6-5.8,27.1-14.7,33.6-28.1c5.6,3.4,12.4,3.3,18.8,1.3c9-2.8,17.7-7.7,25.8-12.3c12.3-6.9,22.8-15.9,28-28.5
		c6.1,2.9,13.3,2.6,19-1.4C644.3,137.4,646.2,129.4,645.5,121.4z M636.5,138c-4.7,4.2-11.2,4.5-16.6,1.9c0.6-1.9,1.1-3.8,1.4-5.9
		c0.4-2.5-3.4-3.6-3.8-1.1c-0.3,2-0.8,3.9-1.4,5.7c-0.8,0.5-1.3,1.6-0.9,2.6c-4.4,11.4-13.4,19.7-24.3,26.1
		c-6.7,4-13.8,7.6-20.9,10.8c-6.9,3.1-15.7,5.9-22.4,1.3c0.7-1.8,1.2-3.7,1.6-5.6c0.5-2.5-3.3-3.6-3.8-1.1c-0.4,2.1-1,4.1-1.7,5.9
		c-0.4,0.4-0.7,1-0.6,1.5c-8,18.4-29.7,27.3-47.9,33.3c-5.3,1.8-10.8,3.3-16.4,3.6c-2.9,0.2-5.8,0-8.6-0.6c-1.4-0.3-2.8-0.8-4.1-1.4
		c-1.1-0.5-2.3-1.7-3.4-2c-1.8-0.4-3.6,1-5.3,1.6c-2.9,1.2-5.8,2.2-8.7,3.1c-5.7,1.7-11.6,2.8-17.5,3.2c-12.5,1-25.1-0.6-36.9-4.7
		c3.1-5.4,5.6-11.2,8-16.8c1-2.3-2.4-4.3-3.4-2c-4.6,10.6-9.4,21.6-17.7,29.9c-9.7,9.6-23,11.8-36.1,13.1
		c-26.6,2.7-53.8,3.6-80.2-1.1c-13.8-2.4-27.3-6.4-40-12.3c10.7-7.7,18.2-19.5,20.6-32.5c0.5-2.5-3.4-3.6-3.8-1.1
		c-2.5,13.3-10.4,25.2-22,32.2c-6.8,4.1-14.5,6.2-22.2,8c-7.2,1.7-14.4,3.2-21.6,4.5c-28.9,5.2-61,6.5-86.6-10.4
		c-13.1-8.6-23.4-21.2-29.4-35.8c-1-2.3-4.8-1.3-3.8,1.1c0.8,1.9,1.6,3.7,2.5,5.5c-17.3,3.5-38.5-7.3-40.8-26.2
		c-1.2-9.8,8.9-17.1,17-20.4c8.7-3.5,18.2-3.9,27.5-3.8c-1.2,2.9-2,5.9-2.2,9.2c-0.2,2.5,3.8,2.5,4,0c0.9-11.6,9.8-20.3,18.5-27
		c9.2-7.1,19.3-13,30-17.7c-0.3,1.7-0.6,3.4-0.8,5.2c-0.7,7.4-0.5,14.9-0.1,22.2c0.3,6.9,1.1,13.9,3.9,20.3
		c5.1,11.8,16.4,20.3,29.1,22.2c2.5,0.4,3.6-3.4,1.1-3.8c-10.5-1.6-19.9-7.8-25.1-17.1c-6.1-10.8-5.5-25-5.2-37.1
		c0.3-12.2,3.1-23.7,12.7-31.9c8.2-7,19.1-11.4,29.7-13.3c11.3-2.1,23.7-1,32.6,6.7c-7.2,2.1-15.8,5.1-18.9,12.3
		c-1,2.3,2.4,4.3,3.4,2c3.2-7.5,14-10,21.2-11.7c8.1-2,16.3-2.6,24.6-2.2c-0.2,0.9-0.4,1.8-0.5,2.8c-0.4,2.5,3.4,3.6,3.8,1.1
		c3.8-23.4,20.4-42,40.6-53.4c10.6-6,22-10.2,33.7-13.4c12.1-3.3,25.1-6.4,37.5-2.9c0.3,0.8,1.1,1.4,2.2,1
		c12.6-5.3,26.2-7.6,39.9-6.7c13.1,0.9,28.6,4.3,38,14.2c1.8,1.9,4.6-1,2.8-2.8c-0.3-0.3-0.6-0.5-0.8-0.8c2.2-3.4,9.8-3,13.2-3.3
		c5.1-0.5,10.2-0.8,15.4-0.7c10.2,0.1,20.3,1.6,29.9,5c14.9,5.3,28.3,16.1,34.7,30.7c-2,0.4-2.6,3.5-0.3,3.8
		c6.9,1.1,13.3,3.6,18.9,7.6c-5.2,0.1-10.4,1.1-15.5,3.2c-2.3,1-1.3,4.8,1.1,3.8c13.4-5.6,27.7-2.8,40.7,2.5
		c10.6,4.3,25.9,9.9,29.9,21.7c-9.8-0.9-20.9,0.1-28.5,6.7c-1.9,1.7,0.9,4.5,2.8,2.8c6.6-5.7,16.7-6.3,25.1-5.6
		c0.5,0,1.1,0.1,1.7,0.2c0.5,0.8,1.7,0.8,2.5,0.3c7,0.9,16.1,3.2,18.4,9.5c-0.4,0.3-0.8,0.5-1.2,0.8c-2.1,1.4-0.1,4.9,2,3.4
		c5-3.4,10.8-5.4,16.9-5.5c6-0.1,15.2,1.3,16.2,8.5C642.4,127.1,641.2,133.8,636.5,138z"/>
	<path class="st3" d="M463.1,136.3c-2.6-8-5.8-16.6-12.7-21.9c-7.5-5.8-17.4-5.7-26.2-3.5c-8-10-21.1-14.9-34.1-14.9
		c-9.2,0-18.7,1.9-27.3,5.2c-7.1,2.7-13.8,6.9-17.4,13.8c-1.2,2.3,2.2,4.3,3.4,2c3.4-6.4,9.6-10,16.2-12.4
		c7.5-2.7,15.6-4.5,23.6-4.7c14.6-0.4,30.5,5.8,36.6,20.2c1,2.3,4.8,1.3,3.8-1.1c-0.7-1.6-1.5-3.2-2.4-4.7c7.6-1.7,16-1.5,22.2,3.8
		c5.6,4.9,8.2,12.2,10.4,19.1C460.1,139.8,463.9,138.8,463.1,136.3z"/>
</g>
</svg>
