<?xml version="1.0" encoding="utf-8"?>
<!-- Generator: Adobe Illustrator 18.1.0, SVG Export Plug-In . SVG Version: 6.00 Build 0)  -->
<svg version="1.1" id="Layer_1" xmlns="http://www.w3.org/2000/svg" xmlns:xlink="http://www.w3.org/1999/xlink" x="0px" y="0px"
	 viewBox="0 0 1920 973.3" style="enable-background:new 0 0 1920 973.3;" xml:space="preserve">
<path style="fill:#D1D2D4;" d="M530.1,780.6c-0.4,0.3-0.9,0.6-1.3,0.9c-0.4-0.7-1.1-1.3-2.1-1.3c-6.5-0.3-13.8,0.1-20-2
	c-8-2.7-9.1-9.1-8.7-16.6c0.8-13.3-3.8-24.8-9.4-36.6c-0.9-1.9-3.1-1.5-4.1-0.1c-0.4,0.2-0.8,0.5-1.1,0.9c-0.2,0.2-0.3,0.5-0.5,0.7
	c0,0,0,0.1-0.1,0.1c-5.4,8.6-12.4,16-20.9,21.5c-4.8,3.1-9.9,5.7-15.3,7.5c-5.5,1.9-14.5,5.1-18.7-0.6c-0.4-0.6-1-0.9-1.6-1
	c-0.3-1.3-0.7-2.7-1.2-4c-3.4-9.3-10-16.9-18.1-22.5c-1.8-1.2-3.6-2.3-5.5-3.3c-2.1-1.3-4.3-2.3-6.8-3c-15.4-5.6-32.9-4.5-47.7,2.6
	c0.1-2.2,0.6-5.4,0.6-6.3c-0.1-2.8-0.5-5.6-1.2-8.2c-1.4-5.2-4.2-9.8-8.4-13.3c-2.4-2.1-6,1.5-3.5,3.5c5.2,4.4,7.6,10.4,8.1,17.1
	c0.3,3.8-1.8,9.7,0.9,12.7c-2.9,2-5.6,4.3-7.9,7.1c-0.3,0.1-0.6,0.3-0.8,0.4c-7.1,1.1-13.5,3.3-19.8,7.7c-5.2,3.7-10,7.7-13.1,12.6
	c-10.1-0.1-19.9,1.9-29.4,6.3c-7,3.2-15.5,8.5-20.6,15.4c-4.4-2.6-10.7-2.2-14.2,1.6c-4.3,4.7-4.5,11.6,0,16.3
	c3.1,3.2,6.5,6,10.1,8.7c2.2,1.7,6.3,1.9,8.9,1.2c2-0.5,4-1.8,5.5-3.4c0.6-0.2,1.1-0.4,1.6-0.6c0.8,0.9,1.6,1.8,2.4,2.7
	c0,0,0.1,0.1,0.1,0.1c0.3,2.5,1.3,4.8,3.2,6.5c2.3,2.1,4.7,4,7.1,5.9c0,0.8,0.2,1.6,0.4,2.4c2.5,9,12.5,14.9,20.7,17.7
	c3.8,1.3,7.1,0.3,9.6-1.8c3.8,2.1,8.6,2.6,13.4,0.6c7.4-3.1,13.4-13,10.9-21c0.1-0.1,0.1-0.3,0.2-0.4c5.7-0.3,11.7-2.7,16.6-4.7
	c5-2.1,10.3-4.5,14.6-7.8c0.5-0.1,1-0.2,1.5-0.4c7.6-2.1,10.6-11.2,6.5-17.5c0.4-1.3,0.6-2.7,0.5-4.1c0.6-1.3,1.1-2.7,1.3-4.1
	c0-0.1,0-0.1,0.1-0.2c0.6-1.4,1.2-2.8,1.8-4.2c1.6-0.1,3.2-0.6,4.6-1.7c0.8-0.6,1.7-1.2,2.5-1.7c0.5-0.3,1.1-0.6,1.7-0.9
	c0.4-0.1,1.1-0.4,1.5-0.5c0.1,0,0.1,0,0.2,0.1c1.8,0.6,3.8,0.6,5.7,0.1c0.4,0.2,0.9,0.4,1.3,0.6c5.7,2.6,12.4,1.6,15.7-4.1
	c1.5-2.5,1.8-5.5,1.2-8.2c0.5-1.3,0.8-2.7,0.8-4.2c0-2.3,0-4.8-0.3-7.4c1.4-2.3,2-4.9,1.5-7.5c1.1,1.1,2.1,2.2,3.1,3.4
	c3.7,4.5,6.2,9.6,7.7,15.2c1.2,4.8,2.3,9.8,6.5,13c6.4,4.8,15.3,4.8,23,2.6c0.2,0,0.4-0.1,0.5-0.2c1.9-0.6,3.7-1.3,5.3-2.1
	c0.6-0.3,1-0.7,1.2-1.2c1-0.5,1.9-1,2.9-1.5c0.5,0,1.1-0.1,1.7-0.3c-2.1,2.5-3.5,5.2-3.5,8c0.1,3.7,3.8,4.6,6.7,5.7
	c3.4,1.3,6.7,2.6,10.1,3.9c0.2,1.7,1.9,3.1,3.6,1.8c0.1-0.1,0.2-0.2,0.4-0.3c1.1,0.4,2.1,0.8,3.2,1.2c0.6,0.2,1.2,0.1,1.7-0.1
	c0.9,0.6,2.2,0.4,3-0.2c2.8,3,7.2,5.3,10.5,2.8c0.7-0.5,0.9-1.1,0.9-1.7c2.5,0.5,4.9,1,7.4,1.4c0.2,1,1,1.8,2.3,1.8
	c1.2,0,1.9-0.7,2.2-1.5c0.4-0.2,0.7-0.6,0.9-0.9c0.2,1.4,1.3,2.5,3,1.9c1.5-0.6,3-1.1,4.4-1.7c5,0.3,9.8-0.7,13.8-3.8
	C536.2,782.2,532.6,778.7,530.1,780.6z M474.6,767c-0.4,2.1-1.2,5.2-0.2,7.3c-1.1,0.4-1.8,1.7-1.7,2.8c-2.8-0.9-5.9-2-6.6-3.9
	c-1.3-3.8,6.1-9.1,10.3-12.1C475.7,763,475,764.9,474.6,767z M486.2,749.2c-1.1-0.2-2.2,0.3-2.6,1.4c-0.3-0.3-0.7-0.5-1.2-0.7
	c-1.5-0.5-3.2,0.1-4.8,0.9c1.4-1.7,2.7-3.4,4-5.1c0.8,0,1.6-0.3,2.1-1.2c0.6-1.1,1.3-2.3,1.9-3.4
	C486.2,743.8,486.4,746.5,486.2,749.2z M490.9,754.6c0.1-0.7,0.3-1.5,0.4-2.3c0.4-2.5,0.4-5,0.1-7.5c0.6,2,1.1,4.1,1.4,6.2
	c0.1,0.9,0.2,1.8,0.3,2.7C492.3,753.7,491.5,753.9,490.9,754.6z"/>
<path style="fill:#FFFFFF;stroke:#D1D2D4;stroke-miterlimit:10;" d="M320.2,779.2c0-0.1,0-0.1,0.1-0.1c-0.7-1.6-1.6-3.1-2.8-4.4
	C318.1,776.4,319,778,320.2,779.2z"/>
<path style="fill:#D1D2D4;" d="M1096.4,503.4c-0.2,0.1-0.3,0.2-0.5,0.3c0.3,0,0.6,0.1,0.9,0.1c1.3-0.9,2.7-1.8,4-2.8
	c0.3-0.4,0.6-0.7,0.9-1.1c0.1-0.6,0.2-1.1,0.2-1.7C1100.1,500,1098.3,501.7,1096.4,503.4z"/>
<path style="fill:#D1D2D4;" d="M1099.8,490.7c-1.4,1.1-2.6,2.4-3.7,3.8c0.8-0.6,1.5-1.2,2.3-1.8
	C1098.9,492.1,1099.4,491.4,1099.8,490.7z"/>
<path style="fill:#F1F2F2;" d="M133.7,866c-20-35.2-57.5-53-93.5-44.6c-6.6,1.5-10.4,10.5-8.7,17.6c1.9,7.9,8.7,11.5,15.4,10
	c11.7-2.7,25-1.1,36.6,4.5c11.6,5.5,21.9,15.1,28.6,27c3.7,6.5,11.1,9.1,17.1,5.1C134.9,881.7,137.4,872.5,133.7,866z"/>
<path style="fill:#D1D2D4;" d="M338.1,553.6c-0.2-0.3-0.4-0.6-0.6-0.9c0.3-1,0.5-2,0.6-3.1c0.4-2.6-0.5-4.6-1.8-5.8c0,0,0,0,0,0
	c0.5-1.3,0.6-2.5,0.4-3.7c2.4-3.3,1.2-9.6-3.7-9.4c-8.6,0.4-16.6,3.9-23,10.5c-3.3,3.4-7.1,8.5-7.8,13.5c-3.2-0.7-6.4-1.2-9.6-1.4
	c-0.1-0.4-0.3-0.9-0.5-1.3c-14.3-26.3-41.6-37.5-67.6-38c-2.6-21.6-14-41.8-31.2-55.6c-24.5-19.8-56.7-25.4-87.3-21.3
	c-0.4-0.5-0.7-0.8-1.1-1.1c0.4-0.3,0.7-0.6,1-1c0.2,0,0.6-0.1,0.9-0.2c2.1,0.1,4.2-0.1,6.4-0.4c2.5,0.6,5.1,0.1,7.6-1.6
	c1.5-0.2,3.1-0.3,4.6-0.4c1,0.1,2,0,2.9-0.2c2.6-0.1,5.3-0.2,7.9-0.3c5.5-0.1,7.8-5.3,6.4-9.4c0.9-2.1,0.9-4.6,0.2-6.6
	c-0.7-1.9-1.9-3.3-3.1-4.7c1.4,0.3,2.8,0,4.2-1.3c2.5-2.3,4.5-5,6-8c0.5-0.6,1-1.2,1.5-1.9c0.3-0.3,0.5-0.6,0.7-1
	c0.8-1.2,1.6-2.5,2.2-3.9c0.8-0.6,1.5-1.3,2.1-2.1c5-6.6,3-16.6-3.1-21.8c-1.1-3.7-3.1-7-5.8-9.5c-1.4-1.3-3.3-1.5-5-1
	c-6.1-6.7-14.1-11.3-22.1-14c-7.7-2.6-15.7-3.6-23.6-4.9c-4.3-0.7-6.3-1.7-9.4-5c-2.4-2.5-4.9-4.8-7.7-6.7c-9.9-6.9-21.9-9.3-33.2-7
	c-1.5-4.3-4.5-7.8-8.1-10.4c-2.5-1.8-5.3-2.9-8.1-3.9c-1-2.4-3.3-3.4-5.4-3.1c-2.9-1.4-6.1-2.4-9.4-2.8c-0.1,0-0.2,0-0.3,0
	c-5.6-2.9-11.4-5.3-17.5-7.1c-6.2-1.8-8.9,9.2-2.7,11c1.6,0.5,3.2,1,4.8,1.6c0.1,6,0.1,12.1,0.2,18.1c-1.6,1.3-2.8,3.6-2.4,6.2
	c0.6,3.4,1.4,6.7,2.5,9.8c0,1.1,0,2.3,0,3.4c-1.6,4.8-3.2,9.5-4.8,14.3c-1.3,3.9,1.9,7,5,7.2c0.1,11.2,0.2,22.3,0.3,33.5
	c-0.9,0.6-1.8,1.2-2.6,1.7c-1.8,1.3-2.5,3.5-2.2,5.7c-2.5,1.5-4.6,3.4-5.4,6.8c0,0.1,0,0.2,0,0.3c-12.9,5.9-23.9,14.9-29.2,29.1
	c-2.2,5.9,3.7,9.4,8.5,8.2c-0.8,1.3-1.6,2.6-2.3,3.9c-3.3,5.9,2.7,11.4,7.8,10.4c-2.5,6.8-4.2,13.9-5,21.3c-0.4,3.8,3.5,7,7,7
	c4.1,0,6.6-3.3,7-7c2.1-19.8,13.3-38.9,29.7-50.2c14.1-9.7,31.2-13.8,47.9-12.1c1.3,0.4,2.7,0.8,4,1.3c4,1.4,7.9,3,11.6,5
	c10.5,11.4,16.7,26,17.7,41.5c0.5,9,14.5,9,14,0c-0.1-1-0.1-2-0.2-3c0.6-0.5,1.2-1.2,1.6-2.3c2.3-6,2.8-12.2,1.7-18.1
	c24.8-2.7,51.6,2.4,71.5,18c18.9,15,31.2,40,27.1,64.4c-1.5,8.8,12,12.6,13.5,3.7c0.6-3.6,1-7.3,1-10.9c20.8,0.6,43.1,8.6,55.9,28.2
	c-17.1,1.9-33.7,10.5-45.8,24.7c-4.9-7.2-11.9-12.5-19.7-15.1c-14.4-4.7-29.8,0.4-41.8,9.7c-4,3.1-2.2,9.4,1.3,10.6
	c-0.8,2.6-0.2,5.6,2.1,7.1c6.4,4.2,11.9,9.9,15.8,17.1c3.2,5.9,4.4,14.2,9.7,18.2c6.4,4.8,13.4-0.1,18.8-4.3
	c5.7-4.4,10.9-9.5,15.6-15.2c20.3,5.4,42.1,1.2,59.8-11.5c4.5-3.2,8.8-7,12.6-11.3c3.9-4.3,7.1-10.3,12.3-12.7
	c0.1,0,0.2-0.1,0.3-0.1c0.8,0.3,1.7,0.6,2.6,0.7c4.2,0.4,8.4-1.7,10.9-5.1C338.9,562.9,340.9,558.1,338.1,553.6z M187.2,584.6
	c0.4-0.2,0.9-0.3,1.4-0.4c0.1,0.6,0.1,1.2,0.2,1.8C188.3,585.5,187.7,585.1,187.2,584.6z M282.2,566c-0.2-0.4-0.5-0.7-0.8-1.1
	c0.6-0.1,1.1-0.1,1.7-0.2C282.8,565.2,282.5,565.6,282.2,566z"/>
<path style="fill:#D1D2D4;" d="M156.6,519.9c-19.7-11.2-40.2-22.6-62.6-23.2c-20.6-0.5-40.6,8.2-56.3,23.2
	c-4.9,4.7,2.2,12.8,7.1,8.1c14.1-13.6,32.5-20.7,50.9-19.8c19.9,1,38.4,11.6,55.9,21.5C157.3,533.1,162.3,523.2,156.6,519.9z"/>
<path style="fill:#D1D2D4;" d="M196.9,658.2c-2.4,11.3-12.7,18.6-22.6,15.6c-6.2-1.9-8.9,9.1-2.7,11c15,4.5,31.2-6.3,34.9-23.6
	C208,654.1,198.4,651,196.9,658.2z"/>
<path style="fill:#D1D2D4;" d="M418,673c-6.9-4-12.9,7.8-6.1,11.8c9.8,5.8,16.3,18.2,14.7,31c-1.1,8.6,10.4,12.4,11.6,3.6
	C440.6,700.8,433,681.8,418,673z"/>
<path style="fill:#D1D2D4;" d="M556.1,693.1c-2.3-8.4-13.9-4.8-11.6,3.6c3.3,12.2-3,23.2-13.8,25.4c-7.6,1.5-4.4,14.7,3.2,13.2
	C551,731.8,561.2,711.9,556.1,693.1z"/>
<g>
	<defs>
		<path id="XMLID_1_" d="M349,796.5c-3.3-0.7-6.6-1.6-9.8-2.4c-0.5-0.1-1-0.2-1.5-0.3c-1.4-1.8-3.3-3.1-5.6-3.8
			c-6.2-1.9-14,2.4-15.4,10c-1.9,10.6-1.3,20.7-6.5,28.9c-1.2-1.6-2.7-3.2-4.3-4.7c-2.5-2.3-5-4.6-7.8-6.7c-0.7-0.6-1.3-1.2-2-1.8
			c-1.1-1.3-2.3-2.5-3.5-3.7c-0.8-1.1-1.8-2-3-2.6c-0.9-0.8-1.9-1.6-2.9-2.3c0-0.5-0.3-1-0.8-1.4c-0.2-0.1-0.3-0.3-0.5-0.4
			c0,0,0,0,0,0c0,0-0.1-0.1-0.1-0.1c-8.5-6.5-17.3-12.4-26.7-17.5c-0.9-1.3-2.4-2-4.3-2c-0.9,0-1.7,0.6-2.1,1.3
			c-0.8-0.2-1.6-0.5-2.5-0.7c4.6-15.1,1.5-32.2-6.2-45.4c-14.6-25.2-42.1-35.5-66.3-25.9c-0.3-0.7-0.7-1.4-1.2-2.1
			c-0.7-2.5-2-4.7-3.7-6.5c-11.3-18.4-27.8-32.4-46.7-38.9c-22.6-7.8-47.4-4.2-67.9,8.7c-1.3-0.4-2.7-0.7-4.1-0.9
			c-14.3-7.2-30.3-10.3-46.5-7.4c-11,1.9-21.4,7-30,14.1c-9.2,7.6-18.1,19.1-16,31.7c0.4,2.4,1.7,3.9,3.3,4.6
			c-0.6,0.9-1.2,1.9-1.7,2.8c-3.8,6.4-1.1,15.8,4.5,19.5c0.8,0.5,1.6,0.9,2.4,1.2c-0.1,2.8,0.4,5.9,1.7,8.1c0.1,0.2,0.2,0.3,0.3,0.5
			c-0.6,2.3-0.6,4.8,0,7.4c1.7,7,9,12.6,15.4,10c1.7-0.7,3.4-1.4,5.1-2.1c-16.6,9-31.7,21.4-44.2,36.7c-4.4,5.4,2.7,13.5,7.1,8.1
			c2.5-3,5.1-5.9,7.8-8.7c0.2,0.9,0.6,1.7,1,2.5c3.7,7.2,10.9,8.3,17.1,5.1c5.1-2.6,10.3-4.9,15.7-6.9c0.9,1.7,2,3.2,3.4,4.4
			c-0.8,1.4-1.6,2.7-2.4,4.1c-15.9,3.9-31.2,11-45,20.6c-7.2,5-7.2,14.2-3.5,20.4c-2.1,2.8-4.2,5.7-6,8.8c-3.8,6.3-1,15.9,4.5,19.5
			c6.2,4.2,13.3,1.2,17.1-5.1c5.1-8.4,11.8-15.2,19.5-20.1c0.2,4.7,0.6,9.4,0.8,13.6c0.4,10.7,0.8,21.4,1.4,32.1
			c-1.9,13.5-2.3,27.3-1.1,40.9c0.4,4,1.8,7.7,4,10.3c0.6,9.2,1.3,18.4,2,27.5c0.6,7.7,5.3,14.3,12.5,14.3c6.3,0,13.1-6.6,12.5-14.3
			c-0.3-4-0.6-7.9-0.9-11.9c2.5,10.4,5.6,20.6,9.7,30.6c2.9,7,11.6,8.8,17.1,5.1c0.5-0.3,1-0.7,1.4-1.1c7.6,0,15.3-6.9,12.5-17.6
			c-1-3.8-1.9-7.6-2.9-11.4c1.2,3.4,2.4,6.8,3.6,10.2c2.5,7.2,8.4,12.2,15.4,10c1.5-0.5,2.9-1.3,4.2-2.5l1.3,2.8
			c3.2,6.8,11.4,8.9,17.1,5.1c3.7-2.5,5.8-6.8,6.1-11.4c3.7,1.2,7.8,0,11-2.6c2.3,4.5,4.7,9.1,7.1,13.5c5.1,9.5,15,8,20.2,1.8
			c1.2,0.9,2.3,1.9,3.5,2.8c0,0,0,0.1,0,0.1c1.7,6.9,9,12.7,15.4,10c6.3-2.7,12.6-4.8,19-6.5c0,0.1,0,0.2,0.1,0.3
			c1.1,6,7.3,9.5,12.3,8c2.8-0.9,4.8-2.9,6-5.6c0.1,0,0.2,0,0.3,0c6.9,9.8,20.2,3.7,22.1-6.5c2.3,0.2,4.7-0.3,7-1.9
			c0.2-0.2,0.5-0.3,0.7-0.5c9.3-0.3,18.7-0.2,28.1,0c34.7,0.7,69.3,0.4,104-2.8c20.6-1.9,41.2-4.7,61.6-8.1c3.2-0.5,5.6-3,7.2-6.1
			c0.4,0,0.9,0,1.3,0c24.1,0.6,48.3,1,72.4,0.6c4.7-0.1,8-2.6,10-6.1c3.5-0.3,7-0.6,10.5-1.1c0.6,0.1,1.2,0.2,1.8,0.1
			c1.7,2.7,5.4,3.9,8.3,2.4c1.7-0.9,3.1-2.3,4.2-4c3,2.3,7.6,1.4,9-3.6c0.8,0.4,1.6,0.7,2.4,0.7c1,1.3,2.4,2.2,4.3,2.3
			c10.9,0.4,21.7-1.9,32.4-3.6l9.7-1.5c6.1,0.2,12.3,0.3,18.4,0.3c1.2,1.1,2.7,1.4,4.1,1.2c0.1,0.4,0.2,0.8,0.4,1.2
			c3.3,8.1,12.4,3.9,17.9,1.9c5.6-2.1,12.1-4.6,15.5-10.6c3.6-6.5,1.4-14.3-3.1-19.4c-9.2-10.4-23.8-12.9-35.8-8.8
			c-6.8,2.3-12.2,4.6-19.4,2.8c-4.9-1.3-9.7-3-14.7-3.6c-0.8-0.8-1.7-1.3-2.7-1.5c-0.9-0.6-1.7-1.1-2.6-1.5
			c-0.8-0.8-1.7-1.6-2.6-2.1c-2.2-1.3-4.7-1.6-7.1-1.8c-1.4-0.1-2.7-0.1-3.9,0.1c-8.9-0.7-17.5,2.5-25.9,6.1c0,0-0.1,0-0.1,0.1
			c-0.3-1.3-1-2.6-2.1-3.7c-2.6-2.8-4.7-6.8-7.7-9c-2.6-1.9-5.5-2.5-8.5-2.7c-3.7-5.8-10.1-5.8-16.1-3.5c-3.9-1.9-7.9-2.3-12.2-1.4
			c-1.7,0.4-3,1.8-3.8,3.6c-8.2,1.8-16.1,5.3-23.3,10.5c-0.1,0.1-0.2,0.2-0.3,0.3c-0.2,0.1-0.3,0.3-0.5,0.5c0,0.2-0.1,0.4-0.2,0.6
			c-1.6,2.3-3,4.8-4.8,6.9c-0.3,1.1-1.7,1.4-2.3,0.4c0,0-0.1,0-0.1,0c-1-0.5-1.9-1.5-2.9-2.1c-1.1-0.7-2.3-1.9-3.6-2.4
			c-2.3-0.5-4.5-0.9-6.5-1.2c-11-1.7-22-0.2-32.2,4.4c-2.7-0.5-5.6,0.7-6.6,3.4c-0.5,0.3-0.9,0.5-1.4,0.8c-2.9,1.8-3.7,6.2-2.2,9.4
			c0.7,1.5,1.5,2.9,2.2,4.3c-0.7-0.9-1.4-1.9-2.1-2.8c0-0.2-0.1-0.4-0.1-0.5c-0.2-0.6-0.4-1.2-0.7-1.8c-0.6-1.1-1.4-2-2.3-2.7
			c-0.5-0.4-1-0.8-1.4-1.2c-5.9-12-13.5-22.7-24.5-28.3c-2.5-2.5-5.1-4.9-7.8-7.2c-8.2-7.1-17.2-12.6-27-15.8
			c-0.5-1.7-1.7-3.3-3.3-3.5c-3-0.5-6-1-9-1.5c-2-0.3-4.1,0.3-5.3,2c-5.1-0.2-10.2,0.1-15.3,0.8c-3.4-2.5-6.8-5-10.2-7.5
			c0.6-1.4,1.1-2.8,1.5-4.4c0.6,0.2,1.2,0.4,2,0.3c1.8-0.1,3.4-0.5,5.1-0.9c0.9,0.5,2,0.6,3.3,0.2c13.5-4.2,28.7-13.8,37.3-26.6
			c3.4-5.1,5.9-10.8,7.3-16.8c0.5-0.1,1.1-0.3,1.6-0.5c4.6-2.3,9.5-3,14.5-2.7c2,0.1,3.4-0.9,4.2-2.4c1-0.2,2.1-0.5,3.1-0.7
			c0.9,2.5,3.1,4.4,5.7,3.2c4.1-1.9,8.1-4,11.9-6.3c1.1,0.3,2.3,0.3,3.5-0.4c8.2-4.4,15.4-10.7,21.1-18.8c0.9-1.3,1.3-2.8,1.3-4.1
			c0.1-0.1,0.3-0.2,0.4-0.4c0.1-0.1,0.2-0.3,0.3-0.4c1.7,0.3,3.7-0.4,5.1-2.5c0-0.1,0.1-0.2,0.1-0.2c0.4,2.2,1.6,4.2,3.9,5.2
			c2.5,1.1,4.8,0.3,6.6-1.5c11.9,6.8,26.4,3.9,38.2-3.3c3.5-2.1,7-4.9,10.3-8c7.2,6,15.4,8.5,23.9,8.8c14.4,4,28.9,0.1,42-7.4
			c9.8-5.6,22.4-14.1,25.1-27c9.3,4.7,19.5,1.5,28.8-1.9c7.2-2.6,13.6-6.7,18-13.1c8.9,5.1,19.1,4.2,28.3,0.1
			c6.9-3.1,19.4-11.9,15.7-22.6c-1-2.9-2.9-4.9-5.8-5c-0.1,0-0.3,0-0.4,0c-4.5-0.2-6.3,4.4-5.6,8.3c-0.1,0.3-0.2,0.8-0.6,1.4
			c-0.7,1-1.7,1.8-2.6,2.5c-2.3,1.7-4.9,2.9-7.5,3.8c-5.6,1.9-11.5,2.4-16.7-1.1c-0.2-0.1-0.4-0.2-0.5-0.3
			c-1.9-4.5-9.4-5.3-11.5,1.1c-2.4,7.2-9.4,10.3-15.4,12.4c-5.6,1.9-13.5,5.4-19.1,2.1c-2.7-1.6-5.3-0.7-7,1.2
			c-2.7-2.2-6.8-2.2-8.5,2c-5.8,14.2-19,20.4-31.3,25c-7,2.6-15.1,5.1-22.8,5.3c-0.9-0.2-1.7-0.2-2.5,0c-5.5-0.2-10.8-1.8-15.5-5.4
			c2.7-4.1,4.8-8.6,6.1-13.4c0.6-0.8,1.2-1.6,1.7-2.4c4.2-6,5.1-14.3,0-20.2c-4.4-5-13.4-6.1-17.7,0c-6.1,8.7-13.2,15.6-22,20.6
			c-3.6,2.1-7.5,3.7-11.6,4.6c-0.4,0.1-0.7,0.2-0.9,0.2c-0.1,0-0.2,0-0.6,0c-0.3,0-2.5,0-1.9,0.2c-0.4-0.1-0.7-0.2-1.1-0.3
			c-0.1-0.2-0.3-0.5-0.7-1c-2.1-2.7-5.2-4-8.3-4.1c-1.9-9.4-4.5-19.1-8.9-26.6c-5.8-10.1-15.3-14.5-25.2-17.2 M381.3,736.6
			c0.4,0.3,0.9,0.5,1.4,0.7c5.5,1.8,10.4,4.9,14.6,8.9c-1,1-1.9,2.1-2.7,3.4 M51.3,749.1c-3.3,0.1-6.6,0.4-9.8,0.8
			c11.6-1.8,23.1-1.3,34.6,0.9C67.9,749.4,59.7,748.8,51.3,749.1z M156.6,929.6c-0.6-2.7-1.1-5.3-1.7-8c1.2,3.4,2.3,6.8,3.5,10.2
			C157.8,931,157.2,930.3,156.6,929.6z M199.2,849.8c-5.1-0.6-10.3-1-15.4-1.4c0.3-0.3,0.6-0.6,0.9-1c1.3,0.7,2.8,0.9,4.1,0.5
			c1,0.3,2,0.5,3.1,0.6c6.1,0.5,12.1,1.3,18,2.7C206.3,850.7,202.7,850.2,199.2,849.8z"/>
	</defs>
	<use xlink:href="#XMLID_1_"  style="overflow:visible;fill:#D1D2D4;"/>
	<clipPath id="XMLID_3_">
		<use xlink:href="#XMLID_1_"  style="overflow:visible;"/>
	</clipPath>
</g>
<path style="fill:#D1D2D4;" d="M1371.9,744.4c-0.9-8.3-1.8-16.7-5.1-24.4c-3.4-7.9-9.2-13.5-16-17.9c-6.6-4.3-12.7,6.9-6.1,11.1
	c5.1,3.3,9.4,7.2,11.7,13.3c2.2,5.6,2.8,11.9,3.5,17.9C1360.8,752.5,1372.8,752.6,1371.9,744.4z"/>
<path style="fill:#D1D2D4;" d="M1930.3,281c-8.8-0.2-16.9,3.1-24.9,6.7c-7.7,3.5-15.4,7.4-22.3,12.5c-12.3,9.1-22.7,22-25.8,38
	c-0.7,1.2-1.3,2.4-2,3.6c-0.1,0.1-0.1,0.3-0.2,0.4c-1.5,2.8-2.9,5.7-4.2,8.7c-0.3,0.8-0.5,1.6-0.6,2.3c-6.9,2.4-13.4,6.4-19.1,11.8
	c-0.5,0.5-0.9,1.1-1.2,1.7c-15.3,2.4-29.5,12.3-37.1,27.1c-1.6,3.1-0.6,6,1.3,7.8c-3.1,1.3-6.1,2.7-9.1,4.2
	c-3.6,1.8-3.7,5.6-2.1,8.4c-7.4,7.1-12.6,16-8.9,25.3c3.1,7.6,13.5,1,10.4-6.5c-0.9-2.3,9.6-11.7,12-13.6c5.3-4.2,11.3-7.5,17.4-10
	c12.8-5.1,26.5-7.7,40.1-7.9c13.1-0.2,26.7,1.9,37.8,9.9c12.1,8.6,18.1,23.8,23.8,37.6c2.1,5.1,7.5,3.8,9.8,0c3.3-0.8,6.2-4,4.8-8
	c-3-8.7-6-17.5-8.8-26.3c3.8,0.1,8-4.2,6.2-9.2c1.4-0.8,2.5-2.5,2.9-4c1.1-3.8-0.8-7.3-2-10.7c-0.9-2.7-1.9-5.3-2.9-7.9
	c4.2,0.6,9-4.3,6.4-9.7c-3.5-7.4-6.7-14.9-9.8-22.4c3,1.8,6.2,0.3,8.1-2.4c0.1-0.1,0.2-0.2,0.2-0.3c1.7-2.4,0.6-5.7-0.9-7.8
	c-0.1-0.1-0.1-0.2-0.2-0.3c-0.5-0.7-1.1-1.2-1.7-1.6c-0.5-0.9-1-1.9-1.4-2.9c-0.7-1.6-1.2-3.3-1.8-5c-0.4-1.5-0.8-2.9-1.2-4.4
	c3.1-0.6,6.1-3.6,5.3-8c-1-6-2-12.1-3-18.1c-0.3-1.7-0.6-3.2-1.1-4.6c2.4-0.6,4.8-1.1,7.1-1.5C1938.8,292.4,1936.9,281.2,1930.3,281
	z M1805,397.4c0.4-0.6,0.7-1.1,1.1-1.7c0.3,0.3,0.7,0.6,1,1C1806.5,397,1805.7,397.2,1805,397.4z M1863.8,387.2
	c0-0.1-0.1-0.3-0.1-0.4c-0.1-0.3-0.2-0.5-0.3-0.8c0.7-0.4,1.3-1,1.8-1.7c0.4,1,0.8,1.9,1.2,2.9
	C1865.5,387.2,1864.6,387.2,1863.8,387.2z"/>
<path style="fill:#D1D2D4;" d="M1715.8,487.3c-2.6-9.3-11.4-15.5-18.4-20.9c-7.3-5.6-15.9-11.7-25.3-10.6c-7.6,0.9-7.7,13.8,0,12.9
	c6.7-0.8,12.5,3.8,17.8,7.7c4.4,3.3,12.7,8.5,14.4,14.3C1706.5,498.6,1718.1,495.3,1715.8,487.3z"/>
<path style="fill:#D1D2D4;" d="M1780.1,662.6c-22.2-6-44.5,1.8-63.1,15c-15.8,11.3-37.7,28.4-31.6,52c2,8,13.6,4.6,11.6-3.4
	c-2.3-8.9,2.8-16.7,8.5-22.6c6.2-6.4,13.3-12,20.6-16.9c15.2-10.2,33-16.5,50.9-11.7C1784.4,677.1,1787.6,664.6,1780.1,662.6z"/>
<path style="fill:#D1D2D4;" d="M1859.3,755.4c-10.4-9.7-22.5-15.8-35.8-18.5c-4.2-10.7-10.9-20.8-23.2-18.7c-5.7,1-3.3,10.3,2.4,9.3
	c6.2-1.1,9.9,5.8,12.1,11.8c-0.4,2.1,0.4,4.6,2.3,5.9c1.4,1.8,3.8,2.1,5.6,1.3c11.2,2.3,21.6,7.8,30.2,15.8
	C1857.3,766.3,1863.7,759.5,1859.3,755.4z"/>
<path style="fill:#D1D2D4;" d="M1708.2,948.3c0-0.2,0-0.5,0-0.7c0.9-1,1.3-2.5,0.6-4.3c-0.2-0.4-0.3-0.8-0.5-1.1c0,0,0,0,0,0
	c0,0,0-0.1-0.1-0.1c-1.9-4.6-4-9.1-6.4-13.3c-3-8.6-9.4-15.5-16.8-20c-0.4-0.3-0.8-0.4-1.2-0.5c-2.9-3-6.5-5.1-11.2-5.9
	c-0.3-0.1-0.6-0.1-0.9-0.1c-4.7-2.5-8.8,5.4-4.1,8.7c6.8,4.6,9.1,13.3,10.7,21.4c1.8,9.3,4,19.7,1.1,28.9
	c-2.7,8.8-9.3,15.5-15.4,21.6c-7.5,7.5-15.4,14.6-23.7,21.2c-4.6,3.7-0.1,12.1,4.5,8.4c6-4.8,11.8-9.7,17.5-14.9
	c0.8,3.1,4.7,5.5,7.6,2.5c4-4,7.7-8.2,11.1-12.7c1,0,2.1-0.3,3.1-1.1c1.6-1.3,3.2-2.7,4.8-4.2c1.5,0.9,3.4,0.9,5-1
	c0.9-1,1.7-2.1,2.5-3.1c0.8,0,1.6-0.1,2.3-0.6c5.2-3.3,7.6-8.5,8.2-14.3c1.5-3.9,2.3-8.1,1.9-12.5
	C1708.8,949.6,1708.6,948.9,1708.2,948.3z"/>
<path style="fill:#D1D2D4;" d="M1938.4,592.6c-0.2-0.1-0.4-0.2-0.6-0.3c0.8-2.5,0.2-5.4-2.8-6.9c-5.5-2.7-11.2-4.6-17.1-5.6
	c0.6,0,1.1,0,1.7,0.1c1.8,0.1,4-1.5,4.3-3.6c3-18.6,5-37.3,5.9-56.1c0.2-3.5-3-5.1-5.7-4.7c-0.1,0-0.3,0.1-0.4,0.1
	c0.2-0.8,0.2-1.7,0.1-2.5c2-1.4,3.9-2.8,5.9-4.2c5.1-3.7,2.8-11.3-2.6-11.9c-0.2-1.4-0.8-2.8-1.7-3.9c-0.1-1.8-0.8-3.6-1.9-4.9
	c-0.5-1.3-1.4-2.3-2.5-3c1-0.5,2.1-1,3.1-1.5c7-3.4,0.9-14.5-6.1-11.1c-12.4,5.9-25.2,11.1-38.2,15.3c-6.5,2.1-13,4-19.5,5.7
	c-5.4,1.4-15.4,1.4-18.3,7.1c-5.4,10.6-10.6,20-19.2,28.1c-8.4,8-18.3,13.7-29,17c-1,0.3-1.8,0.8-2.5,1.5c-2,0.3-3.4,1.7-4.1,3.4
	c-14.4-2.5-29.1-3.5-42.9-4c-24.7-0.9-50.5,2.2-73.2,12.7c1.4-3.8-0.4-9.1-5.3-9.2c-8.7-0.3-16.9-3.1-24.2-8.1
	c-3.5-2.4-6.7-5.3-9.5-8.7c-1.3-1.5-2.5-3.2-3.7-4.9c-0.7-1.1-1.3-2.2-2-3.4c-0.4-0.8-0.9-3-0.8-1.3c-0.3-8.3-12.3-8.3-12,0
	c0,0.2,0,0.3,0,0.5c-0.1,0-0.2,0-0.3,0c-5.3,0.2-10.7-2.2-15.6-3.8c-5.5-1.9-11.1-3.6-16.6-5.6c-10.4-3.9-18.5-10.4-23.6-21
	c-3.5-7.4-13.9-0.9-10.4,6.5c0.2,0.3,0.3,0.6,0.5,0.9c-1.1,2.2-1.2,5.1,0.8,7.5c8.1,9.7,19.4,19.4,30.4,24.8
	c11.9,5.8,25.1,4.8,37.8,3.2c0,0,0,0,0,0c0.5-0.1,1.1-0.1,1.6-0.2c0.2,0,0.4-0.1,0.6-0.1c0.7,1,1.5,2.1,2.2,3
	c3.6,4.8,7.8,8.9,12.5,12.4c8.9,6.7,19.5,10.4,30.3,11.1c-5.2,2.8-10.1,6.1-14.8,9.8c-1.5-2.2-4.4-3.2-6.5-0.5
	c-1.9,2.4-3.7,4.9-5.3,7.5c-1.2-0.2-2.5,0.1-3.7,1.1c-19.3,17.5-34.9,39.7-45.1,64.5c-1.9,4.8-4.5,9.9-3.5,15.3
	c0.3,2,1.2,3.6,2.3,4.9c0.2,1.3,0.8,2.5,1.8,3.3c-12.5,1.5-25,4-37,8c-14.5,4.8-27.8,11.8-40.4,20.4c-13.2,5.6-25.3,13.2-36.4,22.8
	c-2.4,2.1-1.7,5,0.1,6.7c-3.9,3.8-7.6,7.9-10.9,12.3c-1.9-1.1-4.3-0.8-5.6,1.9c-3.5,7.5-6.9,15.1-10.4,22.6c-1.3,2.8,0,5.4,2,6.6
	c-1.8,6-3.5,12.1-5.2,18.1c-0.1-0.9-0.3-1.9-0.7-2.8c-1.8-4.2-5.8-4-8.5-1.7c-3.4-0.5-6.5-4.2-9.7-4.9c-4-0.9-7.7,1.8-10.6,4.3
	c-4,3.5-6.5,5.2-11.9,4.6c-3.4-0.4-8.5-1-11-3.7c-3.4-3.7-7.9-1.5-9.6,2c-0.4,0.3-0.9,0.6-1.3,1.1c-3.2,3.4-10.7,2.9-14.9,2.8
	c-4.8-0.1-9.2-1.4-12.4-5c0.7-2.1,0.7-4.3-0.3-6.7c-2.4-6-9.4-3.2-10.7,1.9c-2.3,3.7-7.2,6.5-10.6,8.1c-4.8,2.3-9.9,3.8-15,4.9
	c-5.9,1.3-12,2.1-18,0.9c-5.2-1.1-10.1-3.4-14.9-5.9c-0.2-4.4-4.9-8.9-9-5.7c-0.9,0.7-1.7,1.3-2.6,1.9c-3.4,1.4-9-0.1-12-0.8
	c-4.6-1.2-8.9-3.2-12.9-5.9c-8-5.4-14.2-13.6-17.3-23.1c-0.1-0.2-0.2-0.5-0.3-0.7c0.1-0.4,0.1-0.9,0.1-1.3c-0.1-1.7-0.6-3.4-1.8-4.6
	c-1.2-1.2-2.6-1.9-4.2-1.9h-0.5c-1.5,0-3.2,0.7-4.2,1.9c-0.4,0.4-0.8,1-1.1,1.6c-3.2,0.6-6.2,3.6-5.4,8c2.1,11.2,5.1,22,12.3,29.6
	c0,1.4,0.4,2.9,1.4,4.2c10.1,13.9,26.1,17.2,41.6,17.4c4.1,1.1,8.3,1.3,12.4-0.6c2.2-1,3.6-3.2,4-5.6c4.4,2,8.9,3.7,13.6,4.4
	c8.7,1.4,17.5-0.1,25.9-2.4c6.9-1.8,13.9-4.5,19.8-8.8c0.6-0.4,1.1-0.8,1.7-1.3c2.3,2.3,4.8,4.1,7.6,5.5c0.5,0.7,1.2,1.4,2.1,1.9
	c5.5,3,11.5,4.5,17.7,4c2.4-0.2,4.6-1.6,5.5-3.9c3.7-0.8,7.2-2.3,9.9-4.9c4.9,2.5,10.8,3.5,15.9,3.7c3.7,0.2,7.6-0.4,10.9-2.2
	c2.9-1.6,5.2-4.8,8.1-6.5c4.2,2.3,8.4,4.6,13.4,4.5c2.4,0,4.3-0.9,5.6-2.3c-1.2,4.4-3.1,11.5-2.8,17c-1.3,0.7-2.2,2.1-2.3,4
	c0,0.8-0.1,1.5-0.1,2.3c-1,0.1-1.9,0.5-2.8,1.2c-2.7,2.2-4.4,5.3-6.9,7.6c-3,2.8-7.3,3.6-10.8,5.3c-2.1,1-4.1,2.2-6,3.5
	c-2.1,0.7-4.2,1.7-6,3c-4.7,3.4-11.7,9.3-8.9,16.2c1.6,4,5.3,6.8,9.3,8.9c2.4,2.1,5.2,3.7,7.8,3.1c0.1,0,0.2,0,0.2,0.1
	c0.4,1.4,1.3,2.5,3.1,3.1c3.9,1.2,10.4,2.5,15.6,1.5c2.1,0.7,4.2,1.5,6.2,2.6c2.6,1.4,5.2,0.2,6.2-2.2c5.9,12,15.9,21.5,28.2,24.3
	c-1.9,2.1-3.7,4.4-5.2,6.9c-4.1,6.7-5.7,15.3-4.5,23.1c-0.2-0.2-0.4-0.4-0.7-0.5c-15.2-9.5-36.3,1.5-48.6,12.1
	c-13.4,11.6-20.8,31.6-12,48.8c2.8,5.5,10.6,0.6,7.8-4.9c-6.9-13.5,0.5-28.9,10.9-37.4c9.2-7.5,26.1-17.4,37.4-10.3
	c2.9,1.8,5.6-0.2,6.4-2.8c2.4,7.4,7.8,13.3,16.3,14.8c5.7,1,8.1-8.3,2.4-9.3c-8.3-1.5-12.8-10.1-11.5-18.8
	c1.4-8.9,7.5-15.9,14.2-20.7c14.6-10.5,32.6-16.9,49.5-21.4c17.3-4.7,35-6.9,52.8-6.6c9.8,0.1,17.4,2.1,23.9,10.3
	c5.1,6.3,10.3,16.8,2.7,23.3c-4.5,3.8,1.9,10.7,6.4,6.8c12.8-10.8,4.6-29.7-5-39.7l21.1-6.9c7.3-2.4,14.8-5.5,22.4-6.5
	c7.6-1,15.5,0.1,23.1,0.6c8,0.5,16.1,0.6,24,1.7c13,1.8,25.3,10.4,36.2,17.7c11.4,7.6,22.2,16.3,32.2,25.9
	c7.5,7.2,14.5,14.9,21.1,23.1c1.5,2.6,3,5.4,4.3,8.2c-1.8,2.8-2.2,6-1.7,9.1c-6.1,5.1-11,11.9-15,19.5
	c-12.8,24.3-22.7,53.2-9.6,79.9c3.2,6.4,11.5,8.4,17.1,4.8c6-3.8,7.7-12,4.5-18.4c-6.4-13-2-27.8,3.7-40.7c1.3,0.4,2.7,0.6,4.2,0.4
	c1.2-0.1,2.4-0.3,3.5-0.4c1,0.6,2,1,3.2,1.2c5.8,1.2,11.7,2.2,17.5,2.9c4.3,8.3,8.3,16.8,12,25.4c2.8,6.6,11.7,8.2,17.1,4.8
	c6.3-4,7.3-11.8,4.5-18.4c-1.5-3.4-3-6.9-4.5-10.2c2.9,0,5.8-0.1,8.6-0.3l0.7,0.8c4.4,5.5,13.2,4.8,17.7,0c0.8-0.9,1.5-1.8,2-2.8
	c0.8-0.1,1.7-0.2,2.5-0.4c4-0.6,6.9-4.1,8.2-8.1c0.6,0.1,1.3,0.1,1.9,0c2.9,6.1,4.9,12.8,5.8,19.7c0.8,6.1,9.5,3.5,8.7-2.6
	c-0.3-2.3-0.7-4.6-1.3-6.9c1.6-0.9,2.5-2.8,1.8-5.2c-0.3-0.8-0.5-1.6-0.8-2.5c0.3,0.1,0.6,0.2,0.9,0.3c0.5,0.9,0.9,1.9,1.3,2.8
	c0.4,1.1,1.1,1.9,1.9,2.4c0.6,1.3,1.3,2.6,1.9,3.8c2.8,5.4,10.6,0.6,7.8-4.9c0-0.1-0.1-0.1-0.1-0.2c4.2,1.5,8.3,3,12.4,4.7
	c6.3,2.6,13.7-2.9,15.4-9.4c1.8-7-1.8-12.9-7.3-15.8c1.6-0.8,3.2-1.6,4.7-2.3c8.2-3.8,8.1-19.3,0-23.2c-9-4.3-16.5-11.1-24-17.8
	c-0.1-2.3-0.2-4.5-0.3-6.8c-0.5-14.1-0.2-28.2,0.2-42.4c0.4-14.2,0.9-28.3,0.9-42.5c0-6.9-0.1-13.8-0.4-20.7
	c-0.3-6.9-1.4-14.3-0.3-21.2c0.2-1.4,0.3-2.9,0.2-4.3c4.7-3.4,2.5-12.3-3-12c-0.4-0.8-0.8-1.5-1.3-2.1c4.1-1.8,8.1-3.6,12.2-5.4
	c3.3-1.5,4.4-4.9,3.9-7.9c1-3-0.3-6.8-4-6.4c-4.5,0.5-8.8,1.5-12.9,3.6c-3.4,1.7-6.1,4-8.8,6.5c-6.3,2.7-12.6,5.4-18.9,8.1
	c-4.7,0.4-9.5,0.1-13.9-0.4c0.2-0.7,0.5-1.5,0.7-2.2c1.8-5.9-6.9-8.5-8.7-2.6c-1.9,6.1-3.8,13-8.9,17c-0.1,0.1-0.3,0.2-0.4,0.3
	c-2.1,0.8-4.3,1.5-6.4,2.2c-3.9,0.4-8.1-0.7-11.5-2.2c-0.2-0.1-0.4-0.2-0.6-0.2c1.9-4,2.8-8-0.3-12.1c-3.6-4.9-10,2-6.4,6.8
	c-0.9-1.2-0.1-0.9-1,0.5c-0.6,0.9-1.1,1.9-1.6,2.8c-1.1,1.9-2.2,3.8-3.4,5.6c-1.9,2.9-4.2,5.8-6.8,8c-7.3,1.8-14.7,3.3-22.2,4.4
	c-2.9-0.5-5.7-1.2-8.4-1.9c-2.8-0.7-4.9,1.3-5.4,3.6c-0.9,0.1-1.9,0.2-2.8,0.2c2.8-2.8,5.4-5.9,7.9-8.9c1.6-2,1.4-4.4,0.3-6.1
	c1-1.7,1.8-3.4,2.6-5.3c2.3-5.6-5.4-10.6-7.8-4.9c-6.3,15.3-19.7,23.6-34.3,25.6c-5.2-0.3-10.4-0.9-15.5-1.7c-6-1-12-2.3-18-3.9
	c-0.2,0-0.3-0.1-0.5-0.1c-4-1.8-7.9-3.8-11.7-6.1c-4.7-2.8-9.2-5.9-13.6-9.1c-3.9-2.9-7.2-6.7-12.1-5.9c-2,0.4-3.2,2.7-3.3,4.7
	c-0.2,2.4,1,3.8,2.7,5.2c0,0,0.1,0,0.1,0.1c-0.1,0.2-0.1,0.4-0.2,0.7c-0.5,3.7-6.6,4.6-9.5,5.6c-3.7,1.2-7.4,2.4-11.3,2.8
	c-2.2,0.1-4.4,0.1-6.6,0c-3.3-0.5-6.3-1.6-9.1-3.2c2.3-2.2,1.3-6.1-1-7.6c3.4-4.6-2.7-11.1-6.6-6.6c-5.5,6.5-13.5,6.8-21.2,6.2
	c-7.7-0.7-15.9-1.4-22.8-5.3c-4.5-2.5-8.5,3.5-6,7c-12.8,4.2-25.5,8.4-38.3,12.6c-10.4,3.4-24.4,7.2-22.2,22.2
	c1.9,13.3,15.7,19.4,25.7,24.3c12.4,6,25.3,10.4,38.7,13.1c0.4,0.1,0.7,0.1,1,0.1c1,0.7,2.2,1.2,3.5,1.5c0,0.2,0.1,0.4,0.1,0.7
	c-11.3-2.4-24-0.7-34.6,0.5c-18.5,2.1-36.7,6.6-54.1,13.7c-9.5,3.9-19.9,8.2-28.6,14.6c-0.3-0.4-0.6-0.7-1-0.9c0-2-0.7-4-2.6-5.5
	c-27.7-21-23.7-65.5-13.3-95.4c11.9-34.1,35.6-63.2,64.6-81.9c16.5-10.6,34.6-17.7,53.6-20.8c3-0.5,4.3-2.8,4.3-5.3
	c3.3-0.4,6.7-0.8,10-1.1c9.5-0.8,19.1-0.9,28.6-0.6c4.6,0.2,9.2,0.4,13.8,0.8c2.6,0.2,5.2,0.4,7.8,0.7c0.8,0.1,2.6,0.6,3.6,0.9
	c0.1,0.1,0.2,0.1,0.3,0.2c0.1,0.1,0.3,0.2,0.4,0.2c0.5,6.1,9.4,6.1,9-0.1c-0.2-4-2-6.5-4.5-8.1c-0.1-0.1-0.3-0.3-0.4-0.4
	c-2.6-1.9-4.9-4.2-7.1-6.7c0.3-1.1,0.3-2.4-0.3-3.7c-0.9-1.9-2.1-3.2-3.6-4.1c-11.9-14-13.9-32.5-9.5-49.7c3-5.2,6.6-10,10.7-14.4
	c11-11.9,25-20.5,39.8-25.7c18-6.3,37-8,55.9-7.5c17.7,0.5,35.7,2.2,53.1,6.1c18.2,4.1,36.1,11.1,49.8,25c0.6,0.6,1.1,1,1.7,1.3
	c-9.7,4-19.2,8.5-28,13c-2.9,1.5-3.6,4.3-2.8,6.8c-0.3,0.2-0.7,0.4-1,0.6c-6.8,3.9-0.8,15,6.1,11.1c21.6-12.2,44.7-23.5,69.4-25.8
	c11.1-1,22.3-0.4,33.1,2.6c1.6,0.4,3.2,1,4.8,1.5c2,1.2,3.9,2.5,5.8,4c1.7,1.3,3.5,1.4,4.9,0.8c3.1,1.7,12.6,6.4,11.8,10.6
	c-1.6,8.1,9.9,11.6,11.6,3.4C1964.9,606,1949,597.4,1938.4,592.6z M1830.4,808.4c-1.9,0.8-3.8,1.5-5.8,2.2c-2.3,0.3-4.5,0.5-6.8,0.6
	C1822,810.4,1826.2,809.5,1830.4,808.4z M1760.7,816.8c-0.1,0.2-0.2,0.4-0.3,0.7c-0.9-0.2-1.9-0.3-2.8-0.5
	C1758.6,817,1759.7,816.9,1760.7,816.8z M1726.3,812.9c-0.6,0.1-1.3,0.2-1.9,0.5c-0.1-0.4-0.2-0.8-0.4-1.2
	C1724.8,812.5,1725.6,812.7,1726.3,812.9z M1710.6,806.6c-0.2,0.2-0.4,0.4-0.6,0.6c-0.2,0.1-0.3,0.2-0.5,0.3
	c-0.5-0.8-1.2-1.4-1.9-1.8C1708.6,806,1709.6,806.3,1710.6,806.6z M1702.4,804.3c0.7,0.2,1.4,0.4,2.2,0.6c-0.5,0-1,0-1.5,0.1
	c-0.5-0.2-1.1-0.3-1.7-0.4c-0.1-0.2-0.2-0.5-0.3-0.6C1701.5,804.2,1702,804.2,1702.4,804.3z M1464.5,758c0.1-0.2,0.2-0.5,0.3-0.7
	c2.5-6,6-11.3,10.2-16.1C1471.2,746.5,1467.7,752.1,1464.5,758z M1611.9,667.8c-4.3,0.1-8.7,0.3-13.1,0.6c3.1-0.7,6.3-1.2,9.4-1.6
	c2.9,0.3,5.8,0.7,8.6,1c0,0,0,0,0,0C1615.3,667.8,1613.6,667.8,1611.9,667.8z M1633.9,668c0.3,0.2,0.6,0.3,1,0.4
	c-0.8-0.1-1.5-0.1-2.3-0.1C1633,668.2,1633.4,668.1,1633.9,668z M1899.4,568.4c0.1,0.7,0.3,1.3,0.5,2c-0.2,0-0.3,0-0.5,0
	c0,0,0-0.1-0.1-0.1C1899.2,570,1899.3,569.3,1899.4,568.4z M1854.1,589.3c0.5-0.9,0.8-1.9,0.8-2.9c0.3-0.1,0.6-0.1,0.9-0.2
	c2.2,1.8,5.9,1.3,7.1-1.6c0.8-0.2,1.6-0.3,2.4-0.5c1.7,0.8,3.8,0.6,4.9-0.9c1.7-0.3,3.4-0.5,5.1-0.8c0.4,0.2,0.8,0.3,1.2,0.4
	C1869,584.3,1861.5,586.6,1854.1,589.3z M1905.6,581.1c-8.5-1-17.2-0.5-25.9,1c0.2-0.1,0.4-0.3,0.5-0.4c8.9-1.1,17.9-1.8,26.9-1.9
	C1906.6,580.2,1906.1,580.6,1905.6,581.1z"/>
<path style="fill:#424142;" d="M88.2,333.4c-12.6-8.9-27.2-13-41.7-12.4c0.1-0.5-0.1-1.1-0.4-1.8c-10.8-18.4-31-27.2-49.7-21.4
	c-3.1,1-1.8,6.5,1.3,5.5c16.2-5,34,2.4,43.7,18.1c-10.5,1.3-20.8,5.1-30,11.4c-2.8,1.9-0.2,6.8,2.5,4.9
	c21.9-15.1,50.1-14.8,71.8,0.5C88.4,340.2,90.9,335.3,88.2,333.4z"/>
<path style="fill:#424142;" d="M190.7,983.8c-11.8-40.4-39.1-78.5-79.1-79.6c-3.2-0.1-3.2,5.6,0,5.7c37.7,1.1,63.3,37.5,74.3,75.4
	C186.9,988.8,191.7,987.3,190.7,983.8z"/>
<path style="fill:#424142;" d="M1711.1,942.5c-3.6-19.7-18.5-35.7-36.4-40.7c-3.1-0.9-4.4,4.3-1.3,5.2c15.9,4.5,28.8,18.2,32.6,35.5
	c3.9,17.9-3.2,37.6-16.8,48.6c-2.5,2.1,0,6.7,2.5,4.6C1706.9,983.4,1714.8,962.7,1711.1,942.5z"/>
<path style="fill:#424142;" d="M1781.5,662.5c-21-7-44.1-3.6-63.1,7.9c-9.3,5.6-17.5,13.2-23.9,22.3c-7,9.9-13.2,22.7-9.4,35.3
	c1,3.3,5.8,1.9,4.8-1.4c-3.6-12,3.7-24.6,10.6-33.5c6.3-8,14.1-14.6,22.8-19.4c17.4-9.8,38-12.3,56.8-6
	C1783.3,668.7,1784.6,663.5,1781.5,662.5z"/>
<path style="fill:#424142;" d="M1704.4,733.5c-15.9-5.3-33.3-5.3-49.1,0.7c-12.1,4.6-23.8,14.2-22.9,29c-6.1-3.6-14.3,0.7-20.3,3.4
	l-16.4,7.4c-3.2,1.4-7.3,2.7-8.3,6.8c-2.1,8.9,11.9,13.8,17.5,16c10.7,4.3,22.2,5.9,33.6,5.2c0.6,0,1.1-0.3,1.5-0.7
	c4.3,4.3,9.8,7.2,15.8,8.4c13.2,2.6,26.1-3,38.1-8.4c2.9-1.3,1.6-6.5-1.3-5.2c-10.1,4.5-20.8,9.5-32,8.8
	c-9.2-0.6-18.8-5.7-22.2-15.4c-1.1-3.2-6-1.8-4.8,1.4c0.7,2.1,1.7,4,2.8,5.7c-7,0.3-14-0.3-20.9-2.1c-7-1.8-16.1-4.5-21.6-9.7
	c-4.1-3.9,4.8-6.5,7.5-7.7c3.5-1.6,6.9-3.1,10.4-4.7c5.2-2.3,15.2-8.9,20-3.1c1.9,2.3,4.8-0.3,4.1-2.8c1-0.5,1.8-1.6,1.6-3.1
	c-2-15.7,14.6-23.5,26.1-26.5c13.1-3.5,26.7-2.7,39.5,1.5C1706.2,739.7,1707.5,734.6,1704.4,733.5z"/>
<path style="fill:#424142;" d="M1941.4,763.3c-0.4-1.2-0.9-2.4-1.5-3.6c1.9-1.9-0.3-4.7-2.5-4.2c-6-8.4-15.9-12.9-25.6-11.7
	c0.1-0.5,0.1-1-0.1-1.6c-6.2-16.6-21.5-27.7-38.2-27.1c-0.5,0-0.9,0.2-1.2,0.4c-0.4-10.3-1.4-20.7-7.4-29.2
	c-6.8-9.6-17.3-15.5-27.9-19.1c-23.6-8-50-4.2-71.1,9.5c-2.7,1.8-0.2,6.4,2.5,4.6c19.1-12.5,42.5-16.2,64.2-10
	c9.9,2.9,20,7.8,27,16.2c8.6,10.4,7.5,25,8.1,38.1c0.2,3.4,5.2,3.5,5,0c-0.1-1.8-0.2-3.6-0.2-5.5c0.3,0.1,0.6,0.2,1,0.2
	c14.3-0.5,28,8.7,33.4,23.1c0.2,0.5,0.4,0.8,0.7,1.1c-1.7,0.5-3.4,1.2-5,2.1c-2.9,1.6-0.3,6.2,2.5,4.6c9.5-5.3,21.7-1.7,28.1,7
	c-5.1,3.6-10.8,5.9-16.9,6.8c-0.9,0.1-1.5,0.7-1.7,1.4c-0.5,0.1-1.1,0.5-1.5,1.1c-7.8,11.8-23.6,14.8-34.8,7
	c-1.3-0.9-3.4-0.1-3.7,1.6c-2.5,16.2-19.4,16.7-31.9,15.4c0.6-2.7,0.7-5.7,0-8.7c-0.7-3.4-5.5-1.9-4.8,1.4c0.5,2.5,0.4,4.8-0.2,7
	c-1,0.5-1.4,1.8-1.1,3c-3.1,6.4-10.3,10.9-16.5,12.8c-9.3,2.8-19.2,1.6-27.7-3c2.7-3.7,4.7-8.1,5.9-13.2c0.8-3.4-4-4.8-4.8-1.4
	c-5.8,25.1-34.1,28.5-54,24.4c-19.7-4.1-37.5-15.5-50.4-32c-2.1-2.7-5.6,1.2-3.5,3.8c14.6,18.6,35.4,31.1,57.9,34.3
	c15.4,2.2,34-0.4,45.4-11.8c11.3,6.6,25,7.8,37,2.5c6.2-2.7,11.9-7.6,15-13.8c13.9,1.6,33,0.7,37.8-15.7c13.3,7,30.1,2.4,38.7-10.7
	c0,0,0,0,0,0c0.1,0,0.1,0,0.2,0c6.6-1,12.7-3.6,18.2-7.5c0.3,0.6,0.5,1.2,0.7,1.8C1937.7,768,1942.5,766.6,1941.4,763.3z"/>
<path style="fill:#424142;" d="M1850.9,748.5c-7.4-7.5-16.1-12.8-25.9-15.6c-3.4-9.8-12.1-16.3-22-16.2c-3.2,0-3.2,5.4,0,5.4
	c4.9,0,9.4,1.8,12.9,5.4c1.9,2,3.3,4.3,4.3,7c0.6,1.5,0.6,2.3,1.9,3.2c1.4,1,4,1.2,5.6,1.8c2.5,0.9,5,2.1,7.4,3.4
	c4.5,2.6,8.6,5.8,12.2,9.6C1849.7,754.7,1853.3,750.9,1850.9,748.5z"/>
<path style="fill:#424142;" d="M144.1,512.2c-17.1-12.9-37.4-21.9-58.2-20.1c-18.2,1.6-35.3,11.2-46.2,28.2c-1.9,3,2.4,5.8,4.3,2.9
	c10.3-16.2,27.6-24.9,44.9-25.5c19-0.7,37.1,7.7,52.7,19.5C144.2,519.2,146.7,514.2,144.1,512.2z"/>
<path style="fill:#424142;" d="M1942,582.3c-15.3-6.1-32.1-6.9-48.3-5.4c-28.8,2.8-59,11.9-79.4,35.1c-2.2,2.5,1.3,6.3,3.5,3.8
	c17.8-20.2,43.3-29,68.3-32.6c13.9-2,28.2-2.5,41.9,0.5c10.2,2.2,34.9,9.4,30.8,25.4c-0.9,3.3,4,4.8,4.8,1.4
	C1967.5,595.8,1952.7,586.5,1942,582.3z"/>
<path style="fill:#424142;" d="M1964.4,520.9c-18.9-7.3-39.9-10.2-59.4-3.8c-15.5,5.1-29.3,15.7-37.6,30.7
	c-19.6-8.8-42.8-4.3-58.2,11.7c-7.4-2.7-15.1-4.7-22.7-6.4c-0.3-0.1-0.6-0.1-0.9-0.2c25.6-3.6,48.6-22.7,57.6-49
	c1.1-3.3-3.7-4.7-4.8-1.4c-10.1,29.6-39.4,48.7-68.4,45.3c-1.4-0.2-2.1,0.7-2.3,1.9c-16.7-2.5-33.6-3.4-50.5-2
	c-20.3,1.7-40.3,6.9-58.5,15.9c-18.8-1.4-35.4-16-40.6-35.5c-0.9-3.3-5.7-1.9-4.8,1.4c0.7,2.5,1.5,4.8,2.4,7.1
	c-15.2,0.3-31.6,0.1-45.2-8c-11.1-6.6-19.9-18.5-20-32.4c25.2-0.3,48-15.5,72.4-20.7c13.9-3,28-4.2,42.2-5.1
	c9.5-0.7,24-2.7,29.3,8.2c1.5,3.1,5.8,0.3,4.3-2.7c-4.6-9.4-14.7-11.4-23.8-11.4c-14,0-28.4,1.7-42.3,3.8
	c-14.6,2.2-28.4,6.6-42.2,12.1c-13.7,5.4-27.6,10.8-42.4,10.4c-1.4,0-2.4,1.3-2.5,2.7c-1.2,15.8,7.9,29.9,19.9,38.1
	c15.2,10.3,34.2,10.7,51.6,10.3c0.4,0,0.8-0.1,1.1-0.3c7.1,13,19,22.6,32.8,26c-15.8,9-30,21.2-41.6,36.6
	c-13.4,17.9-22.3,39-24.8,61.8c0,0.3,0,0.6,0,0.9c-20,3.1-39.7,8.4-58.4,17c-8.5,3.9-16.6,8.5-24.3,13.9c-7.7-6.1-16.8-8.4-26.5-6.9
	c-0.4,0.1-0.7,0.2-1,0.4c-11.9-9-28-11.2-41.5-4.8c-1.6-5.7-4.8-10.8-9.1-14.9c-8.6-8.1-19.9-10.7-31.1-9.3
	c-20.2,2.5-46,15.4-51.3,38.5c-0.2,0.9,0,1.7,0.4,2.3c-6-2.4-12.7-3.3-19.3-2.8c-11.3,0.9-21.9,5.1-32.2,9.8
	c-6.6,3-15.8,8.6-13,17.8c0.1,0.2,0.1,0.3,0.2,0.5c-12.3,0.1-24.6,3.5-36.2,8.5c-7.6,3.3-15.5,6.9-22.5,11.6
	c-6.7,4.4-9.1,10.3-7.1,18.6c8.3,34.8,43.6,54.3,75,44.5c1.5-0.5,2-2,1.7-3.3c19.4,8.6,42,4.1,57.1-11.9
	c10.5,14.9,31.9,17.9,45.6,5.9c0.9-0.8,1-1.7,0.7-2.5c6.2,4.9,15,6,22.1,2.2c2.5-1.3,4.1-4.2,6.3-5.5c2.2-1.3,5.3,2.7,7.7,3.4
	c4.9,1.5,9.8-0.4,13-4.4c-0.5,4.6-0.7,9.2-0.7,13.9c-0.2,0.2-0.4,0.4-0.6,0.8c-8.9,17.7-32.3,17.2-42.2,33.9
	c-5.2,8.8-2.7,17.7,6.1,21.9c11.3,5.5,23.5,8.9,35.7,10.7c0.9,0.1,1.7-0.2,2.2-0.8c5.9,12.8,17.7,21.5,31,22.7
	c-4.6,5-8.2,10.9-9.7,17.9c-0.3,1.4-0.5,2.8-0.6,4.3c-8.5-6.1-19.6-4.1-28.9-0.8c-10.9,4-21,10.9-28.4,20.4
	c-14.3,18.5-16.1,46.1-1.8,65.2c2,2.7,5.5-1.1,3.5-3.8c-12.5-16.7-10.6-41.5,1.8-57.6c5.9-7.7,13.7-13.6,22.2-17.4
	c8.8-3.9,21.9-8.1,30-0.6c0.6,0.5,1.2,0.7,1.8,0.7c1.3,10.3,7.5,19.9,17.5,21.5c3.1,0.5,4.5-4.7,1.3-5.2
	c-7.5-1.2-12.2-7.7-13.7-15.4c-1-5-0.3-9.9,1.5-14.4c0-0.2,0.1-0.5,0.2-0.7c0-0.1,0.1-0.1,0.1-0.2c1.2-2.8,2.8-5.4,4.7-7.8
	c1.8-2.2,3.7-4.3,5.8-6.2c0.2,0,0.4-0.1,0.6-0.1c4-4.6,8.8-8.6,13.9-10.7c0.3-0.2,0.6-0.4,0.9-0.5c7.4-4.4,15.4-8,22.7-11.1
	c16.7-7.1,34.3-11.6,52.2-13.3c14.9-1.4,45.6-3.8,47,19.5c0.2,3.4,5.2,3.5,5,0c-0.7-12.5-9.3-19.9-19.3-23.3
	c25.6-23.5,61.2-31.4,94.1-25.4c34.6,6.3,64.7,28.1,87.2,56.5c12.8,16.1,23.1,34.4,31.2,53.8c1.3,3.1,5.6,0.4,4.3-2.7
	c-2.4-5.7-5-11.3-7.8-16.8c0.2,0,0.4,0,0.6,0c21.5-3.4,44.4-3.9,65.7,1c9.8,2.2,18.7,6.7,24.9,15.3c5.8,8.1,9.1,18,12,27.7
	c1,3.3,5.8,1.9,4.8-1.4c-3.1-10.2-6.6-20.6-12.7-29.2c-6.1-8.7-14.7-13.9-24.4-16.7c-22.9-6.4-48.4-5.5-71.7-1.8
	c-0.7,0.1-1.2,0.5-1.5,1c-14.5-27.3-34.2-51.6-58.7-69c-30.1-21.2-67-29.9-102.3-21.8c-19.2,4.4-37.2,13.9-51.7,28.1
	c-1.6-0.3-3.1-0.5-4.7-0.6c-17.3-1.4-35.4,1.4-52.2,5.9c-16.7,4.5-32.8,11.4-47.8,20.5c-4.7,2.8-9.6,6.1-14.1,9.9
	c-18,1.5-34.5-12.8-35.6-33.4c-0.2-3.4-5.2-3.5-5,0c0.2,4.1,1,8,2.2,11.6c-10.1-1.6-19.9-4.3-29.4-8.2c-5.3-2.2-12.4-4.9-10.2-12.6
	c1.4-5,5.5-8.7,9.4-11.5c10.5-7.6,24.2-11.1,32.1-22.1c1.5,1.1,4.1,0.4,3.9-2.1c-2.2-35.5,13.4-69,36.7-93.4
	c25.4-26.6,59.3-40.8,93.7-47.4c20.6-4,41.5-5.4,62.4-5.7c3.2,0,3.2-5.4,0-5.4c-16.2,0.2-32.6,1.1-48.7,3.4c0,0,0-0.1,0-0.1
	c4.3-39.8,29.9-73.6,61.8-92.8c2.5-1.5,5.1-3,7.7-4.3c0.8,0,1.5-0.4,1.8-0.9c35.7-17.7,77.3-18.8,115.5-11.6c23,4.3,47,11,65,28
	c2.4,2.3,6-1.5,3.5-3.8c-9-8.5-19.4-14.6-30.4-19.1c14.3-13.4,35.4-16.8,52.6-8c1.2,0.6,2.7,0.4,3.4-1
	c18.2-35.9,60.1-39.1,92.5-26.5C1966.1,527.3,1967.4,522.1,1964.4,520.9z M1451.5,757.5c-4.9,10.8-8.3,22.2-10,34
	c-1-1.1-3-1.4-4.1,0.3c-1.8,2.7-5.1,3.8-8.1,2.9c-2.4-0.8-3.6-3.1-5.7-4.2c-4.1-1.9-6.2,1.9-8.9,4.5c-7.3,6.9-19.8,4.1-24.2-5
	c-1.5-3.1-5.8-0.3-4.3,2.7c1,1.9,2.2,3.6,3.6,5.1c-0.7-0.1-1.4,0-2.1,0.6c-11.6,10.2-30.2,6.7-38.6-6.2c1.3-1.6,2.5-3.4,3.6-5.2
	c1.8-2.9-2.5-5.6-4.3-2.7c-1.1,1.7-2.2,3.3-3.4,4.9c-0.8,0.3-1.4,1.1-1.6,2c-16.7,19.1-45,21.8-64.6,4.7c-2.5-2.2-6,1.6-3.5,3.8
	c3.1,2.7,6.4,4.9,9.8,6.8c-27.9,8.4-58.1-7.7-67.4-37.7c-1.4-4.5-2.7-9.5,0.9-13.2c2.4-2.5,5.8-4.1,8.8-5.7c6.7-3.7,13.5-7,20.6-9.8
	c14.4-5.5,29.7-8.3,44.9-4.6c3.1,0.8,4.5-4.4,1.3-5.2c-4-1-7.9-1.5-11.9-1.7c0.3-0.5,0.4-1.2,0.1-2c-2.6-8.6,14.3-13.5,19.5-15.5
	c7.7-3,15.8-5.4,24-5.5c15.8-0.2,30.9,8.7,33.7,26.4c0.5,3.4,5.4,2,4.8-1.4c-2.1-12.8-9.9-21.7-19.9-26.4c0.9-0.1,1.7-0.7,1.9-1.9
	c4.5-19.4,25.3-30,42-33.7c9.8-2.2,20.6-1.7,29.1,4.5c4.4,3.2,8,7.7,10.1,12.8c1.2,2,1.5,5.2,1.4,8.5c0.1,0,0.2,0.1,0.4,0.1
	c0,1.4,0,2.9-0.3,4.3c-0.5,3.4,4.3,4.8,4.8,1.4c0.4-2.7,0.5-5.5,0.2-8.1c15.9-8.2,36.7-2.5,46.5,13.6c1.8,2.9,6.1,0.2,4.3-2.7
	c-1.6-2.6-3.4-4.9-5.4-7c6.4-0.4,12.6,1.4,18,5.2C1478.2,715.5,1461.9,734.5,1451.5,757.5z"/>
<path style="fill:#424142;" d="M1931.2,279.3c-19.2-3.1-37.2,5.4-51.4,18.9c-13.9,13.2-27.2,31.2-31.8,50.8
	c-0.3,1.2,0.2,2.2,0.9,2.8c-6.6,2.2-12.6,6.6-16.9,12.7c-7-2-14.7-0.3-21,3.7c-10.4,6.6-16.2,18.9-21.4,30.2
	c-0.7,1.5-0.1,2.8,0.9,3.5c-11.1,7.8-20,20.1-18.7,35c0,0,0,0.1,0,0.1c-0.1,0-0.2-0.1-0.3-0.1c-13.9-3.4-28-6.1-42.3-6.1
	c-23.5,0-47.9,8.2-63.2,28.3c-2,2.7,1.5,6.5,3.5,3.8c13.6-17.9,34.8-25.9,55.8-26.6c12.2-0.4,24.4,1.3,36.3,3.9
	c8.6,1.9,24.5,3.3,28.4,13.6c1.2,3.2,6,1.8,4.8-1.4c-3.2-8.5-10.7-11.8-18.4-14c0.2-0.4,0.3-0.8,0.2-1.3
	c-1.7-19.2,14.3-30.9,28.8-37.4c15.1-6.7,31.4-10.2,47.7-10.4c8.1-0.1,16.1,0.7,24,2.3c8.1,1.6,16.9,3.8,23.4,9.7
	c10.5,9.6,12.6,25.9,14.4,39.7c0.4,3.4,5.3,2,4.8-1.4c-1.7-12.6-3.7-26.1-11-36.5c-7.9-11.2-20.6-14.9-32.9-17.1
	c-27-4.8-57.1-1-81.4,13.4c4.1-8.9,8.6-18.2,16-24.3c7.4-6.2,18-8.3,25.9-2c2.6,2.1,5.1-2.6,2.5-4.6c-0.8-0.6-1.6-1.1-2.4-1.6
	c7.4-9.9,20.3-13.5,31.4-9c3,1.2,4.3-4,1.3-5.2c-5.5-2.2-11.4-2.7-16.9-1.6c0-0.1,0.1-0.2,0.1-0.4c4.2-17.8,15.9-33.6,28.1-46.1
	c13.1-13.3,30.5-22.9,49-19.9C1933,285,1934.4,279.8,1931.2,279.3z"/>
<path style="fill:#424142;" d="M631,933c-6.6-2.6-13.4-1.3-19.9,0.8c-8.4,2.6-16.2,5.7-24.3,0.6c-6.4-4-11.9-8.2-19.2-9.9
	c-12.2-2.9-25.1-0.5-35.7,7c-4.4-15.8-26.2-22.1-39.3-22.1c-13.6,0-26.9,6.4-35.5,17.8c-0.1,0.2-0.2,0.5-0.5,0.7c0,0,0,0-0.1,0.1
	c-2.3,3.2-4.3,6.8-5.7,10.8c-16.6-16.5-41.2-16.2-57.5,0.7c-11.8-16.9-25.4-32.2-42.1-42.5c-23-14.1-52.2-17.8-75.3-2.3
	c-0.4-0.8-0.9-1.5-1.3-2.3c3.5-2.2,6.6-5.1,9.3-8.4c15,0,29.5-5.8,41.4-16.2c8.9-7.8,18-19.6,21.3-32.6c6.8,2,15.3-1,22-2.6
	c7.6-1.7,15.1-4,22.2-7.6c10.4-5.2,19.7-13.7,25.3-25.1c0.1,0.6,0.5,1.2,1.2,1.6c14.8,8.6,32.8,8.9,47.5-0.4
	c3.9-2.5,7.4-5.5,10.6-9.1c16.1,11.7,36,15.5,54.7,10.6c15.6-4.1,33.4-15.2,37.2-34.1c10.6,4,21.8,1,31.8-4.6
	c5.1-2.8,9.9-7.1,12.9-12.4c5.6,3.9,12.4,4.6,19,4c7.6-0.7,16.1-2.5,22-8.6c5.7-5.9,6.6-15.1,2.6-22.5c-5-9.2-14.2-12-23-13.6
	c0-4.2-1.5-8.4-4.2-11.7c-6-7.3-15.8-11.2-24-13.7c-18.1-5.6-37.2-4.1-54.5,3.8c0-0.1,0-0.2,0-0.2c-1.5-16.7-10.3-32.1-21.5-42.6
	c-20.6-19.4-50.7-25.1-75.3-12.7c-17.1,8.6-29.8,25.3-41.7,41.2c-0.7,0.9-0.8,1.9-0.5,2.8c-6.4-3.3-13.5-5.1-20.1-5.6
	c-20.2-1.4-40,8.1-56.3,21c-0.4,0.3-0.7,0.8-0.9,1.2c-9.5-13.7-23.4-23.5-37.9-29.9c-28.8-12.6-60.8-16.8-91.5-14.7
	c-0.1,0-0.2,0-0.4,0.1c0.5-2.8,0.7-5.7,0.6-8.5c-0.1-3.8-0.6-7.5-1.4-11.2c8.1-2.2,15.7-6,22.5-11.6c3.3-2.7,6.4-5.8,9.1-9.3
	c0.5-0.7,1.1-1.5,1.7-2.5c0.1,0.1,0.3,0.2,0.4,0.2c17.5,6.7,36.6,5,53.3-3.7c8.2-4.3,15.7-10.3,21.8-17.7c2.5-3,4.9-6.3,6.9-9.9
	c9.3-0.6,19-2.9,23-13.9c3.7-10.2,0.7-21.9-5.9-29.5c-16.1-18.7-44.6-17.7-64.3-7.5c-14.6-11.3-30.8-19.9-48.7-15.6
	c-1.8-25.5-16-48.7-34.9-62.4c-13.3-9.6-28.4-14.3-43.9-15.6c4.7-4.4,5.4-12.7,2-18.3c4.9-3.3,9-7.9,11.8-14
	c5.8-12.7,3.3-26.8-5.4-36.8c-9.2-10.7-22.9-16.8-35.4-20.5c-14.2-4.2-29.9-3.8-42.1,6.6c-2.5,2.2-0.1,7.1,2.5,4.9
	c10.3-8.8,23.3-9.9,35.5-6.8c10.8,2.7,22.1,7.6,31.1,15.1c8.8,7.4,14.6,18.8,10.7,31.3c-4.4,14.1-17.2,20.5-29.6,21
	c-3.2,0.1-3.2,5.8,0,5.7c5.5-0.2,11.2-1.5,16.3-3.9c2.6,3.5,2.2,8.8-1.1,11.7c-1.2,1.1-1,2.7-0.1,3.7c-13.4-0.7-26.9,1.1-39.7,4.3
	c-2.7-4.2-6-7.9-9.4-11.3c-9.7-9.5-21.6-16.1-34.1-18.8c-25.3-5.4-51.5,5.6-68.2,27.9c-2.1,2.8,1.4,6.8,3.5,4
	c15.1-20.2,38.7-31,61.8-26.7c10.9,2,21.4,7.1,30.3,14.7c4.6,4,9,8.7,12.4,14.1c4.3,6.8,5.1,13.7,5.1,21.9c0,3.7,5,3.7,5,0
	c0-7.3-0.5-14.2-3.5-20.7c26.8-6.4,56.6-6.1,80.7,10.5c21.3,14.7,36.4,42.3,33.4,71.3c-0.4,3.6,4.6,3.6,5,0c0.2-2.4,0.4-4.8,0.4-7.2
	c22.8-6.1,43,11.2,59.9,26.5c2.5,2.3,6.1-1.8,3.5-4c-3.3-3-6.7-6-10.1-8.9c16-7.4,35.9-7.8,50.7,2.9c7.3,5.3,12.7,14.2,11,24.5
	c-1.6,10.1-9,12.9-16.7,13.8c1.3-4.1,1.8-8.4,0.7-13c-0.9-3.5-5.7-2-4.8,1.5c1.1,4.4,0.2,8.7-1.7,12.8c-0.2,0.3-0.4,0.6-0.5,0.9
	c-2.7,5.3-6.9,10-10.3,13.5c-6,6.2-13.1,11.1-20.6,14.5c-14.3,6.4-30.1,7.2-44.8,2c1.8-2.6,3.8-4.9,6-5.2c3.2-0.4,3.2-6.1,0-5.7
	c-3.7,0.5-6.1,2.5-8.4,5.8c-3.1,4.4-5.9,8.9-9.6,12.8c-7.3,7.5-16.1,12.6-25.6,15.1c-4.8-16.2-15.1-30.9-25.2-42.5
	c-28-32.4-67.9-49.6-107.6-45.3c-23.4,2.5-46,11.9-65.3,27.3c-2.6,2.1-0.1,7,2.5,4.9c30.4-24.3,69.5-33.3,105.6-23
	c33.9,9.7,66.5,36.4,82.2,72.7c5,11.5,8.1,25.9,3.1,38.1c-4.2,10.2-12.9,17.7-23,16.3c-3.2-0.5-3.2,5.3,0,5.7
	c13.9,2,24.7-9.8,28.7-24c0.4,0.3,0.9,0.5,1.5,0.5c28.2-1.9,56.8,1.7,83.7,11.9c23.9,9,49,27.4,52.6,58.3c0.4,3.6,5.4,3.6,5,0
	c-1.2-10.2-4.5-19.3-9.2-27.2c0.2-0.1,0.5-0.2,0.7-0.4c14.4-11.4,31.3-20,49.1-20.3c15.8-0.3,36.9,7.6,40.2,27.9
	c0.6,3.6,5.4,2.1,4.8-1.5c-1.8-11.2-8.5-19.2-16.9-24.5c0.2-0.2,0.5-0.4,0.7-0.6c9.5-12.6,19.2-25.7,31.6-34.7
	c10.6-7.7,22.8-11.5,35.3-11.3c24.7,0.4,50.1,16.1,59.9,42.9c6.9,18.7,2.7,40.1-14.5,48.8c-2.9,1.5-0.4,6.4,2.5,4.9
	c12.2-6.2,19.7-19.5,20.3-34.2c0.1,0,0.2-0.1,0.3-0.1c13.9-6.8,29.5-9.1,44.5-6.3c7,1.3,13.9,3.6,20.4,7.1c4.2,2.2,11,6.9,12.6,12.6
	c1.1,1.4,1.4,3.6,0.6,5.6c-0.7,1.6-1.7,3-2.9,4.3c0.2,2.2,2.6,4.1,4.1,1.9c0.9-1.2,1.6-2.5,2.1-3.9c6.4,1.1,13.3,2.7,17.8,8.2
	c5.6,6.8,4.4,15.6-2.4,20.3c-8.5,5.8-23.8,8-32.7,1.4c1.1-3.8,1.3-7.9,0-12.4c-1-3.5-5.8-2-4.8,1.5c0.4,1.5,0.6,2.9,0.7,4.3
	c0.6,4,0.3,7.8-2.2,9.6c-7.4,13.1-30.9,18.1-41.2,12.8c-1.8-1-3.5,0.2-3.8,2.5c-1.9,19.7-22.2,30.1-37.1,33.2
	c-16.1,3.3-32.9-0.4-46.9-10.1c5.8-8,9.7-17.9,11.2-28.2c0.5-3.6-4.3-5.1-4.8-1.5c-4.7,34.8-37.6,54.7-65.3,38.6
	c-0.8-0.5-1.6-0.4-2.2-0.1c0.4-0.9,0.7-1.9,1.1-2.8c11.9-35.5-22.7-59.2-48-66.4c-17.7-5-33.2,4.3-48,14.5c-2.8,1.9-0.2,6.8,2.5,4.9
	c7.2-4.9,14.4-10,22.4-12.9c8.9-3.3,17.3-2.8,26.1,0.5c15.7,5.8,33.7,15.2,40.2,33.8c6.1,17.7-3.2,36.2-16.1,46.1
	c-6.9,5.3-14.9,8.6-22.9,11c-4,1.2-8,2.1-12,2.9c-4.7,1-10.5,3.1-15.2,1.6c-0.1,0-0.1,0-0.2,0c0.3-2.6,0.4-5.1,0.1-7.7
	c-0.3-3.6-5.3-3.7-5,0c0.5,5.1-0.3,10.2-2,15.1c-4.9-10.8-19.2-12-30.3-10c-2.4-5.5-5.3-10.6-9.4-15.1c-7-7.5-16.4-13.2-25.4-18
	c-6.2-3.3-12.8-6-19.5-7.8c2.2-20.3-2.4-41.8-18.6-55.5c-8.5-7.1-18.8-13.3-29-17.7c-8.8-3.8-18.3-5.2-27.3-2.2
	c-12.6-22-35.8-36.4-60.3-42.4c-20.8-5.1-45.2-4.7-64.2,5.8c-1.6-0.6-3.2-1.5-4.4-2c-2.4-1-4.9-1.8-7.5-2.6
	c-5.2-1.5-10.4-2.6-15.8-3.3c-10.2-1.3-20.5-0.9-30.7,1c-3.2,0.6-1.8,5.4,1.3,4.8c12.2-2.2,24.8-2.1,37,0.6c5.1,1.1,10.1,2.7,15,4.7
	c-3.9,2.7-7.5,5.9-10.7,9.6c-2.1,2.4,1.4,6,3.5,3.5c3.8-4.4,8.2-8,13-10.9c1.7,0.4,3.3,0.1,4.4-1.8c0.2-0.3,0.2-0.5,0.3-0.8
	c17.4-8.4,38.9-8.4,57.4-3.8c23.1,5.7,45.5,19.1,57.3,40c-0.4,1.2,0.4,2.7,1.7,3.2c0.9,1.8,1.8,3.7,2.5,5.7c1.1,3,6,1.7,4.8-1.3
	c-0.7-1.9-1.5-3.7-2.4-5.5c9.4-2.9,19.3,0.2,27.8,4.6c8.8,4.5,18,9.8,25.1,16.7c13.2,12.5,16.4,31.1,14.7,48.6
	c-11.4-2.2-23.2-1.7-34.3,3.2c-2.9,1.3-0.4,5.6,2.5,4.3c18.3-8.1,38.6-2.7,55.3,6.6c7.6,4.2,15.5,9,21.7,15.2
	c4.6,4.6,7.7,10.2,10.1,16.1c0.1,0.3,0.2,0.5,0.3,0.8c1.2,3,2.3,6.1,3.3,9.2c1,3,5.8,1.7,4.8-1.3c-0.8-2.4-1.6-4.9-2.6-7.2
	c10.1-1.7,23.1-0.7,25.1,11.5c0.1,0.3,0.2,0.6,0.3,0.9c-4.2,8.1-10.5,15.2-16.6,20.3c-9.8,8.1-21.3,12.9-33.3,13.8
	c3-5.5,4.9-11.7,5.5-18.5c0.3-3.7-4.7-3.6-5,0c-0.6,7.2-3.1,13.9-7.1,19.3c-0.2,0.2-0.3,0.4-0.5,0.6c-2.5,3.3-5.6,6.1-9.1,8.2
	c-18.8-27.8-48.5-38.6-78.8-41.8c0.2-0.4,0.2-0.8,0.2-1.4c-2.2-34.4-24-61.6-50.1-76.4c-29.1-16.5-64.7-23-97-21.4
	c-18.6,0.9-37,5.4-54,14.1c-2.9,1.5-0.4,6.4,2.5,4.9c29.1-15,62.1-16.1,93.2-10.4c29,5.3,59.8,15.5,80.6,40.7
	c11,13.3,18.6,30.1,19.8,48.5c0,0.3,0.1,0.6,0.2,0.9c-10.8-0.9-21.5-1-31.8-0.5c-3.2,0.1-3.2,5.8,0,5.7c39-1.5,85.7,2.8,111.2,40.5
	c0,0.1,0,0.3-0.1,0.4c0.7,1.1,1.5,2.1,2.1,3.3c0.1,0,0.2,0,0.3,0c1,1.7,2,3.4,2.9,5.2c0.7,1.3,2.3,1.9,3.4,1
	c22.8-16.7,52.5-12.4,75,2.6c23.8,15.9,40.8,41.9,55.9,67.6c1.8,3,6.1,0.2,4.3-2.9c-4.8-8.2-9.8-16.5-15.2-24.4
	c15.4-16.2,39-15.6,53.7,1.8c1.4,1.6,3.6,0.7,4.2-1.3c4.8-17.3,19.4-28,34.8-29.2c12.7-1,43.1,4.9,38.1,26.7c-0.8,3.6,4,5.1,4.8,1.5
	c0.5-2,0.7-3.9,0.7-5.7c9.8-7.6,21.9-10.5,33.5-7.7c11.2,2.7,19.7,14,31.5,13.1c12.2-0.9,23.6-10.1,35.5-2.6
	c4.9,3.1,10.4,8.4,13.5,13.8c5.3,9.1-3,16.3-9,20.9c-2.7,2-0.2,7,2.5,4.9c5.1-3.9,10.4-8.2,12.5-15.1c2.2-7.7-1-13.4-5.5-18.7
	C642.6,940.7,637.4,935.5,631,933z"/>
</svg>
