<?xml version="1.0" encoding="utf-8"?>
<!-- Generator: Adobe Illustrator 18.1.0, SVG Export Plug-In . SVG Version: 6.00 Build 0)  -->
<svg version="1.1" id="Layer_1" xmlns="http://www.w3.org/2000/svg" xmlns:xlink="http://www.w3.org/1999/xlink" x="0px" y="0px"
	 viewBox="141 0 510 612" enable-background="new 141 0 510 612" xml:space="preserve">
<g>
	<path fill="#868686" d="M1465.4,628.2c-113.1,0-226,0-339,0c0-146,0-291.9,0-438c113,0,226,0,339,0
		C1465.4,336.2,1465.4,482.2,1465.4,628.2z"/>
</g>
<image overflow="visible" enable-background="new    " width="672" height="868" xlink:href="1C2DABC.jpeg"  transform="matrix(0.8031 0 0 0.8031 -6046.4243 -6192.2832)">
</image>
<g>
	<path fill="#E0E0E0" d="M367,233.4c0,0,7.6-0.8,9.4,1.1C378.1,236.4,367,233.4,367,233.4z"/>
	<g>
		<path fill="#E0E0E0" d="M400.8,143.4c13-5.2,26.4-8.8,40.6-9.7c0.2,0,0.3,0,0.5,0.1c1.6,0.5,3.4,0.6,4.6,1.6
			c4,3.2,9.5,9,13.3,12.4c0.6,0.5-2.8,1-3.5,0.6c-9.4-4.3-18.9-2.5-28.2-0.2c-9.8,2.4-19.4,5.5-29,8.4c-3.9,1.2-4.4,1-4.7-3.2
			C393.9,146.1,393.9,146.2,400.8,143.4z M401.8,234.2c-5.1,0-7,0.3-10.4,0.5c-0.1-0.4,6.9-3.1,10.3-2.5
			C402.2,232.4,402.5,234.2,401.8,234.2z M402,263.6c-5.7,1.4-11.4,2.2-17.1,2c-1.5-0.1-1.6-2.3-0.1-2.5c5.5-0.6,11.1-1.3,16.7-1.9
			C403,260.9,403.4,263.2,402,263.6z"/>
		<path fill="#E0E0E0" d="M357.2,280.7v0.2c0,0.1,0.1,0.2,0.2,0.2C357.2,281,357.2,280.9,357.2,280.7z"/>
		<path fill="#E0E0E0" d="M153.6,614.6c1.1-14.8,5.5-29.2,4.3-44.3c-0.2-1.6,0.7-3.3,1-5c1-5.4,2.1-10.8,3.2-16.1
			c0.6-2.8,1.2-5.6,1.9-8.4c0.7-3,1.9-5.8,2.3-8.8c0.6-5,1-10,1.2-15c0.2-2.5,0.4-5.2-0.2-7.5c-1.6-6.2-0.4-11.6,3.4-16.7
			c1.1-1.4,2.5-2.8,3.2-4.5c4.3-11.1,8.6-22.2,12.9-33.3c1.5-4,2.2-8.4,1.8-12.7c-1.4-17.4-2.1-35,4.7-51.7
			c2.6-6.3,5.7-12.5,8.2-18.9c5.8-14.5,10.8-29.3,21.6-41.2c3.3-3.7,6.4-7.5,9.5-11.5c3.3-4.3,7.4-7.4,12.6-9
			c10.9-3.4,21.8-6.7,32.7-10.4c23.7-7.8,47.4-15.6,71-23.5c2.9-1,4.4-0.5,6,2.1c7.7,12.7-3.4,37.3-4.7,50.4
			c-3.5,33.1-2.6,66.2,1.5,99.1c4.5,36.5,25.9,107.5,26.2,108.3c0.4,0.9,2.7,1.1,3.2,0.3c0.2-0.2,0.3-0.5,0.5-0.6
			c23.5-26.7,45.4-54.8,65.9-83.8c28.9-40.9,50.1-85.1,61.4-134c1.4-5.9-1.2-12.5-3.5-15.7c-0.6-0.9-3.9-4-7.1-6.9
			c-1-1,0.2-2.7,1.4-2c3.2,1.7,6.3,3.4,6.9,3.9c2.7,2.8,5.4,6.4,7.3,9.7c4.7,7.9,12,12.8,19,18.2c16.2,12.8,32,26.1,47.9,39.3
			c6.2,5.1,12.2,10.4,18.3,15.5c14.7,12.4,27.4,26.2,29.8,46.4c0.2,1.2,0.5,3.2,0.9,4.4c5.5,18.4,10.5,36.9,11.1,56.3
			c0.6,18.1,0.2,35.8-6.6,53c-2.3,5.8-3.4,12.4-3.2,18.7c0.1,6.2,0.8,12.2-0.8,18.2c-0.6,2.1-0.6,4.3-1,6.6
			c-1,6.7-2.2,13.6-3.2,20.3c-0.6,4.6,0,9.3-1,13.8c-0.2,1-0.3,2.2-0.3,3.2c0,0.7,0.6,1.2,1.3,1.2h1.3c0.6,0,1.2-0.5,1.3-1.1
			c0.2-2.5,0.4-5,0.6-7.5c0.3-4.1,0.3-8.1,0.8-12.2c0.4-3.4,2.1-6.7,2-10c-0.3-11.5,3.9-15.3,2.2-34.1c-0.1-0.8,3.6-16.2,5.8-23
			c3.5-10.9,4.9-22.4,4.7-34c-0.1-6.3-0.3-12.8-0.8-19.1c-0.4-5.5-0.7-11-2-16.3c-2.9-12.4-7-24.4-9.2-36.9
			c-1.7-9.6-3.9-18.5-9.4-26.6c-6.3-9.5-13.3-18.1-22.7-24.7c-5.9-4.2-11.2-9.6-16.8-14.2c-8-6.5-16.1-12.9-24-19.4
			c-8.7-7.1-17.2-14.6-26-21.5c-5.5-4.3-10.3-8.5-15.4-13.8c-4.3-4.4-4.1-7.7-11-12.6c-4.3-3.1-8.6-4.1-12.9-6.3
			c-1.4-0.7-2.9-1.8-3.6-3.2c-5.9-11.4-6.9-23.6-4.9-36.1c2.2-13.1,4.7-26,7.1-38.6c0.1-0.6,0.7-1,1.3-1c2.3,0.2,5.1,0.7,7-0.3
			c3.1-1.7,6-4.5,7.6-7.5c10.3-19.8,14.1-41,13-63.2c-0.1-1.6-1.2-3.5-2.4-4.7c-4.2-3.8-8.9-5.1-14.6-2.9c-0.8,0.3-1.6-0.2-1.7-1.1
			c-0.4-5.9-0.8-11.3-1.1-16.7c-0.4-6.5-0.3-13-1.3-19.4c-1.7-11-7.4-20.4-12.9-29.9c-7.4-12.7-16.3-23.9-28.7-32.1
			c-22.8-15.3-47.7-22-75.2-19.6c-10.8,1-21.3,2.9-31.3,6.8c-22.2,8.7-39,23.5-51.2,43.9c-1.9,3.3-4.3,6.3-6.9,9
			c-3.4,3.5-4.2,8-6.9,12c-0.6,1,0.2,2.2,1.3,1.9c1-0.2,1.8-0.3,2.3-0.1c0.6,0.2,0.8,0.5,0.7,1.1c-0.1,3.5-6.2,10-9.3,13.3
			c-0.8,0.8-0.2,2.1,0.8,2.1c1.8,0.1,3.9,0.5,3.1,3c-0.4,1,0.6,10.5,1,9.6c1-2.7,3.4-4.6,4.5-5.7c1.4-1.3,2.5-2.5,5.2-3
			c0.6-0.1,1.2,0.2,1.4,0.8c3.9,11.6,7.9,22.2,11.2,32.9c2.7,8.8,4.2,17.6,2.8,26.9c-0.9,5.7-1.5,12,1.8,17.3c3,4.7,3.8,10,4.7,15.3
			c0.8,4.4,1.6,8.9,3.1,13.1c3.5,9.2,7.5,18.3,11.4,27.4c3.4,8,6.7,15.9,10.4,23.9c1.2,2.7,2.7,5.1,4.5,8c0.4,0.6,0.1,1.5-0.6,1.8
			c-8.8,3.1-17.3,6.2-25.9,9c-15.3,4.9-30.8,9.6-46.1,14.4c-10.3,3.2-20.5,6.3-30.8,9.5c-6.3,1.9-11.6,5.2-15.2,10.9
			c-1.4,2.2-2.9,4.3-4.7,6.1c-10.8,10.6-17.3,23.7-22.8,37.4c-2.9,7.2-6.3,14.2-9.2,21.5c-2.5,6.6-5,13.3-6.3,20.2
			c-1.4,7.1-1.7,14.5-2.1,21.8c-0.2,4.3,0.3,8.6,0.4,12.9c0.1,3.8,0.9,8-0.3,11.3c-3.5,9.8-4.9,20.5-11.1,29.3
			c-0.7,1.1-1.2,2.4-1.8,3.6c-1.4,2.8-2.6,5.7-4.1,8.4c-2.9,5.1-5.6,10.3-4.2,16.5c0.6,2.6,0.9,5.3,0.7,8c-0.2,4.4-0.7,8.8-1.4,13.1
			c-0.6,3.9-1.7,7.8-2.5,11.6c-0.6,3.2-1.2,6.4-1.7,9.6c-0.2,1.4,0,2.8-0.2,4.2c-1.4,8-4.4,15.7-3.7,24.1c0.2,2.2-0.2,4.4-0.5,6.6
			c-1.3,9.3-2.6,18.6-3.9,27.9c-0.4,2.7-1,5.3-1.4,7.9c0,0.1,0,0.2,0,0.3c0,0.2,0.1,0.5,0.1,0.7c0.1,0.6,0.6,1.1,1.3,1.1h1.5
			c0.6,0,1.2-0.5,1.2-1.2C153.2,618.6,153.4,616.6,153.6,614.6C154.8,599.7,153.4,617,153.6,614.6z M484.9,278.7
			c1.7,4,3.3,8.3,5.6,11.9c2.8,4.4,6.8,8,9.6,12.4c3.8,5.9,6,13.1,3.1,19.5c-26.8,57.7-84.6,59.4-97.9,55.8
			c-20.9-5.6-42-25.9-46.8-41c-4.3-13.3,1.4-30.3,2.1-45.9c0.1-1.2,1.7-1.6,2.3-0.6c1.2,1.9,2,3,4.3,6.3c4.7,6.7,12,11.2,20.2,12.2
			c8.4,1,17,1.4,25.4,0.8c12-1,21.5-8,30.2-15.9c15.2-13.7,26.8-30.1,37.4-47.4c0.8-1.4,1.7-2.7,2.6-4c0.6,1.2,0.5,2,0.4,2.9
			C482.1,256.7,480.4,267.9,484.9,278.7z M340.9,251c-4.3-9.6-7.7-19.7-12-29.3c-4.8-10.8-7.1-22.2-7.2-34c-0.1-3.2-0.6-6.3-1-9.6
			c-0.1-0.7-1.1-7.5-2.4-7.5l0.2,6.5c0,1.6-2.2,1.8-2.5,0.2c-0.6-4.7-0.3-10.4,0.8-16c0.2-1.2,1.8-1.4,2.3-0.2
			c0.6,1.3,1.4,1.8,4.3,1.3c4.5-1.6,9.6-2.4,14.5-2.5c9.5-0.2,19,0.6,28.4,0.8c0.6,0,1.4-0.2,2.1-0.3s1.1-1,0.9-1.6
			c-0.2-0.6-0.4-1.1-0.7-1.7c-3.3-6.5-8-8.1-15.8-8.5c-6.8-0.4-13.7,0.4-20.6,0.5c-3.5,0.1-7-0.4-9.7,1.9c-1.3-0.6-1.6-0.6-2.9-1.2
			c-0.1-0.5-0.1-1,0-1.4c1.3-14.6,2.5-29.2,4-43.7c0.2-1.5,1.9-3.4,3.5-4.3c11.8-7,24.7-11.1,38.2-12.9c23.4-3.1,46.9-3.4,70.4-3
			c2.5,0,5,2,7.5,3.2c0.4,0.2,0.7,0.7,1,1.1c8,16.1,23.8,26.3,32.5,41.9c0.3,0.6,0.6,1.2,1.1,1.4c5.3,1.9,5.4,6.5,5.7,10.9
			c1,13.5,1.8,27,2.8,40.5c0.1,1.4,0.4,2.8,0.6,4.2c0.5,0,1,0,1.5,0c0.2-1.4,0.4-2.8,0.6-4.3c1.3-11.3,2.2-22.7,3.9-34.1
			c0.6-3.6,2.7-7.1,4.4-10.4c2.8-5.1,13.9-8,18.5-4.8c2.1,1.4,3.5,2.8,3.6,5.5c1,19.8-2.8,38.7-10.7,56.9c-0.6,1.4-1.4,2.9-2.2,4.3
			c-4,6.8-7.5,7.6-14.1,3.1c-0.4-0.2-0.8-0.5-1.8-1c-0.6,3.4-1.3,6.3-1.4,9.2c-0.6,11.9-3.7,22.8-10.2,33
			c-10.2,15.9-20.8,31.4-34.5,44.6c-2.3,2.2-4.8,4.3-7.2,6.3c-14.9,12.9-32.3,14.7-50.7,10.8c-7.2-1.5-13.1-5.5-17.6-11.5
			c-1.2-1.6-2.2-3.2-3.4-4.8c-5.1-7.5-10.5-14.8-15.3-22.5C346.6,262.7,343.5,256.9,340.9,251z"/>
		<path fill="#E0E0E0" d="M243.4,585.1c-0.1,13.7-2.7,24.2-5.9,35.1c-0.2,0.8,0.3,1.6,1.2,1.6h1.7c0.6,0,1.1-0.4,1.2-1
			c1.4-5.9,2.7-11.9,3.3-17.9c2.1-18.6,2.1-37.5,3.4-56.3c1-15.5-6.9-29-9.3-43.8c-0.1-0.3-0.3-0.6-0.6-1
			c-7.2-11.2-12-23.4-15.4-36.2c-1.8-6.8-2.8-16.1-4.1-24.2c-0.2-1.4-2.4-1.4-2.5,0.1c-0.2,1.8-0.2,3.3,0,4.3
			c2.2,15.3,6,30.4,13.2,44c5.9,11.3,10,23.1,13.1,35.4c0.9,3.5,2.8,7.1,2.9,10.6c0.2,13.2-0.2,26.3-0.2,39.4c0,2.6-0.4,3.8-1.2,6
			c-0.2,0.7-0.6,2.9-0.6,3.4C243.4,584.9,243.4,585,243.4,585.1z"/>
		<path fill="#E0E0E0" d="M596.3,479.6c-6.1,14.1-12.2,26.5-18.6,40.5c-10.8,23.5-25.5,44.3-42.5,63.8c-1.4,1.6-2.8,4-3,6.1
			c-1.1,10.3-2.7,24.4-3.9,36.9c-0.1,0.7,0.5,1.4,1.3,1.4l0,0c0.6,0,1.2-0.5,1.3-1.1c1-8.7,1.8-17.7,2.7-27.3
			c0.6-7.5,2.6-13.9,7.8-19.7c6.9-7.6,13-16.1,19-24.5c17.2-24.3,27.4-52.1,38.6-79.4"/>
		<path fill="#E0E0E0" d="M401.5,261.1c-5.6,0.6-11.2,1.3-16.7,1.9c-1.5,0.2-1.4,2.5,0.1,2.5c5.7,0.2,11.4-0.6,17.1-2
			C403.4,263.2,403,260.9,401.5,261.1z"/>
		<path fill="#E0E0E0" d="M391.3,234.7c3.5-0.2,5.4-0.5,10.4-0.5c0.6,0,0.5-1.8-0.2-2C398.3,231.5,391.3,234.2,391.3,234.7z"/>
	</g>
</g>
</svg>
