<?xml version="1.0" encoding="utf-8"?>
<!-- Generator: Adobe Illustrator 18.1.0, SVG Export Plug-In . SVG Version: 6.00 Build 0)  -->
<svg version="1.1" xmlns="http://www.w3.org/2000/svg" xmlns:xlink="http://www.w3.org/1999/xlink" x="0px" y="0px"
	 viewBox="0 0 249.1 564.1" enable-background="new 0 0 249.1 564.1" xml:space="preserve">
<g id="Layer_3" display="none">
	<rect x="79" y="67" display="inline" fill="#00AEEF" stroke="#F8FAFB" stroke-miterlimit="10" width="252.5" height="416.5"/>
</g>
<g id="Layer_1" display="none">
	
		<image display="inline" overflow="visible" width="639" height="1310" xlink:href="84A438.jpg"  transform="matrix(0.24 0 0 0.24 165.6397 98.3077)">
	</image>
</g>
<g id="Layer_2">
	<path fill="#F8FAFB" d="M195.3,144.1c-0.3-1.6-1.5-3-3.1-3.5c-0.8-0.4-1.7-0.6-2.8-0.3c-2.1,0.6-1.2,3.9,0.9,3.3c0,0,0.1,0,0.1,0
		c0.3,0.2,0.6,0.4,0.9,0.4c0.4,0.4,0.7,1,0.8,1.3c0.4,0.7,1.4,1,2.1,0.7C195.1,145.7,195.4,145,195.3,144.1z"/>
	<path fill="#919191" d="M236.1,113.1c-13.9,0.8-27.7,0.9-41.5-1.8c-0.8-0.2-1.7-0.3-2.1-1c-0.5-0.7-0.2-1.7,0.1-2.6
		c0.9-2.1,1.9-4.2,3.1-6.2c11.7,1.8,23.3,3.9,34.8,6.5c1.4,0.3,2.8,0.6,3.9,1.4C235.4,110.4,236.3,111.8,236.1,113.1z"/>
	<path fill="#F8FAFB" d="M197.3,514.2c-1.2-0.5-2.4-0.8-3.5-0.9c0.6-1.6,1.1-3.1,1.5-4.7c0.8-3.1-0.7-5.5-2.9-6.6
		c-0.3-0.3-0.5-0.7-0.8-1.1c-0.1-0.1-0.2-0.2-0.3-0.3c-0.4-0.7-1-1.4-1.5-1.9c2.2-3.8,4.1-8.4,1.9-12.3c-2-3.6-6.5-4.6-10.5-4.3
		c-3.5-0.4-7.4,0.6-10.4,2.1c-6.2,1.6-9.8,9.6-6.2,15.1c-0.1,0.6,0,1.3,0.2,1.9c0.3,1,0.5,2,0.7,3c0,0.5,0.1,1,0.2,1.6
		c-0.7,2.1-0.4,6-0.2,7.1c0.5,2,1.6,4.2,3.2,5.8c-3.3,5.9-3.8,12.6-1,18.6c-0.3,2.1,0.5,4.4,2.8,5.9c-1.7-1.1,1.2,2,1.2,2
		c0.8,1,1.7,1.6,2.8,2.2c3.1,1.6,7.2,1.9,10.5,2.5c4.2,0.7,7.7-0.5,11.9-1c3.4-0.4,6.6-0.8,9.4-3
		C216.1,538.1,207.2,518.3,197.3,514.2z"/>
	<g>
		<defs>
			<path id="XMLID_3_" d="M157.7,423.4c-2.2-4.3-4.7-8.5-6.2-13.1c-3.6-11.4,0-23.7,2.3-35.4c0.7-3.6,1.3-7.4,0.2-10.9
				c-2.3-7.6-11-11.1-18.7-12.5c-20.2-3.8-41.1-0.7-61.4,3c-2.8,0.5-6,1.3-7.5,3.7c-1.5,2.3-1,5.2-0.4,7.9
				c1.2,6.4,2.3,12.8,3.2,19.3c0.4,2.9,0.7,5.8,0.4,8.6c-0.4,3.3-1.7,6.4-3,9.4c-3.8,9-7.6,18-11.4,27c-1.3,3.1-2.6,6.3-3.5,9.5
				c-1.6,6.6-1.2,13.4-0.8,20.2c0.4,7.3,0.9,14.6,1.3,21.9c0.1,2,0.3,4.1,0.9,6c-0.7,0.3-1.3,0.8-1.8,1.6c0,0,0,0,0,0
				c-1.3,0.2-2.9,1.6-4,1.7c-3.4,0.3-5.7,3.5-5.9,6.5c-1.1,1.8-1.5,3.9-0.7,5.7c0.1,0.4,0.3,0.9,0.5,1.3c1,1.8,2.5,3.6,4.2,5.1
				c-5.6,0.7-11.2,3.2-16.3,5.2c-5.8,2.2-12.2,5.8-13.2,12.4c-2.9,18.4,24.4,15.7,34.6,13.4c9.4-2.1,19-0.7,28.3-2.6
				c5.6-1.1,9.6-4.5,10.4-10.4c0.8-6.7-4.1-12.2-4.2-18.5c-0.1-5.9-1.3-9.5-6.1-12.1c0.4-0.9,0.7-1.9,0.7-3c0-1.6-0.6-3.1-1.2-4.5
				c0-0.3,0-0.6-0.1-1c-0.5-2.1-0.8-4.2-1.2-6.4c-0.8-6-0.6-12-0.3-18.1c0-1.3-0.3-2.4-0.8-3.3c3.8-23.1,15.9-44.1,27.7-64.3
				c2.1-3.5,4.9-7.5,9-7.5c4.3,0,7.1,4.5,9,8.3c14.6,29.6,29.3,59.1,43.9,88.7c5.6-3.2,11.9-4.9,18.3-5.1
				C171.2,464.1,167.4,442.2,157.7,423.4z"/>
		</defs>
		<use xlink:href="#XMLID_3_"  overflow="visible" fill="#F8FAFB"/>
		<clipPath id="XMLID_5_">
			<use xlink:href="#XMLID_3_"  overflow="visible"/>
		</clipPath>
		<path clip-path="url(#XMLID_5_)" fill="#6B6C6C" d="M186,478.1c-0.5-0.1-1.1-0.2-1.6-0.2c0.4-1.7,0.2-3.6-0.9-5.4
			c-3.7-6-10.4-11-12.4-17.9c-1.2-4.2-1.5-8.5-3-12.6c-1.5-4.3-3.3-8.4-4.5-12.8c-3.4-12.1-4.8-27.6-13.7-37.2c1.2-3.5,3-6.9,5.5-10
			c3.5-4.3,1.7-9.7-1.8-12.1c0,0,0,0,0-0.1c0.1-0.6-0.2-1.1-0.6-1.4c-0.2-0.1-0.3-0.2-0.6-0.3c-0.5-2.6-1.7-5-4.6-5.5
			c-0.6-0.1-1.2,0.1-1.5,0.5c-12.7,0.6-25.4,1.4-38.1,1.8c-1.4,0-2.7,0-4.1,0c-2.6-0.1-5.3-0.3-7.9-0.4c-3.2-0.3-6.4-0.7-9.7-1.3
			c-3.7-0.7-9.2-0.9-13.6-2.2c-0.3-0.1-0.5-0.2-0.8-0.3c-0.7-0.3-1.3-0.5-1.9-0.7c-1.1-0.5-2.1-1.2-2.8-2c-0.6-0.6-1.3-0.7-1.9-0.3
			c-1.3,0.4-1.5,2.3-0.4,3c-0.2,0.1-0.4,0.2-0.6,0.4c-4,1.5-7.2,6.2-4.7,11.2c4.9,10.1,9.2,21.5,5,32.6c-1.9,4.9-4.7,9.4-6.6,14.3
			c-2,5.1-3.1,10.4-5.3,15.4c-6,14.1-7.4,28.6-3,42.6c-1.7,2.9-1.8,7.1,0.8,9.8c-0.5,0.6-0.4,1.7,0.2,2.3c1.2,1.3,2.8,1.8,4.1,3.2
			c2,2.2,3,5.1,3.9,7.8c0.7,2.1,0.9,3.8,3,4.8c2.2,1.1,4.7,0.8,7.2-0.2c0.5,0.4,1.1,0.5,1.8,0.2c0.5-0.2,1-0.5,1.4-0.8
			c0.1-0.1,0.2-0.1,0.3-0.2c0.3-0.2,0.6-0.4,0.9-0.6c0.7,0.6,1.9,0.6,2.5-0.4c1.8-3.3,5-4,5.6-7.9c0.1-0.7-0.2-1.4-0.7-1.8
			c0.2-0.5,0.4-0.9,0.5-1.4c1.3-5.3-1.4-11.3-3.5-16.8c1.4-1.2,2.3-3.1,2.3-5.6c0.3-13.7,2-26.5,5.2-39.5c0-0.2,0.1-0.3,0.1-0.5
			c2.7,0.5,5.6-0.5,7.2-3.8c3.7-7.4,7.4-14.8,11.1-22.2c1.1-2.1,1.1-4.2,0.5-6c0.6-0.8,1.2-1.6,1.8-2.4c0.5-0.7,1.2-1.6,1.8-2.5
			c0.6,0,1.2-0.1,1.8-0.2c0,5.8,6.4,9.9,11.4,6.9c0.3,0.3,0.7,0.5,1,0.7c3,5.4,5.9,10.8,8.1,16.5c2.5,6.4,3.5,13.2,5.7,19.8
			c4.4,13.5,15.4,24.9,24,36.2c-2.9,4.3-0.8,10.3,3,12.3c-0.4,0.5-0.7,1.1-1,1.7c-0.8,2.1,2.5,3,3.3,0.9c0.9-2.4,5.3-3.5,7.8-4.3
			c3.5,1.9,7.3,0.6,9.6-1.9c0.8,0,1.6,0.1,2.4,0.2C187.3,481.8,188.2,478.5,186,478.1z"/>
	</g>
	<path fill="#F8FAFB" d="M148.3,325.1c-0.7-6.3-1.4-12.6-2.7-18.8c-1.4-6.4-3.6-12.7-5.7-18.9c-5.7-16.6-11.4-33.2-19.6-48.7
		c-2.3-4.4-5-8.8-9.3-11.2c-4-2.2-9-2.2-13.2-0.6c-4.3,1.6-7.8,4.7-10.6,8.3c-3.4,4.5-5.7,9.8-7.7,15.1c-6,15.4-10.5,31.3-13.6,47.4
		c-0.7,3.4-1.3,6.9-2.4,10.2c-1,2.8-2.4,5.5-3.1,8.4c-0.8,3.1-0.9,6.3-1,9.5c-0.2,7.1-0.4,14.2-0.7,21.2c-0.1,1.8-0.1,3.6,0.7,5.3
		c1.1,2.4,3.6,3.7,6,4.7c23.1,9.8,49.2,7.5,74.2,6.4c3-0.1,6.2-0.3,8.5-2.2c3.6-2.9,3.4-8.3,2.9-12.8
		C150,340.7,149.2,332.9,148.3,325.1z"/>
	<path fill="#F8FAFB" d="M206.6,281.3c-1.2-2.5-3-4.7-4.9-6.8c-7.1-8.1-14.5-15.9-22.2-23.4c-1-1-2.1-2-3.4-2.6
		c-0.7-0.3-1.5-0.6-1.8-1.3c-0.4-0.9,0.3-1.8,1-2.5c0.8-0.8,1.5-1.6,2.3-2.4c0.5-0.6,1.1-1.2,1.1-2c0-0.9-0.7-1.6-1.4-2.1
		c-6.5-5.3-14-9.2-20.1-14.9c-1.5-1.4-2.9-2.8-4.4-4c-4.2-3.3-9.6-4.7-15-4.9c-5.3-0.2-10.6,0.6-15.9,1.4c-2.9,0.5-4.6,3.4-6.3,5.7
		c-0.7,0.9-1.3,1.9-1.5,3c-0.2,1,0,2.1,0.1,3.2c0.5,3.5,1.1,7,1.6,10.4c0.7,4.2,1.3,8.5,2.1,12.7c4.5,23.1,14,45.2,27.6,64.4
		c0.6,0.8,1.2,1.6,1.8,2.4c-0.6,0.6-1,1.4-1.2,2.2c-0.4,0-0.8,0-1.2,0c-7.4,0.3-13.7,6.5-15.3,13.7c-1.6,7.2,0.8,14.9,5.3,20.7
		c4.4,5.9,10.6,10.2,17.1,13.7c1.4,0.8,3,1.6,4.6,1.4c0,0,0,0,0.1,0c0.5,0.1,0.9,0.2,1.4,0.2c2.4-0.1,4.5-1.5,5.5-3.6
		c1.2-0.8,2.4-1.8,3.6-2.8c2.8-2.4,5.8-5.5,7.9-8.5c0.9-1.3,1.6-2.6,2.1-3.8c0-0.1,0.1-0.1,0.1-0.2c0,0,0-0.1,0-0.1
		c0.7-1.8,1.1-3.6,1.4-5.8c0.3-2.1,0.3-3.4-0.2-5.4c0.2-0.4,0.4-0.8,0.5-1.3c1.3-2.8,3-5.4,4.8-7.9c1.1-0.2,2.2-0.7,3.3-1.8
		c2.7-2.8,5.4-6.2,7.6-9.3c1-1.4,1.8-2.9,2.6-4.5c0.2-0.1,0.4-0.2,0.6-0.3c0,0,0,0,0.1,0c1.3-0.9,2.3-2.1,2.8-3.6
		c0.2-0.6,0.2-1.4,0.2-2.1c0.2-0.3,0.4-0.5,0.6-0.8c1.8-2.3,3.8-5.1,3.9-7.8c1.1-1.1,1.8-2.6,1.8-4.2c0-0.5-0.1-1-0.2-1.5
		C208.7,290.1,208.6,285.3,206.6,281.3z M184.1,297.3c-2.4,2.3-4.4,5-6.4,7.7c-1.2,1.6-2.3,3.2-3.5,4.8c-2.7,3.7-5.5,7.4-8,11.3
		c-1.3,1.9-2.9,4-5.1,3.9c-1,0-1.9-0.5-2.8-1c-0.2-0.1-0.5-0.3-0.8-0.4c0.2-0.6,0.3-1.2,0.4-1.9c0.2,0.1,0.4,0.1,0.6,0.2
		c-6.4-17.7-10.5-36.2-12-54.9c-0.1-0.8-0.1-1.6,0.2-2.3c0.4-1,1.4-1.6,2.3-2.2c2-1.3,4-2.5,6-3.8c2.4-1.5,5.2-3.1,7.9-2.2
		c1.6,0.5,2.8,1.9,3.9,3.1c7.1,8.1,14.1,16.1,21.2,24.2c0.9,1,1.8,2.1,2.2,3.4C191.2,291.2,187.1,294.5,184.1,297.3z"/>
	<path fill="#F8FAFB" d="M60.4,238.1c-3.5,6.2-7.5,12.2-12,17.8c-3.4,4.2-7.1,8.2-10.7,12.2c-3.6,4-7.3,8-10.9,11.9
		c-0.1,2.7-0.2,5.6-0.1,8.3c0.1,3.1,1.4,6.1,2.2,9.1c0.6,2.1,1.1,4.1,1.9,6.1c1,2.6,2.4,5.1,3.8,7.5c0.6,1.1,1.3,2.2,1.9,3.3
		c1,1.8,2.1,3.7,3.3,5.4c1.2,1.7,2.6,3.4,3.4,5.4c0.4,0.9,0.1,2,0.9,2.5c0.2,0.1,0.4,0.2,0.5,0.4c0.2,0.3,0.1,0.7-0.1,1.1
		c-0.5,1.4-0.1,3,0.2,4.4c0.3,1.8,0.5,3.7,0.9,5.5c0.4,1.8,1.1,3.6,2.4,5c1.4,1.4,3.4,2.1,5.3,2.4s4,0,5.9-0.2c1.9-0.2,4-0.5,5.2-2
		c1-1.3,1-3.1,1.1-4.8c0.1-2.2,0.5-4.4,0.8-6.6c0.2-1,0.3-2,0.6-3c0.3-1.1,0.9-2.1,1.2-3.2c0.4-1.5,0.5-3,0.6-4.5
		c0-1.7,0.1-3.5-0.2-5.2c-0.1-1.1-0.4-2.1-0.9-3c-0.5-0.9-1.4-1.7-2.4-2c-0.7-0.2-1.6-0.2-2-0.7c-0.2-0.2-0.3-0.5-0.4-0.8
		c-0.3-0.9-0.7-1.7-1.2-2.5c-0.4-0.6-0.9-1.2-1.6-1.4c-1.7-0.4-2.8,2-4.4,2.2c-2.4-2-3.3-5.3-5.1-7.9c-0.6-0.8-1.2-1.5-1.8-2.3
		c-0.6-0.8-1.1-1.7-1.5-2.5c-0.6-1-1.1-2-1.7-3.1c-1-1.8-2-3.6-2.9-5.5c2.1-2.2,3.8-4.8,5.4-7.4c0.3-0.5,0.6-1,1-1.4
		c0.4-0.4,1-0.8,1.5-1.1c1.7-1.2,3.1-2.9,4.5-4.4c1-1.1,2.1-2,3.2-3c3.4-3.1,6.8-6.2,10.2-9.3c2-1.8,3.4-4.1,5.2-6.1
		c0.1-0.1,0.1-0.1,0.1-0.2c0-0.1-0.1-0.3-0.2-0.4c-3.6-4.5-7.2-9-10.6-13.7C62.3,239.7,61.6,238.7,60.4,238.1z"/>
	<g>
		<defs>
			<path id="XMLID_2_" d="M177.4,126.1c0.8-2.5,1.6-5,2.4-7.6c1.8,0.5,3.8,0.2,5.3-1.6c1.2-1.4,2.1-3,2.8-4.8c3.4,1,7,0.1,7.8-4.1
				c1.4-6.9,3.1-14.2,3.5-21.5c0.3-4.5,1.4-12.2-0.9-16.6c-0.3-5.2-1.2-10.2-3.3-15c-3.1-7-8.6-10.8-14-15.8
				c-5.8-5.3-11.2-8.5-18.7-11.1c-1-0.3-1.8-0.4-2.7-0.3c-5.4-2.4-11.1-3.8-17-4.3c0-2-1-4-2.9-5.1c-1.6-0.9-3.2-1.4-4.8-1.6
				c-0.6-0.2-1.2-0.4-1.9-0.4c-2.4-0.3-4.6,0.2-6.5,1.4c-0.6,0.2-1.1,0.5-1.6,0.8c-1.9,1.1-2.9,3.2-2.9,5.2
				c-7.1,1.5-14.3,2.4-20.8,6.1c-2.9,1.6-5.7,3.6-8.3,5.8c-11.7,7.5-20.7,18.5-26.2,31.4c-4.5,8.1-7.6,16.9-8.3,26.5
				c-0.3,3.4,1.9,5.2,4.4,5.6c-0.1,0.4-0.1,0.8-0.1,1.2c0,1.6,0,3.1-0.1,4.5c-1.8,6.9-2.5,14.2-3.1,21.3c-1-0.7-2.2-1.2-3.5-1.2
				c-5.7-0.1-9.5,5.3-8.8,10.6c0.3,2.3,1.4,4.4,2.8,6.2c1.8,2.4,4.7,3.2,7.3,2.4c-0.3,1.5,0,3,0.8,4.3c-0.5,3.1-0.5,6.2-0.5,9.3
				c-0.3,0.7-0.4,1.5-0.4,2.4c0.1,1.3,0.2,2.6,0.3,3.9c0,0.2,0,0.5,0,0.7c-0.1,2.8,0.3,5,0.9,7.2c0,0.4,0,0.9,0.1,1.4
				c0.6,3,1.5,5.6,2.8,8.1c1.7,3.8,4,7.3,7.3,10.1c5.9,5.1,14.5,7.7,21.7,10.3c5.9,2.1,11.8,3.8,17.9,5.2c-0.3,0.8-0.5,1.6-0.6,2.4
				c0,0.6-0.1,1.2-0.2,1.7c-0.1,0.2-0.1,0.4-0.1,0.5c-1,1.3-1.4,3.1-1.1,4.8l-1.4-0.8c-2-2-4.8-4.7-6.7-5.8
				c-5.5-3.3-10,1.1-14.1,4.5c-6.4,5.4-14.7,9.7-20.4,15.7c-9,9.3,4.7,23,13.9,25.2c4.1,1,9-2.9,7.4-7.4c-2-5.6,3.1-11,7.9-13
				c0,0,0,0,0,0c0.3,0,0.5,0.1,0.8,0.1c1.6-0.1,3.2-0.6,4.2-1.8c0.3-0.3,0.6-0.7,0.8-1c1.5,1.5,3.8,2.2,6.2,1.2
				c1.4,0.5,3,0.4,4.7-0.8c2.3-1.7,4.6-3.4,6.9-5.1c3.1-2.3,3.1-6.1,1.6-8.7c1.5-1.4,2.4-3.4,2.9-5.8c0.2-1.2,0.2-2.4-0.2-3.5
				c3.7,0.6,7.3,1,11,1.4c0.6,0.4,1.3,0.8,2.2,1c4.5,0.9,8.4,0.9,12.8-0.4c1.7-0.5,2.9-1.6,3.6-2.9c7-3.7,9.1-10.3,13.5-17.3
				c3.6-5.7,6.4-12.1,8.1-18.7c0.4-1.5,4.2-2.6,4.4-4.2c0.9,0.3,1.9,0.4,3,0.2c3.2-0.6,6.5-2,9.4-4c1-0.2,2-0.6,2.8-1.3
				c1.8-1.4,2.4-2.3,3.5-4.3c0.5-0.9,0.7-1.8,0.8-2.7c0.7-1.6,1.2-3.4,1.3-5.2c0.2-1,0.4-2.1,0.5-3.2c0.3-2-1.3-4.2-3-5.2
				c-0.5-0.3-1.1-0.6-1.6-0.9c-1-0.9-2.3-1.5-3.6-1.7c-2.3-0.3-3.8,0.1-5.6,0.8c0,0,0,0,0,0c0,0,0,0,0,0c-0.4,0.2-0.9,0.4-1.4,0.6
				c-1,0.4-1.7,1.1-2.3,1.7c-0.7,0.2-1.3,0.4-2,0.6c-1,0.4-1.7,0.9-2.3,1.5c0.4-1.9,0.9-3.9,1.5-5.8c0.9-3-0.3-5.2-2.3-6.4
				c0.5-1.5,1-2.9,1.5-4.4C176.9,128.5,177.3,127.4,177.4,126.1z"/>
		</defs>
		<use xlink:href="#XMLID_2_"  overflow="visible" fill="#F8FAFB"/>
		<clipPath id="XMLID_6_">
			<use xlink:href="#XMLID_2_"  overflow="visible"/>
		</clipPath>
		<path clip-path="url(#XMLID_6_)" fill="#919191" d="M215.1,105.7c-4.4-0.8-10.9-1.8-15.9-4.1c2.9-9.9,7.6-20.8,4.9-31.2
			c-2.5-9.6-9.9-17.9-16.3-25.2c-14.2-16.1-33.9-23.9-55.3-22.6c-10.5,0.6-19.9-2-29.7,2.6c-8.8,4.1-15.8,11.2-22.3,18.3
			c-7.7,8.4-15.2,17-20.7,27.1C56,77.1,49.8,87.3,55,94.6c1.6,2.3,4.1,2.9,6.3,2.5c0.4,0.6,1.1,1,1.9,0.8c5.3,3.6,14.7,3.5,20.1,4.3
			c7.4,1.1,14.8,1.7,22.2,2.2c0,0,0,0,0.1,0c2.9,0.5,5.7,0.7,8.6,0.6c13.8,0.9,27.7,1.6,41.5,2c1.7,0.8,3.4,1,5.1,1
			c0.4,0.2,0.9,0.2,1.3,0c1.6-0.1,3.2-0.3,4.9-0.4c0,0.1,0.1,0.1,0.2,0.1c0.1,0.1,0.1,0.2,0.2,0.3c0.6,0.7,1.3,0.7,1.9,0.4l4,0.4
			c0.6,0.6,1.4,0.6,2,0.4c0.2,0.2,0.3,0.3,0.5,0.5c0.8,0.7,1.7,0.6,2.2,0.1c0.2,0.4,0.5,0.7,0.8,1.1c0.9,1.2,2.5,0.8,3.1-0.1
			c0.4-0.2,0.7-0.4,1-0.8c0.2,0,0.4,0,0.6,0.1c0.7,1.2,1.4,2.4,2.1,3.5c1,1.6,3.9,0.5,3.1-1.3c-0.1-0.1-0.1-0.3-0.2-0.4c0,0,0,0,0,0
			c0,0,0-0.1-0.1-0.1c-0.2-0.4-0.4-0.8-0.6-1.2c0.9,0.1,1.7,0.2,2.6,0.3c4.5,2.6,10,4.2,15.1,5.4c0.6,0.5,1.4,0.9,2.4,1.2
			c-0.6,0.6-0.8,1.6,0,2.3c0,0,0,0,0.1,0.1c1.5,1.5,3.7-0.6,2.6-2.2c1,0,1.9,0.1,2.9,0.1C220.1,117.6,221.9,106.9,215.1,105.7z
			 M112.4,92.2c-2.2,0-4.4,0.1-6.6-0.4c-2-0.4-3.9-1.2-5.8-1.8c-0.5-3.7-0.6-7.6-0.9-11.3c-0.1-1.3-1.9-2.5-2.9-1.2
			c-2.8,3.4-4.4,7.6-7.4,10.8c-3-0.9-6-1.8-9.1-2.4c1.9-4.7,6.7-8.1,7.9-12.9c1.6-1.9,3.1-3.8,4.6-5.7c1.8-2.2,3.6-4.5,5.2-6.9
			c0.8-1.3,1.5-2.7,2.1-4c0.4,0.2,0.7,0.4,1,0.7c2.4,2,4.6,4.2,5.9,7c-0.1,1.3,0.3,2.6,1.4,3.8c0.3,1.3,0.5,2.6,0.8,3.9
			c1.5,6.6,3.1,13.1,4.6,19.7c0.1,0.3,0.2,0.5,0.2,0.7C113.1,92.1,112.8,92.1,112.4,92.2z"/>
		<path clip-path="url(#XMLID_6_)" fill="#919191" d="M98.4,69.1c-0.6-0.2-1.2,0-1.6,0.4c-0.4,0.3-0.6,0.8-0.7,1.3
			c-0.1,1.1,0.9,2,1.9,2c0.6,0,1.2-0.3,1.5-0.8C100.2,70.7,99.7,69.5,98.4,69.1z"/>
		<path clip-path="url(#XMLID_6_)" fill="#919191" d="M215.8,84.1h-0.3c-2.2,0-2.2,3.4,0,3.4h0.3C218,87.5,218,84.1,215.8,84.1z"/>
	</g>
	<path fill="#424243" d="M150.8,121.5c-2-6.8-4.9-11.4-12.2-12.8c-7-1.3-14-0.1-20.3,3.1c-1,0.5-0.1,2,0.9,1.5
		c5.6-2.9,12-4.1,18.3-3.1c2.9,0.5,6,1.4,8.1,3.6c1.6,1.8,4.7,6.7,2,8.5c-0.9,0.6-0.1,2.1,0.9,1.5c0.7-0.4,1.4-0.9,2-1.3
		C150.7,122.2,150.9,121.9,150.8,121.5z"/>
	<path fill="#424243" d="M191.6,151c-0.8-5.4-7.3-5.9-10-1.6c-0.6,0.9,0.9,1.8,1.5,0.9c2.2-3.4,7.1-2.3,6.9,2
		c-0.1,3.2-3.9,6.9-7.1,5c-1-0.6-1.8,0.9-0.9,1.5C186.8,161.6,192.3,155.9,191.6,151z"/>
	<path fill="#424243" d="M56.9,132c-2-1.9-4.8-0.4-5.4,2c-0.7,2.8,1,5.6,3.5,6.8c1,0.5,1.9-1,0.9-1.5c-1.3-0.6-2.3-1.7-2.6-3.1
		c-0.3-1.3,0.7-4.8,2.6-3.1C56.5,134,57.7,132.7,56.9,132z"/>
	<path fill="#424243" d="M139.3,139.7c-1.4-3.4-4.3-6-7.5-7.7c-2-1-2.7-1.9-6.9-2.8c-0.9-0.1-1.9-0.1-2.3,0.1
		c-5.2,2.3-11,9.9-8.8,15.8c2.8,7.5,11.6,8,18.3,6.9C138.7,150.9,142.1,146.4,139.3,139.7z M138.5,145c-0.8,4.3-5.3,5.2-8.9,5.6
		c-5,0.5-11.4-0.2-13.8-5.3c-2.4-4.9,2.4-11.6,6.9-14.1c0.7-0.3,2.2-0.5,2.8-0.4c-0.6-0.1,2.9,1.1,3.4,1.3c2.7,1,5.1,2.9,7,5.2
		C137.5,139.4,139,142.3,138.5,145z"/>
	<path fill="#424243" d="M123.4,137.1c-0.2,0-0.3,0-0.5,0c-0.2-0.2-0.4-0.2-0.7-0.1c-3.1,1.1-5.6,4.6-2.8,7.4
		c2.4,2.4,7.3,1.7,8.5-1.5C129.2,139.8,126.4,137,123.4,137.1z"/>
	<path fill="#424243" d="M82.6,132.6c-2.6-5.8-8-8.4-14.2-7c-0.1,0-0.1,0-0.1,0.1c-0.1,0-0.3,0-0.4,0.1c-5,3.3-7.8,9.4-5.1,15.2
		c2.7,5.6,10.8,8.6,16.5,6C85.2,144.3,84.9,137.9,82.6,132.6z M78.5,145.4c-4.5,2.1-11.1,0-13.8-4.2c-3.1-5-0.7-10.9,3.9-13.9
		c0,0,0,0,0,0c0,0,0.1,0,0.1,0c4.9-1.2,9.4,0.6,11.8,5.1C82.9,136.7,83.8,142.9,78.5,145.4z"/>
	<path fill="#424243" d="M73.4,132.1c-0.6-0.2-1-0.5-1.5-0.5c-4.1-0.3-6.2,4.8-4.2,7.8c1.7,2.5,5.7,1.9,7.4-0.3
		C76.9,136.9,76.1,133.2,73.4,132.1z"/>
	<path fill="#424243" d="M92.5,150.5c-3.5-0.3-7.6-1.2-11.1-0.4c-1.8,0.4-4.9,1.3-5.3,3.4c-0.4,2.1,1.6,3.2,3.3,3.9
		c3.7,1.5,8,1.9,11.8,2.8c1.1,0.2,1.5-1.4,0.5-1.7c-2.3-0.5-4.6-1-7-1.5c-1.7-0.4-7.7-0.9-6.1-4c0.4-0.7,2.5-1.1,3.2-1.3
		c1.3-0.2,2.6-0.1,3.9,0c2.2,0.2,4.5,0.3,6.7,0.5C93.6,152.3,93.6,150.6,92.5,150.5z"/>
	<path fill="#424243" d="M129.8,176.4c-3.1,4-12.2,3.6-16.7,3.9c-5.8,0.3-11.4-0.2-16.9-2.2c-1-0.4-1.5,1.3-0.5,1.7
		c6.6,2.5,13.4,2.7,20.4,2.1c4.6-0.4,11.7-0.2,14.8-4.2C131.7,176.8,130.5,175.5,129.8,176.4z"/>
	<path id="XMLID_1_" fill="#424243" d="M226.7,106.2c-9.3-2.1-18.6-3.9-28-5.6c3.5-18.3,3.7-37.2-7.6-53.2
		c-10.4-14.8-29.9-22-47.5-25.6c0.5-7.8-21.3-11.5-22.2,0.4C92.7,27,70.3,49.1,60.8,76.4c-1.3,3.8-2.4,7.7-3.2,11.6
		c-0.5,2.4-1.6,5.8-0.3,8.2c0.9,1.6,2.5,2.3,4.2,2.7c-0.6,6.7-1.8,16.1-2.9,26c-5.7-3.2-11.9,1.6-12.8,7.7
		c-0.6,3.7,0.6,7.7,2.9,10.6c2.2,2.7,4.5,3.5,7.7,3.3c-0.5,6.7-0.9,12.8-0.7,17.6c0.3,12.5,3.9,24.7,15.3,31.4
		c6.6,3.9,14.3,6.3,21.6,8.6c4.7,1.5,9.5,2.8,14.4,4.1c0,0-0.1,0.1-0.1,0.1c-1.5,3.6-2.1,7.2-1.8,11.1c0,0.3,0.1,0.6,0.4,0.7
		c3.9,1.7,8.7,2.4,12.5-0.1c1.5-1,2.7-2.4,3.4-4c4.9-0.5,9.8-1.1,14.8-1.5c6.7-0.5,10.8,2.1,15.9,6c8.8,6.7,17.6,13.3,26.4,20
		c-3.5,7-9.5,11.7-16.3,15c-0.3,0-0.6,0.1-0.7,0.4c-2.5,1.2-5,2.1-7.6,3c-2.4,0.8-4.9,1.5-7.4,2.2c-4.5,1.3-4.1-2.3-4.3-5.8
		c-0.4-6.2-0.8-12.4-1.2-18.6c-0.1-1.1-1.8-1.1-1.7,0c0.3,4.5,0.6,9,0.8,13.6c0.2,3.3-0.2,7.8,0.7,11c0.9,2.9,3.5,2.6,6.1,1.8
		c0.4,10.1,0.9,20.1,2.9,30c2,9.7,4.9,19.2,7.5,28.7c-2.9-1.5-6.1-2.2-9.4-1.6c-5.2,0.9-9.4,4.9-10.3,10.1c-0.1,0.4,0.1,0.7,0.4,1
		c0.3,0.2,0.6,0.4,1,0.6c-3,2.2-8.3,5.5-8.4,9.7c0,3.1,2.6,4.2,5.2,4.7c-1.1,3.3-1.3,7.1,1.3,9.7c1.7,1.6,3.9,2.2,6,1.7
		c-0.4,1.9-0.3,3.5,0.4,4.7c-14.7,0.9-29.6,2.2-44.3,1.5c-5.8-0.3-45.9-5.6-39.5-15.9c0,0,0,0,0,0c1.2,0,2.4-0.1,3.3-0.3
		c3.4-0.7,2.7-4,4.3-6.4c0.2-0.3,0.1-0.8-0.1-1c-1.3-1.1,0.8-4.3,0.8-5.7c0-1.2-0.5-2.2-1.1-3.2c1.9-1.7,2.6-3.7,2.4-6.5
		c-0.2-2.8,0.9-5.5,0.3-8.3c-0.7-3.7-3-5.4-5.9-5.9c0-0.3,0-0.5,0-0.8c0.1-0.1,0.2-0.2,0.2-0.4c2.1-9.1,4.1-18.3,6.5-27.4
		c2.3-8.4,5.4-16.6,6.7-25.3c0.2,0.1,0.4,0.2,0.6,0.3c0.9,0.4,1.7-0.6,1-1.3c-0.3-0.3-0.5-0.6-0.8-0.9c-0.3-0.4-0.8-0.3-1.1-0.1
		c-4.9-2.6-9.1-6.4-12-11.3c-1.4-2.4-3.6-6.2-3.6-9.2c0-4.1,5.2-5.5,8-7.3c5.1-3.3,9.8-7,14.3-11.1c3-2.8,6.1-7.9,11.1-6.1
		c3.1,1.1,6.6,4.7,9.3,6.6c0.9,0.6,1.8-0.8,0.9-1.5c-3.3-2.4-7.3-6.4-11.2-7.6c-2.7-0.9-4.6,0.9-6.5,2.7
		c-7.1,6.9-14.5,13.2-23.1,18.2c-2,1.1-4.4,1.8-4.7,4.3c-0.2,1.3,0.2,2.9,0.7,4.4c-0.1,0.1-0.1,0.1-0.2,0.2
		c-4.7,8.3-10.6,15.8-16.9,23c-2.9,3.4-5.9,6.7-8.8,10c-2.5,2.8-6.5,6.1-7.8,9.8c-1.1,3-0.2,7.7,0.1,10.8c0.4,4,1.5,7.8,3,11.6
		c3.5,8.4,7.9,16.4,12.9,23.9c0.6,0.9,2.1,0.1,1.5-0.9c-4.6-6.9-8.6-14.2-12-21.8c-2-4.5-3.3-8.8-3.8-13.7c-0.2-2.1-0.4-4.3-0.3-6.4
		c0.2-3.7,1.9-5.6,4.2-8.3c10.1-11.8,21-22.9,28.9-36.4c0.4,1,0.8,1.9,1.2,2.6c2.5,5.4,6.5,9.8,11.3,13c-10.5,10.5-21,21-31.5,31.4
		c-0.3,0.3-0.3,0.7-0.1,1c3.9,8.5,8.8,16.5,14.5,23.9c-0.3,0.1-0.7,0.2-1,0.2c-1.1,0.3-0.6,1.9,0.5,1.7c2.1-0.6,4.7-0.9,6.9-0.7
		c0.1,0,0.2,0,0.3,0c2.9,0.4,5.2,2.1,5.3,6.2c0,1.2-0.3,2.2-0.6,3.2c-0.1,0-0.2-0.1-0.3-0.1c-0.2,0-0.3,0.1-0.4,0.1
		c-1.5-0.9-3.1-1.6-4.8-2c-1.1-0.2-1.5,1.4-0.5,1.7c1.9,0.4,3.6,1.2,5.2,2.4c0.2,0.1,0.3,0.1,0.5,0.1c0.2,2.6,1.8,3.6-2,6.5
		c-0.2,0.1-0.3,0.3-0.4,0.5c0-0.3-0.2-0.6-0.6-0.7c-2.6-0.6-5.1-1.4-7.6-2.2c-1-0.4-1.5,1.3-0.5,1.7c2.5,0.9,5.1,1.6,7.6,2.2
		c0.5,0.1,0.9-0.2,1-0.6c0,0.1,0,0.2,0.1,0.3c1.5,2.2,0.4,4.1-0.1,6.3c-0.1,0.5-0.1,0.9,0,1.3c-3.5-1.1-7-2.2-10.5-3.2
		c-1.1-0.3-1.5,1.3-0.5,1.7c3.7,1.1,7.4,2.3,11.1,3.4c0,0,0,0,0,0c-0.1,2.8-1.9,4.9-5.2,4.7c-4.8-0.2-11,0.3-13.1-5.1
		c-1.9-4.8-1.1-11.3-0.6-16.3c0.1-1.1-1.6-1.1-1.7,0c-0.8,7.2-2.5,19.9,6.7,22.3c1.8,0.5,4.2,0.9,6.5,1c-3,5.8,2.7,7.9,7.8,10.3
		c7.4,3.4,15.3,5.4,23.3,6.5c18.2,2.5,36.9,0.5,55.2-0.6c0.3,0,0.5-0.1,0.6-0.3c1,0.8,2.5,1.1,4.4,0.8c-0.2,3.1,2.1,5.1,5,5.8
		c-1.1,9.5-4.2,18.7-4.6,28.2c-0.5,9.7,3.2,17.1,7.7,25.4c5,9.2,8.7,18.7,12.2,28.6c1.5,4.2,3.1,8.3,5.1,12.3
		c2.4,4.8,5.2,9.3,6.8,14.5c0.3,1.1,2,0.6,1.7-0.5c-2.7-8.9-8.2-16.6-11.4-25.3c-3.2-9-6.3-17.8-10.6-26.3
		c-4.8-9.4-10.2-17.7-9.6-28.8c0.5-9.4,3.4-18.6,4.6-27.9c1.5,0.1,2.9-0.1,4.2-0.6c3.5-1.5,6.5-4.8,9.2-7.3c3.3-3,7.1-6.2,9.6-10
		c2.7-4.2,0.5-8.2,1.7-12.6c1.4-5.3,5.4-9.3,9.2-13.1c7.1-7.3,17.1-25.2,17-25.4c1-5,4-9.1,3.2-14.4c-0.8-4.9-3.9-9-7-12.7
		c-8.2-9.7-17.3-18.5-26.3-27.4c1.6-1.9,3-4,4.1-6.4c0.2-0.5,0.1-0.9-0.3-1.2c-9.9-7.5-19.7-15.1-29.6-22.4
		c-1.9-1.4-3.7-2.5-5.7-3.3c10.5-2.8,15.9-14.4,21.3-22.7c2.9-4.4,7.2-12.8,10.9-22.1c0.1,0.1,0.2,0.1,0.4,0.1
		c10.8,1,20.6-6.6,21.3-17.6c0.3-4.3-0.9-9.5-4.8-11.9c-1.6-1-3.5-1.2-5.3-1c2-8.6,4-17.2,6-25.8c0-0.1,0-0.1,0-0.1
		c0.1,0,0.2,0.1,0.3,0.1c8.4,1.8,16.9,2.4,25.5,2.3c4.5,0,9-0.2,13.5-0.4c1.5-0.1,4,0.3,4.5-1.5
		C239.8,108.3,228.9,106.7,226.7,106.2z M61.9,310.4c-1.3-0.1-2.7,0-4.1,0.2c0,0,0-0.1,0-0.1c-0.3-0.4-0.5-0.7-0.8-1.1c0,0,0,0,0,0
		c0.7-1.1,1.8-2.6,3.4-2.1C61.7,307.9,62,309.2,61.9,310.4z M62.6,307c-0.4-0.5-0.9-0.9-1.6-1.2c-2.2-0.9-3.9,0.5-5.1,2.2
		c-2.9-4-5.7-8.1-8.1-12.4c-1.2-2.2-3.3-5-3.8-7.4c-0.6-2.8,2.9-5,4.8-6.9c8.6-8.6,17.3-17.2,25.9-25.8c0.3,0.2,0.6,0.3,0.8,0.4
		c0,0.1,0,0.1-0.1,0.2c-1.2,8.8-4.4,17-6.7,25.5C66.5,290.1,64.6,298.6,62.6,307z M151.7,294.2c-2.3-10.4-2.8-21.1-3.2-31.7
		c0.7-0.3,1.4-0.5,2-0.7c3.8-1.1,7.7-2.5,11.4-4.2c5.2,5.4,10.4,10.8,15.5,16.2c2.3,2.4,4.6,4.8,6.9,7.2c1.1,1.1,4.1,3.3,4.6,4.8
		c0.9,2.9-0.7,5.4-2.4,7.3c-8.9,10.2-17,20.9-24.4,32.2c-0.8-0.8-1.7-1.5-2.6-2.1C156.8,313.5,153.8,303.9,151.7,294.2z M197,270.9
		c3.7,4.1,8.2,8.5,10.1,13.9c2.2,6.1-2.5,16.6-2.5,16.6s-7.7,14.7-13,20.8c-4.1,4.8-9.4,8.7-12,14.6c-1.1,2.4-1.6,4.8-1.5,7.4
		c0.1,2.9,0.7,5-1.1,7.8c-1,1.6-2.4,3-3.7,4.3c-2.5,2.6-5.2,5-7.9,7.4c-1.6,1.4-3.3,3.2-5.2,4.3c-1.1,0.7-3,1.1-4.9,1
		c-0.2-0.1-0.5-0.2-0.8-0.1c-2.6-0.3-4.7-1.8-3.8-5.1c0.2-0.6-0.4-1.2-1.1-1.1c-3,1.3-4.7,0-5.3-4.1c0.2-0.8,0.4-1.5,0.7-2.2
		c0.2-0.7-0.6-1.3-1.3-1c-3.2,2-5.9-0.3-6.8-3.3c-0.7-2.3-0.2-4.2,0.7-6.3c0.2-0.4-0.2-1-0.6-1.1c-3.8-0.6-5.3-4.3-2.5-7.2
		c1.6-1.6,3.5-3,5.3-4.3c0.2-0.1,0.3-0.3,0.3-0.5c0.2,0.1,0.4,0.3,0.6,0.4c-1.2,0.9-2.4,1.9-3.5,3c-0.8,0.8,0.4,2,1.2,1.2
		c1.2-1.2,2.5-2.3,3.8-3.2l0,0c0.7,0.4,1.3-0.2,1.2-0.8c0.8-0.5,1.6-1,2.5-1.4c1-0.5,0.1-1.9-0.9-1.5c-1,0.5-2,1-2.9,1.6
		c-1.9-1.1-3.5-2-2.3-4.5c1.3-2.5,3.8-4.6,6.5-5.4c4-1.2,8-0.2,11.4,1.9c0.1,0.3,0.4,0.5,0.7,0.5c1.1,0.7,2,1.6,2.9,2.5
		c0.4,0.4,1,0.3,1.3-0.2c4.9-7.5,10.1-14.7,15.6-21.7c2.6-3.3,5.3-6.6,8.1-9.8c1.6-1.9,4.2-3.9,4.9-6.3c0.6-2-0.2-3.1-1.5-4.7
		c-2.7-3.4-6.2-6.4-9.2-9.6c-5.8-6.1-11.6-12.1-17.4-18.2c4.3-2.2,8.3-4.8,11.5-8.3C182.5,255.8,190,263.1,197,270.9z M50.3,142.2
		c-1.8-2.1-2.9-4.9-2.8-7.7c0.1-5.6,5.4-11.5,11-7.7c-0.6,5.8-1.2,11.7-1.7,17.3C56.4,144.2,53.6,146.1,50.3,142.2z M120.2,214.5
		c-0.5,0.2-0.6,0.8-0.5,1.2c-1.7,3.2-6,4.7-9.7,4.1c-1-0.2-2.7-0.4-3.2-1.4c-0.4-0.6,0-2.4,0.1-3c0.2-2.3,0.9-4.5,1.7-6.6
		c0-0.1,0-0.1,0-0.2c3.3,0.8,6.6,1.6,10,2.3c0.6,0.1,1.1,0.2,1.7,0.3c0,0.1,0,0.1,0,0.2C120.6,212.5,120.5,213.6,120.2,214.5z
		 M121.9,214.3c0.2-0.9,0.2-1.8,0.1-2.8c3.1,0.6,6.2,1.2,9.4,1.7C128.3,213.5,125.1,213.9,121.9,214.3z M195.1,143.2
		c2.4,3.3,2.3,8,1.2,11.8c-2.4,8.4-10.4,13.2-18.9,12.4c0.4-1.2,0.7-2.4,1.1-3.6c0.3-1.1-1.3-1.5-1.7-0.5
		c-2.4,7.7-7.3,15.3-10.6,22.6c-3.7,8-13.8,25.5-24.6,26.6c0,0-0.1,0-0.1,0c-7-0.4-14.1-1.9-21-3.2c-15.2-3-31.1-6.9-45.1-13.5
		c-13.3-6.3-17.9-18.4-18-32.5c-0.1-4.7,1-18.9,0.9-18.9c0.9-10.8,2.3-22.7,3.4-32.7c0,0,0,0,0.1,0c2.6-2.3,5.2-4.1,8.7-4.8
		c3.4-0.6,7.4,1.4,9.4,4.4c0.6,0.9,2.1,0.1,1.5-0.9c-1.9-2.8-5.9-5.6-9.4-5.7c-3.5-0.2-7.1,2.3-9.9,4.6c0.4-3.7,0.8-7.1,1.1-10
		c4.6,1.2,9.3,2.2,14,3.1c18.1,3.3,36.6,4.5,55,5.4c12.4,0.6,25.2,0.5,37.8,1.4c0,0.1,0,0.1,0,0.2c2.1,12.4,3.5,24.9,3.5,37.5
		c0,0.7,0.9,1.1,1.5,0.6c1.5-1.5,3.1-2.9,4.8-4c0.2,0.4,0.7,0.6,1.1,0.3C185,140.9,191.5,138.1,195.1,143.2z M234.6,112.9
		c-0.7,0.9-8.2,0.4-9.6,0.4c-3.2,0.1-6.4,0.1-9.6,0.1c-6.2-0.1-12.3-0.7-18.3-1.9c-0.1-0.1-0.2-0.3-0.5-0.3
		c-15.4-3.6-31.7-3.7-47.5-4.4c-16.5-0.7-33-1.2-49.4-2.9c-8.8-0.9-17.5-2.1-26.1-3.9c-3.7-0.7-8.4-1.1-11.8-2.7
		c-5.1-2.4-2.8-8.6-1.7-12.9C64,69.8,71.1,56.1,81.5,45.4c12-12.5,28.2-20.6,45.5-22.1c1.1-0.1,1.1-1.8,0-1.7
		c-1.3,0.1-2.6,0.3-3.9,0.4c0.6-5.1,6.5-6.1,10.7-5.4c2.4,0.4,8.5,1.4,8.1,4.9c-1.5-0.3-3-0.6-4.5-0.8c-1.1-0.2-1.5,1.5-0.5,1.7
		c1.4,0.2,2.9,0.5,4.4,0.8c-0.3,0.9,1,1.6,1.5,0.7c0.1-0.1,0.1-0.2,0.2-0.3c17.1,3.5,36.4,10.4,46.5,24.8
		c12.6,17.9,10.5,39.5,5.7,59.6c-0.3,1.1,1.4,1.5,1.7,0.5c0.4-1.6,0.7-3.3,1.1-4.9c0.2-0.9,0.1-1.1,0.9-0.8
		c-0.2-0.1,16.8,2.9,18.4,3.2c3.2,0.7,6.4,1.4,9.6,2.1C228.6,108.4,237.3,109.5,234.6,112.9z"/>
	<path fill="#424243" d="M53.2,313.8c-1.5,1-2.7,2.3-3.5,4c-0.5,1,1,1.8,1.5,0.9c0.7-1.4,1.7-2.5,2.9-3.4
		C55,314.7,54.1,313.2,53.2,313.8z"/>
	<path fill="#424243" d="M209.6,530c-1.2-4.6-2.7-9.4-6-13c-2.3-2.5-5.2-3.9-8.3-4.8c3.8-3.5-1-10.4-4.2-13c2.2-3.5,3.1-8,1.8-11.5
		c-2.4-6.7-10.2-7.7-16.2-7.1c-0.2,0-0.4,0.1-0.5,0.3c-0.2-0.1-0.3-0.1-0.5-0.1c-3,0.5-6.9,1.8-9.8,4c-10.8-21-21.9-41.8-31.4-63.4
		c-4.2-9.6-8.6-19.2-15-27.5c-1.9-2.5-3.6-5.5-7.1-5.6c-3.3-0.1-6.4,1.7-8.7,4.1c-0.1,0.1-0.2,0.1-0.2,0.2c-0.2,0.2-0.4,0.4-0.5,0.6
		c-0.3,0.3-0.3,0.7-0.1,1c-6.4,16.6-17.5,30.9-23.2,47.8c-5.2,15.6-6.3,32.6-1.1,48.3c1,4.6,0.6,9.7-3.7,12.5
		c-4,2.6-9.5,2.1-13.9,0.7c0,0,0,0-0.1,0c-0.3-4.3-2.2-10.8-5.7-13.4c-0.6-0.5-1.3-0.8-2.1-1c0.1-0.1,0.1-0.3,0.1-0.5
		c-0.4-11.8-2.2-23.5-2.8-35.3c-0.5-11.7,5.1-23.7,9.6-34.3c2.1-4.8,4.3-9.6,6.7-14.2c2-3.9,3.9-7.7,3.6-12.2
		c-0.3-4.8-1.6-9.7-2.3-14.5c-0.9-6.3-1.6-12.5-2.1-18.8c-0.1-1.1-1.8-1.1-1.7,0c0.4,5.4,0.9,10.7,1.7,16c0.7,5.5,2.2,11.1,2.7,16.6
		c0.5,6.2-3.2,11.6-5.8,17c-2.2,4.6-4.2,9.2-6.2,13.9c-3.8,9.3-8.3,19.5-8,29.8c0.4,12.1,2.4,24,2.8,36.1c0,0.1,0,0.1,0,0.2
		c-2.7-0.2-5.5,0.9-7.4,2.6c-3.3,2.8-4.9,7.4-4.1,11.7c0.4,2,1.2,3.8,2.8,5.1c0.7,0.6,1.5,1.2,2.4,1.8c-9.1,1-19.5,2.2-26.4,8.8
		c-1.4,1.3-2.4,2.9-3.1,4.5c-0.5,0.1-0.9,0.7-0.6,1.2c0,0.1,0.1,0.1,0.1,0.1c-1.2,4.5,0.1,9.5,3.5,13.3c5.9,6.6,15.7,7.2,23.9,6
		c5.9-0.8,11.7-2.4,17.7-3.3c6.8-1,13.6-1.2,20.4-1c1.1-0.6,2.3-1.1,3.4-1.7c0.3-0.1,0.5-0.2,0.8-0.3c1.4-0.6,2.5-1.5,3.4-2.7
		c0-0.1,0.1-0.1,0.1-0.2c1.1-1.2,1.7-2.7,2-4.3c0.8-3.9,0.8-8.6-1.6-12c-0.5-0.7-1.1-1.2-1.7-1.8c-1-0.5-1.6-1.3-2-2.4
		c0.1-0.5,0.3-1.1,0.4-1.6c0.2-3,1.5-5.4,1-8.5c-0.5-3.4-2.7-6.3-6-7.3c0.4-2.2,0.3-4.4-0.1-6.6c0-0.1,0-0.1,0-0.2
		c0-0.1,0-0.1-0.1-0.2c-0.2-0.8-0.4-1.5-0.6-2.3c0-0.1-0.1-0.2-0.2-0.3c-4.5-15.7-2.8-32.4,2.8-47.6c3.1-8.3,7.6-15.7,12-23.3
		c4.2-7.3,7.8-14.9,10.7-22.7c1.4-1.5,3.2-2.8,5.2-3.2c4.5-0.9,6.5,2.6,8.7,5.5c2.7,3.6,5,7.5,7.1,11.5c4.2,7.8,7.5,16,11.1,24.1
		c8.3,18.5,18.2,36.3,27.4,54.3c0,0.1,0.1,0.1,0.2,0.2c-1.1,1.1-1.9,2.4-2.3,4c-1.1,4.7-0.1,10.4,3.4,13.8c-0.1,0.1-0.2,0.3-0.2,0.6
		c0.3,2.6-1.9,4.9-1.7,7.8c0.2,2.5,1.4,4.8,2.6,7c0.5-0.1,0.9-0.2,1.4-0.3c-4,7-4.6,15.6,0,22.7c6.2,9.7,18.2,10.5,28.7,9.1
		c4.7-0.6,9.6-2.2,12.5-6.2C212.1,540,210.9,534.9,209.6,530z M42.1,512.1c-0.1,1.5-0.4,2.9-1,4.2c0,0,0,0,0-0.1
		c-1.4-1.1-2.8-2.3-4.2-3.4C38.7,512.6,40.4,512.3,42.1,512.1z M20,520.1c2.3-2.2,5.1-3.8,8-4.9c0,0.1,0,0.2,0,0.3
		c1.1,4.3,2.6,8.3,4.5,12.2c-5.4,1-11.9,1.6-15.5-3.3C17.7,522.9,18.6,521.5,20,520.1z M87.4,532.8c-0.6,0.8-1.3,1.4-2.1,1.9
		c-0.6,0.7-1.2,1.3-1.9,1.9c-0.1,0-0.1,0.1-0.2,0.1c-0.3,0.1-0.4,0.2-0.5,0.4c-0.7,0.4-1.5,0.8-2.3,0.9c-0.1,0.1-0.1,0.1-0.2,0.2
		c-5.1-0.2-10.1,0-15.2,0.5c0.6-4.4-0.6-8.5-2.8-12.4c-1.4-2.5-3.1-4.8-4.8-7.1c-1.5-1.9-8.1-7.8-0.5-8.5c2.4-0.2,5.9,2,7.9,3.1
		c2.2,1.2,4.4,2.5,6.6,3.8c3.8,2.1,7.6,3.6,12,3.7c0.2,0,0.3,0,0.4-0.1c1.2-0.1,2.4-0.6,3.3-1.5C89.7,523.4,90,529,87.4,532.8z
		 M80,498.6c7,2,4,10.2,3.4,15.3c-0.3,2.1,0.2,2.4,1.8,3.7c0.3,0.2,0.6,0.5,0.8,0.7c0,0,0,0-0.1,0c-0.9,0.8-2,1.3-3.2,1.1
		c-0.1,0-0.1,0-0.1,0c-6.3-0.5-11.4-4.2-16.9-7.2c-3.2-1.7-8.6-4.8-12.3-3.1c-3.7,1.7-1.8,5.3,0,7.7c4.9,6.1,11.3,13.4,9.9,21.8
		c0,0,0,0,0,0.1c-2.5,0.3-5,0.6-7.5,1c-9,1.6-18.6,4.8-27.7,2c-6.8-2.1-12.6-8.8-11.5-15.4c4.4,4.7,11.5,3.9,17.5,2.8
		c0.6-0.1,0.7-0.8,0.5-1.3c-2.1-4.1-3.8-8.4-4.9-12.9c0-0.2-0.1-0.3-0.2-0.4c1.7-0.5,3.4-1,5.1-1.3c-0.6,2.1-1.7,4-3.2,5.7
		c-0.7,0.8,0.5,2,1.2,1.2c1.5-1.7,2.7-3.6,3.4-5.8c1.3,1,2.6,2.1,3.8,3.1c0.2,0.2,0.4,0.2,0.7,0.2c-0.1,0.2-0.1,0.3-0.2,0.5
		c-0.5,1,1,1.8,1.5,0.9c1-1.8,1.6-3.6,1.9-5.6c2.2,1.3,4.4,2.6,6.7,4c0.9,0.6,1.8-0.9,0.9-1.5c-2.3-1.3-4.5-2.7-6.8-4
		c0.4,0,0.8-0.1,1.2-0.1c0.5-0.1,0.8-0.5,0.8-0.9c0.9,0.5,1.7,0.8,2.5,0.9c0.5,0.1,1-0.6,0.8-1.1c0-0.1,0-0.1-0.1-0.2
		c-0.1-0.4-0.6-0.8-1.1-0.6c0,0-0.1,0-0.1,0.1c0,0,0,0,0,0c-3.2-0.7-6.5-5.1-6.9-7.7c-0.4-3.4,0.8-6.9,3.3-9.3
		c3.1-2.9,7.6-3.5,10.5,0c2.3,2.7,3.7,7.7,3.8,11.1c0,0.6,0.5,0.8,0.9,0.8c0.1,0.1,0.2,0.2,0.4,0.3c5.2,1.7,12,2.1,16.4-1.8
		C78.5,502,79.5,500.4,80,498.6z M164.7,489.4c1.9-4.3,7.1-6.1,11.5-6.9c0.2,0,0.3-0.1,0.4-0.2c0.1,0,0.2,0,0.3,0
		c5-0.5,12.1-0.1,14.3,5.4c1.9,4.6-0.7,11.9-5.2,14.3c-0.5,0.3-0.5,0.8-0.3,1.2c-0.1,0-0.1,0-0.2,0.1c-0.4,0.2-0.7,0.4-1,0.6
		c-0.2-0.4-0.6-0.6-1.1-0.3l-5.1,3.8c-0.5,0-0.9-0.1-1.4-0.1c-0.3,0-0.5,0.1-0.7,0.2c-0.1-0.3-0.4-0.6-0.8-0.6
		c-3.3,0-6.3,0.7-9.3,1.9c0.5-1.3,1.2-2.4,1.2-3.8c0.7,0,1.2-1.1,0.4-1.6C163.7,500.4,162.7,493.8,164.7,489.4z M180.8,507.6
		c0.9-0.7,1.7-1.3,2.6-2c0,0.3-0.1,0.6,0,0.9c0.1,0.4,0.2,0.8,0.4,1.1C182.9,507.8,181.9,507.7,180.8,507.6z M182.3,509.4
		c-0.9,0.6-1.8,1.2-2.7,1.8c-1.1-0.1-2.1-0.1-3.2-0.3c0.8-0.6,1.6-1.2,2.4-1.8C180,509.3,181.1,509.4,182.3,509.4z M165.6,510.6
		c0.2,0.1,0.4,0.1,0.6,0c2.6-1.1,5.3-1.7,8.1-1.9c-0.6,2.1-1.7,3.9-3.1,5.5c-0.1,0-0.1,0.1-0.2,0.1c-0.1,0.1-0.2,0.3-0.4,0.4
		c-0.5,0.5-1.1,1.1-1.8,1.5c-0.4,0.3-0.4,0.8-0.3,1.2c-0.1,0.1-0.2,0.3-0.3,0.4c-0.1,0-0.2,0.1-0.4,0.2c0,0-0.1,0.1-0.1,0.1
		C166.6,515.9,165.2,513.3,165.6,510.6z M208.1,542.5c-2.8,4.9-8.9,6.2-14.1,6.6c-9.2,0.7-19.2,0-24.7-8.5
		c-5.1-7.9-3.4-17.9,2.6-24.7c1-1,1.9-2.2,2.6-3.5c0.1,0,0.2,0.1,0.3,0.1c0.9,0.1,1.8,0.2,2.7,0.3c-1.3,1-2.6,2.1-3.9,3.2
		c-0.6,0.5-0.1,1.3,0.5,1.4c-0.9,0.3-1.8,0.5-2.7,0.8c-0.5,0.2-0.7,0.7-0.6,1.1c-2.1,4.3-5.4,12.7-0.8,16.6c4.7,4,14.6,0.8,19.9-0.2
		c4.1-0.8,8.8-1,12.6-2.5c2-0.7,2.5-1.8,2.3-3.9c-0.5-4.8-4.1-8.8-8.3-11.2c0.1-0.3,0.1-0.7-0.4-0.9c-7-3.2-14.3-2-21.3,0
		c1.7-1.5,3.4-2.9,5.2-4.2c2.3,0.1,4.6,0.1,7,0c0.9-0.1,1.2-1.5,0.2-1.7c-0.1,0-0.2,0-0.3-0.1c-0.2,0-0.3,0-0.5,0
		c-1.4,0.1-2.7,0.1-4.1,0.1c0.7-0.4,1.3-0.9,2-1.3c0.2,0,0.4,0,0.6-0.2c0.2-0.2,0.3-0.3,0.5-0.5c2,1.2,5,1.5,6.9,1.7
		c1.1,0.1,1.1-1.6,0-1.7c-1.8-0.2-6.6-0.6-7.2-2.8c-0.8-2.8,5.4-1.6,6.8-1.9c1.1-0.2,0.6-1.8-0.5-1.7c-1.3,0.2-2.6,0-3.8,0
		c0.9-0.6,1.7-1.4,2.4-2.3c2.6,2.3,7.7,8.6,3,11c-1.3-0.3-2.6-0.6-3.9-0.8c-1.1-0.2-1.5,1.4-0.5,1.7c0.7,0.1,1.3,0.3,2,0.4
		c0,0,0.1,0.1,0.1,0.1c0.7,0.4,1.4,0.9,2,1.4c0.6-0.2,1.2-0.4,1.7-0.5c2.1,0.6,4.1,1.5,5.9,2.9c3.4,2.7,5.2,6.7,6.4,10.7
		C208.5,532,210.7,538,208.1,542.5z M193.1,517.9c0,0.3,0.2,0.6,0.6,0.7c4.1,1.6,10.4,6.7,8.5,11.5c-0.8,2.1-1,1.8-2.9,2.1
		c-1,0.2-2,0.4-3,0.6c-2.3,0.4-4.5,0.9-6.8,1.3c-4.3,0.8-9.1,2.2-13.5,1.7c-1.8-0.2-4.9-1.3-5.9-2.9c-0.7-1.2-0.4-3.6-0.3-4.9
		c0.3-2.8,1.3-5.3,2.6-7.8c0.1-0.2,0.1-0.3,0.1-0.4C179.2,517.7,186.3,515.7,193.1,517.9z"/>
	<path fill="#424243" d="M114.5,91.4c-1.9-6.1-3.7-12.3-5.2-18.5c-1.2-5.3-2.6-10.3-5.5-15c0-0.1-0.1-0.1-0.1-0.1
		c-0.1-0.4-0.3-0.7-0.8-0.7c-0.9,0-1.8-0.1-2.6-0.3c0,0,0,0,0,0c-0.4-0.2-0.9-0.3-1.3,0.2C92,66,85.2,75.3,79.7,85.4
		c-0.2,0.5,0,1.1,0.5,1.3c2.8,0.6,5.7,1.2,8.5,1.8c0.6,0.1,1-0.3,1.1-0.8c0,0,0,0,0.1,0c1.9-2.2,3.7-4.5,5.5-6.8
		c0.7-0.9,1.5-1.8,2.2-2.8c0.3,2.3,0.5,4.5,0.7,6.8c0.1,2,0.4,3.6,1.3,5.4c0,0,0,0.1,0.1,0.1c0,0.4,0.3,0.8,0.8,0.8
		c3.2,0.2,6.3,0.7,9.5,1.4c0.1,0,0.3,0,0.4,0h3.3c0.2,0,0.3,0,0.4-0.1C114.3,92.3,114.7,91.9,114.5,91.4z M101,89.4
		c-1.2-2.4-1.1-5-1.3-7.6c-0.2-2.1-0.5-4.2-0.8-6.3c0-0.1-0.1-0.2-0.1-0.3c0.1-1-1.4-1.3-1.7-0.3c-0.6,2.3-2.7,4.3-4.1,6.2
		c-1.4,1.8-2.9,3.6-4.4,5.3c-0.1,0.1-0.1,0.2-0.2,0.3c-2.2-0.5-4.5-0.9-6.7-1.4C87.1,75.8,93.4,67,100,58.4c0.8,0.2,1.6,0.3,2.4,0.3
		c0,0,0,0,0,0c3.1,4.9,4.4,10.3,5.7,15.9c1.2,5.5,2.9,10.8,4.5,16.1h-2.3c0,0-0.1,0-0.1,0C107.1,90.1,104.1,89.7,101,89.4
		C101,89.4,101,89.4,101,89.4z"/>
	<path fill="#424243" d="M100.8,70.3c-0.6-1-1.2-2.1-1.9-3.1c-0.2-0.3-0.5-0.4-0.7-0.4c-0.3-0.1-0.8-0.1-1,0.3
		c-0.9,1.4-1.6,2.9-2.2,4.4c-0.2,0.4,0.2,1,0.6,1.1c1,0.2,2.1,0.3,3.2,0.3c0.8,0,1.8,0.1,2.3-0.6C101.5,71.7,101.1,71,100.8,70.3z
		 M99,71.3c-0.3,0-0.6,0-0.9,0c-0.4,0-0.8-0.1-1.2-0.1c0.3-0.7,0.7-1.4,1-2c0.1,0.2,0.3,0.5,0.4,0.7c0.2,0.4,0.7,1,0.9,1.5
		C99.3,71.3,99.2,71.3,99,71.3z"/>
</g>
</svg>
